%TF.GenerationSoftware,KiCad,Pcbnew,10.0.4*%
%TF.CreationDate,2026-08-01T23:09:09+02:00*%
%TF.ProjectId,vogelstimmen_v2.4,766f6765-6c73-4746-996d-6d656e5f7632,rev?*%
%TF.SameCoordinates,Original*%
%TF.FileFunction,Legend,Top*%
%TF.FilePolarity,Positive*%
%FSLAX46Y46*%
G04 Gerber Fmt 4.6, Leading zero omitted, Abs format (unit mm)*
G04 Created by KiCad (PCBNEW 10.0.4) date 2026-08-01 23:09:09*
%MOMM*%
%LPD*%
G01*
G04 APERTURE LIST*
G04 Aperture macros list*
%AMRoundRect*
0 Rectangle with rounded corners*
0 $1 Rounding radius*
0 $2 $3 $4 $5 $6 $7 $8 $9 X,Y pos of 4 corners*
0 Add a 4 corners polygon primitive as box body*
4,1,4,$2,$3,$4,$5,$6,$7,$8,$9,$2,$3,0*
0 Add four circle primitives for the rounded corners*
1,1,$1+$1,$2,$3*
1,1,$1+$1,$4,$5*
1,1,$1+$1,$6,$7*
1,1,$1+$1,$8,$9*
0 Add four rect primitives between the rounded corners*
20,1,$1+$1,$2,$3,$4,$5,0*
20,1,$1+$1,$4,$5,$6,$7,0*
20,1,$1+$1,$6,$7,$8,$9,0*
20,1,$1+$1,$8,$9,$2,$3,0*%
G04 Aperture macros list end*
%ADD10C,0.150000*%
%ADD11C,0.200000*%
%ADD12C,0.120000*%
%ADD13C,3.200000*%
%ADD14RoundRect,0.135000X-0.135000X-0.185000X0.135000X-0.185000X0.135000X0.185000X-0.135000X0.185000X0*%
%ADD15RoundRect,0.135000X0.185000X-0.135000X0.185000X0.135000X-0.185000X0.135000X-0.185000X-0.135000X0*%
%ADD16RoundRect,0.112500X0.112500X-0.187500X0.112500X0.187500X-0.112500X0.187500X-0.112500X-0.187500X0*%
%ADD17RoundRect,0.250000X-0.375000X-0.625000X0.375000X-0.625000X0.375000X0.625000X-0.375000X0.625000X0*%
%ADD18RoundRect,0.250000X0.650000X-1.000000X0.650000X1.000000X-0.650000X1.000000X-0.650000X-1.000000X0*%
%ADD19RoundRect,0.150000X-0.150000X0.587500X-0.150000X-0.587500X0.150000X-0.587500X0.150000X0.587500X0*%
%ADD20RoundRect,0.250000X-0.375000X-0.850000X0.375000X-0.850000X0.375000X0.850000X-0.375000X0.850000X0*%
%ADD21C,1.100000*%
%ADD22RoundRect,0.249999X-0.850001X-0.850001X0.850001X-0.850001X0.850001X0.850001X-0.850001X0.850001X0*%
%ADD23C,2.200000*%
%ADD24RoundRect,0.150000X0.150000X-0.587500X0.150000X0.587500X-0.150000X0.587500X-0.150000X-0.587500X0*%
%ADD25RoundRect,0.112500X-0.187500X-0.112500X0.187500X-0.112500X0.187500X0.112500X-0.187500X0.112500X0*%
%ADD26C,1.000000*%
%ADD27RoundRect,0.249999X0.850001X0.850001X-0.850001X0.850001X-0.850001X-0.850001X0.850001X-0.850001X0*%
%ADD28RoundRect,0.250000X-0.250000X-0.475000X0.250000X-0.475000X0.250000X0.475000X-0.250000X0.475000X0*%
%ADD29RoundRect,0.135000X-0.185000X0.135000X-0.185000X-0.135000X0.185000X-0.135000X0.185000X0.135000X0*%
%ADD30RoundRect,0.250000X0.475000X-0.250000X0.475000X0.250000X-0.475000X0.250000X-0.475000X-0.250000X0*%
%ADD31C,1.700000*%
%ADD32RoundRect,0.062500X-0.187500X-0.062500X0.187500X-0.062500X0.187500X0.062500X-0.187500X0.062500X0*%
%ADD33R,0.900000X1.600000*%
%ADD34RoundRect,0.135000X0.135000X0.185000X-0.135000X0.185000X-0.135000X-0.185000X0.135000X-0.185000X0*%
%ADD35RoundRect,0.150000X-0.587500X-0.150000X0.587500X-0.150000X0.587500X0.150000X-0.587500X0.150000X0*%
%ADD36RoundRect,0.250000X-0.475000X0.250000X-0.475000X-0.250000X0.475000X-0.250000X0.475000X0.250000X0*%
%ADD37RoundRect,0.112500X0.187500X0.112500X-0.187500X0.112500X-0.187500X-0.112500X0.187500X-0.112500X0*%
%ADD38R,2.200000X2.200000*%
%ADD39O,2.200000X2.200000*%
G04 APERTURE END LIST*
D10*
X184142856Y-78454819D02*
X184142856Y-77454819D01*
X184714284Y-78454819D02*
X184285713Y-77883390D01*
X184714284Y-77454819D02*
X184142856Y-78026247D01*
X185285713Y-78454819D02*
X185190475Y-78407200D01*
X185190475Y-78407200D02*
X185142856Y-78359580D01*
X185142856Y-78359580D02*
X185095237Y-78264342D01*
X185095237Y-78264342D02*
X185095237Y-77978628D01*
X185095237Y-77978628D02*
X185142856Y-77883390D01*
X185142856Y-77883390D02*
X185190475Y-77835771D01*
X185190475Y-77835771D02*
X185285713Y-77788152D01*
X185285713Y-77788152D02*
X185428570Y-77788152D01*
X185428570Y-77788152D02*
X185523808Y-77835771D01*
X185523808Y-77835771D02*
X185571427Y-77883390D01*
X185571427Y-77883390D02*
X185619046Y-77978628D01*
X185619046Y-77978628D02*
X185619046Y-78264342D01*
X185619046Y-78264342D02*
X185571427Y-78359580D01*
X185571427Y-78359580D02*
X185523808Y-78407200D01*
X185523808Y-78407200D02*
X185428570Y-78454819D01*
X185428570Y-78454819D02*
X185285713Y-78454819D01*
X186047618Y-77788152D02*
X186047618Y-78454819D01*
X186047618Y-77883390D02*
X186095237Y-77835771D01*
X186095237Y-77835771D02*
X186190475Y-77788152D01*
X186190475Y-77788152D02*
X186333332Y-77788152D01*
X186333332Y-77788152D02*
X186428570Y-77835771D01*
X186428570Y-77835771D02*
X186476189Y-77931009D01*
X186476189Y-77931009D02*
X186476189Y-78454819D01*
X186952380Y-78454819D02*
X186952380Y-77788152D01*
X186952380Y-77978628D02*
X186999999Y-77883390D01*
X186999999Y-77883390D02*
X187047618Y-77835771D01*
X187047618Y-77835771D02*
X187142856Y-77788152D01*
X187142856Y-77788152D02*
X187238094Y-77788152D01*
X187999999Y-78454819D02*
X187999999Y-77931009D01*
X187999999Y-77931009D02*
X187952380Y-77835771D01*
X187952380Y-77835771D02*
X187857142Y-77788152D01*
X187857142Y-77788152D02*
X187666666Y-77788152D01*
X187666666Y-77788152D02*
X187571428Y-77835771D01*
X187999999Y-78407200D02*
X187904761Y-78454819D01*
X187904761Y-78454819D02*
X187666666Y-78454819D01*
X187666666Y-78454819D02*
X187571428Y-78407200D01*
X187571428Y-78407200D02*
X187523809Y-78311961D01*
X187523809Y-78311961D02*
X187523809Y-78216723D01*
X187523809Y-78216723D02*
X187571428Y-78121485D01*
X187571428Y-78121485D02*
X187666666Y-78073866D01*
X187666666Y-78073866D02*
X187904761Y-78073866D01*
X187904761Y-78073866D02*
X187999999Y-78026247D01*
X188904761Y-78454819D02*
X188904761Y-77454819D01*
X188904761Y-78407200D02*
X188809523Y-78454819D01*
X188809523Y-78454819D02*
X188619047Y-78454819D01*
X188619047Y-78454819D02*
X188523809Y-78407200D01*
X188523809Y-78407200D02*
X188476190Y-78359580D01*
X188476190Y-78359580D02*
X188428571Y-78264342D01*
X188428571Y-78264342D02*
X188428571Y-77978628D01*
X188428571Y-77978628D02*
X188476190Y-77883390D01*
X188476190Y-77883390D02*
X188523809Y-77835771D01*
X188523809Y-77835771D02*
X188619047Y-77788152D01*
X188619047Y-77788152D02*
X188809523Y-77788152D01*
X188809523Y-77788152D02*
X188904761Y-77835771D01*
X190095238Y-78407200D02*
X190238095Y-78454819D01*
X190238095Y-78454819D02*
X190476190Y-78454819D01*
X190476190Y-78454819D02*
X190571428Y-78407200D01*
X190571428Y-78407200D02*
X190619047Y-78359580D01*
X190619047Y-78359580D02*
X190666666Y-78264342D01*
X190666666Y-78264342D02*
X190666666Y-78169104D01*
X190666666Y-78169104D02*
X190619047Y-78073866D01*
X190619047Y-78073866D02*
X190571428Y-78026247D01*
X190571428Y-78026247D02*
X190476190Y-77978628D01*
X190476190Y-77978628D02*
X190285714Y-77931009D01*
X190285714Y-77931009D02*
X190190476Y-77883390D01*
X190190476Y-77883390D02*
X190142857Y-77835771D01*
X190142857Y-77835771D02*
X190095238Y-77740533D01*
X190095238Y-77740533D02*
X190095238Y-77645295D01*
X190095238Y-77645295D02*
X190142857Y-77550057D01*
X190142857Y-77550057D02*
X190190476Y-77502438D01*
X190190476Y-77502438D02*
X190285714Y-77454819D01*
X190285714Y-77454819D02*
X190523809Y-77454819D01*
X190523809Y-77454819D02*
X190666666Y-77502438D01*
X191476190Y-78407200D02*
X191380952Y-78454819D01*
X191380952Y-78454819D02*
X191190476Y-78454819D01*
X191190476Y-78454819D02*
X191095238Y-78407200D01*
X191095238Y-78407200D02*
X191047619Y-78311961D01*
X191047619Y-78311961D02*
X191047619Y-77931009D01*
X191047619Y-77931009D02*
X191095238Y-77835771D01*
X191095238Y-77835771D02*
X191190476Y-77788152D01*
X191190476Y-77788152D02*
X191380952Y-77788152D01*
X191380952Y-77788152D02*
X191476190Y-77835771D01*
X191476190Y-77835771D02*
X191523809Y-77931009D01*
X191523809Y-77931009D02*
X191523809Y-78026247D01*
X191523809Y-78026247D02*
X191047619Y-78121485D01*
X191952381Y-77788152D02*
X191952381Y-78454819D01*
X191952381Y-77883390D02*
X192000000Y-77835771D01*
X192000000Y-77835771D02*
X192095238Y-77788152D01*
X192095238Y-77788152D02*
X192238095Y-77788152D01*
X192238095Y-77788152D02*
X192333333Y-77835771D01*
X192333333Y-77835771D02*
X192380952Y-77931009D01*
X192380952Y-77931009D02*
X192380952Y-78454819D01*
X192857143Y-77788152D02*
X192857143Y-78454819D01*
X192857143Y-77883390D02*
X192904762Y-77835771D01*
X192904762Y-77835771D02*
X193000000Y-77788152D01*
X193000000Y-77788152D02*
X193142857Y-77788152D01*
X193142857Y-77788152D02*
X193238095Y-77835771D01*
X193238095Y-77835771D02*
X193285714Y-77931009D01*
X193285714Y-77931009D02*
X193285714Y-78454819D01*
X194476191Y-77550057D02*
X194523810Y-77502438D01*
X194523810Y-77502438D02*
X194619048Y-77454819D01*
X194619048Y-77454819D02*
X194857143Y-77454819D01*
X194857143Y-77454819D02*
X194952381Y-77502438D01*
X194952381Y-77502438D02*
X195000000Y-77550057D01*
X195000000Y-77550057D02*
X195047619Y-77645295D01*
X195047619Y-77645295D02*
X195047619Y-77740533D01*
X195047619Y-77740533D02*
X195000000Y-77883390D01*
X195000000Y-77883390D02*
X194428572Y-78454819D01*
X194428572Y-78454819D02*
X195047619Y-78454819D01*
X195666667Y-77454819D02*
X195761905Y-77454819D01*
X195761905Y-77454819D02*
X195857143Y-77502438D01*
X195857143Y-77502438D02*
X195904762Y-77550057D01*
X195904762Y-77550057D02*
X195952381Y-77645295D01*
X195952381Y-77645295D02*
X196000000Y-77835771D01*
X196000000Y-77835771D02*
X196000000Y-78073866D01*
X196000000Y-78073866D02*
X195952381Y-78264342D01*
X195952381Y-78264342D02*
X195904762Y-78359580D01*
X195904762Y-78359580D02*
X195857143Y-78407200D01*
X195857143Y-78407200D02*
X195761905Y-78454819D01*
X195761905Y-78454819D02*
X195666667Y-78454819D01*
X195666667Y-78454819D02*
X195571429Y-78407200D01*
X195571429Y-78407200D02*
X195523810Y-78359580D01*
X195523810Y-78359580D02*
X195476191Y-78264342D01*
X195476191Y-78264342D02*
X195428572Y-78073866D01*
X195428572Y-78073866D02*
X195428572Y-77835771D01*
X195428572Y-77835771D02*
X195476191Y-77645295D01*
X195476191Y-77645295D02*
X195523810Y-77550057D01*
X195523810Y-77550057D02*
X195571429Y-77502438D01*
X195571429Y-77502438D02*
X195666667Y-77454819D01*
X196380953Y-77550057D02*
X196428572Y-77502438D01*
X196428572Y-77502438D02*
X196523810Y-77454819D01*
X196523810Y-77454819D02*
X196761905Y-77454819D01*
X196761905Y-77454819D02*
X196857143Y-77502438D01*
X196857143Y-77502438D02*
X196904762Y-77550057D01*
X196904762Y-77550057D02*
X196952381Y-77645295D01*
X196952381Y-77645295D02*
X196952381Y-77740533D01*
X196952381Y-77740533D02*
X196904762Y-77883390D01*
X196904762Y-77883390D02*
X196333334Y-78454819D01*
X196333334Y-78454819D02*
X196952381Y-78454819D01*
X197809524Y-77454819D02*
X197619048Y-77454819D01*
X197619048Y-77454819D02*
X197523810Y-77502438D01*
X197523810Y-77502438D02*
X197476191Y-77550057D01*
X197476191Y-77550057D02*
X197380953Y-77692914D01*
X197380953Y-77692914D02*
X197333334Y-77883390D01*
X197333334Y-77883390D02*
X197333334Y-78264342D01*
X197333334Y-78264342D02*
X197380953Y-78359580D01*
X197380953Y-78359580D02*
X197428572Y-78407200D01*
X197428572Y-78407200D02*
X197523810Y-78454819D01*
X197523810Y-78454819D02*
X197714286Y-78454819D01*
X197714286Y-78454819D02*
X197809524Y-78407200D01*
X197809524Y-78407200D02*
X197857143Y-78359580D01*
X197857143Y-78359580D02*
X197904762Y-78264342D01*
X197904762Y-78264342D02*
X197904762Y-78026247D01*
X197904762Y-78026247D02*
X197857143Y-77931009D01*
X197857143Y-77931009D02*
X197809524Y-77883390D01*
X197809524Y-77883390D02*
X197714286Y-77835771D01*
X197714286Y-77835771D02*
X197523810Y-77835771D01*
X197523810Y-77835771D02*
X197428572Y-77883390D01*
X197428572Y-77883390D02*
X197380953Y-77931009D01*
X197380953Y-77931009D02*
X197333334Y-78026247D01*
X178926191Y-76001080D02*
X178926191Y-74901080D01*
X179554763Y-76001080D02*
X179083334Y-75372509D01*
X179554763Y-74901080D02*
X178926191Y-75529652D01*
X180183334Y-76001080D02*
X180078572Y-75948700D01*
X180078572Y-75948700D02*
X180026191Y-75896319D01*
X180026191Y-75896319D02*
X179973810Y-75791557D01*
X179973810Y-75791557D02*
X179973810Y-75477271D01*
X179973810Y-75477271D02*
X180026191Y-75372509D01*
X180026191Y-75372509D02*
X180078572Y-75320128D01*
X180078572Y-75320128D02*
X180183334Y-75267747D01*
X180183334Y-75267747D02*
X180340477Y-75267747D01*
X180340477Y-75267747D02*
X180445239Y-75320128D01*
X180445239Y-75320128D02*
X180497620Y-75372509D01*
X180497620Y-75372509D02*
X180550001Y-75477271D01*
X180550001Y-75477271D02*
X180550001Y-75791557D01*
X180550001Y-75791557D02*
X180497620Y-75896319D01*
X180497620Y-75896319D02*
X180445239Y-75948700D01*
X180445239Y-75948700D02*
X180340477Y-76001080D01*
X180340477Y-76001080D02*
X180183334Y-76001080D01*
X181178572Y-76001080D02*
X181073810Y-75948700D01*
X181073810Y-75948700D02*
X181021429Y-75843938D01*
X181021429Y-75843938D02*
X181021429Y-74901080D01*
X181597619Y-75267747D02*
X181597619Y-76367747D01*
X181597619Y-75320128D02*
X181702381Y-75267747D01*
X181702381Y-75267747D02*
X181911905Y-75267747D01*
X181911905Y-75267747D02*
X182016667Y-75320128D01*
X182016667Y-75320128D02*
X182069048Y-75372509D01*
X182069048Y-75372509D02*
X182121429Y-75477271D01*
X182121429Y-75477271D02*
X182121429Y-75791557D01*
X182121429Y-75791557D02*
X182069048Y-75896319D01*
X182069048Y-75896319D02*
X182016667Y-75948700D01*
X182016667Y-75948700D02*
X181911905Y-76001080D01*
X181911905Y-76001080D02*
X181702381Y-76001080D01*
X181702381Y-76001080D02*
X181597619Y-75948700D01*
X182592857Y-76001080D02*
X182592857Y-75267747D01*
X182592857Y-74901080D02*
X182540476Y-74953461D01*
X182540476Y-74953461D02*
X182592857Y-75005842D01*
X182592857Y-75005842D02*
X182645238Y-74953461D01*
X182645238Y-74953461D02*
X182592857Y-74901080D01*
X182592857Y-74901080D02*
X182592857Y-75005842D01*
X183116667Y-75267747D02*
X183116667Y-76001080D01*
X183116667Y-75372509D02*
X183169048Y-75320128D01*
X183169048Y-75320128D02*
X183273810Y-75267747D01*
X183273810Y-75267747D02*
X183430953Y-75267747D01*
X183430953Y-75267747D02*
X183535715Y-75320128D01*
X183535715Y-75320128D02*
X183588096Y-75424890D01*
X183588096Y-75424890D02*
X183588096Y-76001080D01*
X184583334Y-75267747D02*
X184583334Y-76158223D01*
X184583334Y-76158223D02*
X184530953Y-76262985D01*
X184530953Y-76262985D02*
X184478572Y-76315366D01*
X184478572Y-76315366D02*
X184373810Y-76367747D01*
X184373810Y-76367747D02*
X184216667Y-76367747D01*
X184216667Y-76367747D02*
X184111905Y-76315366D01*
X184583334Y-75948700D02*
X184478572Y-76001080D01*
X184478572Y-76001080D02*
X184269048Y-76001080D01*
X184269048Y-76001080D02*
X184164286Y-75948700D01*
X184164286Y-75948700D02*
X184111905Y-75896319D01*
X184111905Y-75896319D02*
X184059524Y-75791557D01*
X184059524Y-75791557D02*
X184059524Y-75477271D01*
X184059524Y-75477271D02*
X184111905Y-75372509D01*
X184111905Y-75372509D02*
X184164286Y-75320128D01*
X184164286Y-75320128D02*
X184269048Y-75267747D01*
X184269048Y-75267747D02*
X184478572Y-75267747D01*
X184478572Y-75267747D02*
X184583334Y-75320128D01*
X185054762Y-75948700D02*
X185159524Y-76001080D01*
X185159524Y-76001080D02*
X185369048Y-76001080D01*
X185369048Y-76001080D02*
X185473810Y-75948700D01*
X185473810Y-75948700D02*
X185526191Y-75843938D01*
X185526191Y-75843938D02*
X185526191Y-75791557D01*
X185526191Y-75791557D02*
X185473810Y-75686795D01*
X185473810Y-75686795D02*
X185369048Y-75634414D01*
X185369048Y-75634414D02*
X185211905Y-75634414D01*
X185211905Y-75634414D02*
X185107143Y-75582033D01*
X185107143Y-75582033D02*
X185054762Y-75477271D01*
X185054762Y-75477271D02*
X185054762Y-75424890D01*
X185054762Y-75424890D02*
X185107143Y-75320128D01*
X185107143Y-75320128D02*
X185211905Y-75267747D01*
X185211905Y-75267747D02*
X185369048Y-75267747D01*
X185369048Y-75267747D02*
X185473810Y-75320128D01*
X185840476Y-75267747D02*
X186259524Y-75267747D01*
X185997619Y-76001080D02*
X185997619Y-75058223D01*
X185997619Y-75058223D02*
X186050000Y-74953461D01*
X186050000Y-74953461D02*
X186154762Y-74901080D01*
X186154762Y-74901080D02*
X186259524Y-74901080D01*
X187097619Y-76001080D02*
X187097619Y-75424890D01*
X187097619Y-75424890D02*
X187045238Y-75320128D01*
X187045238Y-75320128D02*
X186940476Y-75267747D01*
X186940476Y-75267747D02*
X186730952Y-75267747D01*
X186730952Y-75267747D02*
X186626190Y-75320128D01*
X187097619Y-75948700D02*
X186992857Y-76001080D01*
X186992857Y-76001080D02*
X186730952Y-76001080D01*
X186730952Y-76001080D02*
X186626190Y-75948700D01*
X186626190Y-75948700D02*
X186573809Y-75843938D01*
X186573809Y-75843938D02*
X186573809Y-75739176D01*
X186573809Y-75739176D02*
X186626190Y-75634414D01*
X186626190Y-75634414D02*
X186730952Y-75582033D01*
X186730952Y-75582033D02*
X186992857Y-75582033D01*
X186992857Y-75582033D02*
X187097619Y-75529652D01*
X187621428Y-76001080D02*
X187621428Y-75267747D01*
X187621428Y-75372509D02*
X187673809Y-75320128D01*
X187673809Y-75320128D02*
X187778571Y-75267747D01*
X187778571Y-75267747D02*
X187935714Y-75267747D01*
X187935714Y-75267747D02*
X188040476Y-75320128D01*
X188040476Y-75320128D02*
X188092857Y-75424890D01*
X188092857Y-75424890D02*
X188092857Y-76001080D01*
X188092857Y-75424890D02*
X188145238Y-75320128D01*
X188145238Y-75320128D02*
X188250000Y-75267747D01*
X188250000Y-75267747D02*
X188407143Y-75267747D01*
X188407143Y-75267747D02*
X188511904Y-75320128D01*
X188511904Y-75320128D02*
X188564285Y-75424890D01*
X188564285Y-75424890D02*
X188564285Y-76001080D01*
X189088095Y-76001080D02*
X189088095Y-75267747D01*
X189088095Y-74901080D02*
X189035714Y-74953461D01*
X189035714Y-74953461D02*
X189088095Y-75005842D01*
X189088095Y-75005842D02*
X189140476Y-74953461D01*
X189140476Y-74953461D02*
X189088095Y-74901080D01*
X189088095Y-74901080D02*
X189088095Y-75005842D01*
X189769048Y-76001080D02*
X189664286Y-75948700D01*
X189664286Y-75948700D02*
X189611905Y-75843938D01*
X189611905Y-75843938D02*
X189611905Y-74901080D01*
X190188095Y-76001080D02*
X190188095Y-75267747D01*
X190188095Y-74901080D02*
X190135714Y-74953461D01*
X190135714Y-74953461D02*
X190188095Y-75005842D01*
X190188095Y-75005842D02*
X190240476Y-74953461D01*
X190240476Y-74953461D02*
X190188095Y-74901080D01*
X190188095Y-74901080D02*
X190188095Y-75005842D01*
X191130953Y-75948700D02*
X191026191Y-76001080D01*
X191026191Y-76001080D02*
X190816667Y-76001080D01*
X190816667Y-76001080D02*
X190711905Y-75948700D01*
X190711905Y-75948700D02*
X190659524Y-75843938D01*
X190659524Y-75843938D02*
X190659524Y-75424890D01*
X190659524Y-75424890D02*
X190711905Y-75320128D01*
X190711905Y-75320128D02*
X190816667Y-75267747D01*
X190816667Y-75267747D02*
X191026191Y-75267747D01*
X191026191Y-75267747D02*
X191130953Y-75320128D01*
X191130953Y-75320128D02*
X191183334Y-75424890D01*
X191183334Y-75424890D02*
X191183334Y-75529652D01*
X191183334Y-75529652D02*
X190659524Y-75634414D01*
X192440476Y-75686795D02*
X192964286Y-75686795D01*
X192335714Y-76001080D02*
X192702381Y-74901080D01*
X192702381Y-74901080D02*
X193069048Y-76001080D01*
X193592857Y-76001080D02*
X193488095Y-75948700D01*
X193488095Y-75948700D02*
X193435714Y-75843938D01*
X193435714Y-75843938D02*
X193435714Y-74901080D01*
X193854761Y-75267747D02*
X194273809Y-75267747D01*
X194011904Y-74901080D02*
X194011904Y-75843938D01*
X194011904Y-75843938D02*
X194064285Y-75948700D01*
X194064285Y-75948700D02*
X194169047Y-76001080D01*
X194169047Y-76001080D02*
X194273809Y-76001080D01*
X195059523Y-75948700D02*
X194954761Y-76001080D01*
X194954761Y-76001080D02*
X194745237Y-76001080D01*
X194745237Y-76001080D02*
X194640475Y-75948700D01*
X194640475Y-75948700D02*
X194588094Y-75843938D01*
X194588094Y-75843938D02*
X194588094Y-75424890D01*
X194588094Y-75424890D02*
X194640475Y-75320128D01*
X194640475Y-75320128D02*
X194745237Y-75267747D01*
X194745237Y-75267747D02*
X194954761Y-75267747D01*
X194954761Y-75267747D02*
X195059523Y-75320128D01*
X195059523Y-75320128D02*
X195111904Y-75424890D01*
X195111904Y-75424890D02*
X195111904Y-75529652D01*
X195111904Y-75529652D02*
X194588094Y-75634414D01*
X196054761Y-75267747D02*
X196054761Y-76158223D01*
X196054761Y-76158223D02*
X196002380Y-76262985D01*
X196002380Y-76262985D02*
X195949999Y-76315366D01*
X195949999Y-76315366D02*
X195845237Y-76367747D01*
X195845237Y-76367747D02*
X195688094Y-76367747D01*
X195688094Y-76367747D02*
X195583332Y-76315366D01*
X196054761Y-75948700D02*
X195949999Y-76001080D01*
X195949999Y-76001080D02*
X195740475Y-76001080D01*
X195740475Y-76001080D02*
X195635713Y-75948700D01*
X195635713Y-75948700D02*
X195583332Y-75896319D01*
X195583332Y-75896319D02*
X195530951Y-75791557D01*
X195530951Y-75791557D02*
X195530951Y-75477271D01*
X195530951Y-75477271D02*
X195583332Y-75372509D01*
X195583332Y-75372509D02*
X195635713Y-75320128D01*
X195635713Y-75320128D02*
X195740475Y-75267747D01*
X195740475Y-75267747D02*
X195949999Y-75267747D01*
X195949999Y-75267747D02*
X196054761Y-75320128D01*
X196735713Y-76001080D02*
X196630951Y-75948700D01*
X196630951Y-75948700D02*
X196578570Y-75843938D01*
X196578570Y-75843938D02*
X196578570Y-74901080D01*
X197311903Y-76001080D02*
X197207141Y-75948700D01*
X197207141Y-75948700D02*
X197154760Y-75896319D01*
X197154760Y-75896319D02*
X197102379Y-75791557D01*
X197102379Y-75791557D02*
X197102379Y-75477271D01*
X197102379Y-75477271D02*
X197154760Y-75372509D01*
X197154760Y-75372509D02*
X197207141Y-75320128D01*
X197207141Y-75320128D02*
X197311903Y-75267747D01*
X197311903Y-75267747D02*
X197469046Y-75267747D01*
X197469046Y-75267747D02*
X197573808Y-75320128D01*
X197573808Y-75320128D02*
X197626189Y-75372509D01*
X197626189Y-75372509D02*
X197678570Y-75477271D01*
X197678570Y-75477271D02*
X197678570Y-75791557D01*
X197678570Y-75791557D02*
X197626189Y-75896319D01*
X197626189Y-75896319D02*
X197573808Y-75948700D01*
X197573808Y-75948700D02*
X197469046Y-76001080D01*
X197469046Y-76001080D02*
X197311903Y-76001080D01*
X197992855Y-75267747D02*
X198411903Y-75267747D01*
X198149998Y-76001080D02*
X198149998Y-75058223D01*
X198149998Y-75058223D02*
X198202379Y-74953461D01*
X198202379Y-74953461D02*
X198307141Y-74901080D01*
X198307141Y-74901080D02*
X198411903Y-74901080D01*
X198726188Y-75948700D02*
X198830950Y-76001080D01*
X198830950Y-76001080D02*
X199040474Y-76001080D01*
X199040474Y-76001080D02*
X199145236Y-75948700D01*
X199145236Y-75948700D02*
X199197617Y-75843938D01*
X199197617Y-75843938D02*
X199197617Y-75791557D01*
X199197617Y-75791557D02*
X199145236Y-75686795D01*
X199145236Y-75686795D02*
X199040474Y-75634414D01*
X199040474Y-75634414D02*
X198883331Y-75634414D01*
X198883331Y-75634414D02*
X198778569Y-75582033D01*
X198778569Y-75582033D02*
X198726188Y-75477271D01*
X198726188Y-75477271D02*
X198726188Y-75424890D01*
X198726188Y-75424890D02*
X198778569Y-75320128D01*
X198778569Y-75320128D02*
X198883331Y-75267747D01*
X198883331Y-75267747D02*
X199040474Y-75267747D01*
X199040474Y-75267747D02*
X199145236Y-75320128D01*
X199669045Y-76001080D02*
X199669045Y-74901080D01*
X200140474Y-76001080D02*
X200140474Y-75424890D01*
X200140474Y-75424890D02*
X200088093Y-75320128D01*
X200088093Y-75320128D02*
X199983331Y-75267747D01*
X199983331Y-75267747D02*
X199826188Y-75267747D01*
X199826188Y-75267747D02*
X199721426Y-75320128D01*
X199721426Y-75320128D02*
X199669045Y-75372509D01*
X201083331Y-75948700D02*
X200978569Y-76001080D01*
X200978569Y-76001080D02*
X200769045Y-76001080D01*
X200769045Y-76001080D02*
X200664283Y-75948700D01*
X200664283Y-75948700D02*
X200611902Y-75843938D01*
X200611902Y-75843938D02*
X200611902Y-75424890D01*
X200611902Y-75424890D02*
X200664283Y-75320128D01*
X200664283Y-75320128D02*
X200769045Y-75267747D01*
X200769045Y-75267747D02*
X200978569Y-75267747D01*
X200978569Y-75267747D02*
X201083331Y-75320128D01*
X201083331Y-75320128D02*
X201135712Y-75424890D01*
X201135712Y-75424890D02*
X201135712Y-75529652D01*
X201135712Y-75529652D02*
X200611902Y-75634414D01*
X201607140Y-76001080D02*
X201607140Y-75267747D01*
X201607140Y-74901080D02*
X201554759Y-74953461D01*
X201554759Y-74953461D02*
X201607140Y-75005842D01*
X201607140Y-75005842D02*
X201659521Y-74953461D01*
X201659521Y-74953461D02*
X201607140Y-74901080D01*
X201607140Y-74901080D02*
X201607140Y-75005842D01*
X202130950Y-76001080D02*
X202130950Y-75267747D01*
X202130950Y-75372509D02*
X202183331Y-75320128D01*
X202183331Y-75320128D02*
X202288093Y-75267747D01*
X202288093Y-75267747D02*
X202445236Y-75267747D01*
X202445236Y-75267747D02*
X202549998Y-75320128D01*
X202549998Y-75320128D02*
X202602379Y-75424890D01*
X202602379Y-75424890D02*
X202602379Y-76001080D01*
X202602379Y-75424890D02*
X202654760Y-75320128D01*
X202654760Y-75320128D02*
X202759522Y-75267747D01*
X202759522Y-75267747D02*
X202916665Y-75267747D01*
X202916665Y-75267747D02*
X203021426Y-75320128D01*
X203021426Y-75320128D02*
X203073807Y-75424890D01*
X203073807Y-75424890D02*
X203073807Y-76001080D01*
D11*
X179142860Y-73587600D02*
X179314289Y-73644742D01*
X179314289Y-73644742D02*
X179600003Y-73644742D01*
X179600003Y-73644742D02*
X179714289Y-73587600D01*
X179714289Y-73587600D02*
X179771431Y-73530457D01*
X179771431Y-73530457D02*
X179828574Y-73416171D01*
X179828574Y-73416171D02*
X179828574Y-73301885D01*
X179828574Y-73301885D02*
X179771431Y-73187600D01*
X179771431Y-73187600D02*
X179714289Y-73130457D01*
X179714289Y-73130457D02*
X179600003Y-73073314D01*
X179600003Y-73073314D02*
X179371431Y-73016171D01*
X179371431Y-73016171D02*
X179257146Y-72959028D01*
X179257146Y-72959028D02*
X179200003Y-72901885D01*
X179200003Y-72901885D02*
X179142860Y-72787600D01*
X179142860Y-72787600D02*
X179142860Y-72673314D01*
X179142860Y-72673314D02*
X179200003Y-72559028D01*
X179200003Y-72559028D02*
X179257146Y-72501885D01*
X179257146Y-72501885D02*
X179371431Y-72444742D01*
X179371431Y-72444742D02*
X179657146Y-72444742D01*
X179657146Y-72444742D02*
X179828574Y-72501885D01*
X180514288Y-73644742D02*
X180400003Y-73587600D01*
X180400003Y-73587600D02*
X180342860Y-73530457D01*
X180342860Y-73530457D02*
X180285717Y-73416171D01*
X180285717Y-73416171D02*
X180285717Y-73073314D01*
X180285717Y-73073314D02*
X180342860Y-72959028D01*
X180342860Y-72959028D02*
X180400003Y-72901885D01*
X180400003Y-72901885D02*
X180514288Y-72844742D01*
X180514288Y-72844742D02*
X180685717Y-72844742D01*
X180685717Y-72844742D02*
X180800003Y-72901885D01*
X180800003Y-72901885D02*
X180857146Y-72959028D01*
X180857146Y-72959028D02*
X180914288Y-73073314D01*
X180914288Y-73073314D02*
X180914288Y-73416171D01*
X180914288Y-73416171D02*
X180857146Y-73530457D01*
X180857146Y-73530457D02*
X180800003Y-73587600D01*
X180800003Y-73587600D02*
X180685717Y-73644742D01*
X180685717Y-73644742D02*
X180514288Y-73644742D01*
X181942860Y-72844742D02*
X181942860Y-73644742D01*
X181428574Y-72844742D02*
X181428574Y-73473314D01*
X181428574Y-73473314D02*
X181485717Y-73587600D01*
X181485717Y-73587600D02*
X181600002Y-73644742D01*
X181600002Y-73644742D02*
X181771431Y-73644742D01*
X181771431Y-73644742D02*
X181885717Y-73587600D01*
X181885717Y-73587600D02*
X181942860Y-73530457D01*
X182514288Y-72844742D02*
X182514288Y-73644742D01*
X182514288Y-72959028D02*
X182571431Y-72901885D01*
X182571431Y-72901885D02*
X182685716Y-72844742D01*
X182685716Y-72844742D02*
X182857145Y-72844742D01*
X182857145Y-72844742D02*
X182971431Y-72901885D01*
X182971431Y-72901885D02*
X183028574Y-73016171D01*
X183028574Y-73016171D02*
X183028574Y-73644742D01*
X184114288Y-73644742D02*
X184114288Y-72444742D01*
X184114288Y-73587600D02*
X184000002Y-73644742D01*
X184000002Y-73644742D02*
X183771430Y-73644742D01*
X183771430Y-73644742D02*
X183657145Y-73587600D01*
X183657145Y-73587600D02*
X183600002Y-73530457D01*
X183600002Y-73530457D02*
X183542859Y-73416171D01*
X183542859Y-73416171D02*
X183542859Y-73073314D01*
X183542859Y-73073314D02*
X183600002Y-72959028D01*
X183600002Y-72959028D02*
X183657145Y-72901885D01*
X183657145Y-72901885D02*
X183771430Y-72844742D01*
X183771430Y-72844742D02*
X184000002Y-72844742D01*
X184000002Y-72844742D02*
X184114288Y-72901885D01*
X184685716Y-72844742D02*
X184685716Y-74044742D01*
X184685716Y-72901885D02*
X184800002Y-72844742D01*
X184800002Y-72844742D02*
X185028573Y-72844742D01*
X185028573Y-72844742D02*
X185142859Y-72901885D01*
X185142859Y-72901885D02*
X185200002Y-72959028D01*
X185200002Y-72959028D02*
X185257144Y-73073314D01*
X185257144Y-73073314D02*
X185257144Y-73416171D01*
X185257144Y-73416171D02*
X185200002Y-73530457D01*
X185200002Y-73530457D02*
X185142859Y-73587600D01*
X185142859Y-73587600D02*
X185028573Y-73644742D01*
X185028573Y-73644742D02*
X184800002Y-73644742D01*
X184800002Y-73644742D02*
X184685716Y-73587600D01*
X185942858Y-73644742D02*
X185828573Y-73587600D01*
X185828573Y-73587600D02*
X185771430Y-73473314D01*
X185771430Y-73473314D02*
X185771430Y-72444742D01*
X186914287Y-73644742D02*
X186914287Y-73016171D01*
X186914287Y-73016171D02*
X186857144Y-72901885D01*
X186857144Y-72901885D02*
X186742858Y-72844742D01*
X186742858Y-72844742D02*
X186514287Y-72844742D01*
X186514287Y-72844742D02*
X186400001Y-72901885D01*
X186914287Y-73587600D02*
X186800001Y-73644742D01*
X186800001Y-73644742D02*
X186514287Y-73644742D01*
X186514287Y-73644742D02*
X186400001Y-73587600D01*
X186400001Y-73587600D02*
X186342858Y-73473314D01*
X186342858Y-73473314D02*
X186342858Y-73359028D01*
X186342858Y-73359028D02*
X186400001Y-73244742D01*
X186400001Y-73244742D02*
X186514287Y-73187600D01*
X186514287Y-73187600D02*
X186800001Y-73187600D01*
X186800001Y-73187600D02*
X186914287Y-73130457D01*
X187314286Y-72844742D02*
X187771429Y-72844742D01*
X187485715Y-72444742D02*
X187485715Y-73473314D01*
X187485715Y-73473314D02*
X187542858Y-73587600D01*
X187542858Y-73587600D02*
X187657143Y-73644742D01*
X187657143Y-73644742D02*
X187771429Y-73644742D01*
X188171429Y-73644742D02*
X188171429Y-72844742D01*
X188171429Y-72444742D02*
X188114286Y-72501885D01*
X188114286Y-72501885D02*
X188171429Y-72559028D01*
X188171429Y-72559028D02*
X188228572Y-72501885D01*
X188228572Y-72501885D02*
X188171429Y-72444742D01*
X188171429Y-72444742D02*
X188171429Y-72559028D01*
X188742858Y-72844742D02*
X188742858Y-73644742D01*
X188742858Y-72959028D02*
X188800001Y-72901885D01*
X188800001Y-72901885D02*
X188914286Y-72844742D01*
X188914286Y-72844742D02*
X189085715Y-72844742D01*
X189085715Y-72844742D02*
X189200001Y-72901885D01*
X189200001Y-72901885D02*
X189257144Y-73016171D01*
X189257144Y-73016171D02*
X189257144Y-73644742D01*
X190285715Y-73587600D02*
X190171429Y-73644742D01*
X190171429Y-73644742D02*
X189942858Y-73644742D01*
X189942858Y-73644742D02*
X189828572Y-73587600D01*
X189828572Y-73587600D02*
X189771429Y-73473314D01*
X189771429Y-73473314D02*
X189771429Y-73016171D01*
X189771429Y-73016171D02*
X189828572Y-72901885D01*
X189828572Y-72901885D02*
X189942858Y-72844742D01*
X189942858Y-72844742D02*
X190171429Y-72844742D01*
X190171429Y-72844742D02*
X190285715Y-72901885D01*
X190285715Y-72901885D02*
X190342858Y-73016171D01*
X190342858Y-73016171D02*
X190342858Y-73130457D01*
X190342858Y-73130457D02*
X189771429Y-73244742D01*
X191657143Y-72444742D02*
X191942857Y-73644742D01*
X191942857Y-73644742D02*
X192171429Y-72787600D01*
X192171429Y-72787600D02*
X192400000Y-73644742D01*
X192400000Y-73644742D02*
X192685715Y-72444742D01*
X193657144Y-73644742D02*
X193657144Y-73016171D01*
X193657144Y-73016171D02*
X193600001Y-72901885D01*
X193600001Y-72901885D02*
X193485715Y-72844742D01*
X193485715Y-72844742D02*
X193257144Y-72844742D01*
X193257144Y-72844742D02*
X193142858Y-72901885D01*
X193657144Y-73587600D02*
X193542858Y-73644742D01*
X193542858Y-73644742D02*
X193257144Y-73644742D01*
X193257144Y-73644742D02*
X193142858Y-73587600D01*
X193142858Y-73587600D02*
X193085715Y-73473314D01*
X193085715Y-73473314D02*
X193085715Y-73359028D01*
X193085715Y-73359028D02*
X193142858Y-73244742D01*
X193142858Y-73244742D02*
X193257144Y-73187600D01*
X193257144Y-73187600D02*
X193542858Y-73187600D01*
X193542858Y-73187600D02*
X193657144Y-73130457D01*
X194400000Y-73644742D02*
X194285715Y-73587600D01*
X194285715Y-73587600D02*
X194228572Y-73473314D01*
X194228572Y-73473314D02*
X194228572Y-72444742D01*
X195371429Y-73644742D02*
X195371429Y-72444742D01*
X195371429Y-73587600D02*
X195257143Y-73644742D01*
X195257143Y-73644742D02*
X195028571Y-73644742D01*
X195028571Y-73644742D02*
X194914286Y-73587600D01*
X194914286Y-73587600D02*
X194857143Y-73530457D01*
X194857143Y-73530457D02*
X194800000Y-73416171D01*
X194800000Y-73416171D02*
X194800000Y-73073314D01*
X194800000Y-73073314D02*
X194857143Y-72959028D01*
X194857143Y-72959028D02*
X194914286Y-72901885D01*
X194914286Y-72901885D02*
X195028571Y-72844742D01*
X195028571Y-72844742D02*
X195257143Y-72844742D01*
X195257143Y-72844742D02*
X195371429Y-72901885D01*
X196114285Y-73644742D02*
X196000000Y-73587600D01*
X196000000Y-73587600D02*
X195942857Y-73473314D01*
X195942857Y-73473314D02*
X195942857Y-72444742D01*
X197028571Y-73587600D02*
X196914285Y-73644742D01*
X196914285Y-73644742D02*
X196685714Y-73644742D01*
X196685714Y-73644742D02*
X196571428Y-73587600D01*
X196571428Y-73587600D02*
X196514285Y-73473314D01*
X196514285Y-73473314D02*
X196514285Y-73016171D01*
X196514285Y-73016171D02*
X196571428Y-72901885D01*
X196571428Y-72901885D02*
X196685714Y-72844742D01*
X196685714Y-72844742D02*
X196914285Y-72844742D01*
X196914285Y-72844742D02*
X197028571Y-72901885D01*
X197028571Y-72901885D02*
X197085714Y-73016171D01*
X197085714Y-73016171D02*
X197085714Y-73130457D01*
X197085714Y-73130457D02*
X196514285Y-73244742D01*
X197599999Y-73644742D02*
X197599999Y-72444742D01*
X198114285Y-73644742D02*
X198114285Y-73016171D01*
X198114285Y-73016171D02*
X198057142Y-72901885D01*
X198057142Y-72901885D02*
X197942856Y-72844742D01*
X197942856Y-72844742D02*
X197771427Y-72844742D01*
X197771427Y-72844742D02*
X197657142Y-72901885D01*
X197657142Y-72901885D02*
X197599999Y-72959028D01*
X198685713Y-73644742D02*
X198685713Y-72844742D01*
X198685713Y-73073314D02*
X198742856Y-72959028D01*
X198742856Y-72959028D02*
X198799999Y-72901885D01*
X198799999Y-72901885D02*
X198914284Y-72844742D01*
X198914284Y-72844742D02*
X199028570Y-72844742D01*
X199428570Y-72844742D02*
X199428570Y-74044742D01*
X199428570Y-72901885D02*
X199542856Y-72844742D01*
X199542856Y-72844742D02*
X199771427Y-72844742D01*
X199771427Y-72844742D02*
X199885713Y-72901885D01*
X199885713Y-72901885D02*
X199942856Y-72959028D01*
X199942856Y-72959028D02*
X199999998Y-73073314D01*
X199999998Y-73073314D02*
X199999998Y-73416171D01*
X199999998Y-73416171D02*
X199942856Y-73530457D01*
X199942856Y-73530457D02*
X199885713Y-73587600D01*
X199885713Y-73587600D02*
X199771427Y-73644742D01*
X199771427Y-73644742D02*
X199542856Y-73644742D01*
X199542856Y-73644742D02*
X199428570Y-73587600D01*
X200342855Y-72844742D02*
X200799998Y-72844742D01*
X200514284Y-73644742D02*
X200514284Y-72616171D01*
X200514284Y-72616171D02*
X200571427Y-72501885D01*
X200571427Y-72501885D02*
X200685712Y-72444742D01*
X200685712Y-72444742D02*
X200799998Y-72444742D01*
X201714284Y-73644742D02*
X201714284Y-73016171D01*
X201714284Y-73016171D02*
X201657141Y-72901885D01*
X201657141Y-72901885D02*
X201542855Y-72844742D01*
X201542855Y-72844742D02*
X201314284Y-72844742D01*
X201314284Y-72844742D02*
X201199998Y-72901885D01*
X201714284Y-73587600D02*
X201599998Y-73644742D01*
X201599998Y-73644742D02*
X201314284Y-73644742D01*
X201314284Y-73644742D02*
X201199998Y-73587600D01*
X201199998Y-73587600D02*
X201142855Y-73473314D01*
X201142855Y-73473314D02*
X201142855Y-73359028D01*
X201142855Y-73359028D02*
X201199998Y-73244742D01*
X201199998Y-73244742D02*
X201314284Y-73187600D01*
X201314284Y-73187600D02*
X201599998Y-73187600D01*
X201599998Y-73187600D02*
X201714284Y-73130457D01*
X202799998Y-73644742D02*
X202799998Y-72444742D01*
X202799998Y-73587600D02*
X202685712Y-73644742D01*
X202685712Y-73644742D02*
X202457140Y-73644742D01*
X202457140Y-73644742D02*
X202342855Y-73587600D01*
X202342855Y-73587600D02*
X202285712Y-73530457D01*
X202285712Y-73530457D02*
X202228569Y-73416171D01*
X202228569Y-73416171D02*
X202228569Y-73073314D01*
X202228569Y-73073314D02*
X202285712Y-72959028D01*
X202285712Y-72959028D02*
X202342855Y-72901885D01*
X202342855Y-72901885D02*
X202457140Y-72844742D01*
X202457140Y-72844742D02*
X202685712Y-72844742D01*
X202685712Y-72844742D02*
X202799998Y-72901885D01*
D10*
X205238095Y-122304819D02*
X205238095Y-121304819D01*
X205238095Y-121781009D02*
X205809523Y-121781009D01*
X205809523Y-122304819D02*
X205809523Y-121304819D01*
X206714285Y-121638152D02*
X206714285Y-122304819D01*
X206476190Y-121257200D02*
X206238095Y-121971485D01*
X206238095Y-121971485D02*
X206857142Y-121971485D01*
X170833333Y-110954819D02*
X170500000Y-110478628D01*
X170261905Y-110954819D02*
X170261905Y-109954819D01*
X170261905Y-109954819D02*
X170642857Y-109954819D01*
X170642857Y-109954819D02*
X170738095Y-110002438D01*
X170738095Y-110002438D02*
X170785714Y-110050057D01*
X170785714Y-110050057D02*
X170833333Y-110145295D01*
X170833333Y-110145295D02*
X170833333Y-110288152D01*
X170833333Y-110288152D02*
X170785714Y-110383390D01*
X170785714Y-110383390D02*
X170738095Y-110431009D01*
X170738095Y-110431009D02*
X170642857Y-110478628D01*
X170642857Y-110478628D02*
X170261905Y-110478628D01*
X171690476Y-110288152D02*
X171690476Y-110954819D01*
X171452381Y-109907200D02*
X171214286Y-110621485D01*
X171214286Y-110621485D02*
X171833333Y-110621485D01*
X168833333Y-102454819D02*
X168500000Y-101978628D01*
X168261905Y-102454819D02*
X168261905Y-101454819D01*
X168261905Y-101454819D02*
X168642857Y-101454819D01*
X168642857Y-101454819D02*
X168738095Y-101502438D01*
X168738095Y-101502438D02*
X168785714Y-101550057D01*
X168785714Y-101550057D02*
X168833333Y-101645295D01*
X168833333Y-101645295D02*
X168833333Y-101788152D01*
X168833333Y-101788152D02*
X168785714Y-101883390D01*
X168785714Y-101883390D02*
X168738095Y-101931009D01*
X168738095Y-101931009D02*
X168642857Y-101978628D01*
X168642857Y-101978628D02*
X168261905Y-101978628D01*
X169404762Y-101883390D02*
X169309524Y-101835771D01*
X169309524Y-101835771D02*
X169261905Y-101788152D01*
X169261905Y-101788152D02*
X169214286Y-101692914D01*
X169214286Y-101692914D02*
X169214286Y-101645295D01*
X169214286Y-101645295D02*
X169261905Y-101550057D01*
X169261905Y-101550057D02*
X169309524Y-101502438D01*
X169309524Y-101502438D02*
X169404762Y-101454819D01*
X169404762Y-101454819D02*
X169595238Y-101454819D01*
X169595238Y-101454819D02*
X169690476Y-101502438D01*
X169690476Y-101502438D02*
X169738095Y-101550057D01*
X169738095Y-101550057D02*
X169785714Y-101645295D01*
X169785714Y-101645295D02*
X169785714Y-101692914D01*
X169785714Y-101692914D02*
X169738095Y-101788152D01*
X169738095Y-101788152D02*
X169690476Y-101835771D01*
X169690476Y-101835771D02*
X169595238Y-101883390D01*
X169595238Y-101883390D02*
X169404762Y-101883390D01*
X169404762Y-101883390D02*
X169309524Y-101931009D01*
X169309524Y-101931009D02*
X169261905Y-101978628D01*
X169261905Y-101978628D02*
X169214286Y-102073866D01*
X169214286Y-102073866D02*
X169214286Y-102264342D01*
X169214286Y-102264342D02*
X169261905Y-102359580D01*
X169261905Y-102359580D02*
X169309524Y-102407200D01*
X169309524Y-102407200D02*
X169404762Y-102454819D01*
X169404762Y-102454819D02*
X169595238Y-102454819D01*
X169595238Y-102454819D02*
X169690476Y-102407200D01*
X169690476Y-102407200D02*
X169738095Y-102359580D01*
X169738095Y-102359580D02*
X169785714Y-102264342D01*
X169785714Y-102264342D02*
X169785714Y-102073866D01*
X169785714Y-102073866D02*
X169738095Y-101978628D01*
X169738095Y-101978628D02*
X169690476Y-101931009D01*
X169690476Y-101931009D02*
X169595238Y-101883390D01*
X155954819Y-116666666D02*
X155478628Y-116999999D01*
X155954819Y-117238094D02*
X154954819Y-117238094D01*
X154954819Y-117238094D02*
X154954819Y-116857142D01*
X154954819Y-116857142D02*
X155002438Y-116761904D01*
X155002438Y-116761904D02*
X155050057Y-116714285D01*
X155050057Y-116714285D02*
X155145295Y-116666666D01*
X155145295Y-116666666D02*
X155288152Y-116666666D01*
X155288152Y-116666666D02*
X155383390Y-116714285D01*
X155383390Y-116714285D02*
X155431009Y-116761904D01*
X155431009Y-116761904D02*
X155478628Y-116857142D01*
X155478628Y-116857142D02*
X155478628Y-117238094D01*
X154954819Y-115809523D02*
X154954819Y-115999999D01*
X154954819Y-115999999D02*
X155002438Y-116095237D01*
X155002438Y-116095237D02*
X155050057Y-116142856D01*
X155050057Y-116142856D02*
X155192914Y-116238094D01*
X155192914Y-116238094D02*
X155383390Y-116285713D01*
X155383390Y-116285713D02*
X155764342Y-116285713D01*
X155764342Y-116285713D02*
X155859580Y-116238094D01*
X155859580Y-116238094D02*
X155907200Y-116190475D01*
X155907200Y-116190475D02*
X155954819Y-116095237D01*
X155954819Y-116095237D02*
X155954819Y-115904761D01*
X155954819Y-115904761D02*
X155907200Y-115809523D01*
X155907200Y-115809523D02*
X155859580Y-115761904D01*
X155859580Y-115761904D02*
X155764342Y-115714285D01*
X155764342Y-115714285D02*
X155526247Y-115714285D01*
X155526247Y-115714285D02*
X155431009Y-115761904D01*
X155431009Y-115761904D02*
X155383390Y-115809523D01*
X155383390Y-115809523D02*
X155335771Y-115904761D01*
X155335771Y-115904761D02*
X155335771Y-116095237D01*
X155335771Y-116095237D02*
X155383390Y-116190475D01*
X155383390Y-116190475D02*
X155431009Y-116238094D01*
X155431009Y-116238094D02*
X155526247Y-116285713D01*
X161333333Y-108954819D02*
X161000000Y-108478628D01*
X160761905Y-108954819D02*
X160761905Y-107954819D01*
X160761905Y-107954819D02*
X161142857Y-107954819D01*
X161142857Y-107954819D02*
X161238095Y-108002438D01*
X161238095Y-108002438D02*
X161285714Y-108050057D01*
X161285714Y-108050057D02*
X161333333Y-108145295D01*
X161333333Y-108145295D02*
X161333333Y-108288152D01*
X161333333Y-108288152D02*
X161285714Y-108383390D01*
X161285714Y-108383390D02*
X161238095Y-108431009D01*
X161238095Y-108431009D02*
X161142857Y-108478628D01*
X161142857Y-108478628D02*
X160761905Y-108478628D01*
X162285714Y-108954819D02*
X161714286Y-108954819D01*
X162000000Y-108954819D02*
X162000000Y-107954819D01*
X162000000Y-107954819D02*
X161904762Y-108097676D01*
X161904762Y-108097676D02*
X161809524Y-108192914D01*
X161809524Y-108192914D02*
X161714286Y-108240533D01*
X133954819Y-80870594D02*
X132954819Y-80870594D01*
X132954819Y-80870594D02*
X132954819Y-80632499D01*
X132954819Y-80632499D02*
X133002438Y-80489642D01*
X133002438Y-80489642D02*
X133097676Y-80394404D01*
X133097676Y-80394404D02*
X133192914Y-80346785D01*
X133192914Y-80346785D02*
X133383390Y-80299166D01*
X133383390Y-80299166D02*
X133526247Y-80299166D01*
X133526247Y-80299166D02*
X133716723Y-80346785D01*
X133716723Y-80346785D02*
X133811961Y-80394404D01*
X133811961Y-80394404D02*
X133907200Y-80489642D01*
X133907200Y-80489642D02*
X133954819Y-80632499D01*
X133954819Y-80632499D02*
X133954819Y-80870594D01*
X132954819Y-79965832D02*
X132954819Y-79346785D01*
X132954819Y-79346785D02*
X133335771Y-79680118D01*
X133335771Y-79680118D02*
X133335771Y-79537261D01*
X133335771Y-79537261D02*
X133383390Y-79442023D01*
X133383390Y-79442023D02*
X133431009Y-79394404D01*
X133431009Y-79394404D02*
X133526247Y-79346785D01*
X133526247Y-79346785D02*
X133764342Y-79346785D01*
X133764342Y-79346785D02*
X133859580Y-79394404D01*
X133859580Y-79394404D02*
X133907200Y-79442023D01*
X133907200Y-79442023D02*
X133954819Y-79537261D01*
X133954819Y-79537261D02*
X133954819Y-79822975D01*
X133954819Y-79822975D02*
X133907200Y-79918213D01*
X133907200Y-79918213D02*
X133859580Y-79965832D01*
X137954819Y-80870594D02*
X136954819Y-80870594D01*
X136954819Y-80870594D02*
X136954819Y-80632499D01*
X136954819Y-80632499D02*
X137002438Y-80489642D01*
X137002438Y-80489642D02*
X137097676Y-80394404D01*
X137097676Y-80394404D02*
X137192914Y-80346785D01*
X137192914Y-80346785D02*
X137383390Y-80299166D01*
X137383390Y-80299166D02*
X137526247Y-80299166D01*
X137526247Y-80299166D02*
X137716723Y-80346785D01*
X137716723Y-80346785D02*
X137811961Y-80394404D01*
X137811961Y-80394404D02*
X137907200Y-80489642D01*
X137907200Y-80489642D02*
X137954819Y-80632499D01*
X137954819Y-80632499D02*
X137954819Y-80870594D01*
X137288152Y-79442023D02*
X137954819Y-79442023D01*
X136907200Y-79680118D02*
X137621485Y-79918213D01*
X137621485Y-79918213D02*
X137621485Y-79299166D01*
X166666666Y-116101009D02*
X166333333Y-116101009D01*
X166333333Y-116624819D02*
X166333333Y-115624819D01*
X166333333Y-115624819D02*
X166809523Y-115624819D01*
X167714285Y-116624819D02*
X167142857Y-116624819D01*
X167428571Y-116624819D02*
X167428571Y-115624819D01*
X167428571Y-115624819D02*
X167333333Y-115767676D01*
X167333333Y-115767676D02*
X167238095Y-115862914D01*
X167238095Y-115862914D02*
X167142857Y-115910533D01*
X169936069Y-120738094D02*
X168936069Y-120738094D01*
X168936069Y-120738094D02*
X168936069Y-120499999D01*
X168936069Y-120499999D02*
X168983688Y-120357142D01*
X168983688Y-120357142D02*
X169078926Y-120261904D01*
X169078926Y-120261904D02*
X169174164Y-120214285D01*
X169174164Y-120214285D02*
X169364640Y-120166666D01*
X169364640Y-120166666D02*
X169507497Y-120166666D01*
X169507497Y-120166666D02*
X169697973Y-120214285D01*
X169697973Y-120214285D02*
X169793211Y-120261904D01*
X169793211Y-120261904D02*
X169888450Y-120357142D01*
X169888450Y-120357142D02*
X169936069Y-120499999D01*
X169936069Y-120499999D02*
X169936069Y-120738094D01*
X169936069Y-119690475D02*
X169936069Y-119499999D01*
X169936069Y-119499999D02*
X169888450Y-119404761D01*
X169888450Y-119404761D02*
X169840830Y-119357142D01*
X169840830Y-119357142D02*
X169697973Y-119261904D01*
X169697973Y-119261904D02*
X169507497Y-119214285D01*
X169507497Y-119214285D02*
X169126545Y-119214285D01*
X169126545Y-119214285D02*
X169031307Y-119261904D01*
X169031307Y-119261904D02*
X168983688Y-119309523D01*
X168983688Y-119309523D02*
X168936069Y-119404761D01*
X168936069Y-119404761D02*
X168936069Y-119595237D01*
X168936069Y-119595237D02*
X168983688Y-119690475D01*
X168983688Y-119690475D02*
X169031307Y-119738094D01*
X169031307Y-119738094D02*
X169126545Y-119785713D01*
X169126545Y-119785713D02*
X169364640Y-119785713D01*
X169364640Y-119785713D02*
X169459878Y-119738094D01*
X169459878Y-119738094D02*
X169507497Y-119690475D01*
X169507497Y-119690475D02*
X169555116Y-119595237D01*
X169555116Y-119595237D02*
X169555116Y-119404761D01*
X169555116Y-119404761D02*
X169507497Y-119309523D01*
X169507497Y-119309523D02*
X169459878Y-119261904D01*
X169459878Y-119261904D02*
X169364640Y-119214285D01*
X169354819Y-101214285D02*
X168354819Y-101214285D01*
X168354819Y-101214285D02*
X168354819Y-100976190D01*
X168354819Y-100976190D02*
X168402438Y-100833333D01*
X168402438Y-100833333D02*
X168497676Y-100738095D01*
X168497676Y-100738095D02*
X168592914Y-100690476D01*
X168592914Y-100690476D02*
X168783390Y-100642857D01*
X168783390Y-100642857D02*
X168926247Y-100642857D01*
X168926247Y-100642857D02*
X169116723Y-100690476D01*
X169116723Y-100690476D02*
X169211961Y-100738095D01*
X169211961Y-100738095D02*
X169307200Y-100833333D01*
X169307200Y-100833333D02*
X169354819Y-100976190D01*
X169354819Y-100976190D02*
X169354819Y-101214285D01*
X169354819Y-99690476D02*
X169354819Y-100261904D01*
X169354819Y-99976190D02*
X168354819Y-99976190D01*
X168354819Y-99976190D02*
X168497676Y-100071428D01*
X168497676Y-100071428D02*
X168592914Y-100166666D01*
X168592914Y-100166666D02*
X168640533Y-100261904D01*
X168688152Y-98833333D02*
X169354819Y-98833333D01*
X168307200Y-99071428D02*
X169021485Y-99309523D01*
X169021485Y-99309523D02*
X169021485Y-98690476D01*
X126738095Y-122304819D02*
X126738095Y-121304819D01*
X126738095Y-121781009D02*
X127309523Y-121781009D01*
X127309523Y-122304819D02*
X127309523Y-121304819D01*
X127690476Y-121304819D02*
X128309523Y-121304819D01*
X128309523Y-121304819D02*
X127976190Y-121685771D01*
X127976190Y-121685771D02*
X128119047Y-121685771D01*
X128119047Y-121685771D02*
X128214285Y-121733390D01*
X128214285Y-121733390D02*
X128261904Y-121781009D01*
X128261904Y-121781009D02*
X128309523Y-121876247D01*
X128309523Y-121876247D02*
X128309523Y-122114342D01*
X128309523Y-122114342D02*
X128261904Y-122209580D01*
X128261904Y-122209580D02*
X128214285Y-122257200D01*
X128214285Y-122257200D02*
X128119047Y-122304819D01*
X128119047Y-122304819D02*
X127833333Y-122304819D01*
X127833333Y-122304819D02*
X127738095Y-122257200D01*
X127738095Y-122257200D02*
X127690476Y-122209580D01*
X169333333Y-89379819D02*
X168857143Y-89379819D01*
X168857143Y-89379819D02*
X168857143Y-88379819D01*
X170190476Y-89379819D02*
X169619048Y-89379819D01*
X169904762Y-89379819D02*
X169904762Y-88379819D01*
X169904762Y-88379819D02*
X169809524Y-88522676D01*
X169809524Y-88522676D02*
X169714286Y-88617914D01*
X169714286Y-88617914D02*
X169619048Y-88665533D01*
X125954819Y-80870594D02*
X124954819Y-80870594D01*
X124954819Y-80870594D02*
X124954819Y-80632499D01*
X124954819Y-80632499D02*
X125002438Y-80489642D01*
X125002438Y-80489642D02*
X125097676Y-80394404D01*
X125097676Y-80394404D02*
X125192914Y-80346785D01*
X125192914Y-80346785D02*
X125383390Y-80299166D01*
X125383390Y-80299166D02*
X125526247Y-80299166D01*
X125526247Y-80299166D02*
X125716723Y-80346785D01*
X125716723Y-80346785D02*
X125811961Y-80394404D01*
X125811961Y-80394404D02*
X125907200Y-80489642D01*
X125907200Y-80489642D02*
X125954819Y-80632499D01*
X125954819Y-80632499D02*
X125954819Y-80870594D01*
X125954819Y-79346785D02*
X125954819Y-79918213D01*
X125954819Y-79632499D02*
X124954819Y-79632499D01*
X124954819Y-79632499D02*
X125097676Y-79727737D01*
X125097676Y-79727737D02*
X125192914Y-79822975D01*
X125192914Y-79822975D02*
X125240533Y-79918213D01*
X135516666Y-118927319D02*
X135516666Y-119641604D01*
X135516666Y-119641604D02*
X135469047Y-119784461D01*
X135469047Y-119784461D02*
X135373809Y-119879700D01*
X135373809Y-119879700D02*
X135230952Y-119927319D01*
X135230952Y-119927319D02*
X135135714Y-119927319D01*
X135945238Y-119022557D02*
X135992857Y-118974938D01*
X135992857Y-118974938D02*
X136088095Y-118927319D01*
X136088095Y-118927319D02*
X136326190Y-118927319D01*
X136326190Y-118927319D02*
X136421428Y-118974938D01*
X136421428Y-118974938D02*
X136469047Y-119022557D01*
X136469047Y-119022557D02*
X136516666Y-119117795D01*
X136516666Y-119117795D02*
X136516666Y-119213033D01*
X136516666Y-119213033D02*
X136469047Y-119355890D01*
X136469047Y-119355890D02*
X135897619Y-119927319D01*
X135897619Y-119927319D02*
X136516666Y-119927319D01*
X164166666Y-119454819D02*
X164166666Y-120169104D01*
X164166666Y-120169104D02*
X164119047Y-120311961D01*
X164119047Y-120311961D02*
X164023809Y-120407200D01*
X164023809Y-120407200D02*
X163880952Y-120454819D01*
X163880952Y-120454819D02*
X163785714Y-120454819D01*
X165166666Y-120454819D02*
X164595238Y-120454819D01*
X164880952Y-120454819D02*
X164880952Y-119454819D01*
X164880952Y-119454819D02*
X164785714Y-119597676D01*
X164785714Y-119597676D02*
X164690476Y-119692914D01*
X164690476Y-119692914D02*
X164595238Y-119740533D01*
X161054819Y-112214285D02*
X160054819Y-112214285D01*
X160054819Y-112214285D02*
X160054819Y-111976190D01*
X160054819Y-111976190D02*
X160102438Y-111833333D01*
X160102438Y-111833333D02*
X160197676Y-111738095D01*
X160197676Y-111738095D02*
X160292914Y-111690476D01*
X160292914Y-111690476D02*
X160483390Y-111642857D01*
X160483390Y-111642857D02*
X160626247Y-111642857D01*
X160626247Y-111642857D02*
X160816723Y-111690476D01*
X160816723Y-111690476D02*
X160911961Y-111738095D01*
X160911961Y-111738095D02*
X161007200Y-111833333D01*
X161007200Y-111833333D02*
X161054819Y-111976190D01*
X161054819Y-111976190D02*
X161054819Y-112214285D01*
X161054819Y-110690476D02*
X161054819Y-111261904D01*
X161054819Y-110976190D02*
X160054819Y-110976190D01*
X160054819Y-110976190D02*
X160197676Y-111071428D01*
X160197676Y-111071428D02*
X160292914Y-111166666D01*
X160292914Y-111166666D02*
X160340533Y-111261904D01*
X160150057Y-110309523D02*
X160102438Y-110261904D01*
X160102438Y-110261904D02*
X160054819Y-110166666D01*
X160054819Y-110166666D02*
X160054819Y-109928571D01*
X160054819Y-109928571D02*
X160102438Y-109833333D01*
X160102438Y-109833333D02*
X160150057Y-109785714D01*
X160150057Y-109785714D02*
X160245295Y-109738095D01*
X160245295Y-109738095D02*
X160340533Y-109738095D01*
X160340533Y-109738095D02*
X160483390Y-109785714D01*
X160483390Y-109785714D02*
X161054819Y-110357142D01*
X161054819Y-110357142D02*
X161054819Y-109738095D01*
X156857142Y-96784819D02*
X156523809Y-96308628D01*
X156285714Y-96784819D02*
X156285714Y-95784819D01*
X156285714Y-95784819D02*
X156666666Y-95784819D01*
X156666666Y-95784819D02*
X156761904Y-95832438D01*
X156761904Y-95832438D02*
X156809523Y-95880057D01*
X156809523Y-95880057D02*
X156857142Y-95975295D01*
X156857142Y-95975295D02*
X156857142Y-96118152D01*
X156857142Y-96118152D02*
X156809523Y-96213390D01*
X156809523Y-96213390D02*
X156761904Y-96261009D01*
X156761904Y-96261009D02*
X156666666Y-96308628D01*
X156666666Y-96308628D02*
X156285714Y-96308628D01*
X157809523Y-96784819D02*
X157238095Y-96784819D01*
X157523809Y-96784819D02*
X157523809Y-95784819D01*
X157523809Y-95784819D02*
X157428571Y-95927676D01*
X157428571Y-95927676D02*
X157333333Y-96022914D01*
X157333333Y-96022914D02*
X157238095Y-96070533D01*
X158761904Y-96784819D02*
X158190476Y-96784819D01*
X158476190Y-96784819D02*
X158476190Y-95784819D01*
X158476190Y-95784819D02*
X158380952Y-95927676D01*
X158380952Y-95927676D02*
X158285714Y-96022914D01*
X158285714Y-96022914D02*
X158190476Y-96070533D01*
X172785714Y-86104819D02*
X172785714Y-85104819D01*
X172785714Y-85104819D02*
X173023809Y-85104819D01*
X173023809Y-85104819D02*
X173166666Y-85152438D01*
X173166666Y-85152438D02*
X173261904Y-85247676D01*
X173261904Y-85247676D02*
X173309523Y-85342914D01*
X173309523Y-85342914D02*
X173357142Y-85533390D01*
X173357142Y-85533390D02*
X173357142Y-85676247D01*
X173357142Y-85676247D02*
X173309523Y-85866723D01*
X173309523Y-85866723D02*
X173261904Y-85961961D01*
X173261904Y-85961961D02*
X173166666Y-86057200D01*
X173166666Y-86057200D02*
X173023809Y-86104819D01*
X173023809Y-86104819D02*
X172785714Y-86104819D01*
X174309523Y-86104819D02*
X173738095Y-86104819D01*
X174023809Y-86104819D02*
X174023809Y-85104819D01*
X174023809Y-85104819D02*
X173928571Y-85247676D01*
X173928571Y-85247676D02*
X173833333Y-85342914D01*
X173833333Y-85342914D02*
X173738095Y-85390533D01*
X174928571Y-85104819D02*
X175023809Y-85104819D01*
X175023809Y-85104819D02*
X175119047Y-85152438D01*
X175119047Y-85152438D02*
X175166666Y-85200057D01*
X175166666Y-85200057D02*
X175214285Y-85295295D01*
X175214285Y-85295295D02*
X175261904Y-85485771D01*
X175261904Y-85485771D02*
X175261904Y-85723866D01*
X175261904Y-85723866D02*
X175214285Y-85914342D01*
X175214285Y-85914342D02*
X175166666Y-86009580D01*
X175166666Y-86009580D02*
X175119047Y-86057200D01*
X175119047Y-86057200D02*
X175023809Y-86104819D01*
X175023809Y-86104819D02*
X174928571Y-86104819D01*
X174928571Y-86104819D02*
X174833333Y-86057200D01*
X174833333Y-86057200D02*
X174785714Y-86009580D01*
X174785714Y-86009580D02*
X174738095Y-85914342D01*
X174738095Y-85914342D02*
X174690476Y-85723866D01*
X174690476Y-85723866D02*
X174690476Y-85485771D01*
X174690476Y-85485771D02*
X174738095Y-85295295D01*
X174738095Y-85295295D02*
X174785714Y-85200057D01*
X174785714Y-85200057D02*
X174833333Y-85152438D01*
X174833333Y-85152438D02*
X174928571Y-85104819D01*
X174738095Y-121506819D02*
X175309523Y-121506819D01*
X175023809Y-122506819D02*
X175023809Y-121506819D01*
X175642857Y-122506819D02*
X175642857Y-121506819D01*
X175642857Y-121506819D02*
X176023809Y-121506819D01*
X176023809Y-121506819D02*
X176119047Y-121554438D01*
X176119047Y-121554438D02*
X176166666Y-121602057D01*
X176166666Y-121602057D02*
X176214285Y-121697295D01*
X176214285Y-121697295D02*
X176214285Y-121840152D01*
X176214285Y-121840152D02*
X176166666Y-121935390D01*
X176166666Y-121935390D02*
X176119047Y-121983009D01*
X176119047Y-121983009D02*
X176023809Y-122030628D01*
X176023809Y-122030628D02*
X175642857Y-122030628D01*
X177166666Y-122506819D02*
X176595238Y-122506819D01*
X176880952Y-122506819D02*
X176880952Y-121506819D01*
X176880952Y-121506819D02*
X176785714Y-121649676D01*
X176785714Y-121649676D02*
X176690476Y-121744914D01*
X176690476Y-121744914D02*
X176595238Y-121792533D01*
X141954819Y-80870594D02*
X140954819Y-80870594D01*
X140954819Y-80870594D02*
X140954819Y-80632499D01*
X140954819Y-80632499D02*
X141002438Y-80489642D01*
X141002438Y-80489642D02*
X141097676Y-80394404D01*
X141097676Y-80394404D02*
X141192914Y-80346785D01*
X141192914Y-80346785D02*
X141383390Y-80299166D01*
X141383390Y-80299166D02*
X141526247Y-80299166D01*
X141526247Y-80299166D02*
X141716723Y-80346785D01*
X141716723Y-80346785D02*
X141811961Y-80394404D01*
X141811961Y-80394404D02*
X141907200Y-80489642D01*
X141907200Y-80489642D02*
X141954819Y-80632499D01*
X141954819Y-80632499D02*
X141954819Y-80870594D01*
X140954819Y-79394404D02*
X140954819Y-79870594D01*
X140954819Y-79870594D02*
X141431009Y-79918213D01*
X141431009Y-79918213D02*
X141383390Y-79870594D01*
X141383390Y-79870594D02*
X141335771Y-79775356D01*
X141335771Y-79775356D02*
X141335771Y-79537261D01*
X141335771Y-79537261D02*
X141383390Y-79442023D01*
X141383390Y-79442023D02*
X141431009Y-79394404D01*
X141431009Y-79394404D02*
X141526247Y-79346785D01*
X141526247Y-79346785D02*
X141764342Y-79346785D01*
X141764342Y-79346785D02*
X141859580Y-79394404D01*
X141859580Y-79394404D02*
X141907200Y-79442023D01*
X141907200Y-79442023D02*
X141954819Y-79537261D01*
X141954819Y-79537261D02*
X141954819Y-79775356D01*
X141954819Y-79775356D02*
X141907200Y-79870594D01*
X141907200Y-79870594D02*
X141859580Y-79918213D01*
X185666666Y-119427319D02*
X185666666Y-120141604D01*
X185666666Y-120141604D02*
X185619047Y-120284461D01*
X185619047Y-120284461D02*
X185523809Y-120379700D01*
X185523809Y-120379700D02*
X185380952Y-120427319D01*
X185380952Y-120427319D02*
X185285714Y-120427319D01*
X186571428Y-119427319D02*
X186380952Y-119427319D01*
X186380952Y-119427319D02*
X186285714Y-119474938D01*
X186285714Y-119474938D02*
X186238095Y-119522557D01*
X186238095Y-119522557D02*
X186142857Y-119665414D01*
X186142857Y-119665414D02*
X186095238Y-119855890D01*
X186095238Y-119855890D02*
X186095238Y-120236842D01*
X186095238Y-120236842D02*
X186142857Y-120332080D01*
X186142857Y-120332080D02*
X186190476Y-120379700D01*
X186190476Y-120379700D02*
X186285714Y-120427319D01*
X186285714Y-120427319D02*
X186476190Y-120427319D01*
X186476190Y-120427319D02*
X186571428Y-120379700D01*
X186571428Y-120379700D02*
X186619047Y-120332080D01*
X186619047Y-120332080D02*
X186666666Y-120236842D01*
X186666666Y-120236842D02*
X186666666Y-119998747D01*
X186666666Y-119998747D02*
X186619047Y-119903509D01*
X186619047Y-119903509D02*
X186571428Y-119855890D01*
X186571428Y-119855890D02*
X186476190Y-119808271D01*
X186476190Y-119808271D02*
X186285714Y-119808271D01*
X186285714Y-119808271D02*
X186190476Y-119855890D01*
X186190476Y-119855890D02*
X186142857Y-119903509D01*
X186142857Y-119903509D02*
X186095238Y-119998747D01*
X131238095Y-71954819D02*
X131238095Y-70954819D01*
X131238095Y-71431009D02*
X131809523Y-71431009D01*
X131809523Y-71954819D02*
X131809523Y-70954819D01*
X132809523Y-71954819D02*
X132238095Y-71954819D01*
X132523809Y-71954819D02*
X132523809Y-70954819D01*
X132523809Y-70954819D02*
X132428571Y-71097676D01*
X132428571Y-71097676D02*
X132333333Y-71192914D01*
X132333333Y-71192914D02*
X132238095Y-71240533D01*
X152086666Y-88454819D02*
X152086666Y-89169104D01*
X152086666Y-89169104D02*
X152039047Y-89311961D01*
X152039047Y-89311961D02*
X151943809Y-89407200D01*
X151943809Y-89407200D02*
X151800952Y-89454819D01*
X151800952Y-89454819D02*
X151705714Y-89454819D01*
X152467619Y-88454819D02*
X153086666Y-88454819D01*
X153086666Y-88454819D02*
X152753333Y-88835771D01*
X152753333Y-88835771D02*
X152896190Y-88835771D01*
X152896190Y-88835771D02*
X152991428Y-88883390D01*
X152991428Y-88883390D02*
X153039047Y-88931009D01*
X153039047Y-88931009D02*
X153086666Y-89026247D01*
X153086666Y-89026247D02*
X153086666Y-89264342D01*
X153086666Y-89264342D02*
X153039047Y-89359580D01*
X153039047Y-89359580D02*
X152991428Y-89407200D01*
X152991428Y-89407200D02*
X152896190Y-89454819D01*
X152896190Y-89454819D02*
X152610476Y-89454819D01*
X152610476Y-89454819D02*
X152515238Y-89407200D01*
X152515238Y-89407200D02*
X152467619Y-89359580D01*
X176833333Y-119179580D02*
X176785714Y-119227200D01*
X176785714Y-119227200D02*
X176642857Y-119274819D01*
X176642857Y-119274819D02*
X176547619Y-119274819D01*
X176547619Y-119274819D02*
X176404762Y-119227200D01*
X176404762Y-119227200D02*
X176309524Y-119131961D01*
X176309524Y-119131961D02*
X176261905Y-119036723D01*
X176261905Y-119036723D02*
X176214286Y-118846247D01*
X176214286Y-118846247D02*
X176214286Y-118703390D01*
X176214286Y-118703390D02*
X176261905Y-118512914D01*
X176261905Y-118512914D02*
X176309524Y-118417676D01*
X176309524Y-118417676D02*
X176404762Y-118322438D01*
X176404762Y-118322438D02*
X176547619Y-118274819D01*
X176547619Y-118274819D02*
X176642857Y-118274819D01*
X176642857Y-118274819D02*
X176785714Y-118322438D01*
X176785714Y-118322438D02*
X176833333Y-118370057D01*
X177785714Y-119274819D02*
X177214286Y-119274819D01*
X177500000Y-119274819D02*
X177500000Y-118274819D01*
X177500000Y-118274819D02*
X177404762Y-118417676D01*
X177404762Y-118417676D02*
X177309524Y-118512914D01*
X177309524Y-118512914D02*
X177214286Y-118560533D01*
X157333333Y-110454819D02*
X157000000Y-109978628D01*
X156761905Y-110454819D02*
X156761905Y-109454819D01*
X156761905Y-109454819D02*
X157142857Y-109454819D01*
X157142857Y-109454819D02*
X157238095Y-109502438D01*
X157238095Y-109502438D02*
X157285714Y-109550057D01*
X157285714Y-109550057D02*
X157333333Y-109645295D01*
X157333333Y-109645295D02*
X157333333Y-109788152D01*
X157333333Y-109788152D02*
X157285714Y-109883390D01*
X157285714Y-109883390D02*
X157238095Y-109931009D01*
X157238095Y-109931009D02*
X157142857Y-109978628D01*
X157142857Y-109978628D02*
X156761905Y-109978628D01*
X157666667Y-109454819D02*
X158285714Y-109454819D01*
X158285714Y-109454819D02*
X157952381Y-109835771D01*
X157952381Y-109835771D02*
X158095238Y-109835771D01*
X158095238Y-109835771D02*
X158190476Y-109883390D01*
X158190476Y-109883390D02*
X158238095Y-109931009D01*
X158238095Y-109931009D02*
X158285714Y-110026247D01*
X158285714Y-110026247D02*
X158285714Y-110264342D01*
X158285714Y-110264342D02*
X158238095Y-110359580D01*
X158238095Y-110359580D02*
X158190476Y-110407200D01*
X158190476Y-110407200D02*
X158095238Y-110454819D01*
X158095238Y-110454819D02*
X157809524Y-110454819D01*
X157809524Y-110454819D02*
X157714286Y-110407200D01*
X157714286Y-110407200D02*
X157666667Y-110359580D01*
X158179580Y-90666666D02*
X158227200Y-90714285D01*
X158227200Y-90714285D02*
X158274819Y-90857142D01*
X158274819Y-90857142D02*
X158274819Y-90952380D01*
X158274819Y-90952380D02*
X158227200Y-91095237D01*
X158227200Y-91095237D02*
X158131961Y-91190475D01*
X158131961Y-91190475D02*
X158036723Y-91238094D01*
X158036723Y-91238094D02*
X157846247Y-91285713D01*
X157846247Y-91285713D02*
X157703390Y-91285713D01*
X157703390Y-91285713D02*
X157512914Y-91238094D01*
X157512914Y-91238094D02*
X157417676Y-91190475D01*
X157417676Y-91190475D02*
X157322438Y-91095237D01*
X157322438Y-91095237D02*
X157274819Y-90952380D01*
X157274819Y-90952380D02*
X157274819Y-90857142D01*
X157274819Y-90857142D02*
X157322438Y-90714285D01*
X157322438Y-90714285D02*
X157370057Y-90666666D01*
X157370057Y-90285713D02*
X157322438Y-90238094D01*
X157322438Y-90238094D02*
X157274819Y-90142856D01*
X157274819Y-90142856D02*
X157274819Y-89904761D01*
X157274819Y-89904761D02*
X157322438Y-89809523D01*
X157322438Y-89809523D02*
X157370057Y-89761904D01*
X157370057Y-89761904D02*
X157465295Y-89714285D01*
X157465295Y-89714285D02*
X157560533Y-89714285D01*
X157560533Y-89714285D02*
X157703390Y-89761904D01*
X157703390Y-89761904D02*
X158274819Y-90333332D01*
X158274819Y-90333332D02*
X158274819Y-89714285D01*
X125954819Y-112761904D02*
X126764342Y-112761904D01*
X126764342Y-112761904D02*
X126859580Y-112714285D01*
X126859580Y-112714285D02*
X126907200Y-112666666D01*
X126907200Y-112666666D02*
X126954819Y-112571428D01*
X126954819Y-112571428D02*
X126954819Y-112380952D01*
X126954819Y-112380952D02*
X126907200Y-112285714D01*
X126907200Y-112285714D02*
X126859580Y-112238095D01*
X126859580Y-112238095D02*
X126764342Y-112190476D01*
X126764342Y-112190476D02*
X125954819Y-112190476D01*
X126050057Y-111761904D02*
X126002438Y-111714285D01*
X126002438Y-111714285D02*
X125954819Y-111619047D01*
X125954819Y-111619047D02*
X125954819Y-111380952D01*
X125954819Y-111380952D02*
X126002438Y-111285714D01*
X126002438Y-111285714D02*
X126050057Y-111238095D01*
X126050057Y-111238095D02*
X126145295Y-111190476D01*
X126145295Y-111190476D02*
X126240533Y-111190476D01*
X126240533Y-111190476D02*
X126383390Y-111238095D01*
X126383390Y-111238095D02*
X126954819Y-111809523D01*
X126954819Y-111809523D02*
X126954819Y-111190476D01*
D12*
X126563855Y-107009523D02*
X127211474Y-107009523D01*
X127211474Y-107009523D02*
X127287664Y-106971428D01*
X127287664Y-106971428D02*
X127325760Y-106933333D01*
X127325760Y-106933333D02*
X127363855Y-106857142D01*
X127363855Y-106857142D02*
X127363855Y-106704761D01*
X127363855Y-106704761D02*
X127325760Y-106628571D01*
X127325760Y-106628571D02*
X127287664Y-106590476D01*
X127287664Y-106590476D02*
X127211474Y-106552380D01*
X127211474Y-106552380D02*
X126563855Y-106552380D01*
X127325760Y-106209524D02*
X127363855Y-106095238D01*
X127363855Y-106095238D02*
X127363855Y-105904762D01*
X127363855Y-105904762D02*
X127325760Y-105828571D01*
X127325760Y-105828571D02*
X127287664Y-105790476D01*
X127287664Y-105790476D02*
X127211474Y-105752381D01*
X127211474Y-105752381D02*
X127135283Y-105752381D01*
X127135283Y-105752381D02*
X127059093Y-105790476D01*
X127059093Y-105790476D02*
X127020998Y-105828571D01*
X127020998Y-105828571D02*
X126982902Y-105904762D01*
X126982902Y-105904762D02*
X126944807Y-106057143D01*
X126944807Y-106057143D02*
X126906712Y-106133333D01*
X126906712Y-106133333D02*
X126868617Y-106171428D01*
X126868617Y-106171428D02*
X126792426Y-106209524D01*
X126792426Y-106209524D02*
X126716236Y-106209524D01*
X126716236Y-106209524D02*
X126640045Y-106171428D01*
X126640045Y-106171428D02*
X126601950Y-106133333D01*
X126601950Y-106133333D02*
X126563855Y-106057143D01*
X126563855Y-106057143D02*
X126563855Y-105866666D01*
X126563855Y-105866666D02*
X126601950Y-105752381D01*
X126944807Y-105142857D02*
X126982902Y-105028571D01*
X126982902Y-105028571D02*
X127020998Y-104990476D01*
X127020998Y-104990476D02*
X127097188Y-104952380D01*
X127097188Y-104952380D02*
X127211474Y-104952380D01*
X127211474Y-104952380D02*
X127287664Y-104990476D01*
X127287664Y-104990476D02*
X127325760Y-105028571D01*
X127325760Y-105028571D02*
X127363855Y-105104761D01*
X127363855Y-105104761D02*
X127363855Y-105409523D01*
X127363855Y-105409523D02*
X126563855Y-105409523D01*
X126563855Y-105409523D02*
X126563855Y-105142857D01*
X126563855Y-105142857D02*
X126601950Y-105066666D01*
X126601950Y-105066666D02*
X126640045Y-105028571D01*
X126640045Y-105028571D02*
X126716236Y-104990476D01*
X126716236Y-104990476D02*
X126792426Y-104990476D01*
X126792426Y-104990476D02*
X126868617Y-105028571D01*
X126868617Y-105028571D02*
X126906712Y-105066666D01*
X126906712Y-105066666D02*
X126944807Y-105142857D01*
X126944807Y-105142857D02*
X126944807Y-105409523D01*
D10*
X140858095Y-120976819D02*
X141429523Y-120976819D01*
X141143809Y-121976819D02*
X141143809Y-120976819D01*
X141762857Y-121976819D02*
X141762857Y-120976819D01*
X141762857Y-120976819D02*
X142143809Y-120976819D01*
X142143809Y-120976819D02*
X142239047Y-121024438D01*
X142239047Y-121024438D02*
X142286666Y-121072057D01*
X142286666Y-121072057D02*
X142334285Y-121167295D01*
X142334285Y-121167295D02*
X142334285Y-121310152D01*
X142334285Y-121310152D02*
X142286666Y-121405390D01*
X142286666Y-121405390D02*
X142239047Y-121453009D01*
X142239047Y-121453009D02*
X142143809Y-121500628D01*
X142143809Y-121500628D02*
X141762857Y-121500628D01*
X143239047Y-120976819D02*
X142762857Y-120976819D01*
X142762857Y-120976819D02*
X142715238Y-121453009D01*
X142715238Y-121453009D02*
X142762857Y-121405390D01*
X142762857Y-121405390D02*
X142858095Y-121357771D01*
X142858095Y-121357771D02*
X143096190Y-121357771D01*
X143096190Y-121357771D02*
X143191428Y-121405390D01*
X143191428Y-121405390D02*
X143239047Y-121453009D01*
X143239047Y-121453009D02*
X143286666Y-121548247D01*
X143286666Y-121548247D02*
X143286666Y-121786342D01*
X143286666Y-121786342D02*
X143239047Y-121881580D01*
X143239047Y-121881580D02*
X143191428Y-121929200D01*
X143191428Y-121929200D02*
X143096190Y-121976819D01*
X143096190Y-121976819D02*
X142858095Y-121976819D01*
X142858095Y-121976819D02*
X142762857Y-121929200D01*
X142762857Y-121929200D02*
X142715238Y-121881580D01*
X149954819Y-80870594D02*
X148954819Y-80870594D01*
X148954819Y-80870594D02*
X148954819Y-80632499D01*
X148954819Y-80632499D02*
X149002438Y-80489642D01*
X149002438Y-80489642D02*
X149097676Y-80394404D01*
X149097676Y-80394404D02*
X149192914Y-80346785D01*
X149192914Y-80346785D02*
X149383390Y-80299166D01*
X149383390Y-80299166D02*
X149526247Y-80299166D01*
X149526247Y-80299166D02*
X149716723Y-80346785D01*
X149716723Y-80346785D02*
X149811961Y-80394404D01*
X149811961Y-80394404D02*
X149907200Y-80489642D01*
X149907200Y-80489642D02*
X149954819Y-80632499D01*
X149954819Y-80632499D02*
X149954819Y-80870594D01*
X148954819Y-79965832D02*
X148954819Y-79299166D01*
X148954819Y-79299166D02*
X149954819Y-79727737D01*
X158854819Y-123714285D02*
X157854819Y-123714285D01*
X157854819Y-123714285D02*
X157854819Y-123476190D01*
X157854819Y-123476190D02*
X157902438Y-123333333D01*
X157902438Y-123333333D02*
X157997676Y-123238095D01*
X157997676Y-123238095D02*
X158092914Y-123190476D01*
X158092914Y-123190476D02*
X158283390Y-123142857D01*
X158283390Y-123142857D02*
X158426247Y-123142857D01*
X158426247Y-123142857D02*
X158616723Y-123190476D01*
X158616723Y-123190476D02*
X158711961Y-123238095D01*
X158711961Y-123238095D02*
X158807200Y-123333333D01*
X158807200Y-123333333D02*
X158854819Y-123476190D01*
X158854819Y-123476190D02*
X158854819Y-123714285D01*
X158854819Y-122190476D02*
X158854819Y-122761904D01*
X158854819Y-122476190D02*
X157854819Y-122476190D01*
X157854819Y-122476190D02*
X157997676Y-122571428D01*
X157997676Y-122571428D02*
X158092914Y-122666666D01*
X158092914Y-122666666D02*
X158140533Y-122761904D01*
X158854819Y-121238095D02*
X158854819Y-121809523D01*
X158854819Y-121523809D02*
X157854819Y-121523809D01*
X157854819Y-121523809D02*
X157997676Y-121619047D01*
X157997676Y-121619047D02*
X158092914Y-121714285D01*
X158092914Y-121714285D02*
X158140533Y-121809523D01*
X175404761Y-102550057D02*
X175309523Y-102502438D01*
X175309523Y-102502438D02*
X175214285Y-102407200D01*
X175214285Y-102407200D02*
X175071428Y-102264342D01*
X175071428Y-102264342D02*
X174976190Y-102216723D01*
X174976190Y-102216723D02*
X174880952Y-102216723D01*
X174928571Y-102454819D02*
X174833333Y-102407200D01*
X174833333Y-102407200D02*
X174738095Y-102311961D01*
X174738095Y-102311961D02*
X174690476Y-102121485D01*
X174690476Y-102121485D02*
X174690476Y-101788152D01*
X174690476Y-101788152D02*
X174738095Y-101597676D01*
X174738095Y-101597676D02*
X174833333Y-101502438D01*
X174833333Y-101502438D02*
X174928571Y-101454819D01*
X174928571Y-101454819D02*
X175119047Y-101454819D01*
X175119047Y-101454819D02*
X175214285Y-101502438D01*
X175214285Y-101502438D02*
X175309523Y-101597676D01*
X175309523Y-101597676D02*
X175357142Y-101788152D01*
X175357142Y-101788152D02*
X175357142Y-102121485D01*
X175357142Y-102121485D02*
X175309523Y-102311961D01*
X175309523Y-102311961D02*
X175214285Y-102407200D01*
X175214285Y-102407200D02*
X175119047Y-102454819D01*
X175119047Y-102454819D02*
X174928571Y-102454819D01*
X175738095Y-101550057D02*
X175785714Y-101502438D01*
X175785714Y-101502438D02*
X175880952Y-101454819D01*
X175880952Y-101454819D02*
X176119047Y-101454819D01*
X176119047Y-101454819D02*
X176214285Y-101502438D01*
X176214285Y-101502438D02*
X176261904Y-101550057D01*
X176261904Y-101550057D02*
X176309523Y-101645295D01*
X176309523Y-101645295D02*
X176309523Y-101740533D01*
X176309523Y-101740533D02*
X176261904Y-101883390D01*
X176261904Y-101883390D02*
X175690476Y-102454819D01*
X175690476Y-102454819D02*
X176309523Y-102454819D01*
X153954819Y-80870594D02*
X152954819Y-80870594D01*
X152954819Y-80870594D02*
X152954819Y-80632499D01*
X152954819Y-80632499D02*
X153002438Y-80489642D01*
X153002438Y-80489642D02*
X153097676Y-80394404D01*
X153097676Y-80394404D02*
X153192914Y-80346785D01*
X153192914Y-80346785D02*
X153383390Y-80299166D01*
X153383390Y-80299166D02*
X153526247Y-80299166D01*
X153526247Y-80299166D02*
X153716723Y-80346785D01*
X153716723Y-80346785D02*
X153811961Y-80394404D01*
X153811961Y-80394404D02*
X153907200Y-80489642D01*
X153907200Y-80489642D02*
X153954819Y-80632499D01*
X153954819Y-80632499D02*
X153954819Y-80870594D01*
X153383390Y-79727737D02*
X153335771Y-79822975D01*
X153335771Y-79822975D02*
X153288152Y-79870594D01*
X153288152Y-79870594D02*
X153192914Y-79918213D01*
X153192914Y-79918213D02*
X153145295Y-79918213D01*
X153145295Y-79918213D02*
X153050057Y-79870594D01*
X153050057Y-79870594D02*
X153002438Y-79822975D01*
X153002438Y-79822975D02*
X152954819Y-79727737D01*
X152954819Y-79727737D02*
X152954819Y-79537261D01*
X152954819Y-79537261D02*
X153002438Y-79442023D01*
X153002438Y-79442023D02*
X153050057Y-79394404D01*
X153050057Y-79394404D02*
X153145295Y-79346785D01*
X153145295Y-79346785D02*
X153192914Y-79346785D01*
X153192914Y-79346785D02*
X153288152Y-79394404D01*
X153288152Y-79394404D02*
X153335771Y-79442023D01*
X153335771Y-79442023D02*
X153383390Y-79537261D01*
X153383390Y-79537261D02*
X153383390Y-79727737D01*
X153383390Y-79727737D02*
X153431009Y-79822975D01*
X153431009Y-79822975D02*
X153478628Y-79870594D01*
X153478628Y-79870594D02*
X153573866Y-79918213D01*
X153573866Y-79918213D02*
X153764342Y-79918213D01*
X153764342Y-79918213D02*
X153859580Y-79870594D01*
X153859580Y-79870594D02*
X153907200Y-79822975D01*
X153907200Y-79822975D02*
X153954819Y-79727737D01*
X153954819Y-79727737D02*
X153954819Y-79537261D01*
X153954819Y-79537261D02*
X153907200Y-79442023D01*
X153907200Y-79442023D02*
X153859580Y-79394404D01*
X153859580Y-79394404D02*
X153764342Y-79346785D01*
X153764342Y-79346785D02*
X153573866Y-79346785D01*
X153573866Y-79346785D02*
X153478628Y-79394404D01*
X153478628Y-79394404D02*
X153431009Y-79442023D01*
X153431009Y-79442023D02*
X153383390Y-79537261D01*
X163618095Y-88529819D02*
X163618095Y-89339342D01*
X163618095Y-89339342D02*
X163665714Y-89434580D01*
X163665714Y-89434580D02*
X163713333Y-89482200D01*
X163713333Y-89482200D02*
X163808571Y-89529819D01*
X163808571Y-89529819D02*
X163999047Y-89529819D01*
X163999047Y-89529819D02*
X164094285Y-89482200D01*
X164094285Y-89482200D02*
X164141904Y-89434580D01*
X164141904Y-89434580D02*
X164189523Y-89339342D01*
X164189523Y-89339342D02*
X164189523Y-88529819D01*
X165189523Y-89529819D02*
X164618095Y-89529819D01*
X164903809Y-89529819D02*
X164903809Y-88529819D01*
X164903809Y-88529819D02*
X164808571Y-88672676D01*
X164808571Y-88672676D02*
X164713333Y-88767914D01*
X164713333Y-88767914D02*
X164618095Y-88815533D01*
X129954819Y-80870594D02*
X128954819Y-80870594D01*
X128954819Y-80870594D02*
X128954819Y-80632499D01*
X128954819Y-80632499D02*
X129002438Y-80489642D01*
X129002438Y-80489642D02*
X129097676Y-80394404D01*
X129097676Y-80394404D02*
X129192914Y-80346785D01*
X129192914Y-80346785D02*
X129383390Y-80299166D01*
X129383390Y-80299166D02*
X129526247Y-80299166D01*
X129526247Y-80299166D02*
X129716723Y-80346785D01*
X129716723Y-80346785D02*
X129811961Y-80394404D01*
X129811961Y-80394404D02*
X129907200Y-80489642D01*
X129907200Y-80489642D02*
X129954819Y-80632499D01*
X129954819Y-80632499D02*
X129954819Y-80870594D01*
X129050057Y-79918213D02*
X129002438Y-79870594D01*
X129002438Y-79870594D02*
X128954819Y-79775356D01*
X128954819Y-79775356D02*
X128954819Y-79537261D01*
X128954819Y-79537261D02*
X129002438Y-79442023D01*
X129002438Y-79442023D02*
X129050057Y-79394404D01*
X129050057Y-79394404D02*
X129145295Y-79346785D01*
X129145295Y-79346785D02*
X129240533Y-79346785D01*
X129240533Y-79346785D02*
X129383390Y-79394404D01*
X129383390Y-79394404D02*
X129954819Y-79965832D01*
X129954819Y-79965832D02*
X129954819Y-79346785D01*
X157333333Y-102624819D02*
X157000000Y-102148628D01*
X156761905Y-102624819D02*
X156761905Y-101624819D01*
X156761905Y-101624819D02*
X157142857Y-101624819D01*
X157142857Y-101624819D02*
X157238095Y-101672438D01*
X157238095Y-101672438D02*
X157285714Y-101720057D01*
X157285714Y-101720057D02*
X157333333Y-101815295D01*
X157333333Y-101815295D02*
X157333333Y-101958152D01*
X157333333Y-101958152D02*
X157285714Y-102053390D01*
X157285714Y-102053390D02*
X157238095Y-102101009D01*
X157238095Y-102101009D02*
X157142857Y-102148628D01*
X157142857Y-102148628D02*
X156761905Y-102148628D01*
X157809524Y-102624819D02*
X158000000Y-102624819D01*
X158000000Y-102624819D02*
X158095238Y-102577200D01*
X158095238Y-102577200D02*
X158142857Y-102529580D01*
X158142857Y-102529580D02*
X158238095Y-102386723D01*
X158238095Y-102386723D02*
X158285714Y-102196247D01*
X158285714Y-102196247D02*
X158285714Y-101815295D01*
X158285714Y-101815295D02*
X158238095Y-101720057D01*
X158238095Y-101720057D02*
X158190476Y-101672438D01*
X158190476Y-101672438D02*
X158095238Y-101624819D01*
X158095238Y-101624819D02*
X157904762Y-101624819D01*
X157904762Y-101624819D02*
X157809524Y-101672438D01*
X157809524Y-101672438D02*
X157761905Y-101720057D01*
X157761905Y-101720057D02*
X157714286Y-101815295D01*
X157714286Y-101815295D02*
X157714286Y-102053390D01*
X157714286Y-102053390D02*
X157761905Y-102148628D01*
X157761905Y-102148628D02*
X157809524Y-102196247D01*
X157809524Y-102196247D02*
X157904762Y-102243866D01*
X157904762Y-102243866D02*
X158095238Y-102243866D01*
X158095238Y-102243866D02*
X158190476Y-102196247D01*
X158190476Y-102196247D02*
X158238095Y-102148628D01*
X158238095Y-102148628D02*
X158285714Y-102053390D01*
X167166666Y-70102319D02*
X167166666Y-70816604D01*
X167166666Y-70816604D02*
X167119047Y-70959461D01*
X167119047Y-70959461D02*
X167023809Y-71054700D01*
X167023809Y-71054700D02*
X166880952Y-71102319D01*
X166880952Y-71102319D02*
X166785714Y-71102319D01*
X168071428Y-70435652D02*
X168071428Y-71102319D01*
X167833333Y-70054700D02*
X167595238Y-70768985D01*
X167595238Y-70768985D02*
X168214285Y-70768985D01*
X177333333Y-111284819D02*
X177000000Y-110808628D01*
X176761905Y-111284819D02*
X176761905Y-110284819D01*
X176761905Y-110284819D02*
X177142857Y-110284819D01*
X177142857Y-110284819D02*
X177238095Y-110332438D01*
X177238095Y-110332438D02*
X177285714Y-110380057D01*
X177285714Y-110380057D02*
X177333333Y-110475295D01*
X177333333Y-110475295D02*
X177333333Y-110618152D01*
X177333333Y-110618152D02*
X177285714Y-110713390D01*
X177285714Y-110713390D02*
X177238095Y-110761009D01*
X177238095Y-110761009D02*
X177142857Y-110808628D01*
X177142857Y-110808628D02*
X176761905Y-110808628D01*
X177714286Y-110380057D02*
X177761905Y-110332438D01*
X177761905Y-110332438D02*
X177857143Y-110284819D01*
X177857143Y-110284819D02*
X178095238Y-110284819D01*
X178095238Y-110284819D02*
X178190476Y-110332438D01*
X178190476Y-110332438D02*
X178238095Y-110380057D01*
X178238095Y-110380057D02*
X178285714Y-110475295D01*
X178285714Y-110475295D02*
X178285714Y-110570533D01*
X178285714Y-110570533D02*
X178238095Y-110713390D01*
X178238095Y-110713390D02*
X177666667Y-111284819D01*
X177666667Y-111284819D02*
X178285714Y-111284819D01*
X162404761Y-116150057D02*
X162309523Y-116102438D01*
X162309523Y-116102438D02*
X162214285Y-116007200D01*
X162214285Y-116007200D02*
X162071428Y-115864342D01*
X162071428Y-115864342D02*
X161976190Y-115816723D01*
X161976190Y-115816723D02*
X161880952Y-115816723D01*
X161928571Y-116054819D02*
X161833333Y-116007200D01*
X161833333Y-116007200D02*
X161738095Y-115911961D01*
X161738095Y-115911961D02*
X161690476Y-115721485D01*
X161690476Y-115721485D02*
X161690476Y-115388152D01*
X161690476Y-115388152D02*
X161738095Y-115197676D01*
X161738095Y-115197676D02*
X161833333Y-115102438D01*
X161833333Y-115102438D02*
X161928571Y-115054819D01*
X161928571Y-115054819D02*
X162119047Y-115054819D01*
X162119047Y-115054819D02*
X162214285Y-115102438D01*
X162214285Y-115102438D02*
X162309523Y-115197676D01*
X162309523Y-115197676D02*
X162357142Y-115388152D01*
X162357142Y-115388152D02*
X162357142Y-115721485D01*
X162357142Y-115721485D02*
X162309523Y-115911961D01*
X162309523Y-115911961D02*
X162214285Y-116007200D01*
X162214285Y-116007200D02*
X162119047Y-116054819D01*
X162119047Y-116054819D02*
X161928571Y-116054819D01*
X163261904Y-115054819D02*
X162785714Y-115054819D01*
X162785714Y-115054819D02*
X162738095Y-115531009D01*
X162738095Y-115531009D02*
X162785714Y-115483390D01*
X162785714Y-115483390D02*
X162880952Y-115435771D01*
X162880952Y-115435771D02*
X163119047Y-115435771D01*
X163119047Y-115435771D02*
X163214285Y-115483390D01*
X163214285Y-115483390D02*
X163261904Y-115531009D01*
X163261904Y-115531009D02*
X163309523Y-115626247D01*
X163309523Y-115626247D02*
X163309523Y-115864342D01*
X163309523Y-115864342D02*
X163261904Y-115959580D01*
X163261904Y-115959580D02*
X163214285Y-116007200D01*
X163214285Y-116007200D02*
X163119047Y-116054819D01*
X163119047Y-116054819D02*
X162880952Y-116054819D01*
X162880952Y-116054819D02*
X162785714Y-116007200D01*
X162785714Y-116007200D02*
X162738095Y-115959580D01*
X200738095Y-71454819D02*
X200738095Y-70454819D01*
X200738095Y-70931009D02*
X201309523Y-70931009D01*
X201309523Y-71454819D02*
X201309523Y-70454819D01*
X201738095Y-70550057D02*
X201785714Y-70502438D01*
X201785714Y-70502438D02*
X201880952Y-70454819D01*
X201880952Y-70454819D02*
X202119047Y-70454819D01*
X202119047Y-70454819D02*
X202214285Y-70502438D01*
X202214285Y-70502438D02*
X202261904Y-70550057D01*
X202261904Y-70550057D02*
X202309523Y-70645295D01*
X202309523Y-70645295D02*
X202309523Y-70740533D01*
X202309523Y-70740533D02*
X202261904Y-70883390D01*
X202261904Y-70883390D02*
X201690476Y-71454819D01*
X201690476Y-71454819D02*
X202309523Y-71454819D01*
X163738095Y-81506819D02*
X164309523Y-81506819D01*
X164023809Y-82506819D02*
X164023809Y-81506819D01*
X164642857Y-82506819D02*
X164642857Y-81506819D01*
X164642857Y-81506819D02*
X165023809Y-81506819D01*
X165023809Y-81506819D02*
X165119047Y-81554438D01*
X165119047Y-81554438D02*
X165166666Y-81602057D01*
X165166666Y-81602057D02*
X165214285Y-81697295D01*
X165214285Y-81697295D02*
X165214285Y-81840152D01*
X165214285Y-81840152D02*
X165166666Y-81935390D01*
X165166666Y-81935390D02*
X165119047Y-81983009D01*
X165119047Y-81983009D02*
X165023809Y-82030628D01*
X165023809Y-82030628D02*
X164642857Y-82030628D01*
X165547619Y-81506819D02*
X166166666Y-81506819D01*
X166166666Y-81506819D02*
X165833333Y-81887771D01*
X165833333Y-81887771D02*
X165976190Y-81887771D01*
X165976190Y-81887771D02*
X166071428Y-81935390D01*
X166071428Y-81935390D02*
X166119047Y-81983009D01*
X166119047Y-81983009D02*
X166166666Y-82078247D01*
X166166666Y-82078247D02*
X166166666Y-82316342D01*
X166166666Y-82316342D02*
X166119047Y-82411580D01*
X166119047Y-82411580D02*
X166071428Y-82459200D01*
X166071428Y-82459200D02*
X165976190Y-82506819D01*
X165976190Y-82506819D02*
X165690476Y-82506819D01*
X165690476Y-82506819D02*
X165595238Y-82459200D01*
X165595238Y-82459200D02*
X165547619Y-82411580D01*
X145954819Y-80870594D02*
X144954819Y-80870594D01*
X144954819Y-80870594D02*
X144954819Y-80632499D01*
X144954819Y-80632499D02*
X145002438Y-80489642D01*
X145002438Y-80489642D02*
X145097676Y-80394404D01*
X145097676Y-80394404D02*
X145192914Y-80346785D01*
X145192914Y-80346785D02*
X145383390Y-80299166D01*
X145383390Y-80299166D02*
X145526247Y-80299166D01*
X145526247Y-80299166D02*
X145716723Y-80346785D01*
X145716723Y-80346785D02*
X145811961Y-80394404D01*
X145811961Y-80394404D02*
X145907200Y-80489642D01*
X145907200Y-80489642D02*
X145954819Y-80632499D01*
X145954819Y-80632499D02*
X145954819Y-80870594D01*
X144954819Y-79442023D02*
X144954819Y-79632499D01*
X144954819Y-79632499D02*
X145002438Y-79727737D01*
X145002438Y-79727737D02*
X145050057Y-79775356D01*
X145050057Y-79775356D02*
X145192914Y-79870594D01*
X145192914Y-79870594D02*
X145383390Y-79918213D01*
X145383390Y-79918213D02*
X145764342Y-79918213D01*
X145764342Y-79918213D02*
X145859580Y-79870594D01*
X145859580Y-79870594D02*
X145907200Y-79822975D01*
X145907200Y-79822975D02*
X145954819Y-79727737D01*
X145954819Y-79727737D02*
X145954819Y-79537261D01*
X145954819Y-79537261D02*
X145907200Y-79442023D01*
X145907200Y-79442023D02*
X145859580Y-79394404D01*
X145859580Y-79394404D02*
X145764342Y-79346785D01*
X145764342Y-79346785D02*
X145526247Y-79346785D01*
X145526247Y-79346785D02*
X145431009Y-79394404D01*
X145431009Y-79394404D02*
X145383390Y-79442023D01*
X145383390Y-79442023D02*
X145335771Y-79537261D01*
X145335771Y-79537261D02*
X145335771Y-79727737D01*
X145335771Y-79727737D02*
X145383390Y-79822975D01*
X145383390Y-79822975D02*
X145431009Y-79870594D01*
X145431009Y-79870594D02*
X145526247Y-79918213D01*
X171738095Y-81506819D02*
X172309523Y-81506819D01*
X172023809Y-82506819D02*
X172023809Y-81506819D01*
X172642857Y-82506819D02*
X172642857Y-81506819D01*
X172642857Y-81506819D02*
X173023809Y-81506819D01*
X173023809Y-81506819D02*
X173119047Y-81554438D01*
X173119047Y-81554438D02*
X173166666Y-81602057D01*
X173166666Y-81602057D02*
X173214285Y-81697295D01*
X173214285Y-81697295D02*
X173214285Y-81840152D01*
X173214285Y-81840152D02*
X173166666Y-81935390D01*
X173166666Y-81935390D02*
X173119047Y-81983009D01*
X173119047Y-81983009D02*
X173023809Y-82030628D01*
X173023809Y-82030628D02*
X172642857Y-82030628D01*
X173595238Y-81602057D02*
X173642857Y-81554438D01*
X173642857Y-81554438D02*
X173738095Y-81506819D01*
X173738095Y-81506819D02*
X173976190Y-81506819D01*
X173976190Y-81506819D02*
X174071428Y-81554438D01*
X174071428Y-81554438D02*
X174119047Y-81602057D01*
X174119047Y-81602057D02*
X174166666Y-81697295D01*
X174166666Y-81697295D02*
X174166666Y-81792533D01*
X174166666Y-81792533D02*
X174119047Y-81935390D01*
X174119047Y-81935390D02*
X173547619Y-82506819D01*
X173547619Y-82506819D02*
X174166666Y-82506819D01*
X172833333Y-96859580D02*
X172785714Y-96907200D01*
X172785714Y-96907200D02*
X172642857Y-96954819D01*
X172642857Y-96954819D02*
X172547619Y-96954819D01*
X172547619Y-96954819D02*
X172404762Y-96907200D01*
X172404762Y-96907200D02*
X172309524Y-96811961D01*
X172309524Y-96811961D02*
X172261905Y-96716723D01*
X172261905Y-96716723D02*
X172214286Y-96526247D01*
X172214286Y-96526247D02*
X172214286Y-96383390D01*
X172214286Y-96383390D02*
X172261905Y-96192914D01*
X172261905Y-96192914D02*
X172309524Y-96097676D01*
X172309524Y-96097676D02*
X172404762Y-96002438D01*
X172404762Y-96002438D02*
X172547619Y-95954819D01*
X172547619Y-95954819D02*
X172642857Y-95954819D01*
X172642857Y-95954819D02*
X172785714Y-96002438D01*
X172785714Y-96002438D02*
X172833333Y-96050057D01*
X173166667Y-95954819D02*
X173785714Y-95954819D01*
X173785714Y-95954819D02*
X173452381Y-96335771D01*
X173452381Y-96335771D02*
X173595238Y-96335771D01*
X173595238Y-96335771D02*
X173690476Y-96383390D01*
X173690476Y-96383390D02*
X173738095Y-96431009D01*
X173738095Y-96431009D02*
X173785714Y-96526247D01*
X173785714Y-96526247D02*
X173785714Y-96764342D01*
X173785714Y-96764342D02*
X173738095Y-96859580D01*
X173738095Y-96859580D02*
X173690476Y-96907200D01*
X173690476Y-96907200D02*
X173595238Y-96954819D01*
X173595238Y-96954819D02*
X173309524Y-96954819D01*
X173309524Y-96954819D02*
X173214286Y-96907200D01*
X173214286Y-96907200D02*
X173166667Y-96859580D01*
X159894761Y-103150057D02*
X159799523Y-103102438D01*
X159799523Y-103102438D02*
X159704285Y-103007200D01*
X159704285Y-103007200D02*
X159561428Y-102864342D01*
X159561428Y-102864342D02*
X159466190Y-102816723D01*
X159466190Y-102816723D02*
X159370952Y-102816723D01*
X159418571Y-103054819D02*
X159323333Y-103007200D01*
X159323333Y-103007200D02*
X159228095Y-102911961D01*
X159228095Y-102911961D02*
X159180476Y-102721485D01*
X159180476Y-102721485D02*
X159180476Y-102388152D01*
X159180476Y-102388152D02*
X159228095Y-102197676D01*
X159228095Y-102197676D02*
X159323333Y-102102438D01*
X159323333Y-102102438D02*
X159418571Y-102054819D01*
X159418571Y-102054819D02*
X159609047Y-102054819D01*
X159609047Y-102054819D02*
X159704285Y-102102438D01*
X159704285Y-102102438D02*
X159799523Y-102197676D01*
X159799523Y-102197676D02*
X159847142Y-102388152D01*
X159847142Y-102388152D02*
X159847142Y-102721485D01*
X159847142Y-102721485D02*
X159799523Y-102911961D01*
X159799523Y-102911961D02*
X159704285Y-103007200D01*
X159704285Y-103007200D02*
X159609047Y-103054819D01*
X159609047Y-103054819D02*
X159418571Y-103054819D01*
X160180476Y-102054819D02*
X160799523Y-102054819D01*
X160799523Y-102054819D02*
X160466190Y-102435771D01*
X160466190Y-102435771D02*
X160609047Y-102435771D01*
X160609047Y-102435771D02*
X160704285Y-102483390D01*
X160704285Y-102483390D02*
X160751904Y-102531009D01*
X160751904Y-102531009D02*
X160799523Y-102626247D01*
X160799523Y-102626247D02*
X160799523Y-102864342D01*
X160799523Y-102864342D02*
X160751904Y-102959580D01*
X160751904Y-102959580D02*
X160704285Y-103007200D01*
X160704285Y-103007200D02*
X160609047Y-103054819D01*
X160609047Y-103054819D02*
X160323333Y-103054819D01*
X160323333Y-103054819D02*
X160228095Y-103007200D01*
X160228095Y-103007200D02*
X160180476Y-102959580D01*
X166833333Y-95954819D02*
X166500000Y-95478628D01*
X166261905Y-95954819D02*
X166261905Y-94954819D01*
X166261905Y-94954819D02*
X166642857Y-94954819D01*
X166642857Y-94954819D02*
X166738095Y-95002438D01*
X166738095Y-95002438D02*
X166785714Y-95050057D01*
X166785714Y-95050057D02*
X166833333Y-95145295D01*
X166833333Y-95145295D02*
X166833333Y-95288152D01*
X166833333Y-95288152D02*
X166785714Y-95383390D01*
X166785714Y-95383390D02*
X166738095Y-95431009D01*
X166738095Y-95431009D02*
X166642857Y-95478628D01*
X166642857Y-95478628D02*
X166261905Y-95478628D01*
X167738095Y-94954819D02*
X167261905Y-94954819D01*
X167261905Y-94954819D02*
X167214286Y-95431009D01*
X167214286Y-95431009D02*
X167261905Y-95383390D01*
X167261905Y-95383390D02*
X167357143Y-95335771D01*
X167357143Y-95335771D02*
X167595238Y-95335771D01*
X167595238Y-95335771D02*
X167690476Y-95383390D01*
X167690476Y-95383390D02*
X167738095Y-95431009D01*
X167738095Y-95431009D02*
X167785714Y-95526247D01*
X167785714Y-95526247D02*
X167785714Y-95764342D01*
X167785714Y-95764342D02*
X167738095Y-95859580D01*
X167738095Y-95859580D02*
X167690476Y-95907200D01*
X167690476Y-95907200D02*
X167595238Y-95954819D01*
X167595238Y-95954819D02*
X167357143Y-95954819D01*
X167357143Y-95954819D02*
X167261905Y-95907200D01*
X167261905Y-95907200D02*
X167214286Y-95859580D01*
X163357142Y-96954819D02*
X163023809Y-96478628D01*
X162785714Y-96954819D02*
X162785714Y-95954819D01*
X162785714Y-95954819D02*
X163166666Y-95954819D01*
X163166666Y-95954819D02*
X163261904Y-96002438D01*
X163261904Y-96002438D02*
X163309523Y-96050057D01*
X163309523Y-96050057D02*
X163357142Y-96145295D01*
X163357142Y-96145295D02*
X163357142Y-96288152D01*
X163357142Y-96288152D02*
X163309523Y-96383390D01*
X163309523Y-96383390D02*
X163261904Y-96431009D01*
X163261904Y-96431009D02*
X163166666Y-96478628D01*
X163166666Y-96478628D02*
X162785714Y-96478628D01*
X164309523Y-96954819D02*
X163738095Y-96954819D01*
X164023809Y-96954819D02*
X164023809Y-95954819D01*
X164023809Y-95954819D02*
X163928571Y-96097676D01*
X163928571Y-96097676D02*
X163833333Y-96192914D01*
X163833333Y-96192914D02*
X163738095Y-96240533D01*
X164928571Y-95954819D02*
X165023809Y-95954819D01*
X165023809Y-95954819D02*
X165119047Y-96002438D01*
X165119047Y-96002438D02*
X165166666Y-96050057D01*
X165166666Y-96050057D02*
X165214285Y-96145295D01*
X165214285Y-96145295D02*
X165261904Y-96335771D01*
X165261904Y-96335771D02*
X165261904Y-96573866D01*
X165261904Y-96573866D02*
X165214285Y-96764342D01*
X165214285Y-96764342D02*
X165166666Y-96859580D01*
X165166666Y-96859580D02*
X165119047Y-96907200D01*
X165119047Y-96907200D02*
X165023809Y-96954819D01*
X165023809Y-96954819D02*
X164928571Y-96954819D01*
X164928571Y-96954819D02*
X164833333Y-96907200D01*
X164833333Y-96907200D02*
X164785714Y-96859580D01*
X164785714Y-96859580D02*
X164738095Y-96764342D01*
X164738095Y-96764342D02*
X164690476Y-96573866D01*
X164690476Y-96573866D02*
X164690476Y-96335771D01*
X164690476Y-96335771D02*
X164738095Y-96145295D01*
X164738095Y-96145295D02*
X164785714Y-96050057D01*
X164785714Y-96050057D02*
X164833333Y-96002438D01*
X164833333Y-96002438D02*
X164928571Y-95954819D01*
X146738095Y-126506819D02*
X147309523Y-126506819D01*
X147023809Y-127506819D02*
X147023809Y-126506819D01*
X147642857Y-127506819D02*
X147642857Y-126506819D01*
X147642857Y-126506819D02*
X148023809Y-126506819D01*
X148023809Y-126506819D02*
X148119047Y-126554438D01*
X148119047Y-126554438D02*
X148166666Y-126602057D01*
X148166666Y-126602057D02*
X148214285Y-126697295D01*
X148214285Y-126697295D02*
X148214285Y-126840152D01*
X148214285Y-126840152D02*
X148166666Y-126935390D01*
X148166666Y-126935390D02*
X148119047Y-126983009D01*
X148119047Y-126983009D02*
X148023809Y-127030628D01*
X148023809Y-127030628D02*
X147642857Y-127030628D01*
X149071428Y-126840152D02*
X149071428Y-127506819D01*
X148833333Y-126459200D02*
X148595238Y-127173485D01*
X148595238Y-127173485D02*
X149214285Y-127173485D01*
X160404761Y-97550057D02*
X160309523Y-97502438D01*
X160309523Y-97502438D02*
X160214285Y-97407200D01*
X160214285Y-97407200D02*
X160071428Y-97264342D01*
X160071428Y-97264342D02*
X159976190Y-97216723D01*
X159976190Y-97216723D02*
X159880952Y-97216723D01*
X159928571Y-97454819D02*
X159833333Y-97407200D01*
X159833333Y-97407200D02*
X159738095Y-97311961D01*
X159738095Y-97311961D02*
X159690476Y-97121485D01*
X159690476Y-97121485D02*
X159690476Y-96788152D01*
X159690476Y-96788152D02*
X159738095Y-96597676D01*
X159738095Y-96597676D02*
X159833333Y-96502438D01*
X159833333Y-96502438D02*
X159928571Y-96454819D01*
X159928571Y-96454819D02*
X160119047Y-96454819D01*
X160119047Y-96454819D02*
X160214285Y-96502438D01*
X160214285Y-96502438D02*
X160309523Y-96597676D01*
X160309523Y-96597676D02*
X160357142Y-96788152D01*
X160357142Y-96788152D02*
X160357142Y-97121485D01*
X160357142Y-97121485D02*
X160309523Y-97311961D01*
X160309523Y-97311961D02*
X160214285Y-97407200D01*
X160214285Y-97407200D02*
X160119047Y-97454819D01*
X160119047Y-97454819D02*
X159928571Y-97454819D01*
X161214285Y-96454819D02*
X161023809Y-96454819D01*
X161023809Y-96454819D02*
X160928571Y-96502438D01*
X160928571Y-96502438D02*
X160880952Y-96550057D01*
X160880952Y-96550057D02*
X160785714Y-96692914D01*
X160785714Y-96692914D02*
X160738095Y-96883390D01*
X160738095Y-96883390D02*
X160738095Y-97264342D01*
X160738095Y-97264342D02*
X160785714Y-97359580D01*
X160785714Y-97359580D02*
X160833333Y-97407200D01*
X160833333Y-97407200D02*
X160928571Y-97454819D01*
X160928571Y-97454819D02*
X161119047Y-97454819D01*
X161119047Y-97454819D02*
X161214285Y-97407200D01*
X161214285Y-97407200D02*
X161261904Y-97359580D01*
X161261904Y-97359580D02*
X161309523Y-97264342D01*
X161309523Y-97264342D02*
X161309523Y-97026247D01*
X161309523Y-97026247D02*
X161261904Y-96931009D01*
X161261904Y-96931009D02*
X161214285Y-96883390D01*
X161214285Y-96883390D02*
X161119047Y-96835771D01*
X161119047Y-96835771D02*
X160928571Y-96835771D01*
X160928571Y-96835771D02*
X160833333Y-96883390D01*
X160833333Y-96883390D02*
X160785714Y-96931009D01*
X160785714Y-96931009D02*
X160738095Y-97026247D01*
X156284819Y-119166666D02*
X155808628Y-119499999D01*
X156284819Y-119738094D02*
X155284819Y-119738094D01*
X155284819Y-119738094D02*
X155284819Y-119357142D01*
X155284819Y-119357142D02*
X155332438Y-119261904D01*
X155332438Y-119261904D02*
X155380057Y-119214285D01*
X155380057Y-119214285D02*
X155475295Y-119166666D01*
X155475295Y-119166666D02*
X155618152Y-119166666D01*
X155618152Y-119166666D02*
X155713390Y-119214285D01*
X155713390Y-119214285D02*
X155761009Y-119261904D01*
X155761009Y-119261904D02*
X155808628Y-119357142D01*
X155808628Y-119357142D02*
X155808628Y-119738094D01*
X155284819Y-118833332D02*
X155284819Y-118166666D01*
X155284819Y-118166666D02*
X156284819Y-118595237D01*
X165404761Y-104550057D02*
X165309523Y-104502438D01*
X165309523Y-104502438D02*
X165214285Y-104407200D01*
X165214285Y-104407200D02*
X165071428Y-104264342D01*
X165071428Y-104264342D02*
X164976190Y-104216723D01*
X164976190Y-104216723D02*
X164880952Y-104216723D01*
X164928571Y-104454819D02*
X164833333Y-104407200D01*
X164833333Y-104407200D02*
X164738095Y-104311961D01*
X164738095Y-104311961D02*
X164690476Y-104121485D01*
X164690476Y-104121485D02*
X164690476Y-103788152D01*
X164690476Y-103788152D02*
X164738095Y-103597676D01*
X164738095Y-103597676D02*
X164833333Y-103502438D01*
X164833333Y-103502438D02*
X164928571Y-103454819D01*
X164928571Y-103454819D02*
X165119047Y-103454819D01*
X165119047Y-103454819D02*
X165214285Y-103502438D01*
X165214285Y-103502438D02*
X165309523Y-103597676D01*
X165309523Y-103597676D02*
X165357142Y-103788152D01*
X165357142Y-103788152D02*
X165357142Y-104121485D01*
X165357142Y-104121485D02*
X165309523Y-104311961D01*
X165309523Y-104311961D02*
X165214285Y-104407200D01*
X165214285Y-104407200D02*
X165119047Y-104454819D01*
X165119047Y-104454819D02*
X164928571Y-104454819D01*
X166309523Y-104454819D02*
X165738095Y-104454819D01*
X166023809Y-104454819D02*
X166023809Y-103454819D01*
X166023809Y-103454819D02*
X165928571Y-103597676D01*
X165928571Y-103597676D02*
X165833333Y-103692914D01*
X165833333Y-103692914D02*
X165738095Y-103740533D01*
X172785714Y-110304819D02*
X172785714Y-109304819D01*
X172785714Y-109304819D02*
X173023809Y-109304819D01*
X173023809Y-109304819D02*
X173166666Y-109352438D01*
X173166666Y-109352438D02*
X173261904Y-109447676D01*
X173261904Y-109447676D02*
X173309523Y-109542914D01*
X173309523Y-109542914D02*
X173357142Y-109733390D01*
X173357142Y-109733390D02*
X173357142Y-109876247D01*
X173357142Y-109876247D02*
X173309523Y-110066723D01*
X173309523Y-110066723D02*
X173261904Y-110161961D01*
X173261904Y-110161961D02*
X173166666Y-110257200D01*
X173166666Y-110257200D02*
X173023809Y-110304819D01*
X173023809Y-110304819D02*
X172785714Y-110304819D01*
X174309523Y-110304819D02*
X173738095Y-110304819D01*
X174023809Y-110304819D02*
X174023809Y-109304819D01*
X174023809Y-109304819D02*
X173928571Y-109447676D01*
X173928571Y-109447676D02*
X173833333Y-109542914D01*
X173833333Y-109542914D02*
X173738095Y-109590533D01*
X174642857Y-109304819D02*
X175261904Y-109304819D01*
X175261904Y-109304819D02*
X174928571Y-109685771D01*
X174928571Y-109685771D02*
X175071428Y-109685771D01*
X175071428Y-109685771D02*
X175166666Y-109733390D01*
X175166666Y-109733390D02*
X175214285Y-109781009D01*
X175214285Y-109781009D02*
X175261904Y-109876247D01*
X175261904Y-109876247D02*
X175261904Y-110114342D01*
X175261904Y-110114342D02*
X175214285Y-110209580D01*
X175214285Y-110209580D02*
X175166666Y-110257200D01*
X175166666Y-110257200D02*
X175071428Y-110304819D01*
X175071428Y-110304819D02*
X174785714Y-110304819D01*
X174785714Y-110304819D02*
X174690476Y-110257200D01*
X174690476Y-110257200D02*
X174642857Y-110209580D01*
X200166666Y-117954819D02*
X200166666Y-118669104D01*
X200166666Y-118669104D02*
X200119047Y-118811961D01*
X200119047Y-118811961D02*
X200023809Y-118907200D01*
X200023809Y-118907200D02*
X199880952Y-118954819D01*
X199880952Y-118954819D02*
X199785714Y-118954819D01*
X201119047Y-117954819D02*
X200642857Y-117954819D01*
X200642857Y-117954819D02*
X200595238Y-118431009D01*
X200595238Y-118431009D02*
X200642857Y-118383390D01*
X200642857Y-118383390D02*
X200738095Y-118335771D01*
X200738095Y-118335771D02*
X200976190Y-118335771D01*
X200976190Y-118335771D02*
X201071428Y-118383390D01*
X201071428Y-118383390D02*
X201119047Y-118431009D01*
X201119047Y-118431009D02*
X201166666Y-118526247D01*
X201166666Y-118526247D02*
X201166666Y-118764342D01*
X201166666Y-118764342D02*
X201119047Y-118859580D01*
X201119047Y-118859580D02*
X201071428Y-118907200D01*
X201071428Y-118907200D02*
X200976190Y-118954819D01*
X200976190Y-118954819D02*
X200738095Y-118954819D01*
X200738095Y-118954819D02*
X200642857Y-118907200D01*
X200642857Y-118907200D02*
X200595238Y-118859580D01*
D12*
X189555238Y-106759093D02*
X190164762Y-106759093D01*
X189860000Y-107063855D02*
X189860000Y-106454331D01*
X192195237Y-81435283D02*
X192576190Y-81435283D01*
X192119047Y-81663855D02*
X192385714Y-80863855D01*
X192385714Y-80863855D02*
X192652380Y-81663855D01*
X192919047Y-81663855D02*
X192919047Y-80863855D01*
X192919047Y-80863855D02*
X193376190Y-81663855D01*
X193376190Y-81663855D02*
X193376190Y-80863855D01*
X193680951Y-80863855D02*
X194214285Y-80863855D01*
X194214285Y-80863855D02*
X193680951Y-81663855D01*
X193680951Y-81663855D02*
X194214285Y-81663855D01*
X194519047Y-81244807D02*
X194785713Y-81244807D01*
X194899999Y-81663855D02*
X194519047Y-81663855D01*
X194519047Y-81663855D02*
X194519047Y-80863855D01*
X194519047Y-80863855D02*
X194899999Y-80863855D01*
X195242857Y-81663855D02*
X195242857Y-80863855D01*
X196042856Y-80901950D02*
X195966666Y-80863855D01*
X195966666Y-80863855D02*
X195852380Y-80863855D01*
X195852380Y-80863855D02*
X195738094Y-80901950D01*
X195738094Y-80901950D02*
X195661904Y-80978140D01*
X195661904Y-80978140D02*
X195623809Y-81054331D01*
X195623809Y-81054331D02*
X195585713Y-81206712D01*
X195585713Y-81206712D02*
X195585713Y-81320998D01*
X195585713Y-81320998D02*
X195623809Y-81473379D01*
X195623809Y-81473379D02*
X195661904Y-81549569D01*
X195661904Y-81549569D02*
X195738094Y-81625760D01*
X195738094Y-81625760D02*
X195852380Y-81663855D01*
X195852380Y-81663855D02*
X195928571Y-81663855D01*
X195928571Y-81663855D02*
X196042856Y-81625760D01*
X196042856Y-81625760D02*
X196080952Y-81587664D01*
X196080952Y-81587664D02*
X196080952Y-81320998D01*
X196080952Y-81320998D02*
X195928571Y-81320998D01*
X196423809Y-81244807D02*
X196690475Y-81244807D01*
X196804761Y-81663855D02*
X196423809Y-81663855D01*
X196423809Y-81663855D02*
X196423809Y-80863855D01*
X196423809Y-80863855D02*
X196804761Y-80863855D01*
%TO.C,R4*%
X170846359Y-111620000D02*
X171153641Y-111620000D01*
X170846359Y-112380000D02*
X171153641Y-112380000D01*
%TO.C,R8*%
X168346359Y-103120000D02*
X168653641Y-103120000D01*
X168346359Y-103880000D02*
X168653641Y-103880000D01*
%TO.C,R6*%
X156610000Y-116653641D02*
X156610000Y-116346359D01*
X157370000Y-116653641D02*
X157370000Y-116346359D01*
%TO.C,R1*%
X162846359Y-106620000D02*
X163153641Y-106620000D01*
X162846359Y-107380000D02*
X163153641Y-107380000D01*
%TO.C,D3*%
X134500000Y-81742500D02*
X134500000Y-79082500D01*
X134500000Y-81742500D02*
X136200000Y-81742500D01*
X136200000Y-81742500D02*
X136200000Y-79082500D01*
%TO.C,D4*%
X138500000Y-81742500D02*
X138500000Y-79082500D01*
X138500000Y-81742500D02*
X140200000Y-81742500D01*
X140200000Y-81742500D02*
X140200000Y-79082500D01*
%TO.C,F1*%
X166397936Y-117090000D02*
X167602064Y-117090000D01*
X166397936Y-118910000D02*
X167602064Y-118910000D01*
%TO.C,D9*%
X170331250Y-123510000D02*
X170331250Y-118000000D01*
X170331250Y-123510000D02*
X173631250Y-123510000D01*
X173631250Y-123510000D02*
X173631250Y-118000000D01*
%TO.C,D14*%
X164940000Y-99240000D02*
X164990000Y-99240000D01*
X164940000Y-100760000D02*
X164940000Y-99240000D01*
X165940000Y-100760000D02*
X164940000Y-100760000D01*
X166110000Y-99240000D02*
X166890000Y-99240000D01*
X168010000Y-99240000D02*
X168060000Y-99240000D01*
X168060000Y-99240000D02*
X168060000Y-100760000D01*
X168060000Y-100760000D02*
X167060000Y-100760000D01*
X166880000Y-98700000D02*
X166550000Y-98940000D01*
X166550000Y-98460000D01*
X166880000Y-98700000D01*
G36*
X166880000Y-98700000D02*
G01*
X166550000Y-98940000D01*
X166550000Y-98460000D01*
X166880000Y-98700000D01*
G37*
%TO.C,L1*%
X169238748Y-89865000D02*
X169761252Y-89865000D01*
X169238748Y-92085000D02*
X169761252Y-92085000D01*
%TO.C,D1*%
X126500000Y-81742500D02*
X126500000Y-79082500D01*
X126500000Y-81742500D02*
X128200000Y-81742500D01*
X128200000Y-81742500D02*
X128200000Y-79082500D01*
%TO.C,J2*%
X132960000Y-120472500D02*
X138740000Y-120472500D01*
X132960000Y-120992500D02*
X138740000Y-120992500D01*
X132960000Y-126292500D02*
X133550000Y-126292500D01*
X132960000Y-126912500D02*
X132960000Y-120472500D01*
X133550000Y-126912500D02*
X132960000Y-126912500D01*
X135610000Y-126292500D02*
X136090000Y-126292500D01*
X136090000Y-126912500D02*
X135610000Y-126912500D01*
X138150000Y-126292500D02*
X138740000Y-126292500D01*
X138740000Y-120472500D02*
X138740000Y-126912500D01*
X138740000Y-126912500D02*
X138150000Y-126912500D01*
X134580000Y-127262500D02*
X135020000Y-127872500D01*
X134140000Y-127872500D01*
X134580000Y-127262500D01*
G36*
X135020000Y-127872500D02*
G01*
X134140000Y-127872500D01*
X134580000Y-127262500D01*
X135020000Y-127872500D01*
G37*
%TO.C,J1*%
X160380000Y-120780000D02*
X166160000Y-120780000D01*
X160380000Y-121300000D02*
X166160000Y-121300000D01*
X160380000Y-126600000D02*
X160970000Y-126600000D01*
X160380000Y-127220000D02*
X160380000Y-120780000D01*
X160970000Y-127220000D02*
X160380000Y-127220000D01*
X163030000Y-126600000D02*
X163510000Y-126600000D01*
X163510000Y-127220000D02*
X163030000Y-127220000D01*
X165570000Y-126600000D02*
X166160000Y-126600000D01*
X166160000Y-120780000D02*
X166160000Y-127220000D01*
X166160000Y-127220000D02*
X165570000Y-127220000D01*
X162000000Y-127570000D02*
X162440000Y-128180000D01*
X161560000Y-128180000D01*
X162000000Y-127570000D01*
G36*
X162440000Y-128180000D02*
G01*
X161560000Y-128180000D01*
X162000000Y-127570000D01*
X162440000Y-128180000D01*
G37*
%TO.C,D12*%
X161440000Y-110240000D02*
X162440000Y-110240000D01*
X161440000Y-111760000D02*
X161440000Y-110240000D01*
X161490000Y-111760000D02*
X161440000Y-111760000D01*
X163390000Y-111760000D02*
X162610000Y-111760000D01*
X163560000Y-110240000D02*
X164560000Y-110240000D01*
X164560000Y-110240000D02*
X164560000Y-111760000D01*
X164560000Y-111760000D02*
X164510000Y-111760000D01*
X162620000Y-112300000D02*
X162950000Y-112060000D01*
X162950000Y-112540000D01*
X162620000Y-112300000D01*
G36*
X162950000Y-112540000D02*
G01*
X162620000Y-112300000D01*
X162950000Y-112060000D01*
X162950000Y-112540000D01*
G37*
%TO.C,R11*%
X157346359Y-97120000D02*
X157653641Y-97120000D01*
X157346359Y-97880000D02*
X157653641Y-97880000D01*
%TO.C,D10*%
X172390000Y-86650000D02*
X172390000Y-88350000D01*
X172390000Y-86650000D02*
X175050000Y-86650000D01*
X172390000Y-88350000D02*
X175050000Y-88350000D01*
%TO.C,TP1*%
X176700000Y-123500000D02*
G75*
G02*
X175300000Y-123500000I-700000J0D01*
G01*
X175300000Y-123500000D02*
G75*
G02*
X176700000Y-123500000I700000J0D01*
G01*
%TO.C,D5*%
X142500000Y-81742500D02*
X142500000Y-79082500D01*
X142500000Y-81742500D02*
X144200000Y-81742500D01*
X144200000Y-81742500D02*
X144200000Y-79082500D01*
%TO.C,J6*%
X183110000Y-120972500D02*
X188890000Y-120972500D01*
X183110000Y-121492500D02*
X188890000Y-121492500D01*
X183110000Y-126792500D02*
X183700000Y-126792500D01*
X183110000Y-127412500D02*
X183110000Y-120972500D01*
X183700000Y-127412500D02*
X183110000Y-127412500D01*
X185760000Y-126792500D02*
X186240000Y-126792500D01*
X186240000Y-127412500D02*
X185760000Y-127412500D01*
X188300000Y-126792500D02*
X188890000Y-126792500D01*
X188890000Y-120972500D02*
X188890000Y-127412500D01*
X188890000Y-127412500D02*
X188300000Y-127412500D01*
X184730000Y-127762500D02*
X185170000Y-128372500D01*
X184290000Y-128372500D01*
X184730000Y-127762500D01*
G36*
X185170000Y-128372500D02*
G01*
X184290000Y-128372500D01*
X184730000Y-127762500D01*
X185170000Y-128372500D01*
G37*
%TO.C,J3*%
X129220000Y-85280000D02*
X148320000Y-85280000D01*
X129220000Y-91720000D02*
X129220000Y-85280000D01*
X148920000Y-85280000D02*
X150240000Y-85280000D01*
X150240000Y-85280000D02*
X150240000Y-91720000D01*
X150240000Y-85900000D02*
X129220000Y-85900000D01*
X150240000Y-91200000D02*
X129220000Y-91200000D01*
X150240000Y-91720000D02*
X129220000Y-91720000D01*
X148620000Y-85280000D02*
X148180000Y-84670000D01*
X149060000Y-84670000D01*
X148620000Y-85280000D01*
G36*
X148620000Y-85280000D02*
G01*
X148180000Y-84670000D01*
X149060000Y-84670000D01*
X148620000Y-85280000D01*
G37*
%TO.C,C1*%
X176738748Y-119765000D02*
X177261252Y-119765000D01*
X176738748Y-121235000D02*
X177261252Y-121235000D01*
%TO.C,R3*%
X157130000Y-107846359D02*
X157130000Y-108153641D01*
X157890000Y-107846359D02*
X157890000Y-108153641D01*
%TO.C,C2*%
X158765000Y-90761252D02*
X158765000Y-90238748D01*
X160235000Y-90761252D02*
X160235000Y-90238748D01*
%TO.C,U2*%
X126000000Y-102000000D02*
X126000000Y-110000000D01*
X126000000Y-110000000D02*
X128000000Y-110000000D01*
X128000000Y-94500000D02*
X154000000Y-94500000D01*
X128000000Y-102000000D02*
X126000000Y-102000000D01*
X128000000Y-117500000D02*
X128000000Y-94500000D01*
X154000000Y-94500000D02*
X154000000Y-117500000D01*
X154000000Y-117500000D02*
X128000000Y-117500000D01*
X131840000Y-95840000D02*
G75*
G02*
X129840000Y-95840000I-1000000J0D01*
G01*
X129840000Y-95840000D02*
G75*
G02*
X131840000Y-95840000I1000000J0D01*
G01*
%TO.C,TP5*%
X143700000Y-124000000D02*
G75*
G02*
X142300000Y-124000000I-700000J0D01*
G01*
X142300000Y-124000000D02*
G75*
G02*
X143700000Y-124000000I700000J0D01*
G01*
%TO.C,D7*%
X150500000Y-81742500D02*
X150500000Y-79082500D01*
X150500000Y-81742500D02*
X152200000Y-81742500D01*
X152200000Y-81742500D02*
X152200000Y-79082500D01*
%TO.C,D11*%
X154440000Y-121740000D02*
X154490000Y-121740000D01*
X154440000Y-123260000D02*
X154440000Y-121740000D01*
X155440000Y-123260000D02*
X154440000Y-123260000D01*
X155610000Y-121740000D02*
X156390000Y-121740000D01*
X157510000Y-121740000D02*
X157560000Y-121740000D01*
X157560000Y-121740000D02*
X157560000Y-123260000D01*
X157560000Y-123260000D02*
X156560000Y-123260000D01*
X156380000Y-121200000D02*
X156050000Y-121440000D01*
X156050000Y-120960000D01*
X156380000Y-121200000D01*
G36*
X156380000Y-121200000D02*
G01*
X156050000Y-121440000D01*
X156050000Y-120960000D01*
X156380000Y-121200000D01*
G37*
%TO.C,Q2*%
X171440000Y-102740000D02*
X171490000Y-102740000D01*
X171440000Y-104260000D02*
X171440000Y-102740000D01*
X172440000Y-104260000D02*
X171440000Y-104260000D01*
X172610000Y-102740000D02*
X173390000Y-102740000D01*
X174510000Y-102740000D02*
X174560000Y-102740000D01*
X174560000Y-102740000D02*
X174560000Y-104260000D01*
X174560000Y-104260000D02*
X173560000Y-104260000D01*
X173380000Y-102200000D02*
X173050000Y-102440000D01*
X173050000Y-101960000D01*
X173380000Y-102200000D01*
G36*
X173380000Y-102200000D02*
G01*
X173050000Y-102440000D01*
X173050000Y-101960000D01*
X173380000Y-102200000D01*
G37*
%TO.C,D8*%
X154500000Y-81742500D02*
X154500000Y-79082500D01*
X154500000Y-81742500D02*
X156200000Y-81742500D01*
X156200000Y-81742500D02*
X156200000Y-79082500D01*
%TO.C,U1*%
X162990000Y-89835000D02*
X164990000Y-89835000D01*
X163000000Y-92115000D02*
X165000000Y-92115000D01*
X162630000Y-89905000D02*
X162350000Y-89905000D01*
X162630000Y-89625000D01*
X162630000Y-89905000D01*
G36*
X162630000Y-89905000D02*
G01*
X162350000Y-89905000D01*
X162630000Y-89625000D01*
X162630000Y-89905000D01*
G37*
%TO.C,D2*%
X130500000Y-81742500D02*
X130500000Y-79082500D01*
X130500000Y-81742500D02*
X132200000Y-81742500D01*
X132200000Y-81742500D02*
X132200000Y-79082500D01*
%TO.C,R9*%
X157653641Y-100620000D02*
X157346359Y-100620000D01*
X157653641Y-101380000D02*
X157346359Y-101380000D01*
%TO.C,J4*%
X156990000Y-71647500D02*
X178010000Y-71647500D01*
X156990000Y-72167500D02*
X178010000Y-72167500D01*
X156990000Y-77467500D02*
X178010000Y-77467500D01*
X156990000Y-78087500D02*
X156990000Y-71647500D01*
X158310000Y-78087500D02*
X156990000Y-78087500D01*
X178010000Y-71647500D02*
X178010000Y-78087500D01*
X178010000Y-78087500D02*
X158910000Y-78087500D01*
X158610000Y-78087500D02*
X159050000Y-78697500D01*
X158170000Y-78697500D01*
X158610000Y-78087500D01*
G36*
X159050000Y-78697500D02*
G01*
X158170000Y-78697500D01*
X158610000Y-78087500D01*
X159050000Y-78697500D01*
G37*
%TO.C,R2*%
X176346359Y-111620000D02*
X176653641Y-111620000D01*
X176346359Y-112380000D02*
X176653641Y-112380000D01*
%TO.C,Q5*%
X161740000Y-116440000D02*
X163260000Y-116440000D01*
X161740000Y-116490000D02*
X161740000Y-116440000D01*
X161740000Y-118390000D02*
X161740000Y-117610000D01*
X161740000Y-119560000D02*
X161740000Y-119510000D01*
X163260000Y-116440000D02*
X163260000Y-117440000D01*
X163260000Y-118560000D02*
X163260000Y-119560000D01*
X163260000Y-119560000D02*
X161740000Y-119560000D01*
X161200000Y-117620000D02*
X161440000Y-117950000D01*
X160960000Y-117950000D01*
X161200000Y-117620000D01*
G36*
X161440000Y-117950000D02*
G01*
X160960000Y-117950000D01*
X161200000Y-117620000D01*
X161440000Y-117950000D01*
G37*
%TO.C,TP3*%
X165700000Y-83500000D02*
G75*
G02*
X164300000Y-83500000I-700000J0D01*
G01*
X164300000Y-83500000D02*
G75*
G02*
X165700000Y-83500000I700000J0D01*
G01*
%TO.C,D6*%
X146500000Y-81742500D02*
X146500000Y-79082500D01*
X146500000Y-81742500D02*
X148200000Y-81742500D01*
X148200000Y-81742500D02*
X148200000Y-79082500D01*
%TO.C,TP2*%
X173700000Y-83500000D02*
G75*
G02*
X172300000Y-83500000I-700000J0D01*
G01*
X172300000Y-83500000D02*
G75*
G02*
X173700000Y-83500000I700000J0D01*
G01*
%TO.C,C3*%
X172265000Y-93738748D02*
X172265000Y-94261252D01*
X173735000Y-93738748D02*
X173735000Y-94261252D01*
%TO.C,Q3*%
X159230000Y-103440000D02*
X160750000Y-103440000D01*
X159230000Y-103490000D02*
X159230000Y-103440000D01*
X159230000Y-105390000D02*
X159230000Y-104610000D01*
X159230000Y-106560000D02*
X159230000Y-106510000D01*
X160750000Y-103440000D02*
X160750000Y-104440000D01*
X160750000Y-105560000D02*
X160750000Y-106560000D01*
X160750000Y-106560000D02*
X159230000Y-106560000D01*
X158690000Y-104620000D02*
X158930000Y-104950000D01*
X158450000Y-104950000D01*
X158690000Y-104620000D01*
G36*
X158930000Y-104950000D02*
G01*
X158450000Y-104950000D01*
X158690000Y-104620000D01*
X158930000Y-104950000D01*
G37*
%TO.C,R5*%
X166620000Y-94153641D02*
X166620000Y-93846359D01*
X167380000Y-94153641D02*
X167380000Y-93846359D01*
%TO.C,R10*%
X163346359Y-98120000D02*
X163653641Y-98120000D01*
X163346359Y-98880000D02*
X163653641Y-98880000D01*
%TO.C,TP4*%
X148700000Y-124000000D02*
G75*
G02*
X147300000Y-124000000I-700000J0D01*
G01*
X147300000Y-124000000D02*
G75*
G02*
X148700000Y-124000000I700000J0D01*
G01*
%TO.C,Q6*%
X160677500Y-98390000D02*
X162197500Y-98390000D01*
X160677500Y-98440000D02*
X160677500Y-98390000D01*
X160677500Y-100340000D02*
X160677500Y-99560000D01*
X160677500Y-101510000D02*
X160677500Y-101460000D01*
X162197500Y-98390000D02*
X162197500Y-99390000D01*
X162197500Y-100510000D02*
X162197500Y-101510000D01*
X162197500Y-101510000D02*
X160677500Y-101510000D01*
X160137500Y-99570000D02*
X160377500Y-99900000D01*
X159897500Y-99900000D01*
X160137500Y-99570000D01*
G36*
X160377500Y-99900000D02*
G01*
X159897500Y-99900000D01*
X160137500Y-99570000D01*
X160377500Y-99900000D01*
G37*
%TO.C,R7*%
X156620000Y-119153641D02*
X156620000Y-118846359D01*
X157380000Y-119153641D02*
X157380000Y-118846359D01*
%TO.C,Q1*%
X166240000Y-104940000D02*
X167760000Y-104940000D01*
X166240000Y-104990000D02*
X166240000Y-104940000D01*
X166240000Y-106890000D02*
X166240000Y-106110000D01*
X166240000Y-108060000D02*
X166240000Y-108010000D01*
X167760000Y-104940000D02*
X167760000Y-105940000D01*
X167760000Y-107060000D02*
X167760000Y-108060000D01*
X167760000Y-108060000D02*
X166240000Y-108060000D01*
X165700000Y-106120000D02*
X165940000Y-106450000D01*
X165460000Y-106450000D01*
X165700000Y-106120000D01*
G36*
X165940000Y-106450000D02*
G01*
X165460000Y-106450000D01*
X165700000Y-106120000D01*
X165940000Y-106450000D01*
G37*
%TO.C,D13*%
X176610000Y-107150000D02*
X173950000Y-107150000D01*
X176610000Y-108850000D02*
X173950000Y-108850000D01*
X176610000Y-108850000D02*
X176610000Y-107150000D01*
%TO.C,J5*%
X186500000Y-80500000D02*
X186500000Y-82000000D01*
X186500000Y-82000000D02*
X202500000Y-82000000D01*
X202500000Y-82000000D02*
X202500000Y-80500000D01*
X180250000Y-80500000D02*
X208750000Y-80500000D01*
X208750000Y-116500000D01*
X180250000Y-116500000D01*
X180250000Y-80500000D01*
%TD*%
%LPC*%
D13*
%TO.C,H4*%
X206000000Y-126000000D03*
%TD*%
D14*
%TO.C,R4*%
X170490000Y-112000000D03*
X171510000Y-112000000D03*
%TD*%
%TO.C,R8*%
X167990000Y-103500000D03*
X169010000Y-103500000D03*
%TD*%
D15*
%TO.C,R6*%
X156990000Y-117010000D03*
X156990000Y-115990000D03*
%TD*%
D14*
%TO.C,R1*%
X162490000Y-107000000D03*
X163510000Y-107000000D03*
%TD*%
D16*
%TO.C,D3*%
X135350000Y-81182500D03*
X135350000Y-79082500D03*
%TD*%
%TO.C,D4*%
X139350000Y-81182500D03*
X139350000Y-79082500D03*
%TD*%
D17*
%TO.C,F1*%
X165600000Y-118000000D03*
X168400000Y-118000000D03*
%TD*%
D18*
%TO.C,D9*%
X171981250Y-122000000D03*
X171981250Y-118000000D03*
%TD*%
D19*
%TO.C,D14*%
X166500000Y-100937500D03*
X167450000Y-99062500D03*
X165550000Y-99062500D03*
%TD*%
D13*
%TO.C,H3*%
X127500000Y-126000000D03*
%TD*%
D20*
%TO.C,L1*%
X168425000Y-90975000D03*
X170575000Y-90975000D03*
%TD*%
D16*
%TO.C,D1*%
X127350000Y-81182500D03*
X127350000Y-79082500D03*
%TD*%
D21*
%TO.C,J2*%
X134580000Y-126232500D03*
X137120000Y-126232500D03*
D22*
X134580000Y-123692500D03*
D23*
X137120000Y-123692500D03*
%TD*%
D21*
%TO.C,J1*%
X162000000Y-126540000D03*
X164540000Y-126540000D03*
D22*
X162000000Y-124000000D03*
D23*
X164540000Y-124000000D03*
%TD*%
D24*
%TO.C,D12*%
X163000000Y-110062500D03*
X162050000Y-111937500D03*
X163950000Y-111937500D03*
%TD*%
D14*
%TO.C,R11*%
X156990000Y-97500000D03*
X158010000Y-97500000D03*
%TD*%
D25*
%TO.C,D10*%
X172950000Y-87500000D03*
X175050000Y-87500000D03*
%TD*%
D26*
%TO.C,TP1*%
X176000000Y-123500000D03*
%TD*%
D16*
%TO.C,D5*%
X143350000Y-81182500D03*
X143350000Y-79082500D03*
%TD*%
D21*
%TO.C,J6*%
X184730000Y-126732500D03*
X187270000Y-126732500D03*
D22*
X184730000Y-124192500D03*
D23*
X187270000Y-124192500D03*
%TD*%
D13*
%TO.C,H1*%
X127500000Y-73500000D03*
%TD*%
D27*
%TO.C,J3*%
X148620000Y-88500000D03*
D23*
X146080000Y-88500000D03*
X143540000Y-88500000D03*
X141000000Y-88500000D03*
X138460000Y-88500000D03*
X135920000Y-88500000D03*
X133380000Y-88500000D03*
X130840000Y-88500000D03*
%TD*%
D28*
%TO.C,C1*%
X176050000Y-120500000D03*
X177950000Y-120500000D03*
%TD*%
D29*
%TO.C,R3*%
X157510000Y-107490000D03*
X157510000Y-108510000D03*
%TD*%
D30*
%TO.C,C2*%
X159500000Y-91450000D03*
X159500000Y-89550000D03*
%TD*%
D31*
%TO.C,U2*%
X130840000Y-95840000D03*
X133380000Y-95840000D03*
X135920000Y-95840000D03*
X138460000Y-95840000D03*
X141000000Y-95840000D03*
X143540000Y-95840000D03*
X146080000Y-95840000D03*
X148620000Y-95840000D03*
X151160000Y-95840000D03*
X151160000Y-116160000D03*
X148620000Y-116160000D03*
X146080000Y-116160000D03*
X143540000Y-116160000D03*
X141000000Y-116160000D03*
X138460000Y-116160000D03*
X135920000Y-116160000D03*
X133380000Y-116160000D03*
X130840000Y-116160000D03*
%TD*%
D26*
%TO.C,TP5*%
X143000000Y-124000000D03*
%TD*%
D16*
%TO.C,D7*%
X151350000Y-81182500D03*
X151350000Y-79082500D03*
%TD*%
D19*
%TO.C,D11*%
X156000000Y-123437500D03*
X156950000Y-121562500D03*
X155050000Y-121562500D03*
%TD*%
%TO.C,Q2*%
X173950000Y-102562500D03*
X172050000Y-102562500D03*
X173000000Y-104437500D03*
%TD*%
D16*
%TO.C,D8*%
X155350000Y-81182500D03*
X155350000Y-79082500D03*
%TD*%
D32*
%TO.C,U1*%
X163050000Y-90225000D03*
X163050000Y-90725000D03*
X163050000Y-91225000D03*
X163050000Y-91725000D03*
X164950000Y-91725000D03*
X164950000Y-91225000D03*
X164950000Y-90725000D03*
X164950000Y-90225000D03*
D33*
X164000000Y-90975000D03*
%TD*%
D16*
%TO.C,D2*%
X131350000Y-81182500D03*
X131350000Y-79082500D03*
%TD*%
D34*
%TO.C,R9*%
X158010000Y-101000000D03*
X156990000Y-101000000D03*
%TD*%
D22*
%TO.C,J4*%
X158610000Y-74867500D03*
D23*
X161150000Y-74867500D03*
X163690000Y-74867500D03*
X166230000Y-74867500D03*
X168770000Y-74867500D03*
X171310000Y-74867500D03*
X173850000Y-74867500D03*
X176390000Y-74867500D03*
%TD*%
D14*
%TO.C,R2*%
X175990000Y-112000000D03*
X177010000Y-112000000D03*
%TD*%
D35*
%TO.C,Q5*%
X161562500Y-117050000D03*
X161562500Y-118950000D03*
X163437500Y-118000000D03*
%TD*%
D13*
%TO.C,H2*%
X206000000Y-73500000D03*
%TD*%
D26*
%TO.C,TP3*%
X165000000Y-83500000D03*
%TD*%
D16*
%TO.C,D6*%
X147350000Y-81182500D03*
X147350000Y-79082500D03*
%TD*%
D26*
%TO.C,TP2*%
X173000000Y-83500000D03*
%TD*%
D36*
%TO.C,C3*%
X173000000Y-93050000D03*
X173000000Y-94950000D03*
%TD*%
D35*
%TO.C,Q3*%
X159052500Y-104050000D03*
X159052500Y-105950000D03*
X160927500Y-105000000D03*
%TD*%
D15*
%TO.C,R5*%
X167000000Y-94510000D03*
X167000000Y-93490000D03*
%TD*%
D14*
%TO.C,R10*%
X162990000Y-98500000D03*
X164010000Y-98500000D03*
%TD*%
D26*
%TO.C,TP4*%
X148000000Y-124000000D03*
%TD*%
D35*
%TO.C,Q6*%
X160500000Y-99000000D03*
X160500000Y-100900000D03*
X162375000Y-99950000D03*
%TD*%
D15*
%TO.C,R7*%
X157000000Y-119510000D03*
X157000000Y-118490000D03*
%TD*%
D35*
%TO.C,Q1*%
X166062500Y-105550000D03*
X166062500Y-107450000D03*
X167937500Y-106500000D03*
%TD*%
D37*
%TO.C,D13*%
X176050000Y-108000000D03*
X173950000Y-108000000D03*
%TD*%
D38*
%TO.C,J5*%
X189860000Y-108980000D03*
D39*
X205100000Y-108980000D03*
D23*
X198590000Y-95010000D03*
%TD*%
%LPD*%
M02*
