%TF.GenerationSoftware,KiCad,Pcbnew,10.0.4*%
%TF.CreationDate,2026-08-01T23:09:10+02:00*%
%TF.ProjectId,vogelstimmen_v2.4,766f6765-6c73-4746-996d-6d656e5f7632,rev?*%
%TF.SameCoordinates,Original*%
%TF.FileFunction,Drillmap*%
%TF.FilePolarity,Positive*%
%FSLAX45Y45*%
G04 Gerber Fmt 4.5, Leading zero omitted, Abs format (unit mm)*
G04 Created by KiCad (PCBNEW 10.0.4) date 2026-08-01 23:09:10*
%MOMM*%
%LPD*%
G01*
G04 APERTURE LIST*
%ADD10C,0.100000*%
%ADD11C,0.200000*%
%ADD12C,0.110000*%
%ADD13C,0.160000*%
%ADD14C,0.320000*%
G04 APERTURE END LIST*
D10*
X12350000Y-6950000D02*
X21000000Y-6950000D01*
X21000000Y-13000000D01*
X12350000Y-13000000D01*
X12350000Y-6950000D01*
D11*
D10*
X15320000Y-7893250D02*
X15350000Y-7923250D01*
X15350000Y-7893250D02*
X15320000Y-7923250D01*
X15684000Y-9885000D02*
X15714000Y-9915000D01*
X15714000Y-9885000D02*
X15684000Y-9915000D01*
X15885000Y-10085000D02*
X15915000Y-10115000D01*
X15915000Y-10085000D02*
X15885000Y-10115000D01*
X16085000Y-10735000D02*
X16115000Y-10765000D01*
X16115000Y-10735000D02*
X16085000Y-10765000D01*
X16185000Y-9032500D02*
X16215000Y-9062500D01*
X16215000Y-9032500D02*
X16185000Y-9062500D01*
X16185000Y-9107500D02*
X16215000Y-9137500D01*
X16215000Y-9107500D02*
X16185000Y-9137500D01*
X16385000Y-9935000D02*
X16415000Y-9965000D01*
X16415000Y-9935000D02*
X16385000Y-9965000D01*
X16435000Y-10730000D02*
X16465000Y-10760000D01*
X16465000Y-10730000D02*
X16435000Y-10760000D01*
X16785000Y-10835000D02*
X16815000Y-10865000D01*
X16815000Y-10835000D02*
X16785000Y-10865000D01*
X16835000Y-10535000D02*
X16865000Y-10565000D01*
X16865000Y-10535000D02*
X16835000Y-10565000D01*
X17235000Y-11185000D02*
X17265000Y-11215000D01*
X17265000Y-11185000D02*
X17235000Y-11215000D01*
X17285000Y-10635000D02*
X17315000Y-10665000D01*
X17315000Y-10635000D02*
X17285000Y-10665000D01*
X13134000Y-9584000D02*
G75*
G02*
X13034000Y-9584000I-50000J0D01*
G01*
X13034000Y-9584000D02*
G75*
G02*
X13134000Y-9584000I50000J0D01*
G01*
X13134000Y-11616000D02*
G75*
G02*
X13034000Y-11616000I-50000J0D01*
G01*
X13034000Y-11616000D02*
G75*
G02*
X13134000Y-11616000I50000J0D01*
G01*
X13388000Y-9584000D02*
G75*
G02*
X13288000Y-9584000I-50000J0D01*
G01*
X13288000Y-9584000D02*
G75*
G02*
X13388000Y-9584000I50000J0D01*
G01*
X13388000Y-11616000D02*
G75*
G02*
X13288000Y-11616000I-50000J0D01*
G01*
X13288000Y-11616000D02*
G75*
G02*
X13388000Y-11616000I50000J0D01*
G01*
X13642000Y-9584000D02*
G75*
G02*
X13542000Y-9584000I-50000J0D01*
G01*
X13542000Y-9584000D02*
G75*
G02*
X13642000Y-9584000I50000J0D01*
G01*
X13642000Y-11616000D02*
G75*
G02*
X13542000Y-11616000I-50000J0D01*
G01*
X13542000Y-11616000D02*
G75*
G02*
X13642000Y-11616000I50000J0D01*
G01*
X13896000Y-9584000D02*
G75*
G02*
X13796000Y-9584000I-50000J0D01*
G01*
X13796000Y-9584000D02*
G75*
G02*
X13896000Y-9584000I50000J0D01*
G01*
X13896000Y-11616000D02*
G75*
G02*
X13796000Y-11616000I-50000J0D01*
G01*
X13796000Y-11616000D02*
G75*
G02*
X13896000Y-11616000I50000J0D01*
G01*
X14150000Y-9584000D02*
G75*
G02*
X14050000Y-9584000I-50000J0D01*
G01*
X14050000Y-9584000D02*
G75*
G02*
X14150000Y-9584000I50000J0D01*
G01*
X14150000Y-11616000D02*
G75*
G02*
X14050000Y-11616000I-50000J0D01*
G01*
X14050000Y-11616000D02*
G75*
G02*
X14150000Y-11616000I50000J0D01*
G01*
X14404000Y-9584000D02*
G75*
G02*
X14304000Y-9584000I-50000J0D01*
G01*
X14304000Y-9584000D02*
G75*
G02*
X14404000Y-9584000I50000J0D01*
G01*
X14404000Y-11616000D02*
G75*
G02*
X14304000Y-11616000I-50000J0D01*
G01*
X14304000Y-11616000D02*
G75*
G02*
X14404000Y-11616000I50000J0D01*
G01*
X14658000Y-9584000D02*
G75*
G02*
X14558000Y-9584000I-50000J0D01*
G01*
X14558000Y-9584000D02*
G75*
G02*
X14658000Y-9584000I50000J0D01*
G01*
X14658000Y-11616000D02*
G75*
G02*
X14558000Y-11616000I-50000J0D01*
G01*
X14558000Y-11616000D02*
G75*
G02*
X14658000Y-11616000I50000J0D01*
G01*
X14912000Y-9584000D02*
G75*
G02*
X14812000Y-9584000I-50000J0D01*
G01*
X14812000Y-9584000D02*
G75*
G02*
X14912000Y-9584000I50000J0D01*
G01*
X14912000Y-11616000D02*
G75*
G02*
X14812000Y-11616000I-50000J0D01*
G01*
X14812000Y-11616000D02*
G75*
G02*
X14912000Y-11616000I50000J0D01*
G01*
X15166000Y-9584000D02*
G75*
G02*
X15066000Y-9584000I-50000J0D01*
G01*
X15066000Y-9584000D02*
G75*
G02*
X15166000Y-9584000I50000J0D01*
G01*
X15166000Y-11616000D02*
G75*
G02*
X15066000Y-11616000I-50000J0D01*
G01*
X15066000Y-11616000D02*
G75*
G02*
X15166000Y-11616000I50000J0D01*
G01*
D12*
X13084000Y-8795000D02*
X13084000Y-8905000D01*
X13029000Y-8850000D02*
X13139000Y-8850000D01*
X13338000Y-8795000D02*
X13338000Y-8905000D01*
X13283000Y-8850000D02*
X13393000Y-8850000D01*
X13458000Y-12314250D02*
X13458000Y-12424250D01*
X13403000Y-12369250D02*
X13513000Y-12369250D01*
X13592000Y-8795000D02*
X13592000Y-8905000D01*
X13537000Y-8850000D02*
X13647000Y-8850000D01*
X13712000Y-12314250D02*
X13712000Y-12424250D01*
X13657000Y-12369250D02*
X13767000Y-12369250D01*
X13846000Y-8795000D02*
X13846000Y-8905000D01*
X13791000Y-8850000D02*
X13901000Y-8850000D01*
X14100000Y-8795000D02*
X14100000Y-8905000D01*
X14045000Y-8850000D02*
X14155000Y-8850000D01*
X14354000Y-8795000D02*
X14354000Y-8905000D01*
X14299000Y-8850000D02*
X14409000Y-8850000D01*
X14608000Y-8795000D02*
X14608000Y-8905000D01*
X14553000Y-8850000D02*
X14663000Y-8850000D01*
X14862000Y-8795000D02*
X14862000Y-8905000D01*
X14807000Y-8850000D02*
X14917000Y-8850000D01*
X15861000Y-7431750D02*
X15861000Y-7541750D01*
X15806000Y-7486750D02*
X15916000Y-7486750D01*
X16115000Y-7431750D02*
X16115000Y-7541750D01*
X16060000Y-7486750D02*
X16170000Y-7486750D01*
X16200000Y-12345000D02*
X16200000Y-12455000D01*
X16145000Y-12400000D02*
X16255000Y-12400000D01*
X16369000Y-7431750D02*
X16369000Y-7541750D01*
X16314000Y-7486750D02*
X16424000Y-7486750D01*
X16454000Y-12345000D02*
X16454000Y-12455000D01*
X16399000Y-12400000D02*
X16509000Y-12400000D01*
X16623000Y-7431750D02*
X16623000Y-7541750D01*
X16568000Y-7486750D02*
X16678000Y-7486750D01*
X16877000Y-7431750D02*
X16877000Y-7541750D01*
X16822000Y-7486750D02*
X16932000Y-7486750D01*
X17131000Y-7431750D02*
X17131000Y-7541750D01*
X17076000Y-7486750D02*
X17186000Y-7486750D01*
X17385000Y-7431750D02*
X17385000Y-7541750D01*
X17330000Y-7486750D02*
X17440000Y-7486750D01*
X17639000Y-7431750D02*
X17639000Y-7541750D01*
X17584000Y-7486750D02*
X17694000Y-7486750D01*
X18473000Y-12364250D02*
X18473000Y-12474250D01*
X18418000Y-12419250D02*
X18528000Y-12419250D01*
X18727000Y-12364250D02*
X18727000Y-12474250D01*
X18672000Y-12419250D02*
X18782000Y-12419250D01*
D13*
X19042569Y-10954569D02*
X19042569Y-10841431D01*
X18929431Y-10841431D01*
X18929431Y-10954569D01*
X19042569Y-10954569D01*
X19915569Y-9557569D02*
X19915569Y-9444431D01*
X19802431Y-9444431D01*
X19802431Y-9557569D01*
X19915569Y-9557569D01*
X20566569Y-10954569D02*
X20566569Y-10841431D01*
X20453431Y-10841431D01*
X20453431Y-10954569D01*
X20566569Y-10954569D01*
D12*
X13458000Y-12678250D02*
X13513000Y-12623250D01*
X13458000Y-12568250D01*
X13403000Y-12623250D01*
X13458000Y-12678250D01*
X13712000Y-12678250D02*
X13767000Y-12623250D01*
X13712000Y-12568250D01*
X13657000Y-12623250D01*
X13712000Y-12678250D01*
X16200000Y-12709000D02*
X16255000Y-12654000D01*
X16200000Y-12599000D01*
X16145000Y-12654000D01*
X16200000Y-12709000D01*
X16454000Y-12709000D02*
X16509000Y-12654000D01*
X16454000Y-12599000D01*
X16399000Y-12654000D01*
X16454000Y-12709000D01*
X18473000Y-12728250D02*
X18528000Y-12673250D01*
X18473000Y-12618250D01*
X18418000Y-12673250D01*
X18473000Y-12728250D01*
X18727000Y-12728250D02*
X18782000Y-12673250D01*
X18727000Y-12618250D01*
X18672000Y-12673250D01*
X18727000Y-12728250D01*
D14*
X12590000Y-7190000D02*
X12910000Y-7510000D01*
X12910000Y-7190000D02*
X12590000Y-7510000D01*
X12910000Y-7350000D02*
G75*
G02*
X12590000Y-7350000I-160000J0D01*
G01*
X12590000Y-7350000D02*
G75*
G02*
X12910000Y-7350000I160000J0D01*
G01*
X12590000Y-12440000D02*
X12910000Y-12760000D01*
X12910000Y-12440000D02*
X12590000Y-12760000D01*
X12910000Y-12600000D02*
G75*
G02*
X12590000Y-12600000I-160000J0D01*
G01*
X12590000Y-12600000D02*
G75*
G02*
X12910000Y-12600000I160000J0D01*
G01*
X20440000Y-7190000D02*
X20760000Y-7510000D01*
X20760000Y-7190000D02*
X20440000Y-7510000D01*
X20760000Y-7350000D02*
G75*
G02*
X20440000Y-7350000I-160000J0D01*
G01*
X20440000Y-7350000D02*
G75*
G02*
X20760000Y-7350000I160000J0D01*
G01*
X20440000Y-12440000D02*
X20760000Y-12760000D01*
X20760000Y-12440000D02*
X20440000Y-12760000D01*
X20760000Y-12600000D02*
G75*
G02*
X20440000Y-12600000I-160000J0D01*
G01*
X20440000Y-12600000D02*
G75*
G02*
X20760000Y-12600000I160000J0D01*
G01*
D11*
X12605777Y-13316484D02*
X12605777Y-13116484D01*
X12605777Y-13116484D02*
X12653396Y-13116484D01*
X12653396Y-13116484D02*
X12681967Y-13126008D01*
X12681967Y-13126008D02*
X12701015Y-13145055D01*
X12701015Y-13145055D02*
X12710539Y-13164103D01*
X12710539Y-13164103D02*
X12720062Y-13202198D01*
X12720062Y-13202198D02*
X12720062Y-13230769D01*
X12720062Y-13230769D02*
X12710539Y-13268865D01*
X12710539Y-13268865D02*
X12701015Y-13287912D01*
X12701015Y-13287912D02*
X12681967Y-13306960D01*
X12681967Y-13306960D02*
X12653396Y-13316484D01*
X12653396Y-13316484D02*
X12605777Y-13316484D01*
X12805777Y-13316484D02*
X12805777Y-13183150D01*
X12805777Y-13221246D02*
X12815301Y-13202198D01*
X12815301Y-13202198D02*
X12824824Y-13192674D01*
X12824824Y-13192674D02*
X12843872Y-13183150D01*
X12843872Y-13183150D02*
X12862920Y-13183150D01*
X12929586Y-13316484D02*
X12929586Y-13183150D01*
X12929586Y-13116484D02*
X12920062Y-13126008D01*
X12920062Y-13126008D02*
X12929586Y-13135531D01*
X12929586Y-13135531D02*
X12939110Y-13126008D01*
X12939110Y-13126008D02*
X12929586Y-13116484D01*
X12929586Y-13116484D02*
X12929586Y-13135531D01*
X13053396Y-13316484D02*
X13034348Y-13306960D01*
X13034348Y-13306960D02*
X13024824Y-13287912D01*
X13024824Y-13287912D02*
X13024824Y-13116484D01*
X13158158Y-13316484D02*
X13139110Y-13306960D01*
X13139110Y-13306960D02*
X13129586Y-13287912D01*
X13129586Y-13287912D02*
X13129586Y-13116484D01*
X13386729Y-13316484D02*
X13386729Y-13116484D01*
X13386729Y-13116484D02*
X13453396Y-13259341D01*
X13453396Y-13259341D02*
X13520062Y-13116484D01*
X13520062Y-13116484D02*
X13520062Y-13316484D01*
X13701015Y-13316484D02*
X13701015Y-13211722D01*
X13701015Y-13211722D02*
X13691491Y-13192674D01*
X13691491Y-13192674D02*
X13672443Y-13183150D01*
X13672443Y-13183150D02*
X13634348Y-13183150D01*
X13634348Y-13183150D02*
X13615301Y-13192674D01*
X13701015Y-13306960D02*
X13681967Y-13316484D01*
X13681967Y-13316484D02*
X13634348Y-13316484D01*
X13634348Y-13316484D02*
X13615301Y-13306960D01*
X13615301Y-13306960D02*
X13605777Y-13287912D01*
X13605777Y-13287912D02*
X13605777Y-13268865D01*
X13605777Y-13268865D02*
X13615301Y-13249817D01*
X13615301Y-13249817D02*
X13634348Y-13240293D01*
X13634348Y-13240293D02*
X13681967Y-13240293D01*
X13681967Y-13240293D02*
X13701015Y-13230769D01*
X13796253Y-13183150D02*
X13796253Y-13383150D01*
X13796253Y-13192674D02*
X13815301Y-13183150D01*
X13815301Y-13183150D02*
X13853396Y-13183150D01*
X13853396Y-13183150D02*
X13872443Y-13192674D01*
X13872443Y-13192674D02*
X13881967Y-13202198D01*
X13881967Y-13202198D02*
X13891491Y-13221246D01*
X13891491Y-13221246D02*
X13891491Y-13278388D01*
X13891491Y-13278388D02*
X13881967Y-13297436D01*
X13881967Y-13297436D02*
X13872443Y-13306960D01*
X13872443Y-13306960D02*
X13853396Y-13316484D01*
X13853396Y-13316484D02*
X13815301Y-13316484D01*
X13815301Y-13316484D02*
X13796253Y-13306960D01*
X13977205Y-13297436D02*
X13986729Y-13306960D01*
X13986729Y-13306960D02*
X13977205Y-13316484D01*
X13977205Y-13316484D02*
X13967682Y-13306960D01*
X13967682Y-13306960D02*
X13977205Y-13297436D01*
X13977205Y-13297436D02*
X13977205Y-13316484D01*
X13977205Y-13192674D02*
X13986729Y-13202198D01*
X13986729Y-13202198D02*
X13977205Y-13211722D01*
X13977205Y-13211722D02*
X13967682Y-13202198D01*
X13967682Y-13202198D02*
X13977205Y-13192674D01*
X13977205Y-13192674D02*
X13977205Y-13211722D01*
D10*
X12315000Y-13630000D02*
X12345000Y-13660000D01*
X12345000Y-13630000D02*
X12315000Y-13660000D01*
D11*
X12643872Y-13536484D02*
X12662920Y-13536484D01*
X12662920Y-13536484D02*
X12681967Y-13546008D01*
X12681967Y-13546008D02*
X12691491Y-13555531D01*
X12691491Y-13555531D02*
X12701015Y-13574579D01*
X12701015Y-13574579D02*
X12710539Y-13612674D01*
X12710539Y-13612674D02*
X12710539Y-13660293D01*
X12710539Y-13660293D02*
X12701015Y-13698388D01*
X12701015Y-13698388D02*
X12691491Y-13717436D01*
X12691491Y-13717436D02*
X12681967Y-13726960D01*
X12681967Y-13726960D02*
X12662920Y-13736484D01*
X12662920Y-13736484D02*
X12643872Y-13736484D01*
X12643872Y-13736484D02*
X12624824Y-13726960D01*
X12624824Y-13726960D02*
X12615301Y-13717436D01*
X12615301Y-13717436D02*
X12605777Y-13698388D01*
X12605777Y-13698388D02*
X12596253Y-13660293D01*
X12596253Y-13660293D02*
X12596253Y-13612674D01*
X12596253Y-13612674D02*
X12605777Y-13574579D01*
X12605777Y-13574579D02*
X12615301Y-13555531D01*
X12615301Y-13555531D02*
X12624824Y-13546008D01*
X12624824Y-13546008D02*
X12643872Y-13536484D01*
X12805777Y-13726960D02*
X12805777Y-13736484D01*
X12805777Y-13736484D02*
X12796253Y-13755531D01*
X12796253Y-13755531D02*
X12786729Y-13765055D01*
X12872443Y-13536484D02*
X12996253Y-13536484D01*
X12996253Y-13536484D02*
X12929586Y-13612674D01*
X12929586Y-13612674D02*
X12958158Y-13612674D01*
X12958158Y-13612674D02*
X12977205Y-13622198D01*
X12977205Y-13622198D02*
X12986729Y-13631722D01*
X12986729Y-13631722D02*
X12996253Y-13650769D01*
X12996253Y-13650769D02*
X12996253Y-13698388D01*
X12996253Y-13698388D02*
X12986729Y-13717436D01*
X12986729Y-13717436D02*
X12977205Y-13726960D01*
X12977205Y-13726960D02*
X12958158Y-13736484D01*
X12958158Y-13736484D02*
X12901015Y-13736484D01*
X12901015Y-13736484D02*
X12881967Y-13726960D01*
X12881967Y-13726960D02*
X12872443Y-13717436D01*
X13120062Y-13536484D02*
X13139110Y-13536484D01*
X13139110Y-13536484D02*
X13158158Y-13546008D01*
X13158158Y-13546008D02*
X13167682Y-13555531D01*
X13167682Y-13555531D02*
X13177205Y-13574579D01*
X13177205Y-13574579D02*
X13186729Y-13612674D01*
X13186729Y-13612674D02*
X13186729Y-13660293D01*
X13186729Y-13660293D02*
X13177205Y-13698388D01*
X13177205Y-13698388D02*
X13167682Y-13717436D01*
X13167682Y-13717436D02*
X13158158Y-13726960D01*
X13158158Y-13726960D02*
X13139110Y-13736484D01*
X13139110Y-13736484D02*
X13120062Y-13736484D01*
X13120062Y-13736484D02*
X13101015Y-13726960D01*
X13101015Y-13726960D02*
X13091491Y-13717436D01*
X13091491Y-13717436D02*
X13081967Y-13698388D01*
X13081967Y-13698388D02*
X13072443Y-13660293D01*
X13072443Y-13660293D02*
X13072443Y-13612674D01*
X13072443Y-13612674D02*
X13081967Y-13574579D01*
X13081967Y-13574579D02*
X13091491Y-13555531D01*
X13091491Y-13555531D02*
X13101015Y-13546008D01*
X13101015Y-13546008D02*
X13120062Y-13536484D01*
X13310539Y-13536484D02*
X13329586Y-13536484D01*
X13329586Y-13536484D02*
X13348634Y-13546008D01*
X13348634Y-13546008D02*
X13358158Y-13555531D01*
X13358158Y-13555531D02*
X13367682Y-13574579D01*
X13367682Y-13574579D02*
X13377205Y-13612674D01*
X13377205Y-13612674D02*
X13377205Y-13660293D01*
X13377205Y-13660293D02*
X13367682Y-13698388D01*
X13367682Y-13698388D02*
X13358158Y-13717436D01*
X13358158Y-13717436D02*
X13348634Y-13726960D01*
X13348634Y-13726960D02*
X13329586Y-13736484D01*
X13329586Y-13736484D02*
X13310539Y-13736484D01*
X13310539Y-13736484D02*
X13291491Y-13726960D01*
X13291491Y-13726960D02*
X13281967Y-13717436D01*
X13281967Y-13717436D02*
X13272443Y-13698388D01*
X13272443Y-13698388D02*
X13262920Y-13660293D01*
X13262920Y-13660293D02*
X13262920Y-13612674D01*
X13262920Y-13612674D02*
X13272443Y-13574579D01*
X13272443Y-13574579D02*
X13281967Y-13555531D01*
X13281967Y-13555531D02*
X13291491Y-13546008D01*
X13291491Y-13546008D02*
X13310539Y-13536484D01*
X13462920Y-13736484D02*
X13462920Y-13603150D01*
X13462920Y-13622198D02*
X13472443Y-13612674D01*
X13472443Y-13612674D02*
X13491491Y-13603150D01*
X13491491Y-13603150D02*
X13520063Y-13603150D01*
X13520063Y-13603150D02*
X13539110Y-13612674D01*
X13539110Y-13612674D02*
X13548634Y-13631722D01*
X13548634Y-13631722D02*
X13548634Y-13736484D01*
X13548634Y-13631722D02*
X13558158Y-13612674D01*
X13558158Y-13612674D02*
X13577205Y-13603150D01*
X13577205Y-13603150D02*
X13605777Y-13603150D01*
X13605777Y-13603150D02*
X13624824Y-13612674D01*
X13624824Y-13612674D02*
X13634348Y-13631722D01*
X13634348Y-13631722D02*
X13634348Y-13736484D01*
X13729586Y-13736484D02*
X13729586Y-13603150D01*
X13729586Y-13622198D02*
X13739110Y-13612674D01*
X13739110Y-13612674D02*
X13758158Y-13603150D01*
X13758158Y-13603150D02*
X13786729Y-13603150D01*
X13786729Y-13603150D02*
X13805777Y-13612674D01*
X13805777Y-13612674D02*
X13815301Y-13631722D01*
X13815301Y-13631722D02*
X13815301Y-13736484D01*
X13815301Y-13631722D02*
X13824824Y-13612674D01*
X13824824Y-13612674D02*
X13843872Y-13603150D01*
X13843872Y-13603150D02*
X13872443Y-13603150D01*
X13872443Y-13603150D02*
X13891491Y-13612674D01*
X13891491Y-13612674D02*
X13901015Y-13631722D01*
X13901015Y-13631722D02*
X13901015Y-13736484D01*
X14291491Y-13526960D02*
X14120063Y-13784103D01*
X14548634Y-13536484D02*
X14567682Y-13536484D01*
X14567682Y-13536484D02*
X14586729Y-13546008D01*
X14586729Y-13546008D02*
X14596253Y-13555531D01*
X14596253Y-13555531D02*
X14605777Y-13574579D01*
X14605777Y-13574579D02*
X14615301Y-13612674D01*
X14615301Y-13612674D02*
X14615301Y-13660293D01*
X14615301Y-13660293D02*
X14605777Y-13698388D01*
X14605777Y-13698388D02*
X14596253Y-13717436D01*
X14596253Y-13717436D02*
X14586729Y-13726960D01*
X14586729Y-13726960D02*
X14567682Y-13736484D01*
X14567682Y-13736484D02*
X14548634Y-13736484D01*
X14548634Y-13736484D02*
X14529586Y-13726960D01*
X14529586Y-13726960D02*
X14520063Y-13717436D01*
X14520063Y-13717436D02*
X14510539Y-13698388D01*
X14510539Y-13698388D02*
X14501015Y-13660293D01*
X14501015Y-13660293D02*
X14501015Y-13612674D01*
X14501015Y-13612674D02*
X14510539Y-13574579D01*
X14510539Y-13574579D02*
X14520063Y-13555531D01*
X14520063Y-13555531D02*
X14529586Y-13546008D01*
X14529586Y-13546008D02*
X14548634Y-13536484D01*
X14710539Y-13726960D02*
X14710539Y-13736484D01*
X14710539Y-13736484D02*
X14701015Y-13755531D01*
X14701015Y-13755531D02*
X14691491Y-13765055D01*
X14834348Y-13536484D02*
X14853396Y-13536484D01*
X14853396Y-13536484D02*
X14872444Y-13546008D01*
X14872444Y-13546008D02*
X14881967Y-13555531D01*
X14881967Y-13555531D02*
X14891491Y-13574579D01*
X14891491Y-13574579D02*
X14901015Y-13612674D01*
X14901015Y-13612674D02*
X14901015Y-13660293D01*
X14901015Y-13660293D02*
X14891491Y-13698388D01*
X14891491Y-13698388D02*
X14881967Y-13717436D01*
X14881967Y-13717436D02*
X14872444Y-13726960D01*
X14872444Y-13726960D02*
X14853396Y-13736484D01*
X14853396Y-13736484D02*
X14834348Y-13736484D01*
X14834348Y-13736484D02*
X14815301Y-13726960D01*
X14815301Y-13726960D02*
X14805777Y-13717436D01*
X14805777Y-13717436D02*
X14796253Y-13698388D01*
X14796253Y-13698388D02*
X14786729Y-13660293D01*
X14786729Y-13660293D02*
X14786729Y-13612674D01*
X14786729Y-13612674D02*
X14796253Y-13574579D01*
X14796253Y-13574579D02*
X14805777Y-13555531D01*
X14805777Y-13555531D02*
X14815301Y-13546008D01*
X14815301Y-13546008D02*
X14834348Y-13536484D01*
X15091491Y-13736484D02*
X14977206Y-13736484D01*
X15034348Y-13736484D02*
X15034348Y-13536484D01*
X15034348Y-13536484D02*
X15015301Y-13565055D01*
X15015301Y-13565055D02*
X14996253Y-13584103D01*
X14996253Y-13584103D02*
X14977206Y-13593627D01*
X15281967Y-13736484D02*
X15167682Y-13736484D01*
X15224825Y-13736484D02*
X15224825Y-13536484D01*
X15224825Y-13536484D02*
X15205777Y-13565055D01*
X15205777Y-13565055D02*
X15186729Y-13584103D01*
X15186729Y-13584103D02*
X15167682Y-13593627D01*
X15396253Y-13622198D02*
X15377206Y-13612674D01*
X15377206Y-13612674D02*
X15367682Y-13603150D01*
X15367682Y-13603150D02*
X15358158Y-13584103D01*
X15358158Y-13584103D02*
X15358158Y-13574579D01*
X15358158Y-13574579D02*
X15367682Y-13555531D01*
X15367682Y-13555531D02*
X15377206Y-13546008D01*
X15377206Y-13546008D02*
X15396253Y-13536484D01*
X15396253Y-13536484D02*
X15434348Y-13536484D01*
X15434348Y-13536484D02*
X15453396Y-13546008D01*
X15453396Y-13546008D02*
X15462920Y-13555531D01*
X15462920Y-13555531D02*
X15472444Y-13574579D01*
X15472444Y-13574579D02*
X15472444Y-13584103D01*
X15472444Y-13584103D02*
X15462920Y-13603150D01*
X15462920Y-13603150D02*
X15453396Y-13612674D01*
X15453396Y-13612674D02*
X15434348Y-13622198D01*
X15434348Y-13622198D02*
X15396253Y-13622198D01*
X15396253Y-13622198D02*
X15377206Y-13631722D01*
X15377206Y-13631722D02*
X15367682Y-13641246D01*
X15367682Y-13641246D02*
X15358158Y-13660293D01*
X15358158Y-13660293D02*
X15358158Y-13698388D01*
X15358158Y-13698388D02*
X15367682Y-13717436D01*
X15367682Y-13717436D02*
X15377206Y-13726960D01*
X15377206Y-13726960D02*
X15396253Y-13736484D01*
X15396253Y-13736484D02*
X15434348Y-13736484D01*
X15434348Y-13736484D02*
X15453396Y-13726960D01*
X15453396Y-13726960D02*
X15462920Y-13717436D01*
X15462920Y-13717436D02*
X15472444Y-13698388D01*
X15472444Y-13698388D02*
X15472444Y-13660293D01*
X15472444Y-13660293D02*
X15462920Y-13641246D01*
X15462920Y-13641246D02*
X15453396Y-13631722D01*
X15453396Y-13631722D02*
X15434348Y-13622198D01*
X15548634Y-13536484D02*
X15548634Y-13574579D01*
X15624825Y-13536484D02*
X15624825Y-13574579D01*
X15920063Y-13812674D02*
X15910539Y-13803150D01*
X15910539Y-13803150D02*
X15891491Y-13774579D01*
X15891491Y-13774579D02*
X15881968Y-13755531D01*
X15881968Y-13755531D02*
X15872444Y-13726960D01*
X15872444Y-13726960D02*
X15862920Y-13679341D01*
X15862920Y-13679341D02*
X15862920Y-13641246D01*
X15862920Y-13641246D02*
X15872444Y-13593627D01*
X15872444Y-13593627D02*
X15881968Y-13565055D01*
X15881968Y-13565055D02*
X15891491Y-13546008D01*
X15891491Y-13546008D02*
X15910539Y-13517436D01*
X15910539Y-13517436D02*
X15920063Y-13507912D01*
X16101015Y-13736484D02*
X15986729Y-13736484D01*
X16043872Y-13736484D02*
X16043872Y-13536484D01*
X16043872Y-13536484D02*
X16024825Y-13565055D01*
X16024825Y-13565055D02*
X16005777Y-13584103D01*
X16005777Y-13584103D02*
X15986729Y-13593627D01*
X16177206Y-13555531D02*
X16186729Y-13546008D01*
X16186729Y-13546008D02*
X16205777Y-13536484D01*
X16205777Y-13536484D02*
X16253396Y-13536484D01*
X16253396Y-13536484D02*
X16272444Y-13546008D01*
X16272444Y-13546008D02*
X16281968Y-13555531D01*
X16281968Y-13555531D02*
X16291491Y-13574579D01*
X16291491Y-13574579D02*
X16291491Y-13593627D01*
X16291491Y-13593627D02*
X16281968Y-13622198D01*
X16281968Y-13622198D02*
X16167682Y-13736484D01*
X16167682Y-13736484D02*
X16291491Y-13736484D01*
X16529587Y-13736484D02*
X16529587Y-13536484D01*
X16615301Y-13736484D02*
X16615301Y-13631722D01*
X16615301Y-13631722D02*
X16605777Y-13612674D01*
X16605777Y-13612674D02*
X16586730Y-13603150D01*
X16586730Y-13603150D02*
X16558158Y-13603150D01*
X16558158Y-13603150D02*
X16539110Y-13612674D01*
X16539110Y-13612674D02*
X16529587Y-13622198D01*
X16739110Y-13736484D02*
X16720063Y-13726960D01*
X16720063Y-13726960D02*
X16710539Y-13717436D01*
X16710539Y-13717436D02*
X16701015Y-13698388D01*
X16701015Y-13698388D02*
X16701015Y-13641246D01*
X16701015Y-13641246D02*
X16710539Y-13622198D01*
X16710539Y-13622198D02*
X16720063Y-13612674D01*
X16720063Y-13612674D02*
X16739110Y-13603150D01*
X16739110Y-13603150D02*
X16767682Y-13603150D01*
X16767682Y-13603150D02*
X16786730Y-13612674D01*
X16786730Y-13612674D02*
X16796253Y-13622198D01*
X16796253Y-13622198D02*
X16805777Y-13641246D01*
X16805777Y-13641246D02*
X16805777Y-13698388D01*
X16805777Y-13698388D02*
X16796253Y-13717436D01*
X16796253Y-13717436D02*
X16786730Y-13726960D01*
X16786730Y-13726960D02*
X16767682Y-13736484D01*
X16767682Y-13736484D02*
X16739110Y-13736484D01*
X16920063Y-13736484D02*
X16901015Y-13726960D01*
X16901015Y-13726960D02*
X16891492Y-13707912D01*
X16891492Y-13707912D02*
X16891492Y-13536484D01*
X17072444Y-13726960D02*
X17053396Y-13736484D01*
X17053396Y-13736484D02*
X17015301Y-13736484D01*
X17015301Y-13736484D02*
X16996253Y-13726960D01*
X16996253Y-13726960D02*
X16986730Y-13707912D01*
X16986730Y-13707912D02*
X16986730Y-13631722D01*
X16986730Y-13631722D02*
X16996253Y-13612674D01*
X16996253Y-13612674D02*
X17015301Y-13603150D01*
X17015301Y-13603150D02*
X17053396Y-13603150D01*
X17053396Y-13603150D02*
X17072444Y-13612674D01*
X17072444Y-13612674D02*
X17081968Y-13631722D01*
X17081968Y-13631722D02*
X17081968Y-13650769D01*
X17081968Y-13650769D02*
X16986730Y-13669817D01*
X17158158Y-13726960D02*
X17177206Y-13736484D01*
X17177206Y-13736484D02*
X17215301Y-13736484D01*
X17215301Y-13736484D02*
X17234349Y-13726960D01*
X17234349Y-13726960D02*
X17243873Y-13707912D01*
X17243873Y-13707912D02*
X17243873Y-13698388D01*
X17243873Y-13698388D02*
X17234349Y-13679341D01*
X17234349Y-13679341D02*
X17215301Y-13669817D01*
X17215301Y-13669817D02*
X17186730Y-13669817D01*
X17186730Y-13669817D02*
X17167682Y-13660293D01*
X17167682Y-13660293D02*
X17158158Y-13641246D01*
X17158158Y-13641246D02*
X17158158Y-13631722D01*
X17158158Y-13631722D02*
X17167682Y-13612674D01*
X17167682Y-13612674D02*
X17186730Y-13603150D01*
X17186730Y-13603150D02*
X17215301Y-13603150D01*
X17215301Y-13603150D02*
X17234349Y-13612674D01*
X17310539Y-13812674D02*
X17320063Y-13803150D01*
X17320063Y-13803150D02*
X17339111Y-13774579D01*
X17339111Y-13774579D02*
X17348634Y-13755531D01*
X17348634Y-13755531D02*
X17358158Y-13726960D01*
X17358158Y-13726960D02*
X17367682Y-13679341D01*
X17367682Y-13679341D02*
X17367682Y-13641246D01*
X17367682Y-13641246D02*
X17358158Y-13593627D01*
X17358158Y-13593627D02*
X17348634Y-13565055D01*
X17348634Y-13565055D02*
X17339111Y-13546008D01*
X17339111Y-13546008D02*
X17320063Y-13517436D01*
X17320063Y-13517436D02*
X17310539Y-13507912D01*
D10*
X12345000Y-13909000D02*
G75*
G02*
X12245000Y-13909000I-50000J0D01*
G01*
X12245000Y-13909000D02*
G75*
G02*
X12345000Y-13909000I50000J0D01*
G01*
D11*
X12710539Y-14000484D02*
X12596253Y-14000484D01*
X12653396Y-14000484D02*
X12653396Y-13800484D01*
X12653396Y-13800484D02*
X12634348Y-13829055D01*
X12634348Y-13829055D02*
X12615301Y-13848103D01*
X12615301Y-13848103D02*
X12596253Y-13857627D01*
X12805777Y-13990960D02*
X12805777Y-14000484D01*
X12805777Y-14000484D02*
X12796253Y-14019531D01*
X12796253Y-14019531D02*
X12786729Y-14029055D01*
X12929586Y-13800484D02*
X12948634Y-13800484D01*
X12948634Y-13800484D02*
X12967682Y-13810008D01*
X12967682Y-13810008D02*
X12977205Y-13819531D01*
X12977205Y-13819531D02*
X12986729Y-13838579D01*
X12986729Y-13838579D02*
X12996253Y-13876674D01*
X12996253Y-13876674D02*
X12996253Y-13924293D01*
X12996253Y-13924293D02*
X12986729Y-13962388D01*
X12986729Y-13962388D02*
X12977205Y-13981436D01*
X12977205Y-13981436D02*
X12967682Y-13990960D01*
X12967682Y-13990960D02*
X12948634Y-14000484D01*
X12948634Y-14000484D02*
X12929586Y-14000484D01*
X12929586Y-14000484D02*
X12910539Y-13990960D01*
X12910539Y-13990960D02*
X12901015Y-13981436D01*
X12901015Y-13981436D02*
X12891491Y-13962388D01*
X12891491Y-13962388D02*
X12881967Y-13924293D01*
X12881967Y-13924293D02*
X12881967Y-13876674D01*
X12881967Y-13876674D02*
X12891491Y-13838579D01*
X12891491Y-13838579D02*
X12901015Y-13819531D01*
X12901015Y-13819531D02*
X12910539Y-13810008D01*
X12910539Y-13810008D02*
X12929586Y-13800484D01*
X13120062Y-13800484D02*
X13139110Y-13800484D01*
X13139110Y-13800484D02*
X13158158Y-13810008D01*
X13158158Y-13810008D02*
X13167682Y-13819531D01*
X13167682Y-13819531D02*
X13177205Y-13838579D01*
X13177205Y-13838579D02*
X13186729Y-13876674D01*
X13186729Y-13876674D02*
X13186729Y-13924293D01*
X13186729Y-13924293D02*
X13177205Y-13962388D01*
X13177205Y-13962388D02*
X13167682Y-13981436D01*
X13167682Y-13981436D02*
X13158158Y-13990960D01*
X13158158Y-13990960D02*
X13139110Y-14000484D01*
X13139110Y-14000484D02*
X13120062Y-14000484D01*
X13120062Y-14000484D02*
X13101015Y-13990960D01*
X13101015Y-13990960D02*
X13091491Y-13981436D01*
X13091491Y-13981436D02*
X13081967Y-13962388D01*
X13081967Y-13962388D02*
X13072443Y-13924293D01*
X13072443Y-13924293D02*
X13072443Y-13876674D01*
X13072443Y-13876674D02*
X13081967Y-13838579D01*
X13081967Y-13838579D02*
X13091491Y-13819531D01*
X13091491Y-13819531D02*
X13101015Y-13810008D01*
X13101015Y-13810008D02*
X13120062Y-13800484D01*
X13310539Y-13800484D02*
X13329586Y-13800484D01*
X13329586Y-13800484D02*
X13348634Y-13810008D01*
X13348634Y-13810008D02*
X13358158Y-13819531D01*
X13358158Y-13819531D02*
X13367682Y-13838579D01*
X13367682Y-13838579D02*
X13377205Y-13876674D01*
X13377205Y-13876674D02*
X13377205Y-13924293D01*
X13377205Y-13924293D02*
X13367682Y-13962388D01*
X13367682Y-13962388D02*
X13358158Y-13981436D01*
X13358158Y-13981436D02*
X13348634Y-13990960D01*
X13348634Y-13990960D02*
X13329586Y-14000484D01*
X13329586Y-14000484D02*
X13310539Y-14000484D01*
X13310539Y-14000484D02*
X13291491Y-13990960D01*
X13291491Y-13990960D02*
X13281967Y-13981436D01*
X13281967Y-13981436D02*
X13272443Y-13962388D01*
X13272443Y-13962388D02*
X13262920Y-13924293D01*
X13262920Y-13924293D02*
X13262920Y-13876674D01*
X13262920Y-13876674D02*
X13272443Y-13838579D01*
X13272443Y-13838579D02*
X13281967Y-13819531D01*
X13281967Y-13819531D02*
X13291491Y-13810008D01*
X13291491Y-13810008D02*
X13310539Y-13800484D01*
X13462920Y-14000484D02*
X13462920Y-13867150D01*
X13462920Y-13886198D02*
X13472443Y-13876674D01*
X13472443Y-13876674D02*
X13491491Y-13867150D01*
X13491491Y-13867150D02*
X13520063Y-13867150D01*
X13520063Y-13867150D02*
X13539110Y-13876674D01*
X13539110Y-13876674D02*
X13548634Y-13895722D01*
X13548634Y-13895722D02*
X13548634Y-14000484D01*
X13548634Y-13895722D02*
X13558158Y-13876674D01*
X13558158Y-13876674D02*
X13577205Y-13867150D01*
X13577205Y-13867150D02*
X13605777Y-13867150D01*
X13605777Y-13867150D02*
X13624824Y-13876674D01*
X13624824Y-13876674D02*
X13634348Y-13895722D01*
X13634348Y-13895722D02*
X13634348Y-14000484D01*
X13729586Y-14000484D02*
X13729586Y-13867150D01*
X13729586Y-13886198D02*
X13739110Y-13876674D01*
X13739110Y-13876674D02*
X13758158Y-13867150D01*
X13758158Y-13867150D02*
X13786729Y-13867150D01*
X13786729Y-13867150D02*
X13805777Y-13876674D01*
X13805777Y-13876674D02*
X13815301Y-13895722D01*
X13815301Y-13895722D02*
X13815301Y-14000484D01*
X13815301Y-13895722D02*
X13824824Y-13876674D01*
X13824824Y-13876674D02*
X13843872Y-13867150D01*
X13843872Y-13867150D02*
X13872443Y-13867150D01*
X13872443Y-13867150D02*
X13891491Y-13876674D01*
X13891491Y-13876674D02*
X13901015Y-13895722D01*
X13901015Y-13895722D02*
X13901015Y-14000484D01*
X14291491Y-13790960D02*
X14120063Y-14048103D01*
X14548634Y-13800484D02*
X14567682Y-13800484D01*
X14567682Y-13800484D02*
X14586729Y-13810008D01*
X14586729Y-13810008D02*
X14596253Y-13819531D01*
X14596253Y-13819531D02*
X14605777Y-13838579D01*
X14605777Y-13838579D02*
X14615301Y-13876674D01*
X14615301Y-13876674D02*
X14615301Y-13924293D01*
X14615301Y-13924293D02*
X14605777Y-13962388D01*
X14605777Y-13962388D02*
X14596253Y-13981436D01*
X14596253Y-13981436D02*
X14586729Y-13990960D01*
X14586729Y-13990960D02*
X14567682Y-14000484D01*
X14567682Y-14000484D02*
X14548634Y-14000484D01*
X14548634Y-14000484D02*
X14529586Y-13990960D01*
X14529586Y-13990960D02*
X14520063Y-13981436D01*
X14520063Y-13981436D02*
X14510539Y-13962388D01*
X14510539Y-13962388D02*
X14501015Y-13924293D01*
X14501015Y-13924293D02*
X14501015Y-13876674D01*
X14501015Y-13876674D02*
X14510539Y-13838579D01*
X14510539Y-13838579D02*
X14520063Y-13819531D01*
X14520063Y-13819531D02*
X14529586Y-13810008D01*
X14529586Y-13810008D02*
X14548634Y-13800484D01*
X14710539Y-13990960D02*
X14710539Y-14000484D01*
X14710539Y-14000484D02*
X14701015Y-14019531D01*
X14701015Y-14019531D02*
X14691491Y-14029055D01*
X14834348Y-13800484D02*
X14853396Y-13800484D01*
X14853396Y-13800484D02*
X14872444Y-13810008D01*
X14872444Y-13810008D02*
X14881967Y-13819531D01*
X14881967Y-13819531D02*
X14891491Y-13838579D01*
X14891491Y-13838579D02*
X14901015Y-13876674D01*
X14901015Y-13876674D02*
X14901015Y-13924293D01*
X14901015Y-13924293D02*
X14891491Y-13962388D01*
X14891491Y-13962388D02*
X14881967Y-13981436D01*
X14881967Y-13981436D02*
X14872444Y-13990960D01*
X14872444Y-13990960D02*
X14853396Y-14000484D01*
X14853396Y-14000484D02*
X14834348Y-14000484D01*
X14834348Y-14000484D02*
X14815301Y-13990960D01*
X14815301Y-13990960D02*
X14805777Y-13981436D01*
X14805777Y-13981436D02*
X14796253Y-13962388D01*
X14796253Y-13962388D02*
X14786729Y-13924293D01*
X14786729Y-13924293D02*
X14786729Y-13876674D01*
X14786729Y-13876674D02*
X14796253Y-13838579D01*
X14796253Y-13838579D02*
X14805777Y-13819531D01*
X14805777Y-13819531D02*
X14815301Y-13810008D01*
X14815301Y-13810008D02*
X14834348Y-13800484D01*
X14967682Y-13800484D02*
X15091491Y-13800484D01*
X15091491Y-13800484D02*
X15024825Y-13876674D01*
X15024825Y-13876674D02*
X15053396Y-13876674D01*
X15053396Y-13876674D02*
X15072444Y-13886198D01*
X15072444Y-13886198D02*
X15081967Y-13895722D01*
X15081967Y-13895722D02*
X15091491Y-13914769D01*
X15091491Y-13914769D02*
X15091491Y-13962388D01*
X15091491Y-13962388D02*
X15081967Y-13981436D01*
X15081967Y-13981436D02*
X15072444Y-13990960D01*
X15072444Y-13990960D02*
X15053396Y-14000484D01*
X15053396Y-14000484D02*
X14996253Y-14000484D01*
X14996253Y-14000484D02*
X14977206Y-13990960D01*
X14977206Y-13990960D02*
X14967682Y-13981436D01*
X15186729Y-14000484D02*
X15224825Y-14000484D01*
X15224825Y-14000484D02*
X15243872Y-13990960D01*
X15243872Y-13990960D02*
X15253396Y-13981436D01*
X15253396Y-13981436D02*
X15272444Y-13952865D01*
X15272444Y-13952865D02*
X15281967Y-13914769D01*
X15281967Y-13914769D02*
X15281967Y-13838579D01*
X15281967Y-13838579D02*
X15272444Y-13819531D01*
X15272444Y-13819531D02*
X15262920Y-13810008D01*
X15262920Y-13810008D02*
X15243872Y-13800484D01*
X15243872Y-13800484D02*
X15205777Y-13800484D01*
X15205777Y-13800484D02*
X15186729Y-13810008D01*
X15186729Y-13810008D02*
X15177206Y-13819531D01*
X15177206Y-13819531D02*
X15167682Y-13838579D01*
X15167682Y-13838579D02*
X15167682Y-13886198D01*
X15167682Y-13886198D02*
X15177206Y-13905246D01*
X15177206Y-13905246D02*
X15186729Y-13914769D01*
X15186729Y-13914769D02*
X15205777Y-13924293D01*
X15205777Y-13924293D02*
X15243872Y-13924293D01*
X15243872Y-13924293D02*
X15262920Y-13914769D01*
X15262920Y-13914769D02*
X15272444Y-13905246D01*
X15272444Y-13905246D02*
X15281967Y-13886198D01*
X15453396Y-13867150D02*
X15453396Y-14000484D01*
X15405777Y-13790960D02*
X15358158Y-13933817D01*
X15358158Y-13933817D02*
X15481967Y-13933817D01*
X15548634Y-13800484D02*
X15548634Y-13838579D01*
X15624825Y-13800484D02*
X15624825Y-13838579D01*
X15920063Y-14076674D02*
X15910539Y-14067150D01*
X15910539Y-14067150D02*
X15891491Y-14038579D01*
X15891491Y-14038579D02*
X15881968Y-14019531D01*
X15881968Y-14019531D02*
X15872444Y-13990960D01*
X15872444Y-13990960D02*
X15862920Y-13943341D01*
X15862920Y-13943341D02*
X15862920Y-13905246D01*
X15862920Y-13905246D02*
X15872444Y-13857627D01*
X15872444Y-13857627D02*
X15881968Y-13829055D01*
X15881968Y-13829055D02*
X15891491Y-13810008D01*
X15891491Y-13810008D02*
X15910539Y-13781436D01*
X15910539Y-13781436D02*
X15920063Y-13771912D01*
X16101015Y-14000484D02*
X15986729Y-14000484D01*
X16043872Y-14000484D02*
X16043872Y-13800484D01*
X16043872Y-13800484D02*
X16024825Y-13829055D01*
X16024825Y-13829055D02*
X16005777Y-13848103D01*
X16005777Y-13848103D02*
X15986729Y-13857627D01*
X16215301Y-13886198D02*
X16196253Y-13876674D01*
X16196253Y-13876674D02*
X16186729Y-13867150D01*
X16186729Y-13867150D02*
X16177206Y-13848103D01*
X16177206Y-13848103D02*
X16177206Y-13838579D01*
X16177206Y-13838579D02*
X16186729Y-13819531D01*
X16186729Y-13819531D02*
X16196253Y-13810008D01*
X16196253Y-13810008D02*
X16215301Y-13800484D01*
X16215301Y-13800484D02*
X16253396Y-13800484D01*
X16253396Y-13800484D02*
X16272444Y-13810008D01*
X16272444Y-13810008D02*
X16281968Y-13819531D01*
X16281968Y-13819531D02*
X16291491Y-13838579D01*
X16291491Y-13838579D02*
X16291491Y-13848103D01*
X16291491Y-13848103D02*
X16281968Y-13867150D01*
X16281968Y-13867150D02*
X16272444Y-13876674D01*
X16272444Y-13876674D02*
X16253396Y-13886198D01*
X16253396Y-13886198D02*
X16215301Y-13886198D01*
X16215301Y-13886198D02*
X16196253Y-13895722D01*
X16196253Y-13895722D02*
X16186729Y-13905246D01*
X16186729Y-13905246D02*
X16177206Y-13924293D01*
X16177206Y-13924293D02*
X16177206Y-13962388D01*
X16177206Y-13962388D02*
X16186729Y-13981436D01*
X16186729Y-13981436D02*
X16196253Y-13990960D01*
X16196253Y-13990960D02*
X16215301Y-14000484D01*
X16215301Y-14000484D02*
X16253396Y-14000484D01*
X16253396Y-14000484D02*
X16272444Y-13990960D01*
X16272444Y-13990960D02*
X16281968Y-13981436D01*
X16281968Y-13981436D02*
X16291491Y-13962388D01*
X16291491Y-13962388D02*
X16291491Y-13924293D01*
X16291491Y-13924293D02*
X16281968Y-13905246D01*
X16281968Y-13905246D02*
X16272444Y-13895722D01*
X16272444Y-13895722D02*
X16253396Y-13886198D01*
X16529587Y-14000484D02*
X16529587Y-13800484D01*
X16615301Y-14000484D02*
X16615301Y-13895722D01*
X16615301Y-13895722D02*
X16605777Y-13876674D01*
X16605777Y-13876674D02*
X16586730Y-13867150D01*
X16586730Y-13867150D02*
X16558158Y-13867150D01*
X16558158Y-13867150D02*
X16539110Y-13876674D01*
X16539110Y-13876674D02*
X16529587Y-13886198D01*
X16739110Y-14000484D02*
X16720063Y-13990960D01*
X16720063Y-13990960D02*
X16710539Y-13981436D01*
X16710539Y-13981436D02*
X16701015Y-13962388D01*
X16701015Y-13962388D02*
X16701015Y-13905246D01*
X16701015Y-13905246D02*
X16710539Y-13886198D01*
X16710539Y-13886198D02*
X16720063Y-13876674D01*
X16720063Y-13876674D02*
X16739110Y-13867150D01*
X16739110Y-13867150D02*
X16767682Y-13867150D01*
X16767682Y-13867150D02*
X16786730Y-13876674D01*
X16786730Y-13876674D02*
X16796253Y-13886198D01*
X16796253Y-13886198D02*
X16805777Y-13905246D01*
X16805777Y-13905246D02*
X16805777Y-13962388D01*
X16805777Y-13962388D02*
X16796253Y-13981436D01*
X16796253Y-13981436D02*
X16786730Y-13990960D01*
X16786730Y-13990960D02*
X16767682Y-14000484D01*
X16767682Y-14000484D02*
X16739110Y-14000484D01*
X16920063Y-14000484D02*
X16901015Y-13990960D01*
X16901015Y-13990960D02*
X16891492Y-13971912D01*
X16891492Y-13971912D02*
X16891492Y-13800484D01*
X17072444Y-13990960D02*
X17053396Y-14000484D01*
X17053396Y-14000484D02*
X17015301Y-14000484D01*
X17015301Y-14000484D02*
X16996253Y-13990960D01*
X16996253Y-13990960D02*
X16986730Y-13971912D01*
X16986730Y-13971912D02*
X16986730Y-13895722D01*
X16986730Y-13895722D02*
X16996253Y-13876674D01*
X16996253Y-13876674D02*
X17015301Y-13867150D01*
X17015301Y-13867150D02*
X17053396Y-13867150D01*
X17053396Y-13867150D02*
X17072444Y-13876674D01*
X17072444Y-13876674D02*
X17081968Y-13895722D01*
X17081968Y-13895722D02*
X17081968Y-13914769D01*
X17081968Y-13914769D02*
X16986730Y-13933817D01*
X17158158Y-13990960D02*
X17177206Y-14000484D01*
X17177206Y-14000484D02*
X17215301Y-14000484D01*
X17215301Y-14000484D02*
X17234349Y-13990960D01*
X17234349Y-13990960D02*
X17243873Y-13971912D01*
X17243873Y-13971912D02*
X17243873Y-13962388D01*
X17243873Y-13962388D02*
X17234349Y-13943341D01*
X17234349Y-13943341D02*
X17215301Y-13933817D01*
X17215301Y-13933817D02*
X17186730Y-13933817D01*
X17186730Y-13933817D02*
X17167682Y-13924293D01*
X17167682Y-13924293D02*
X17158158Y-13905246D01*
X17158158Y-13905246D02*
X17158158Y-13895722D01*
X17158158Y-13895722D02*
X17167682Y-13876674D01*
X17167682Y-13876674D02*
X17186730Y-13867150D01*
X17186730Y-13867150D02*
X17215301Y-13867150D01*
X17215301Y-13867150D02*
X17234349Y-13876674D01*
X17310539Y-14076674D02*
X17320063Y-14067150D01*
X17320063Y-14067150D02*
X17339111Y-14038579D01*
X17339111Y-14038579D02*
X17348634Y-14019531D01*
X17348634Y-14019531D02*
X17358158Y-13990960D01*
X17358158Y-13990960D02*
X17367682Y-13943341D01*
X17367682Y-13943341D02*
X17367682Y-13905246D01*
X17367682Y-13905246D02*
X17358158Y-13857627D01*
X17358158Y-13857627D02*
X17348634Y-13829055D01*
X17348634Y-13829055D02*
X17339111Y-13810008D01*
X17339111Y-13810008D02*
X17320063Y-13781436D01*
X17320063Y-13781436D02*
X17310539Y-13771912D01*
D12*
X12290000Y-14118000D02*
X12290000Y-14228000D01*
X12235000Y-14173000D02*
X12345000Y-14173000D01*
D11*
X12710539Y-14264484D02*
X12596253Y-14264484D01*
X12653396Y-14264484D02*
X12653396Y-14064484D01*
X12653396Y-14064484D02*
X12634348Y-14093055D01*
X12634348Y-14093055D02*
X12615301Y-14112103D01*
X12615301Y-14112103D02*
X12596253Y-14121627D01*
X12805777Y-14254960D02*
X12805777Y-14264484D01*
X12805777Y-14264484D02*
X12796253Y-14283531D01*
X12796253Y-14283531D02*
X12786729Y-14293055D01*
X12996253Y-14264484D02*
X12881967Y-14264484D01*
X12939110Y-14264484D02*
X12939110Y-14064484D01*
X12939110Y-14064484D02*
X12920062Y-14093055D01*
X12920062Y-14093055D02*
X12901015Y-14112103D01*
X12901015Y-14112103D02*
X12881967Y-14121627D01*
X13120062Y-14064484D02*
X13139110Y-14064484D01*
X13139110Y-14064484D02*
X13158158Y-14074008D01*
X13158158Y-14074008D02*
X13167682Y-14083531D01*
X13167682Y-14083531D02*
X13177205Y-14102579D01*
X13177205Y-14102579D02*
X13186729Y-14140674D01*
X13186729Y-14140674D02*
X13186729Y-14188293D01*
X13186729Y-14188293D02*
X13177205Y-14226388D01*
X13177205Y-14226388D02*
X13167682Y-14245436D01*
X13167682Y-14245436D02*
X13158158Y-14254960D01*
X13158158Y-14254960D02*
X13139110Y-14264484D01*
X13139110Y-14264484D02*
X13120062Y-14264484D01*
X13120062Y-14264484D02*
X13101015Y-14254960D01*
X13101015Y-14254960D02*
X13091491Y-14245436D01*
X13091491Y-14245436D02*
X13081967Y-14226388D01*
X13081967Y-14226388D02*
X13072443Y-14188293D01*
X13072443Y-14188293D02*
X13072443Y-14140674D01*
X13072443Y-14140674D02*
X13081967Y-14102579D01*
X13081967Y-14102579D02*
X13091491Y-14083531D01*
X13091491Y-14083531D02*
X13101015Y-14074008D01*
X13101015Y-14074008D02*
X13120062Y-14064484D01*
X13310539Y-14064484D02*
X13329586Y-14064484D01*
X13329586Y-14064484D02*
X13348634Y-14074008D01*
X13348634Y-14074008D02*
X13358158Y-14083531D01*
X13358158Y-14083531D02*
X13367682Y-14102579D01*
X13367682Y-14102579D02*
X13377205Y-14140674D01*
X13377205Y-14140674D02*
X13377205Y-14188293D01*
X13377205Y-14188293D02*
X13367682Y-14226388D01*
X13367682Y-14226388D02*
X13358158Y-14245436D01*
X13358158Y-14245436D02*
X13348634Y-14254960D01*
X13348634Y-14254960D02*
X13329586Y-14264484D01*
X13329586Y-14264484D02*
X13310539Y-14264484D01*
X13310539Y-14264484D02*
X13291491Y-14254960D01*
X13291491Y-14254960D02*
X13281967Y-14245436D01*
X13281967Y-14245436D02*
X13272443Y-14226388D01*
X13272443Y-14226388D02*
X13262920Y-14188293D01*
X13262920Y-14188293D02*
X13262920Y-14140674D01*
X13262920Y-14140674D02*
X13272443Y-14102579D01*
X13272443Y-14102579D02*
X13281967Y-14083531D01*
X13281967Y-14083531D02*
X13291491Y-14074008D01*
X13291491Y-14074008D02*
X13310539Y-14064484D01*
X13462920Y-14264484D02*
X13462920Y-14131150D01*
X13462920Y-14150198D02*
X13472443Y-14140674D01*
X13472443Y-14140674D02*
X13491491Y-14131150D01*
X13491491Y-14131150D02*
X13520063Y-14131150D01*
X13520063Y-14131150D02*
X13539110Y-14140674D01*
X13539110Y-14140674D02*
X13548634Y-14159722D01*
X13548634Y-14159722D02*
X13548634Y-14264484D01*
X13548634Y-14159722D02*
X13558158Y-14140674D01*
X13558158Y-14140674D02*
X13577205Y-14131150D01*
X13577205Y-14131150D02*
X13605777Y-14131150D01*
X13605777Y-14131150D02*
X13624824Y-14140674D01*
X13624824Y-14140674D02*
X13634348Y-14159722D01*
X13634348Y-14159722D02*
X13634348Y-14264484D01*
X13729586Y-14264484D02*
X13729586Y-14131150D01*
X13729586Y-14150198D02*
X13739110Y-14140674D01*
X13739110Y-14140674D02*
X13758158Y-14131150D01*
X13758158Y-14131150D02*
X13786729Y-14131150D01*
X13786729Y-14131150D02*
X13805777Y-14140674D01*
X13805777Y-14140674D02*
X13815301Y-14159722D01*
X13815301Y-14159722D02*
X13815301Y-14264484D01*
X13815301Y-14159722D02*
X13824824Y-14140674D01*
X13824824Y-14140674D02*
X13843872Y-14131150D01*
X13843872Y-14131150D02*
X13872443Y-14131150D01*
X13872443Y-14131150D02*
X13891491Y-14140674D01*
X13891491Y-14140674D02*
X13901015Y-14159722D01*
X13901015Y-14159722D02*
X13901015Y-14264484D01*
X14291491Y-14054960D02*
X14120063Y-14312103D01*
X14548634Y-14064484D02*
X14567682Y-14064484D01*
X14567682Y-14064484D02*
X14586729Y-14074008D01*
X14586729Y-14074008D02*
X14596253Y-14083531D01*
X14596253Y-14083531D02*
X14605777Y-14102579D01*
X14605777Y-14102579D02*
X14615301Y-14140674D01*
X14615301Y-14140674D02*
X14615301Y-14188293D01*
X14615301Y-14188293D02*
X14605777Y-14226388D01*
X14605777Y-14226388D02*
X14596253Y-14245436D01*
X14596253Y-14245436D02*
X14586729Y-14254960D01*
X14586729Y-14254960D02*
X14567682Y-14264484D01*
X14567682Y-14264484D02*
X14548634Y-14264484D01*
X14548634Y-14264484D02*
X14529586Y-14254960D01*
X14529586Y-14254960D02*
X14520063Y-14245436D01*
X14520063Y-14245436D02*
X14510539Y-14226388D01*
X14510539Y-14226388D02*
X14501015Y-14188293D01*
X14501015Y-14188293D02*
X14501015Y-14140674D01*
X14501015Y-14140674D02*
X14510539Y-14102579D01*
X14510539Y-14102579D02*
X14520063Y-14083531D01*
X14520063Y-14083531D02*
X14529586Y-14074008D01*
X14529586Y-14074008D02*
X14548634Y-14064484D01*
X14710539Y-14254960D02*
X14710539Y-14264484D01*
X14710539Y-14264484D02*
X14701015Y-14283531D01*
X14701015Y-14283531D02*
X14691491Y-14293055D01*
X14834348Y-14064484D02*
X14853396Y-14064484D01*
X14853396Y-14064484D02*
X14872444Y-14074008D01*
X14872444Y-14074008D02*
X14881967Y-14083531D01*
X14881967Y-14083531D02*
X14891491Y-14102579D01*
X14891491Y-14102579D02*
X14901015Y-14140674D01*
X14901015Y-14140674D02*
X14901015Y-14188293D01*
X14901015Y-14188293D02*
X14891491Y-14226388D01*
X14891491Y-14226388D02*
X14881967Y-14245436D01*
X14881967Y-14245436D02*
X14872444Y-14254960D01*
X14872444Y-14254960D02*
X14853396Y-14264484D01*
X14853396Y-14264484D02*
X14834348Y-14264484D01*
X14834348Y-14264484D02*
X14815301Y-14254960D01*
X14815301Y-14254960D02*
X14805777Y-14245436D01*
X14805777Y-14245436D02*
X14796253Y-14226388D01*
X14796253Y-14226388D02*
X14786729Y-14188293D01*
X14786729Y-14188293D02*
X14786729Y-14140674D01*
X14786729Y-14140674D02*
X14796253Y-14102579D01*
X14796253Y-14102579D02*
X14805777Y-14083531D01*
X14805777Y-14083531D02*
X14815301Y-14074008D01*
X14815301Y-14074008D02*
X14834348Y-14064484D01*
X15072444Y-14131150D02*
X15072444Y-14264484D01*
X15024825Y-14054960D02*
X14977206Y-14197817D01*
X14977206Y-14197817D02*
X15101015Y-14197817D01*
X15158158Y-14064484D02*
X15281967Y-14064484D01*
X15281967Y-14064484D02*
X15215301Y-14140674D01*
X15215301Y-14140674D02*
X15243872Y-14140674D01*
X15243872Y-14140674D02*
X15262920Y-14150198D01*
X15262920Y-14150198D02*
X15272444Y-14159722D01*
X15272444Y-14159722D02*
X15281967Y-14178769D01*
X15281967Y-14178769D02*
X15281967Y-14226388D01*
X15281967Y-14226388D02*
X15272444Y-14245436D01*
X15272444Y-14245436D02*
X15262920Y-14254960D01*
X15262920Y-14254960D02*
X15243872Y-14264484D01*
X15243872Y-14264484D02*
X15186729Y-14264484D01*
X15186729Y-14264484D02*
X15167682Y-14254960D01*
X15167682Y-14254960D02*
X15158158Y-14245436D01*
X15348634Y-14064484D02*
X15472444Y-14064484D01*
X15472444Y-14064484D02*
X15405777Y-14140674D01*
X15405777Y-14140674D02*
X15434348Y-14140674D01*
X15434348Y-14140674D02*
X15453396Y-14150198D01*
X15453396Y-14150198D02*
X15462920Y-14159722D01*
X15462920Y-14159722D02*
X15472444Y-14178769D01*
X15472444Y-14178769D02*
X15472444Y-14226388D01*
X15472444Y-14226388D02*
X15462920Y-14245436D01*
X15462920Y-14245436D02*
X15453396Y-14254960D01*
X15453396Y-14254960D02*
X15434348Y-14264484D01*
X15434348Y-14264484D02*
X15377206Y-14264484D01*
X15377206Y-14264484D02*
X15358158Y-14254960D01*
X15358158Y-14254960D02*
X15348634Y-14245436D01*
X15548634Y-14064484D02*
X15548634Y-14102579D01*
X15624825Y-14064484D02*
X15624825Y-14102579D01*
X15920063Y-14340674D02*
X15910539Y-14331150D01*
X15910539Y-14331150D02*
X15891491Y-14302579D01*
X15891491Y-14302579D02*
X15881968Y-14283531D01*
X15881968Y-14283531D02*
X15872444Y-14254960D01*
X15872444Y-14254960D02*
X15862920Y-14207341D01*
X15862920Y-14207341D02*
X15862920Y-14169246D01*
X15862920Y-14169246D02*
X15872444Y-14121627D01*
X15872444Y-14121627D02*
X15881968Y-14093055D01*
X15881968Y-14093055D02*
X15891491Y-14074008D01*
X15891491Y-14074008D02*
X15910539Y-14045436D01*
X15910539Y-14045436D02*
X15920063Y-14035912D01*
X15986729Y-14083531D02*
X15996253Y-14074008D01*
X15996253Y-14074008D02*
X16015301Y-14064484D01*
X16015301Y-14064484D02*
X16062920Y-14064484D01*
X16062920Y-14064484D02*
X16081968Y-14074008D01*
X16081968Y-14074008D02*
X16091491Y-14083531D01*
X16091491Y-14083531D02*
X16101015Y-14102579D01*
X16101015Y-14102579D02*
X16101015Y-14121627D01*
X16101015Y-14121627D02*
X16091491Y-14150198D01*
X16091491Y-14150198D02*
X15977206Y-14264484D01*
X15977206Y-14264484D02*
X16101015Y-14264484D01*
X16177206Y-14083531D02*
X16186729Y-14074008D01*
X16186729Y-14074008D02*
X16205777Y-14064484D01*
X16205777Y-14064484D02*
X16253396Y-14064484D01*
X16253396Y-14064484D02*
X16272444Y-14074008D01*
X16272444Y-14074008D02*
X16281968Y-14083531D01*
X16281968Y-14083531D02*
X16291491Y-14102579D01*
X16291491Y-14102579D02*
X16291491Y-14121627D01*
X16291491Y-14121627D02*
X16281968Y-14150198D01*
X16281968Y-14150198D02*
X16167682Y-14264484D01*
X16167682Y-14264484D02*
X16291491Y-14264484D01*
X16529587Y-14264484D02*
X16529587Y-14064484D01*
X16615301Y-14264484D02*
X16615301Y-14159722D01*
X16615301Y-14159722D02*
X16605777Y-14140674D01*
X16605777Y-14140674D02*
X16586730Y-14131150D01*
X16586730Y-14131150D02*
X16558158Y-14131150D01*
X16558158Y-14131150D02*
X16539110Y-14140674D01*
X16539110Y-14140674D02*
X16529587Y-14150198D01*
X16739110Y-14264484D02*
X16720063Y-14254960D01*
X16720063Y-14254960D02*
X16710539Y-14245436D01*
X16710539Y-14245436D02*
X16701015Y-14226388D01*
X16701015Y-14226388D02*
X16701015Y-14169246D01*
X16701015Y-14169246D02*
X16710539Y-14150198D01*
X16710539Y-14150198D02*
X16720063Y-14140674D01*
X16720063Y-14140674D02*
X16739110Y-14131150D01*
X16739110Y-14131150D02*
X16767682Y-14131150D01*
X16767682Y-14131150D02*
X16786730Y-14140674D01*
X16786730Y-14140674D02*
X16796253Y-14150198D01*
X16796253Y-14150198D02*
X16805777Y-14169246D01*
X16805777Y-14169246D02*
X16805777Y-14226388D01*
X16805777Y-14226388D02*
X16796253Y-14245436D01*
X16796253Y-14245436D02*
X16786730Y-14254960D01*
X16786730Y-14254960D02*
X16767682Y-14264484D01*
X16767682Y-14264484D02*
X16739110Y-14264484D01*
X16920063Y-14264484D02*
X16901015Y-14254960D01*
X16901015Y-14254960D02*
X16891492Y-14235912D01*
X16891492Y-14235912D02*
X16891492Y-14064484D01*
X17072444Y-14254960D02*
X17053396Y-14264484D01*
X17053396Y-14264484D02*
X17015301Y-14264484D01*
X17015301Y-14264484D02*
X16996253Y-14254960D01*
X16996253Y-14254960D02*
X16986730Y-14235912D01*
X16986730Y-14235912D02*
X16986730Y-14159722D01*
X16986730Y-14159722D02*
X16996253Y-14140674D01*
X16996253Y-14140674D02*
X17015301Y-14131150D01*
X17015301Y-14131150D02*
X17053396Y-14131150D01*
X17053396Y-14131150D02*
X17072444Y-14140674D01*
X17072444Y-14140674D02*
X17081968Y-14159722D01*
X17081968Y-14159722D02*
X17081968Y-14178769D01*
X17081968Y-14178769D02*
X16986730Y-14197817D01*
X17158158Y-14254960D02*
X17177206Y-14264484D01*
X17177206Y-14264484D02*
X17215301Y-14264484D01*
X17215301Y-14264484D02*
X17234349Y-14254960D01*
X17234349Y-14254960D02*
X17243873Y-14235912D01*
X17243873Y-14235912D02*
X17243873Y-14226388D01*
X17243873Y-14226388D02*
X17234349Y-14207341D01*
X17234349Y-14207341D02*
X17215301Y-14197817D01*
X17215301Y-14197817D02*
X17186730Y-14197817D01*
X17186730Y-14197817D02*
X17167682Y-14188293D01*
X17167682Y-14188293D02*
X17158158Y-14169246D01*
X17158158Y-14169246D02*
X17158158Y-14159722D01*
X17158158Y-14159722D02*
X17167682Y-14140674D01*
X17167682Y-14140674D02*
X17186730Y-14131150D01*
X17186730Y-14131150D02*
X17215301Y-14131150D01*
X17215301Y-14131150D02*
X17234349Y-14140674D01*
X17310539Y-14340674D02*
X17320063Y-14331150D01*
X17320063Y-14331150D02*
X17339111Y-14302579D01*
X17339111Y-14302579D02*
X17348634Y-14283531D01*
X17348634Y-14283531D02*
X17358158Y-14254960D01*
X17358158Y-14254960D02*
X17367682Y-14207341D01*
X17367682Y-14207341D02*
X17367682Y-14169246D01*
X17367682Y-14169246D02*
X17358158Y-14121627D01*
X17358158Y-14121627D02*
X17348634Y-14093055D01*
X17348634Y-14093055D02*
X17339111Y-14074008D01*
X17339111Y-14074008D02*
X17320063Y-14045436D01*
X17320063Y-14045436D02*
X17310539Y-14035912D01*
D13*
X12321569Y-14493569D02*
X12321569Y-14380431D01*
X12208431Y-14380431D01*
X12208431Y-14493569D01*
X12321569Y-14493569D01*
D11*
X12710539Y-14528484D02*
X12596253Y-14528484D01*
X12653396Y-14528484D02*
X12653396Y-14328484D01*
X12653396Y-14328484D02*
X12634348Y-14357055D01*
X12634348Y-14357055D02*
X12615301Y-14376103D01*
X12615301Y-14376103D02*
X12596253Y-14385627D01*
X12805777Y-14518960D02*
X12805777Y-14528484D01*
X12805777Y-14528484D02*
X12796253Y-14547531D01*
X12796253Y-14547531D02*
X12786729Y-14557055D01*
X12977205Y-14328484D02*
X12939110Y-14328484D01*
X12939110Y-14328484D02*
X12920062Y-14338008D01*
X12920062Y-14338008D02*
X12910539Y-14347531D01*
X12910539Y-14347531D02*
X12891491Y-14376103D01*
X12891491Y-14376103D02*
X12881967Y-14414198D01*
X12881967Y-14414198D02*
X12881967Y-14490388D01*
X12881967Y-14490388D02*
X12891491Y-14509436D01*
X12891491Y-14509436D02*
X12901015Y-14518960D01*
X12901015Y-14518960D02*
X12920062Y-14528484D01*
X12920062Y-14528484D02*
X12958158Y-14528484D01*
X12958158Y-14528484D02*
X12977205Y-14518960D01*
X12977205Y-14518960D02*
X12986729Y-14509436D01*
X12986729Y-14509436D02*
X12996253Y-14490388D01*
X12996253Y-14490388D02*
X12996253Y-14442769D01*
X12996253Y-14442769D02*
X12986729Y-14423722D01*
X12986729Y-14423722D02*
X12977205Y-14414198D01*
X12977205Y-14414198D02*
X12958158Y-14404674D01*
X12958158Y-14404674D02*
X12920062Y-14404674D01*
X12920062Y-14404674D02*
X12901015Y-14414198D01*
X12901015Y-14414198D02*
X12891491Y-14423722D01*
X12891491Y-14423722D02*
X12881967Y-14442769D01*
X13120062Y-14328484D02*
X13139110Y-14328484D01*
X13139110Y-14328484D02*
X13158158Y-14338008D01*
X13158158Y-14338008D02*
X13167682Y-14347531D01*
X13167682Y-14347531D02*
X13177205Y-14366579D01*
X13177205Y-14366579D02*
X13186729Y-14404674D01*
X13186729Y-14404674D02*
X13186729Y-14452293D01*
X13186729Y-14452293D02*
X13177205Y-14490388D01*
X13177205Y-14490388D02*
X13167682Y-14509436D01*
X13167682Y-14509436D02*
X13158158Y-14518960D01*
X13158158Y-14518960D02*
X13139110Y-14528484D01*
X13139110Y-14528484D02*
X13120062Y-14528484D01*
X13120062Y-14528484D02*
X13101015Y-14518960D01*
X13101015Y-14518960D02*
X13091491Y-14509436D01*
X13091491Y-14509436D02*
X13081967Y-14490388D01*
X13081967Y-14490388D02*
X13072443Y-14452293D01*
X13072443Y-14452293D02*
X13072443Y-14404674D01*
X13072443Y-14404674D02*
X13081967Y-14366579D01*
X13081967Y-14366579D02*
X13091491Y-14347531D01*
X13091491Y-14347531D02*
X13101015Y-14338008D01*
X13101015Y-14338008D02*
X13120062Y-14328484D01*
X13310539Y-14328484D02*
X13329586Y-14328484D01*
X13329586Y-14328484D02*
X13348634Y-14338008D01*
X13348634Y-14338008D02*
X13358158Y-14347531D01*
X13358158Y-14347531D02*
X13367682Y-14366579D01*
X13367682Y-14366579D02*
X13377205Y-14404674D01*
X13377205Y-14404674D02*
X13377205Y-14452293D01*
X13377205Y-14452293D02*
X13367682Y-14490388D01*
X13367682Y-14490388D02*
X13358158Y-14509436D01*
X13358158Y-14509436D02*
X13348634Y-14518960D01*
X13348634Y-14518960D02*
X13329586Y-14528484D01*
X13329586Y-14528484D02*
X13310539Y-14528484D01*
X13310539Y-14528484D02*
X13291491Y-14518960D01*
X13291491Y-14518960D02*
X13281967Y-14509436D01*
X13281967Y-14509436D02*
X13272443Y-14490388D01*
X13272443Y-14490388D02*
X13262920Y-14452293D01*
X13262920Y-14452293D02*
X13262920Y-14404674D01*
X13262920Y-14404674D02*
X13272443Y-14366579D01*
X13272443Y-14366579D02*
X13281967Y-14347531D01*
X13281967Y-14347531D02*
X13291491Y-14338008D01*
X13291491Y-14338008D02*
X13310539Y-14328484D01*
X13462920Y-14528484D02*
X13462920Y-14395150D01*
X13462920Y-14414198D02*
X13472443Y-14404674D01*
X13472443Y-14404674D02*
X13491491Y-14395150D01*
X13491491Y-14395150D02*
X13520063Y-14395150D01*
X13520063Y-14395150D02*
X13539110Y-14404674D01*
X13539110Y-14404674D02*
X13548634Y-14423722D01*
X13548634Y-14423722D02*
X13548634Y-14528484D01*
X13548634Y-14423722D02*
X13558158Y-14404674D01*
X13558158Y-14404674D02*
X13577205Y-14395150D01*
X13577205Y-14395150D02*
X13605777Y-14395150D01*
X13605777Y-14395150D02*
X13624824Y-14404674D01*
X13624824Y-14404674D02*
X13634348Y-14423722D01*
X13634348Y-14423722D02*
X13634348Y-14528484D01*
X13729586Y-14528484D02*
X13729586Y-14395150D01*
X13729586Y-14414198D02*
X13739110Y-14404674D01*
X13739110Y-14404674D02*
X13758158Y-14395150D01*
X13758158Y-14395150D02*
X13786729Y-14395150D01*
X13786729Y-14395150D02*
X13805777Y-14404674D01*
X13805777Y-14404674D02*
X13815301Y-14423722D01*
X13815301Y-14423722D02*
X13815301Y-14528484D01*
X13815301Y-14423722D02*
X13824824Y-14404674D01*
X13824824Y-14404674D02*
X13843872Y-14395150D01*
X13843872Y-14395150D02*
X13872443Y-14395150D01*
X13872443Y-14395150D02*
X13891491Y-14404674D01*
X13891491Y-14404674D02*
X13901015Y-14423722D01*
X13901015Y-14423722D02*
X13901015Y-14528484D01*
X14291491Y-14318960D02*
X14120063Y-14576103D01*
X14548634Y-14328484D02*
X14567682Y-14328484D01*
X14567682Y-14328484D02*
X14586729Y-14338008D01*
X14586729Y-14338008D02*
X14596253Y-14347531D01*
X14596253Y-14347531D02*
X14605777Y-14366579D01*
X14605777Y-14366579D02*
X14615301Y-14404674D01*
X14615301Y-14404674D02*
X14615301Y-14452293D01*
X14615301Y-14452293D02*
X14605777Y-14490388D01*
X14605777Y-14490388D02*
X14596253Y-14509436D01*
X14596253Y-14509436D02*
X14586729Y-14518960D01*
X14586729Y-14518960D02*
X14567682Y-14528484D01*
X14567682Y-14528484D02*
X14548634Y-14528484D01*
X14548634Y-14528484D02*
X14529586Y-14518960D01*
X14529586Y-14518960D02*
X14520063Y-14509436D01*
X14520063Y-14509436D02*
X14510539Y-14490388D01*
X14510539Y-14490388D02*
X14501015Y-14452293D01*
X14501015Y-14452293D02*
X14501015Y-14404674D01*
X14501015Y-14404674D02*
X14510539Y-14366579D01*
X14510539Y-14366579D02*
X14520063Y-14347531D01*
X14520063Y-14347531D02*
X14529586Y-14338008D01*
X14529586Y-14338008D02*
X14548634Y-14328484D01*
X14710539Y-14518960D02*
X14710539Y-14528484D01*
X14710539Y-14528484D02*
X14701015Y-14547531D01*
X14701015Y-14547531D02*
X14691491Y-14557055D01*
X14834348Y-14328484D02*
X14853396Y-14328484D01*
X14853396Y-14328484D02*
X14872444Y-14338008D01*
X14872444Y-14338008D02*
X14881967Y-14347531D01*
X14881967Y-14347531D02*
X14891491Y-14366579D01*
X14891491Y-14366579D02*
X14901015Y-14404674D01*
X14901015Y-14404674D02*
X14901015Y-14452293D01*
X14901015Y-14452293D02*
X14891491Y-14490388D01*
X14891491Y-14490388D02*
X14881967Y-14509436D01*
X14881967Y-14509436D02*
X14872444Y-14518960D01*
X14872444Y-14518960D02*
X14853396Y-14528484D01*
X14853396Y-14528484D02*
X14834348Y-14528484D01*
X14834348Y-14528484D02*
X14815301Y-14518960D01*
X14815301Y-14518960D02*
X14805777Y-14509436D01*
X14805777Y-14509436D02*
X14796253Y-14490388D01*
X14796253Y-14490388D02*
X14786729Y-14452293D01*
X14786729Y-14452293D02*
X14786729Y-14404674D01*
X14786729Y-14404674D02*
X14796253Y-14366579D01*
X14796253Y-14366579D02*
X14805777Y-14347531D01*
X14805777Y-14347531D02*
X14815301Y-14338008D01*
X14815301Y-14338008D02*
X14834348Y-14328484D01*
X15072444Y-14328484D02*
X15034348Y-14328484D01*
X15034348Y-14328484D02*
X15015301Y-14338008D01*
X15015301Y-14338008D02*
X15005777Y-14347531D01*
X15005777Y-14347531D02*
X14986729Y-14376103D01*
X14986729Y-14376103D02*
X14977206Y-14414198D01*
X14977206Y-14414198D02*
X14977206Y-14490388D01*
X14977206Y-14490388D02*
X14986729Y-14509436D01*
X14986729Y-14509436D02*
X14996253Y-14518960D01*
X14996253Y-14518960D02*
X15015301Y-14528484D01*
X15015301Y-14528484D02*
X15053396Y-14528484D01*
X15053396Y-14528484D02*
X15072444Y-14518960D01*
X15072444Y-14518960D02*
X15081967Y-14509436D01*
X15081967Y-14509436D02*
X15091491Y-14490388D01*
X15091491Y-14490388D02*
X15091491Y-14442769D01*
X15091491Y-14442769D02*
X15081967Y-14423722D01*
X15081967Y-14423722D02*
X15072444Y-14414198D01*
X15072444Y-14414198D02*
X15053396Y-14404674D01*
X15053396Y-14404674D02*
X15015301Y-14404674D01*
X15015301Y-14404674D02*
X14996253Y-14414198D01*
X14996253Y-14414198D02*
X14986729Y-14423722D01*
X14986729Y-14423722D02*
X14977206Y-14442769D01*
X15158158Y-14328484D02*
X15281967Y-14328484D01*
X15281967Y-14328484D02*
X15215301Y-14404674D01*
X15215301Y-14404674D02*
X15243872Y-14404674D01*
X15243872Y-14404674D02*
X15262920Y-14414198D01*
X15262920Y-14414198D02*
X15272444Y-14423722D01*
X15272444Y-14423722D02*
X15281967Y-14442769D01*
X15281967Y-14442769D02*
X15281967Y-14490388D01*
X15281967Y-14490388D02*
X15272444Y-14509436D01*
X15272444Y-14509436D02*
X15262920Y-14518960D01*
X15262920Y-14518960D02*
X15243872Y-14528484D01*
X15243872Y-14528484D02*
X15186729Y-14528484D01*
X15186729Y-14528484D02*
X15167682Y-14518960D01*
X15167682Y-14518960D02*
X15158158Y-14509436D01*
X15405777Y-14328484D02*
X15424825Y-14328484D01*
X15424825Y-14328484D02*
X15443872Y-14338008D01*
X15443872Y-14338008D02*
X15453396Y-14347531D01*
X15453396Y-14347531D02*
X15462920Y-14366579D01*
X15462920Y-14366579D02*
X15472444Y-14404674D01*
X15472444Y-14404674D02*
X15472444Y-14452293D01*
X15472444Y-14452293D02*
X15462920Y-14490388D01*
X15462920Y-14490388D02*
X15453396Y-14509436D01*
X15453396Y-14509436D02*
X15443872Y-14518960D01*
X15443872Y-14518960D02*
X15424825Y-14528484D01*
X15424825Y-14528484D02*
X15405777Y-14528484D01*
X15405777Y-14528484D02*
X15386729Y-14518960D01*
X15386729Y-14518960D02*
X15377206Y-14509436D01*
X15377206Y-14509436D02*
X15367682Y-14490388D01*
X15367682Y-14490388D02*
X15358158Y-14452293D01*
X15358158Y-14452293D02*
X15358158Y-14404674D01*
X15358158Y-14404674D02*
X15367682Y-14366579D01*
X15367682Y-14366579D02*
X15377206Y-14347531D01*
X15377206Y-14347531D02*
X15386729Y-14338008D01*
X15386729Y-14338008D02*
X15405777Y-14328484D01*
X15548634Y-14328484D02*
X15548634Y-14366579D01*
X15624825Y-14328484D02*
X15624825Y-14366579D01*
X15920063Y-14604674D02*
X15910539Y-14595150D01*
X15910539Y-14595150D02*
X15891491Y-14566579D01*
X15891491Y-14566579D02*
X15881968Y-14547531D01*
X15881968Y-14547531D02*
X15872444Y-14518960D01*
X15872444Y-14518960D02*
X15862920Y-14471341D01*
X15862920Y-14471341D02*
X15862920Y-14433246D01*
X15862920Y-14433246D02*
X15872444Y-14385627D01*
X15872444Y-14385627D02*
X15881968Y-14357055D01*
X15881968Y-14357055D02*
X15891491Y-14338008D01*
X15891491Y-14338008D02*
X15910539Y-14309436D01*
X15910539Y-14309436D02*
X15920063Y-14299912D01*
X15977206Y-14328484D02*
X16101015Y-14328484D01*
X16101015Y-14328484D02*
X16034348Y-14404674D01*
X16034348Y-14404674D02*
X16062920Y-14404674D01*
X16062920Y-14404674D02*
X16081968Y-14414198D01*
X16081968Y-14414198D02*
X16091491Y-14423722D01*
X16091491Y-14423722D02*
X16101015Y-14442769D01*
X16101015Y-14442769D02*
X16101015Y-14490388D01*
X16101015Y-14490388D02*
X16091491Y-14509436D01*
X16091491Y-14509436D02*
X16081968Y-14518960D01*
X16081968Y-14518960D02*
X16062920Y-14528484D01*
X16062920Y-14528484D02*
X16005777Y-14528484D01*
X16005777Y-14528484D02*
X15986729Y-14518960D01*
X15986729Y-14518960D02*
X15977206Y-14509436D01*
X16339110Y-14528484D02*
X16339110Y-14328484D01*
X16424825Y-14528484D02*
X16424825Y-14423722D01*
X16424825Y-14423722D02*
X16415301Y-14404674D01*
X16415301Y-14404674D02*
X16396253Y-14395150D01*
X16396253Y-14395150D02*
X16367682Y-14395150D01*
X16367682Y-14395150D02*
X16348634Y-14404674D01*
X16348634Y-14404674D02*
X16339110Y-14414198D01*
X16548634Y-14528484D02*
X16529587Y-14518960D01*
X16529587Y-14518960D02*
X16520063Y-14509436D01*
X16520063Y-14509436D02*
X16510539Y-14490388D01*
X16510539Y-14490388D02*
X16510539Y-14433246D01*
X16510539Y-14433246D02*
X16520063Y-14414198D01*
X16520063Y-14414198D02*
X16529587Y-14404674D01*
X16529587Y-14404674D02*
X16548634Y-14395150D01*
X16548634Y-14395150D02*
X16577206Y-14395150D01*
X16577206Y-14395150D02*
X16596253Y-14404674D01*
X16596253Y-14404674D02*
X16605777Y-14414198D01*
X16605777Y-14414198D02*
X16615301Y-14433246D01*
X16615301Y-14433246D02*
X16615301Y-14490388D01*
X16615301Y-14490388D02*
X16605777Y-14509436D01*
X16605777Y-14509436D02*
X16596253Y-14518960D01*
X16596253Y-14518960D02*
X16577206Y-14528484D01*
X16577206Y-14528484D02*
X16548634Y-14528484D01*
X16729587Y-14528484D02*
X16710539Y-14518960D01*
X16710539Y-14518960D02*
X16701015Y-14499912D01*
X16701015Y-14499912D02*
X16701015Y-14328484D01*
X16881968Y-14518960D02*
X16862920Y-14528484D01*
X16862920Y-14528484D02*
X16824825Y-14528484D01*
X16824825Y-14528484D02*
X16805777Y-14518960D01*
X16805777Y-14518960D02*
X16796253Y-14499912D01*
X16796253Y-14499912D02*
X16796253Y-14423722D01*
X16796253Y-14423722D02*
X16805777Y-14404674D01*
X16805777Y-14404674D02*
X16824825Y-14395150D01*
X16824825Y-14395150D02*
X16862920Y-14395150D01*
X16862920Y-14395150D02*
X16881968Y-14404674D01*
X16881968Y-14404674D02*
X16891492Y-14423722D01*
X16891492Y-14423722D02*
X16891492Y-14442769D01*
X16891492Y-14442769D02*
X16796253Y-14461817D01*
X16967682Y-14518960D02*
X16986730Y-14528484D01*
X16986730Y-14528484D02*
X17024825Y-14528484D01*
X17024825Y-14528484D02*
X17043873Y-14518960D01*
X17043873Y-14518960D02*
X17053396Y-14499912D01*
X17053396Y-14499912D02*
X17053396Y-14490388D01*
X17053396Y-14490388D02*
X17043873Y-14471341D01*
X17043873Y-14471341D02*
X17024825Y-14461817D01*
X17024825Y-14461817D02*
X16996253Y-14461817D01*
X16996253Y-14461817D02*
X16977206Y-14452293D01*
X16977206Y-14452293D02*
X16967682Y-14433246D01*
X16967682Y-14433246D02*
X16967682Y-14423722D01*
X16967682Y-14423722D02*
X16977206Y-14404674D01*
X16977206Y-14404674D02*
X16996253Y-14395150D01*
X16996253Y-14395150D02*
X17024825Y-14395150D01*
X17024825Y-14395150D02*
X17043873Y-14404674D01*
X17120063Y-14604674D02*
X17129587Y-14595150D01*
X17129587Y-14595150D02*
X17148634Y-14566579D01*
X17148634Y-14566579D02*
X17158158Y-14547531D01*
X17158158Y-14547531D02*
X17167682Y-14518960D01*
X17167682Y-14518960D02*
X17177206Y-14471341D01*
X17177206Y-14471341D02*
X17177206Y-14433246D01*
X17177206Y-14433246D02*
X17167682Y-14385627D01*
X17167682Y-14385627D02*
X17158158Y-14357055D01*
X17158158Y-14357055D02*
X17148634Y-14338008D01*
X17148634Y-14338008D02*
X17129587Y-14309436D01*
X17129587Y-14309436D02*
X17120063Y-14299912D01*
D12*
X12290000Y-14772000D02*
X12345000Y-14717000D01*
X12290000Y-14662000D01*
X12235000Y-14717000D01*
X12290000Y-14772000D01*
D11*
X12710539Y-14808484D02*
X12596253Y-14808484D01*
X12653396Y-14808484D02*
X12653396Y-14608484D01*
X12653396Y-14608484D02*
X12634348Y-14637055D01*
X12634348Y-14637055D02*
X12615301Y-14656103D01*
X12615301Y-14656103D02*
X12596253Y-14665627D01*
X12805777Y-14798960D02*
X12805777Y-14808484D01*
X12805777Y-14808484D02*
X12796253Y-14827531D01*
X12796253Y-14827531D02*
X12786729Y-14837055D01*
X12996253Y-14808484D02*
X12881967Y-14808484D01*
X12939110Y-14808484D02*
X12939110Y-14608484D01*
X12939110Y-14608484D02*
X12920062Y-14637055D01*
X12920062Y-14637055D02*
X12901015Y-14656103D01*
X12901015Y-14656103D02*
X12881967Y-14665627D01*
X13120062Y-14608484D02*
X13139110Y-14608484D01*
X13139110Y-14608484D02*
X13158158Y-14618008D01*
X13158158Y-14618008D02*
X13167682Y-14627531D01*
X13167682Y-14627531D02*
X13177205Y-14646579D01*
X13177205Y-14646579D02*
X13186729Y-14684674D01*
X13186729Y-14684674D02*
X13186729Y-14732293D01*
X13186729Y-14732293D02*
X13177205Y-14770388D01*
X13177205Y-14770388D02*
X13167682Y-14789436D01*
X13167682Y-14789436D02*
X13158158Y-14798960D01*
X13158158Y-14798960D02*
X13139110Y-14808484D01*
X13139110Y-14808484D02*
X13120062Y-14808484D01*
X13120062Y-14808484D02*
X13101015Y-14798960D01*
X13101015Y-14798960D02*
X13091491Y-14789436D01*
X13091491Y-14789436D02*
X13081967Y-14770388D01*
X13081967Y-14770388D02*
X13072443Y-14732293D01*
X13072443Y-14732293D02*
X13072443Y-14684674D01*
X13072443Y-14684674D02*
X13081967Y-14646579D01*
X13081967Y-14646579D02*
X13091491Y-14627531D01*
X13091491Y-14627531D02*
X13101015Y-14618008D01*
X13101015Y-14618008D02*
X13120062Y-14608484D01*
X13310539Y-14608484D02*
X13329586Y-14608484D01*
X13329586Y-14608484D02*
X13348634Y-14618008D01*
X13348634Y-14618008D02*
X13358158Y-14627531D01*
X13358158Y-14627531D02*
X13367682Y-14646579D01*
X13367682Y-14646579D02*
X13377205Y-14684674D01*
X13377205Y-14684674D02*
X13377205Y-14732293D01*
X13377205Y-14732293D02*
X13367682Y-14770388D01*
X13367682Y-14770388D02*
X13358158Y-14789436D01*
X13358158Y-14789436D02*
X13348634Y-14798960D01*
X13348634Y-14798960D02*
X13329586Y-14808484D01*
X13329586Y-14808484D02*
X13310539Y-14808484D01*
X13310539Y-14808484D02*
X13291491Y-14798960D01*
X13291491Y-14798960D02*
X13281967Y-14789436D01*
X13281967Y-14789436D02*
X13272443Y-14770388D01*
X13272443Y-14770388D02*
X13262920Y-14732293D01*
X13262920Y-14732293D02*
X13262920Y-14684674D01*
X13262920Y-14684674D02*
X13272443Y-14646579D01*
X13272443Y-14646579D02*
X13281967Y-14627531D01*
X13281967Y-14627531D02*
X13291491Y-14618008D01*
X13291491Y-14618008D02*
X13310539Y-14608484D01*
X13462920Y-14808484D02*
X13462920Y-14675150D01*
X13462920Y-14694198D02*
X13472443Y-14684674D01*
X13472443Y-14684674D02*
X13491491Y-14675150D01*
X13491491Y-14675150D02*
X13520063Y-14675150D01*
X13520063Y-14675150D02*
X13539110Y-14684674D01*
X13539110Y-14684674D02*
X13548634Y-14703722D01*
X13548634Y-14703722D02*
X13548634Y-14808484D01*
X13548634Y-14703722D02*
X13558158Y-14684674D01*
X13558158Y-14684674D02*
X13577205Y-14675150D01*
X13577205Y-14675150D02*
X13605777Y-14675150D01*
X13605777Y-14675150D02*
X13624824Y-14684674D01*
X13624824Y-14684674D02*
X13634348Y-14703722D01*
X13634348Y-14703722D02*
X13634348Y-14808484D01*
X13729586Y-14808484D02*
X13729586Y-14675150D01*
X13729586Y-14694198D02*
X13739110Y-14684674D01*
X13739110Y-14684674D02*
X13758158Y-14675150D01*
X13758158Y-14675150D02*
X13786729Y-14675150D01*
X13786729Y-14675150D02*
X13805777Y-14684674D01*
X13805777Y-14684674D02*
X13815301Y-14703722D01*
X13815301Y-14703722D02*
X13815301Y-14808484D01*
X13815301Y-14703722D02*
X13824824Y-14684674D01*
X13824824Y-14684674D02*
X13843872Y-14675150D01*
X13843872Y-14675150D02*
X13872443Y-14675150D01*
X13872443Y-14675150D02*
X13891491Y-14684674D01*
X13891491Y-14684674D02*
X13901015Y-14703722D01*
X13901015Y-14703722D02*
X13901015Y-14808484D01*
X14291491Y-14598960D02*
X14120063Y-14856103D01*
X14548634Y-14608484D02*
X14567682Y-14608484D01*
X14567682Y-14608484D02*
X14586729Y-14618008D01*
X14586729Y-14618008D02*
X14596253Y-14627531D01*
X14596253Y-14627531D02*
X14605777Y-14646579D01*
X14605777Y-14646579D02*
X14615301Y-14684674D01*
X14615301Y-14684674D02*
X14615301Y-14732293D01*
X14615301Y-14732293D02*
X14605777Y-14770388D01*
X14605777Y-14770388D02*
X14596253Y-14789436D01*
X14596253Y-14789436D02*
X14586729Y-14798960D01*
X14586729Y-14798960D02*
X14567682Y-14808484D01*
X14567682Y-14808484D02*
X14548634Y-14808484D01*
X14548634Y-14808484D02*
X14529586Y-14798960D01*
X14529586Y-14798960D02*
X14520063Y-14789436D01*
X14520063Y-14789436D02*
X14510539Y-14770388D01*
X14510539Y-14770388D02*
X14501015Y-14732293D01*
X14501015Y-14732293D02*
X14501015Y-14684674D01*
X14501015Y-14684674D02*
X14510539Y-14646579D01*
X14510539Y-14646579D02*
X14520063Y-14627531D01*
X14520063Y-14627531D02*
X14529586Y-14618008D01*
X14529586Y-14618008D02*
X14548634Y-14608484D01*
X14710539Y-14798960D02*
X14710539Y-14808484D01*
X14710539Y-14808484D02*
X14701015Y-14827531D01*
X14701015Y-14827531D02*
X14691491Y-14837055D01*
X14834348Y-14608484D02*
X14853396Y-14608484D01*
X14853396Y-14608484D02*
X14872444Y-14618008D01*
X14872444Y-14618008D02*
X14881967Y-14627531D01*
X14881967Y-14627531D02*
X14891491Y-14646579D01*
X14891491Y-14646579D02*
X14901015Y-14684674D01*
X14901015Y-14684674D02*
X14901015Y-14732293D01*
X14901015Y-14732293D02*
X14891491Y-14770388D01*
X14891491Y-14770388D02*
X14881967Y-14789436D01*
X14881967Y-14789436D02*
X14872444Y-14798960D01*
X14872444Y-14798960D02*
X14853396Y-14808484D01*
X14853396Y-14808484D02*
X14834348Y-14808484D01*
X14834348Y-14808484D02*
X14815301Y-14798960D01*
X14815301Y-14798960D02*
X14805777Y-14789436D01*
X14805777Y-14789436D02*
X14796253Y-14770388D01*
X14796253Y-14770388D02*
X14786729Y-14732293D01*
X14786729Y-14732293D02*
X14786729Y-14684674D01*
X14786729Y-14684674D02*
X14796253Y-14646579D01*
X14796253Y-14646579D02*
X14805777Y-14627531D01*
X14805777Y-14627531D02*
X14815301Y-14618008D01*
X14815301Y-14618008D02*
X14834348Y-14608484D01*
X15072444Y-14675150D02*
X15072444Y-14808484D01*
X15024825Y-14598960D02*
X14977206Y-14741817D01*
X14977206Y-14741817D02*
X15101015Y-14741817D01*
X15158158Y-14608484D02*
X15281967Y-14608484D01*
X15281967Y-14608484D02*
X15215301Y-14684674D01*
X15215301Y-14684674D02*
X15243872Y-14684674D01*
X15243872Y-14684674D02*
X15262920Y-14694198D01*
X15262920Y-14694198D02*
X15272444Y-14703722D01*
X15272444Y-14703722D02*
X15281967Y-14722769D01*
X15281967Y-14722769D02*
X15281967Y-14770388D01*
X15281967Y-14770388D02*
X15272444Y-14789436D01*
X15272444Y-14789436D02*
X15262920Y-14798960D01*
X15262920Y-14798960D02*
X15243872Y-14808484D01*
X15243872Y-14808484D02*
X15186729Y-14808484D01*
X15186729Y-14808484D02*
X15167682Y-14798960D01*
X15167682Y-14798960D02*
X15158158Y-14789436D01*
X15348634Y-14608484D02*
X15472444Y-14608484D01*
X15472444Y-14608484D02*
X15405777Y-14684674D01*
X15405777Y-14684674D02*
X15434348Y-14684674D01*
X15434348Y-14684674D02*
X15453396Y-14694198D01*
X15453396Y-14694198D02*
X15462920Y-14703722D01*
X15462920Y-14703722D02*
X15472444Y-14722769D01*
X15472444Y-14722769D02*
X15472444Y-14770388D01*
X15472444Y-14770388D02*
X15462920Y-14789436D01*
X15462920Y-14789436D02*
X15453396Y-14798960D01*
X15453396Y-14798960D02*
X15434348Y-14808484D01*
X15434348Y-14808484D02*
X15377206Y-14808484D01*
X15377206Y-14808484D02*
X15358158Y-14798960D01*
X15358158Y-14798960D02*
X15348634Y-14789436D01*
X15548634Y-14608484D02*
X15548634Y-14646579D01*
X15624825Y-14608484D02*
X15624825Y-14646579D01*
X15920063Y-14884674D02*
X15910539Y-14875150D01*
X15910539Y-14875150D02*
X15891491Y-14846579D01*
X15891491Y-14846579D02*
X15881968Y-14827531D01*
X15881968Y-14827531D02*
X15872444Y-14798960D01*
X15872444Y-14798960D02*
X15862920Y-14751341D01*
X15862920Y-14751341D02*
X15862920Y-14713246D01*
X15862920Y-14713246D02*
X15872444Y-14665627D01*
X15872444Y-14665627D02*
X15881968Y-14637055D01*
X15881968Y-14637055D02*
X15891491Y-14618008D01*
X15891491Y-14618008D02*
X15910539Y-14589436D01*
X15910539Y-14589436D02*
X15920063Y-14579912D01*
X16081968Y-14608484D02*
X16043872Y-14608484D01*
X16043872Y-14608484D02*
X16024825Y-14618008D01*
X16024825Y-14618008D02*
X16015301Y-14627531D01*
X16015301Y-14627531D02*
X15996253Y-14656103D01*
X15996253Y-14656103D02*
X15986729Y-14694198D01*
X15986729Y-14694198D02*
X15986729Y-14770388D01*
X15986729Y-14770388D02*
X15996253Y-14789436D01*
X15996253Y-14789436D02*
X16005777Y-14798960D01*
X16005777Y-14798960D02*
X16024825Y-14808484D01*
X16024825Y-14808484D02*
X16062920Y-14808484D01*
X16062920Y-14808484D02*
X16081968Y-14798960D01*
X16081968Y-14798960D02*
X16091491Y-14789436D01*
X16091491Y-14789436D02*
X16101015Y-14770388D01*
X16101015Y-14770388D02*
X16101015Y-14722769D01*
X16101015Y-14722769D02*
X16091491Y-14703722D01*
X16091491Y-14703722D02*
X16081968Y-14694198D01*
X16081968Y-14694198D02*
X16062920Y-14684674D01*
X16062920Y-14684674D02*
X16024825Y-14684674D01*
X16024825Y-14684674D02*
X16005777Y-14694198D01*
X16005777Y-14694198D02*
X15996253Y-14703722D01*
X15996253Y-14703722D02*
X15986729Y-14722769D01*
X16339110Y-14808484D02*
X16339110Y-14608484D01*
X16424825Y-14808484D02*
X16424825Y-14703722D01*
X16424825Y-14703722D02*
X16415301Y-14684674D01*
X16415301Y-14684674D02*
X16396253Y-14675150D01*
X16396253Y-14675150D02*
X16367682Y-14675150D01*
X16367682Y-14675150D02*
X16348634Y-14684674D01*
X16348634Y-14684674D02*
X16339110Y-14694198D01*
X16548634Y-14808484D02*
X16529587Y-14798960D01*
X16529587Y-14798960D02*
X16520063Y-14789436D01*
X16520063Y-14789436D02*
X16510539Y-14770388D01*
X16510539Y-14770388D02*
X16510539Y-14713246D01*
X16510539Y-14713246D02*
X16520063Y-14694198D01*
X16520063Y-14694198D02*
X16529587Y-14684674D01*
X16529587Y-14684674D02*
X16548634Y-14675150D01*
X16548634Y-14675150D02*
X16577206Y-14675150D01*
X16577206Y-14675150D02*
X16596253Y-14684674D01*
X16596253Y-14684674D02*
X16605777Y-14694198D01*
X16605777Y-14694198D02*
X16615301Y-14713246D01*
X16615301Y-14713246D02*
X16615301Y-14770388D01*
X16615301Y-14770388D02*
X16605777Y-14789436D01*
X16605777Y-14789436D02*
X16596253Y-14798960D01*
X16596253Y-14798960D02*
X16577206Y-14808484D01*
X16577206Y-14808484D02*
X16548634Y-14808484D01*
X16729587Y-14808484D02*
X16710539Y-14798960D01*
X16710539Y-14798960D02*
X16701015Y-14779912D01*
X16701015Y-14779912D02*
X16701015Y-14608484D01*
X16881968Y-14798960D02*
X16862920Y-14808484D01*
X16862920Y-14808484D02*
X16824825Y-14808484D01*
X16824825Y-14808484D02*
X16805777Y-14798960D01*
X16805777Y-14798960D02*
X16796253Y-14779912D01*
X16796253Y-14779912D02*
X16796253Y-14703722D01*
X16796253Y-14703722D02*
X16805777Y-14684674D01*
X16805777Y-14684674D02*
X16824825Y-14675150D01*
X16824825Y-14675150D02*
X16862920Y-14675150D01*
X16862920Y-14675150D02*
X16881968Y-14684674D01*
X16881968Y-14684674D02*
X16891492Y-14703722D01*
X16891492Y-14703722D02*
X16891492Y-14722769D01*
X16891492Y-14722769D02*
X16796253Y-14741817D01*
X16967682Y-14798960D02*
X16986730Y-14808484D01*
X16986730Y-14808484D02*
X17024825Y-14808484D01*
X17024825Y-14808484D02*
X17043873Y-14798960D01*
X17043873Y-14798960D02*
X17053396Y-14779912D01*
X17053396Y-14779912D02*
X17053396Y-14770388D01*
X17053396Y-14770388D02*
X17043873Y-14751341D01*
X17043873Y-14751341D02*
X17024825Y-14741817D01*
X17024825Y-14741817D02*
X16996253Y-14741817D01*
X16996253Y-14741817D02*
X16977206Y-14732293D01*
X16977206Y-14732293D02*
X16967682Y-14713246D01*
X16967682Y-14713246D02*
X16967682Y-14703722D01*
X16967682Y-14703722D02*
X16977206Y-14684674D01*
X16977206Y-14684674D02*
X16996253Y-14675150D01*
X16996253Y-14675150D02*
X17024825Y-14675150D01*
X17024825Y-14675150D02*
X17043873Y-14684674D01*
X17120063Y-14884674D02*
X17129587Y-14875150D01*
X17129587Y-14875150D02*
X17148634Y-14846579D01*
X17148634Y-14846579D02*
X17158158Y-14827531D01*
X17158158Y-14827531D02*
X17167682Y-14798960D01*
X17167682Y-14798960D02*
X17177206Y-14751341D01*
X17177206Y-14751341D02*
X17177206Y-14713246D01*
X17177206Y-14713246D02*
X17167682Y-14665627D01*
X17167682Y-14665627D02*
X17158158Y-14637055D01*
X17158158Y-14637055D02*
X17148634Y-14618008D01*
X17148634Y-14618008D02*
X17129587Y-14589436D01*
X17129587Y-14589436D02*
X17120063Y-14579912D01*
X17481968Y-14884674D02*
X17472444Y-14875150D01*
X17472444Y-14875150D02*
X17453396Y-14846579D01*
X17453396Y-14846579D02*
X17443873Y-14827531D01*
X17443873Y-14827531D02*
X17434349Y-14798960D01*
X17434349Y-14798960D02*
X17424825Y-14751341D01*
X17424825Y-14751341D02*
X17424825Y-14713246D01*
X17424825Y-14713246D02*
X17434349Y-14665627D01*
X17434349Y-14665627D02*
X17443873Y-14637055D01*
X17443873Y-14637055D02*
X17453396Y-14618008D01*
X17453396Y-14618008D02*
X17472444Y-14589436D01*
X17472444Y-14589436D02*
X17481968Y-14579912D01*
X17558158Y-14675150D02*
X17558158Y-14808484D01*
X17558158Y-14694198D02*
X17567682Y-14684674D01*
X17567682Y-14684674D02*
X17586730Y-14675150D01*
X17586730Y-14675150D02*
X17615301Y-14675150D01*
X17615301Y-14675150D02*
X17634349Y-14684674D01*
X17634349Y-14684674D02*
X17643873Y-14703722D01*
X17643873Y-14703722D02*
X17643873Y-14808484D01*
X17767682Y-14808484D02*
X17748634Y-14798960D01*
X17748634Y-14798960D02*
X17739111Y-14789436D01*
X17739111Y-14789436D02*
X17729587Y-14770388D01*
X17729587Y-14770388D02*
X17729587Y-14713246D01*
X17729587Y-14713246D02*
X17739111Y-14694198D01*
X17739111Y-14694198D02*
X17748634Y-14684674D01*
X17748634Y-14684674D02*
X17767682Y-14675150D01*
X17767682Y-14675150D02*
X17796254Y-14675150D01*
X17796254Y-14675150D02*
X17815301Y-14684674D01*
X17815301Y-14684674D02*
X17824825Y-14694198D01*
X17824825Y-14694198D02*
X17834349Y-14713246D01*
X17834349Y-14713246D02*
X17834349Y-14770388D01*
X17834349Y-14770388D02*
X17824825Y-14789436D01*
X17824825Y-14789436D02*
X17815301Y-14798960D01*
X17815301Y-14798960D02*
X17796254Y-14808484D01*
X17796254Y-14808484D02*
X17767682Y-14808484D01*
X17891492Y-14675150D02*
X17967682Y-14675150D01*
X17920063Y-14608484D02*
X17920063Y-14779912D01*
X17920063Y-14779912D02*
X17929587Y-14798960D01*
X17929587Y-14798960D02*
X17948634Y-14808484D01*
X17948634Y-14808484D02*
X17967682Y-14808484D01*
X18186730Y-14675150D02*
X18186730Y-14875150D01*
X18186730Y-14684674D02*
X18205777Y-14675150D01*
X18205777Y-14675150D02*
X18243873Y-14675150D01*
X18243873Y-14675150D02*
X18262920Y-14684674D01*
X18262920Y-14684674D02*
X18272444Y-14694198D01*
X18272444Y-14694198D02*
X18281968Y-14713246D01*
X18281968Y-14713246D02*
X18281968Y-14770388D01*
X18281968Y-14770388D02*
X18272444Y-14789436D01*
X18272444Y-14789436D02*
X18262920Y-14798960D01*
X18262920Y-14798960D02*
X18243873Y-14808484D01*
X18243873Y-14808484D02*
X18205777Y-14808484D01*
X18205777Y-14808484D02*
X18186730Y-14798960D01*
X18396254Y-14808484D02*
X18377206Y-14798960D01*
X18377206Y-14798960D02*
X18367682Y-14779912D01*
X18367682Y-14779912D02*
X18367682Y-14608484D01*
X18558158Y-14808484D02*
X18558158Y-14703722D01*
X18558158Y-14703722D02*
X18548635Y-14684674D01*
X18548635Y-14684674D02*
X18529587Y-14675150D01*
X18529587Y-14675150D02*
X18491492Y-14675150D01*
X18491492Y-14675150D02*
X18472444Y-14684674D01*
X18558158Y-14798960D02*
X18539111Y-14808484D01*
X18539111Y-14808484D02*
X18491492Y-14808484D01*
X18491492Y-14808484D02*
X18472444Y-14798960D01*
X18472444Y-14798960D02*
X18462920Y-14779912D01*
X18462920Y-14779912D02*
X18462920Y-14760865D01*
X18462920Y-14760865D02*
X18472444Y-14741817D01*
X18472444Y-14741817D02*
X18491492Y-14732293D01*
X18491492Y-14732293D02*
X18539111Y-14732293D01*
X18539111Y-14732293D02*
X18558158Y-14722769D01*
X18624825Y-14675150D02*
X18701015Y-14675150D01*
X18653396Y-14608484D02*
X18653396Y-14779912D01*
X18653396Y-14779912D02*
X18662920Y-14798960D01*
X18662920Y-14798960D02*
X18681968Y-14808484D01*
X18681968Y-14808484D02*
X18701015Y-14808484D01*
X18843873Y-14798960D02*
X18824825Y-14808484D01*
X18824825Y-14808484D02*
X18786730Y-14808484D01*
X18786730Y-14808484D02*
X18767682Y-14798960D01*
X18767682Y-14798960D02*
X18758158Y-14779912D01*
X18758158Y-14779912D02*
X18758158Y-14703722D01*
X18758158Y-14703722D02*
X18767682Y-14684674D01*
X18767682Y-14684674D02*
X18786730Y-14675150D01*
X18786730Y-14675150D02*
X18824825Y-14675150D01*
X18824825Y-14675150D02*
X18843873Y-14684674D01*
X18843873Y-14684674D02*
X18853396Y-14703722D01*
X18853396Y-14703722D02*
X18853396Y-14722769D01*
X18853396Y-14722769D02*
X18758158Y-14741817D01*
X19024825Y-14808484D02*
X19024825Y-14608484D01*
X19024825Y-14798960D02*
X19005777Y-14808484D01*
X19005777Y-14808484D02*
X18967682Y-14808484D01*
X18967682Y-14808484D02*
X18948635Y-14798960D01*
X18948635Y-14798960D02*
X18939111Y-14789436D01*
X18939111Y-14789436D02*
X18929587Y-14770388D01*
X18929587Y-14770388D02*
X18929587Y-14713246D01*
X18929587Y-14713246D02*
X18939111Y-14694198D01*
X18939111Y-14694198D02*
X18948635Y-14684674D01*
X18948635Y-14684674D02*
X18967682Y-14675150D01*
X18967682Y-14675150D02*
X19005777Y-14675150D01*
X19005777Y-14675150D02*
X19024825Y-14684674D01*
X19101016Y-14884674D02*
X19110539Y-14875150D01*
X19110539Y-14875150D02*
X19129587Y-14846579D01*
X19129587Y-14846579D02*
X19139111Y-14827531D01*
X19139111Y-14827531D02*
X19148635Y-14798960D01*
X19148635Y-14798960D02*
X19158158Y-14751341D01*
X19158158Y-14751341D02*
X19158158Y-14713246D01*
X19158158Y-14713246D02*
X19148635Y-14665627D01*
X19148635Y-14665627D02*
X19139111Y-14637055D01*
X19139111Y-14637055D02*
X19129587Y-14618008D01*
X19129587Y-14618008D02*
X19110539Y-14589436D01*
X19110539Y-14589436D02*
X19101016Y-14579912D01*
X12145000Y-14881000D02*
X12345000Y-15081000D01*
X12345000Y-14881000D02*
X12145000Y-15081000D01*
X12345000Y-14981000D02*
G75*
G02*
X12145000Y-14981000I-100000J0D01*
G01*
X12145000Y-14981000D02*
G75*
G02*
X12345000Y-14981000I100000J0D01*
G01*
X12586729Y-14872484D02*
X12710539Y-14872484D01*
X12710539Y-14872484D02*
X12643872Y-14948674D01*
X12643872Y-14948674D02*
X12672443Y-14948674D01*
X12672443Y-14948674D02*
X12691491Y-14958198D01*
X12691491Y-14958198D02*
X12701015Y-14967722D01*
X12701015Y-14967722D02*
X12710539Y-14986769D01*
X12710539Y-14986769D02*
X12710539Y-15034388D01*
X12710539Y-15034388D02*
X12701015Y-15053436D01*
X12701015Y-15053436D02*
X12691491Y-15062960D01*
X12691491Y-15062960D02*
X12672443Y-15072484D01*
X12672443Y-15072484D02*
X12615301Y-15072484D01*
X12615301Y-15072484D02*
X12596253Y-15062960D01*
X12596253Y-15062960D02*
X12586729Y-15053436D01*
X12805777Y-15062960D02*
X12805777Y-15072484D01*
X12805777Y-15072484D02*
X12796253Y-15091531D01*
X12796253Y-15091531D02*
X12786729Y-15101055D01*
X12881967Y-14891531D02*
X12891491Y-14882008D01*
X12891491Y-14882008D02*
X12910539Y-14872484D01*
X12910539Y-14872484D02*
X12958158Y-14872484D01*
X12958158Y-14872484D02*
X12977205Y-14882008D01*
X12977205Y-14882008D02*
X12986729Y-14891531D01*
X12986729Y-14891531D02*
X12996253Y-14910579D01*
X12996253Y-14910579D02*
X12996253Y-14929627D01*
X12996253Y-14929627D02*
X12986729Y-14958198D01*
X12986729Y-14958198D02*
X12872443Y-15072484D01*
X12872443Y-15072484D02*
X12996253Y-15072484D01*
X13120062Y-14872484D02*
X13139110Y-14872484D01*
X13139110Y-14872484D02*
X13158158Y-14882008D01*
X13158158Y-14882008D02*
X13167682Y-14891531D01*
X13167682Y-14891531D02*
X13177205Y-14910579D01*
X13177205Y-14910579D02*
X13186729Y-14948674D01*
X13186729Y-14948674D02*
X13186729Y-14996293D01*
X13186729Y-14996293D02*
X13177205Y-15034388D01*
X13177205Y-15034388D02*
X13167682Y-15053436D01*
X13167682Y-15053436D02*
X13158158Y-15062960D01*
X13158158Y-15062960D02*
X13139110Y-15072484D01*
X13139110Y-15072484D02*
X13120062Y-15072484D01*
X13120062Y-15072484D02*
X13101015Y-15062960D01*
X13101015Y-15062960D02*
X13091491Y-15053436D01*
X13091491Y-15053436D02*
X13081967Y-15034388D01*
X13081967Y-15034388D02*
X13072443Y-14996293D01*
X13072443Y-14996293D02*
X13072443Y-14948674D01*
X13072443Y-14948674D02*
X13081967Y-14910579D01*
X13081967Y-14910579D02*
X13091491Y-14891531D01*
X13091491Y-14891531D02*
X13101015Y-14882008D01*
X13101015Y-14882008D02*
X13120062Y-14872484D01*
X13310539Y-14872484D02*
X13329586Y-14872484D01*
X13329586Y-14872484D02*
X13348634Y-14882008D01*
X13348634Y-14882008D02*
X13358158Y-14891531D01*
X13358158Y-14891531D02*
X13367682Y-14910579D01*
X13367682Y-14910579D02*
X13377205Y-14948674D01*
X13377205Y-14948674D02*
X13377205Y-14996293D01*
X13377205Y-14996293D02*
X13367682Y-15034388D01*
X13367682Y-15034388D02*
X13358158Y-15053436D01*
X13358158Y-15053436D02*
X13348634Y-15062960D01*
X13348634Y-15062960D02*
X13329586Y-15072484D01*
X13329586Y-15072484D02*
X13310539Y-15072484D01*
X13310539Y-15072484D02*
X13291491Y-15062960D01*
X13291491Y-15062960D02*
X13281967Y-15053436D01*
X13281967Y-15053436D02*
X13272443Y-15034388D01*
X13272443Y-15034388D02*
X13262920Y-14996293D01*
X13262920Y-14996293D02*
X13262920Y-14948674D01*
X13262920Y-14948674D02*
X13272443Y-14910579D01*
X13272443Y-14910579D02*
X13281967Y-14891531D01*
X13281967Y-14891531D02*
X13291491Y-14882008D01*
X13291491Y-14882008D02*
X13310539Y-14872484D01*
X13462920Y-15072484D02*
X13462920Y-14939150D01*
X13462920Y-14958198D02*
X13472443Y-14948674D01*
X13472443Y-14948674D02*
X13491491Y-14939150D01*
X13491491Y-14939150D02*
X13520063Y-14939150D01*
X13520063Y-14939150D02*
X13539110Y-14948674D01*
X13539110Y-14948674D02*
X13548634Y-14967722D01*
X13548634Y-14967722D02*
X13548634Y-15072484D01*
X13548634Y-14967722D02*
X13558158Y-14948674D01*
X13558158Y-14948674D02*
X13577205Y-14939150D01*
X13577205Y-14939150D02*
X13605777Y-14939150D01*
X13605777Y-14939150D02*
X13624824Y-14948674D01*
X13624824Y-14948674D02*
X13634348Y-14967722D01*
X13634348Y-14967722D02*
X13634348Y-15072484D01*
X13729586Y-15072484D02*
X13729586Y-14939150D01*
X13729586Y-14958198D02*
X13739110Y-14948674D01*
X13739110Y-14948674D02*
X13758158Y-14939150D01*
X13758158Y-14939150D02*
X13786729Y-14939150D01*
X13786729Y-14939150D02*
X13805777Y-14948674D01*
X13805777Y-14948674D02*
X13815301Y-14967722D01*
X13815301Y-14967722D02*
X13815301Y-15072484D01*
X13815301Y-14967722D02*
X13824824Y-14948674D01*
X13824824Y-14948674D02*
X13843872Y-14939150D01*
X13843872Y-14939150D02*
X13872443Y-14939150D01*
X13872443Y-14939150D02*
X13891491Y-14948674D01*
X13891491Y-14948674D02*
X13901015Y-14967722D01*
X13901015Y-14967722D02*
X13901015Y-15072484D01*
X14291491Y-14862960D02*
X14120063Y-15120103D01*
X14548634Y-14872484D02*
X14567682Y-14872484D01*
X14567682Y-14872484D02*
X14586729Y-14882008D01*
X14586729Y-14882008D02*
X14596253Y-14891531D01*
X14596253Y-14891531D02*
X14605777Y-14910579D01*
X14605777Y-14910579D02*
X14615301Y-14948674D01*
X14615301Y-14948674D02*
X14615301Y-14996293D01*
X14615301Y-14996293D02*
X14605777Y-15034388D01*
X14605777Y-15034388D02*
X14596253Y-15053436D01*
X14596253Y-15053436D02*
X14586729Y-15062960D01*
X14586729Y-15062960D02*
X14567682Y-15072484D01*
X14567682Y-15072484D02*
X14548634Y-15072484D01*
X14548634Y-15072484D02*
X14529586Y-15062960D01*
X14529586Y-15062960D02*
X14520063Y-15053436D01*
X14520063Y-15053436D02*
X14510539Y-15034388D01*
X14510539Y-15034388D02*
X14501015Y-14996293D01*
X14501015Y-14996293D02*
X14501015Y-14948674D01*
X14501015Y-14948674D02*
X14510539Y-14910579D01*
X14510539Y-14910579D02*
X14520063Y-14891531D01*
X14520063Y-14891531D02*
X14529586Y-14882008D01*
X14529586Y-14882008D02*
X14548634Y-14872484D01*
X14710539Y-15062960D02*
X14710539Y-15072484D01*
X14710539Y-15072484D02*
X14701015Y-15091531D01*
X14701015Y-15091531D02*
X14691491Y-15101055D01*
X14901015Y-15072484D02*
X14786729Y-15072484D01*
X14843872Y-15072484D02*
X14843872Y-14872484D01*
X14843872Y-14872484D02*
X14824825Y-14901055D01*
X14824825Y-14901055D02*
X14805777Y-14920103D01*
X14805777Y-14920103D02*
X14786729Y-14929627D01*
X14977206Y-14891531D02*
X14986729Y-14882008D01*
X14986729Y-14882008D02*
X15005777Y-14872484D01*
X15005777Y-14872484D02*
X15053396Y-14872484D01*
X15053396Y-14872484D02*
X15072444Y-14882008D01*
X15072444Y-14882008D02*
X15081967Y-14891531D01*
X15081967Y-14891531D02*
X15091491Y-14910579D01*
X15091491Y-14910579D02*
X15091491Y-14929627D01*
X15091491Y-14929627D02*
X15081967Y-14958198D01*
X15081967Y-14958198D02*
X14967682Y-15072484D01*
X14967682Y-15072484D02*
X15091491Y-15072484D01*
X15262920Y-14872484D02*
X15224825Y-14872484D01*
X15224825Y-14872484D02*
X15205777Y-14882008D01*
X15205777Y-14882008D02*
X15196253Y-14891531D01*
X15196253Y-14891531D02*
X15177206Y-14920103D01*
X15177206Y-14920103D02*
X15167682Y-14958198D01*
X15167682Y-14958198D02*
X15167682Y-15034388D01*
X15167682Y-15034388D02*
X15177206Y-15053436D01*
X15177206Y-15053436D02*
X15186729Y-15062960D01*
X15186729Y-15062960D02*
X15205777Y-15072484D01*
X15205777Y-15072484D02*
X15243872Y-15072484D01*
X15243872Y-15072484D02*
X15262920Y-15062960D01*
X15262920Y-15062960D02*
X15272444Y-15053436D01*
X15272444Y-15053436D02*
X15281967Y-15034388D01*
X15281967Y-15034388D02*
X15281967Y-14986769D01*
X15281967Y-14986769D02*
X15272444Y-14967722D01*
X15272444Y-14967722D02*
X15262920Y-14958198D01*
X15262920Y-14958198D02*
X15243872Y-14948674D01*
X15243872Y-14948674D02*
X15205777Y-14948674D01*
X15205777Y-14948674D02*
X15186729Y-14958198D01*
X15186729Y-14958198D02*
X15177206Y-14967722D01*
X15177206Y-14967722D02*
X15167682Y-14986769D01*
X15405777Y-14872484D02*
X15424825Y-14872484D01*
X15424825Y-14872484D02*
X15443872Y-14882008D01*
X15443872Y-14882008D02*
X15453396Y-14891531D01*
X15453396Y-14891531D02*
X15462920Y-14910579D01*
X15462920Y-14910579D02*
X15472444Y-14948674D01*
X15472444Y-14948674D02*
X15472444Y-14996293D01*
X15472444Y-14996293D02*
X15462920Y-15034388D01*
X15462920Y-15034388D02*
X15453396Y-15053436D01*
X15453396Y-15053436D02*
X15443872Y-15062960D01*
X15443872Y-15062960D02*
X15424825Y-15072484D01*
X15424825Y-15072484D02*
X15405777Y-15072484D01*
X15405777Y-15072484D02*
X15386729Y-15062960D01*
X15386729Y-15062960D02*
X15377206Y-15053436D01*
X15377206Y-15053436D02*
X15367682Y-15034388D01*
X15367682Y-15034388D02*
X15358158Y-14996293D01*
X15358158Y-14996293D02*
X15358158Y-14948674D01*
X15358158Y-14948674D02*
X15367682Y-14910579D01*
X15367682Y-14910579D02*
X15377206Y-14891531D01*
X15377206Y-14891531D02*
X15386729Y-14882008D01*
X15386729Y-14882008D02*
X15405777Y-14872484D01*
X15548634Y-14872484D02*
X15548634Y-14910579D01*
X15624825Y-14872484D02*
X15624825Y-14910579D01*
X15920063Y-15148674D02*
X15910539Y-15139150D01*
X15910539Y-15139150D02*
X15891491Y-15110579D01*
X15891491Y-15110579D02*
X15881968Y-15091531D01*
X15881968Y-15091531D02*
X15872444Y-15062960D01*
X15872444Y-15062960D02*
X15862920Y-15015341D01*
X15862920Y-15015341D02*
X15862920Y-14977246D01*
X15862920Y-14977246D02*
X15872444Y-14929627D01*
X15872444Y-14929627D02*
X15881968Y-14901055D01*
X15881968Y-14901055D02*
X15891491Y-14882008D01*
X15891491Y-14882008D02*
X15910539Y-14853436D01*
X15910539Y-14853436D02*
X15920063Y-14843912D01*
X16081968Y-14939150D02*
X16081968Y-15072484D01*
X16034348Y-14862960D02*
X15986729Y-15005817D01*
X15986729Y-15005817D02*
X16110539Y-15005817D01*
X16339110Y-15072484D02*
X16339110Y-14872484D01*
X16424825Y-15072484D02*
X16424825Y-14967722D01*
X16424825Y-14967722D02*
X16415301Y-14948674D01*
X16415301Y-14948674D02*
X16396253Y-14939150D01*
X16396253Y-14939150D02*
X16367682Y-14939150D01*
X16367682Y-14939150D02*
X16348634Y-14948674D01*
X16348634Y-14948674D02*
X16339110Y-14958198D01*
X16548634Y-15072484D02*
X16529587Y-15062960D01*
X16529587Y-15062960D02*
X16520063Y-15053436D01*
X16520063Y-15053436D02*
X16510539Y-15034388D01*
X16510539Y-15034388D02*
X16510539Y-14977246D01*
X16510539Y-14977246D02*
X16520063Y-14958198D01*
X16520063Y-14958198D02*
X16529587Y-14948674D01*
X16529587Y-14948674D02*
X16548634Y-14939150D01*
X16548634Y-14939150D02*
X16577206Y-14939150D01*
X16577206Y-14939150D02*
X16596253Y-14948674D01*
X16596253Y-14948674D02*
X16605777Y-14958198D01*
X16605777Y-14958198D02*
X16615301Y-14977246D01*
X16615301Y-14977246D02*
X16615301Y-15034388D01*
X16615301Y-15034388D02*
X16605777Y-15053436D01*
X16605777Y-15053436D02*
X16596253Y-15062960D01*
X16596253Y-15062960D02*
X16577206Y-15072484D01*
X16577206Y-15072484D02*
X16548634Y-15072484D01*
X16729587Y-15072484D02*
X16710539Y-15062960D01*
X16710539Y-15062960D02*
X16701015Y-15043912D01*
X16701015Y-15043912D02*
X16701015Y-14872484D01*
X16881968Y-15062960D02*
X16862920Y-15072484D01*
X16862920Y-15072484D02*
X16824825Y-15072484D01*
X16824825Y-15072484D02*
X16805777Y-15062960D01*
X16805777Y-15062960D02*
X16796253Y-15043912D01*
X16796253Y-15043912D02*
X16796253Y-14967722D01*
X16796253Y-14967722D02*
X16805777Y-14948674D01*
X16805777Y-14948674D02*
X16824825Y-14939150D01*
X16824825Y-14939150D02*
X16862920Y-14939150D01*
X16862920Y-14939150D02*
X16881968Y-14948674D01*
X16881968Y-14948674D02*
X16891492Y-14967722D01*
X16891492Y-14967722D02*
X16891492Y-14986769D01*
X16891492Y-14986769D02*
X16796253Y-15005817D01*
X16967682Y-15062960D02*
X16986730Y-15072484D01*
X16986730Y-15072484D02*
X17024825Y-15072484D01*
X17024825Y-15072484D02*
X17043873Y-15062960D01*
X17043873Y-15062960D02*
X17053396Y-15043912D01*
X17053396Y-15043912D02*
X17053396Y-15034388D01*
X17053396Y-15034388D02*
X17043873Y-15015341D01*
X17043873Y-15015341D02*
X17024825Y-15005817D01*
X17024825Y-15005817D02*
X16996253Y-15005817D01*
X16996253Y-15005817D02*
X16977206Y-14996293D01*
X16977206Y-14996293D02*
X16967682Y-14977246D01*
X16967682Y-14977246D02*
X16967682Y-14967722D01*
X16967682Y-14967722D02*
X16977206Y-14948674D01*
X16977206Y-14948674D02*
X16996253Y-14939150D01*
X16996253Y-14939150D02*
X17024825Y-14939150D01*
X17024825Y-14939150D02*
X17043873Y-14948674D01*
X17120063Y-15148674D02*
X17129587Y-15139150D01*
X17129587Y-15139150D02*
X17148634Y-15110579D01*
X17148634Y-15110579D02*
X17158158Y-15091531D01*
X17158158Y-15091531D02*
X17167682Y-15062960D01*
X17167682Y-15062960D02*
X17177206Y-15015341D01*
X17177206Y-15015341D02*
X17177206Y-14977246D01*
X17177206Y-14977246D02*
X17167682Y-14929627D01*
X17167682Y-14929627D02*
X17158158Y-14901055D01*
X17158158Y-14901055D02*
X17148634Y-14882008D01*
X17148634Y-14882008D02*
X17129587Y-14853436D01*
X17129587Y-14853436D02*
X17120063Y-14843912D01*
X17481968Y-15148674D02*
X17472444Y-15139150D01*
X17472444Y-15139150D02*
X17453396Y-15110579D01*
X17453396Y-15110579D02*
X17443873Y-15091531D01*
X17443873Y-15091531D02*
X17434349Y-15062960D01*
X17434349Y-15062960D02*
X17424825Y-15015341D01*
X17424825Y-15015341D02*
X17424825Y-14977246D01*
X17424825Y-14977246D02*
X17434349Y-14929627D01*
X17434349Y-14929627D02*
X17443873Y-14901055D01*
X17443873Y-14901055D02*
X17453396Y-14882008D01*
X17453396Y-14882008D02*
X17472444Y-14853436D01*
X17472444Y-14853436D02*
X17481968Y-14843912D01*
X17558158Y-14939150D02*
X17558158Y-15072484D01*
X17558158Y-14958198D02*
X17567682Y-14948674D01*
X17567682Y-14948674D02*
X17586730Y-14939150D01*
X17586730Y-14939150D02*
X17615301Y-14939150D01*
X17615301Y-14939150D02*
X17634349Y-14948674D01*
X17634349Y-14948674D02*
X17643873Y-14967722D01*
X17643873Y-14967722D02*
X17643873Y-15072484D01*
X17767682Y-15072484D02*
X17748634Y-15062960D01*
X17748634Y-15062960D02*
X17739111Y-15053436D01*
X17739111Y-15053436D02*
X17729587Y-15034388D01*
X17729587Y-15034388D02*
X17729587Y-14977246D01*
X17729587Y-14977246D02*
X17739111Y-14958198D01*
X17739111Y-14958198D02*
X17748634Y-14948674D01*
X17748634Y-14948674D02*
X17767682Y-14939150D01*
X17767682Y-14939150D02*
X17796254Y-14939150D01*
X17796254Y-14939150D02*
X17815301Y-14948674D01*
X17815301Y-14948674D02*
X17824825Y-14958198D01*
X17824825Y-14958198D02*
X17834349Y-14977246D01*
X17834349Y-14977246D02*
X17834349Y-15034388D01*
X17834349Y-15034388D02*
X17824825Y-15053436D01*
X17824825Y-15053436D02*
X17815301Y-15062960D01*
X17815301Y-15062960D02*
X17796254Y-15072484D01*
X17796254Y-15072484D02*
X17767682Y-15072484D01*
X17891492Y-14939150D02*
X17967682Y-14939150D01*
X17920063Y-14872484D02*
X17920063Y-15043912D01*
X17920063Y-15043912D02*
X17929587Y-15062960D01*
X17929587Y-15062960D02*
X17948634Y-15072484D01*
X17948634Y-15072484D02*
X17967682Y-15072484D01*
X18186730Y-14939150D02*
X18186730Y-15139150D01*
X18186730Y-14948674D02*
X18205777Y-14939150D01*
X18205777Y-14939150D02*
X18243873Y-14939150D01*
X18243873Y-14939150D02*
X18262920Y-14948674D01*
X18262920Y-14948674D02*
X18272444Y-14958198D01*
X18272444Y-14958198D02*
X18281968Y-14977246D01*
X18281968Y-14977246D02*
X18281968Y-15034388D01*
X18281968Y-15034388D02*
X18272444Y-15053436D01*
X18272444Y-15053436D02*
X18262920Y-15062960D01*
X18262920Y-15062960D02*
X18243873Y-15072484D01*
X18243873Y-15072484D02*
X18205777Y-15072484D01*
X18205777Y-15072484D02*
X18186730Y-15062960D01*
X18396254Y-15072484D02*
X18377206Y-15062960D01*
X18377206Y-15062960D02*
X18367682Y-15043912D01*
X18367682Y-15043912D02*
X18367682Y-14872484D01*
X18558158Y-15072484D02*
X18558158Y-14967722D01*
X18558158Y-14967722D02*
X18548635Y-14948674D01*
X18548635Y-14948674D02*
X18529587Y-14939150D01*
X18529587Y-14939150D02*
X18491492Y-14939150D01*
X18491492Y-14939150D02*
X18472444Y-14948674D01*
X18558158Y-15062960D02*
X18539111Y-15072484D01*
X18539111Y-15072484D02*
X18491492Y-15072484D01*
X18491492Y-15072484D02*
X18472444Y-15062960D01*
X18472444Y-15062960D02*
X18462920Y-15043912D01*
X18462920Y-15043912D02*
X18462920Y-15024865D01*
X18462920Y-15024865D02*
X18472444Y-15005817D01*
X18472444Y-15005817D02*
X18491492Y-14996293D01*
X18491492Y-14996293D02*
X18539111Y-14996293D01*
X18539111Y-14996293D02*
X18558158Y-14986769D01*
X18624825Y-14939150D02*
X18701015Y-14939150D01*
X18653396Y-14872484D02*
X18653396Y-15043912D01*
X18653396Y-15043912D02*
X18662920Y-15062960D01*
X18662920Y-15062960D02*
X18681968Y-15072484D01*
X18681968Y-15072484D02*
X18701015Y-15072484D01*
X18843873Y-15062960D02*
X18824825Y-15072484D01*
X18824825Y-15072484D02*
X18786730Y-15072484D01*
X18786730Y-15072484D02*
X18767682Y-15062960D01*
X18767682Y-15062960D02*
X18758158Y-15043912D01*
X18758158Y-15043912D02*
X18758158Y-14967722D01*
X18758158Y-14967722D02*
X18767682Y-14948674D01*
X18767682Y-14948674D02*
X18786730Y-14939150D01*
X18786730Y-14939150D02*
X18824825Y-14939150D01*
X18824825Y-14939150D02*
X18843873Y-14948674D01*
X18843873Y-14948674D02*
X18853396Y-14967722D01*
X18853396Y-14967722D02*
X18853396Y-14986769D01*
X18853396Y-14986769D02*
X18758158Y-15005817D01*
X19024825Y-15072484D02*
X19024825Y-14872484D01*
X19024825Y-15062960D02*
X19005777Y-15072484D01*
X19005777Y-15072484D02*
X18967682Y-15072484D01*
X18967682Y-15072484D02*
X18948635Y-15062960D01*
X18948635Y-15062960D02*
X18939111Y-15053436D01*
X18939111Y-15053436D02*
X18929587Y-15034388D01*
X18929587Y-15034388D02*
X18929587Y-14977246D01*
X18929587Y-14977246D02*
X18939111Y-14958198D01*
X18939111Y-14958198D02*
X18948635Y-14948674D01*
X18948635Y-14948674D02*
X18967682Y-14939150D01*
X18967682Y-14939150D02*
X19005777Y-14939150D01*
X19005777Y-14939150D02*
X19024825Y-14948674D01*
X19101016Y-15148674D02*
X19110539Y-15139150D01*
X19110539Y-15139150D02*
X19129587Y-15110579D01*
X19129587Y-15110579D02*
X19139111Y-15091531D01*
X19139111Y-15091531D02*
X19148635Y-15062960D01*
X19148635Y-15062960D02*
X19158158Y-15015341D01*
X19158158Y-15015341D02*
X19158158Y-14977246D01*
X19158158Y-14977246D02*
X19148635Y-14929627D01*
X19148635Y-14929627D02*
X19139111Y-14901055D01*
X19139111Y-14901055D02*
X19129587Y-14882008D01*
X19129587Y-14882008D02*
X19110539Y-14853436D01*
X19110539Y-14853436D02*
X19101016Y-14843912D01*
M02*
