M48
; DRILL file KiCad 10.0.4 date 2026-07-05T21:39:36
; FORMAT={-:-/ absolute / metric / decimal}
; #@! TF.CreationDate,2026-07-05T21:39:36+02:00
; #@! TF.GenerationSoftware,Kicad,Pcbnew,10.0.4
; #@! TF.FileFunction,Plated,1,2,PTH
FMAT,2
METRIC
; #@! TA.AperFunction,Plated,PTH,ViaDrill
T1C0.300
; #@! TA.AperFunction,Plated,PTH,ComponentDrill
T2C0.800
; #@! TA.AperFunction,Plated,PTH,ComponentDrill
T3C1.000
%
G90
G05
T1
X149.0Y-112.0
X152.419Y-105.172
X153.237Y-104.946
X155.764Y-107.218
X156.0Y-110.5
X157.218Y-103.968
X158.517Y-103.262
X160.483Y-102.012
X162.773Y-104.257
X168.018Y-105.606
X173.825Y-105.265
X174.481Y-96.865
X177.249Y-88.34
X177.894Y-98.77
X180.083Y-107.917
X188.716Y-105.269
X190.305Y-104.647
X191.087Y-110.412
X202.0Y-81.5
X204.622Y-76.473
X205.0Y-86.0
T2
X153.11Y-86.685
X153.11Y-94.305
X155.65Y-86.685
X155.65Y-94.305
X158.19Y-86.685
X158.19Y-94.305
X160.73Y-86.685
X160.73Y-94.305
X163.27Y-86.685
X163.27Y-94.305
X165.81Y-86.685
X165.81Y-94.305
X168.35Y-86.685
X168.35Y-94.305
X170.89Y-86.685
X170.89Y-94.305
T3
X145.5Y-92.57
X145.5Y-95.11
X145.5Y-97.65
X145.5Y-100.19
X145.5Y-102.73
X145.5Y-105.27
X145.5Y-107.81
X145.5Y-110.35
X145.5Y-112.89
X145.5Y-115.43
X146.0Y-72.225
X146.0Y-74.765
X207.92Y-67.5
X210.46Y-67.5
X213.0Y-67.5
X213.5Y-109.225
X213.5Y-111.765
X214.0Y-78.225
X214.0Y-80.765
X215.54Y-67.5
M30
