%TF.GenerationSoftware,KiCad,Pcbnew,10.0.4*%
%TF.CreationDate,2026-08-03T08:03:13+02:00*%
%TF.ProjectId,vogelstimmen_v2.5,766f6765-6c73-4746-996d-6d656e5f7632,rev?*%
%TF.SameCoordinates,Original*%
%TF.FileFunction,Copper,L2,Bot*%
%TF.FilePolarity,Positive*%
%FSLAX46Y46*%
G04 Gerber Fmt 4.6, Leading zero omitted, Abs format (unit mm)*
G04 Created by KiCad (PCBNEW 10.0.4) date 2026-08-03 08:03:13*
%MOMM*%
%LPD*%
G01*
G04 APERTURE LIST*
G04 Aperture macros list*
%AMRoundRect*
0 Rectangle with rounded corners*
0 $1 Rounding radius*
0 $2 $3 $4 $5 $6 $7 $8 $9 X,Y pos of 4 corners*
0 Add a 4 corners polygon primitive as box body*
4,1,4,$2,$3,$4,$5,$6,$7,$8,$9,$2,$3,0*
0 Add four circle primitives for the rounded corners*
1,1,$1+$1,$2,$3*
1,1,$1+$1,$4,$5*
1,1,$1+$1,$6,$7*
1,1,$1+$1,$8,$9*
0 Add four rect primitives between the rounded corners*
20,1,$1+$1,$2,$3,$4,$5,0*
20,1,$1+$1,$4,$5,$6,$7,0*
20,1,$1+$1,$6,$7,$8,$9,0*
20,1,$1+$1,$8,$9,$2,$3,0*%
G04 Aperture macros list end*
%TA.AperFunction,ComponentPad*%
%ADD10RoundRect,0.249999X-0.850001X-0.850001X0.850001X-0.850001X0.850001X0.850001X-0.850001X0.850001X0*%
%TD*%
%TA.AperFunction,ComponentPad*%
%ADD11C,2.200000*%
%TD*%
%TA.AperFunction,ComponentPad*%
%ADD12RoundRect,0.249999X0.850001X0.850001X-0.850001X0.850001X-0.850001X-0.850001X0.850001X-0.850001X0*%
%TD*%
%TA.AperFunction,ComponentPad*%
%ADD13C,1.700000*%
%TD*%
%TA.AperFunction,ComponentPad*%
%ADD14R,2.200000X2.200000*%
%TD*%
%TA.AperFunction,ComponentPad*%
%ADD15O,2.200000X2.200000*%
%TD*%
%TA.AperFunction,ViaPad*%
%ADD16C,0.600000*%
%TD*%
%TA.AperFunction,Conductor*%
%ADD17C,0.600000*%
%TD*%
%TA.AperFunction,Conductor*%
%ADD18C,0.300000*%
%TD*%
%TA.AperFunction,Conductor*%
%ADD19C,0.200000*%
%TD*%
%TA.AperFunction,Conductor*%
%ADD20C,0.800000*%
%TD*%
%ADD21C,0.300000*%
%ADD22C,0.350000*%
G04 APERTURE END LIST*
D10*
%TO.P,J2,1*%
%TO.N,/SPK+*%
X134580000Y-123692500D03*
D11*
%TO.P,J2,2*%
%TO.N,/SPK-*%
X137120000Y-123692500D03*
%TD*%
D10*
%TO.P,J1,1*%
%TO.N,/BAT+*%
X162000000Y-124000000D03*
D11*
%TO.P,J1,2*%
%TO.N,/GND*%
X164540000Y-124000000D03*
%TD*%
D10*
%TO.P,J6,1*%
%TO.N,/12V_LED*%
X184730000Y-124192500D03*
D11*
%TO.P,J6,2*%
%TO.N,/GND*%
X187270000Y-124192500D03*
%TD*%
D12*
%TO.P,J3,1*%
%TO.N,/IO7*%
X149390000Y-85132500D03*
D11*
%TO.P,J3,2*%
%TO.N,/IO6*%
X146850000Y-85132500D03*
%TO.P,J3,3*%
%TO.N,/IO5*%
X144310000Y-85132500D03*
%TO.P,J3,4*%
%TO.N,/IO4*%
X141770000Y-85132500D03*
%TO.P,J3,5*%
%TO.N,/IO3*%
X139230000Y-85132500D03*
%TO.P,J3,6*%
%TO.N,/IO2*%
X136690000Y-85132500D03*
%TO.P,J3,7*%
%TO.N,/IO1*%
X134150000Y-85132500D03*
%TO.P,J3,8*%
%TO.N,/IO0*%
X131610000Y-85132500D03*
%TD*%
D13*
%TO.P,U2,1,IO0_1*%
%TO.N,/IO0_M*%
X130840000Y-95840000D03*
%TO.P,U2,2,IO1_2*%
%TO.N,/IO1_M*%
X133380000Y-95840000D03*
%TO.P,U2,3,IO2_3*%
%TO.N,/IO2_M*%
X135920000Y-95840000D03*
%TO.P,U2,4,IO3_4*%
%TO.N,/IO3_M*%
X138460000Y-95840000D03*
%TO.P,U2,5,IO4_5*%
%TO.N,/IO4_M*%
X141000000Y-95840000D03*
%TO.P,U2,6,IO5_6*%
%TO.N,/IO5_M*%
X143540000Y-95840000D03*
%TO.P,U2,7,IO6_7*%
%TO.N,/IO6_M*%
X146080000Y-95840000D03*
%TO.P,U2,8,IO7_8*%
%TO.N,/IO7_M*%
X148620000Y-95840000D03*
%TO.P,U2,9,GND_9*%
%TO.N,/GND*%
X151160000Y-95840000D03*
%TO.P,U2,10,CON1_10*%
X151160000Y-116160000D03*
%TO.P,U2,11,CON2_11*%
%TO.N,/V33*%
X148620000Y-116160000D03*
%TO.P,U2,12,BUSY_12*%
%TO.N,/BUSY*%
X146080000Y-116160000D03*
%TO.P,U2,13,V5_13*%
%TO.N,/5V*%
X143540000Y-116160000D03*
%TO.P,U2,14,V33_14*%
%TO.N,/V33*%
X141000000Y-116160000D03*
%TO.P,U2,15,DACR_15*%
%TO.N,unconnected-(U2-DACR-Pad15)*%
X138460000Y-116160000D03*
%TO.P,U2,16,DACL_16*%
%TO.N,unconnected-(U2-DACL-Pad16)*%
X135920000Y-116160000D03*
%TO.P,U2,17,SPK-_17*%
%TO.N,/SPK-*%
X133380000Y-116160000D03*
%TO.P,U2,18,SPK+_18*%
%TO.N,/SPK+*%
X130840000Y-116160000D03*
%TD*%
D10*
%TO.P,J4,1*%
%TO.N,/GND*%
X158610000Y-74867500D03*
D11*
%TO.P,J4,2*%
X161150000Y-74867500D03*
%TO.P,J4,3*%
X163690000Y-74867500D03*
%TO.P,J4,4*%
X166230000Y-74867500D03*
%TO.P,J4,5*%
X168770000Y-74867500D03*
%TO.P,J4,6*%
X171310000Y-74867500D03*
%TO.P,J4,7*%
X173850000Y-74867500D03*
%TO.P,J4,8*%
X176390000Y-74867500D03*
%TD*%
D14*
%TO.P,J5,1*%
%TO.N,/5V*%
X189860000Y-108980000D03*
D15*
%TO.P,J5,2*%
%TO.N,/GND*%
X205100000Y-108980000D03*
D11*
%TO.P,J5,3*%
%TO.N,N/C*%
X198590000Y-95010000D03*
%TD*%
D16*
%TO.N,/12V_SW*%
X168500000Y-105500000D03*
X162000000Y-90475000D03*
X168000000Y-108500000D03*
X162000000Y-91225000D03*
%TO.N,/LATCH_SET*%
X172500000Y-112000000D03*
X161000000Y-107500000D03*
%TO.N,/GND*%
X171500000Y-94000000D03*
X186500000Y-109000000D03*
X127000000Y-120000000D03*
X167000000Y-122500000D03*
X187000000Y-71500000D03*
X177000000Y-122000000D03*
X164000000Y-91500000D03*
X190000000Y-126500000D03*
X207000000Y-120000000D03*
X165500000Y-80000000D03*
X167000000Y-126000000D03*
X163000000Y-101500000D03*
X143000000Y-113500000D03*
X172000000Y-120000000D03*
X126500000Y-79000000D03*
X206000000Y-78500000D03*
X161000000Y-90000000D03*
X164000000Y-90614904D03*
X148000000Y-71500000D03*
X190000000Y-122000000D03*
%TO.N,/12V_PROT*%
X159000000Y-101000000D03*
X164500000Y-107450000D03*
%TO.N,/BTN_OR*%
X153000000Y-77450000D03*
X156990000Y-99000000D03*
%TO.N,/SET_PULSE*%
X164000000Y-99500000D03*
X173000000Y-106500000D03*
%TD*%
%TO.N,/12V_SW*%
D17*
X168000000Y-108500000D02*
X168500000Y-108000000D01*
X168500000Y-108000000D02*
X168500000Y-105500000D01*
X162000000Y-90475000D02*
X162000000Y-99000000D01*
X162000000Y-99000000D02*
X168000000Y-105000000D01*
X168000000Y-105000000D02*
X168000000Y-108500000D01*
%TO.N,/LATCH_SET*%
D18*
X165500000Y-112000000D02*
X161000000Y-107500000D01*
X172500000Y-112000000D02*
X165500000Y-112000000D01*
%TO.N,/12V_PROT*%
D19*
X159000000Y-101000000D02*
X159000000Y-101950000D01*
X159000000Y-101950000D02*
X164500000Y-107450000D01*
%TO.N,/BTN_OR*%
X153000000Y-95010000D02*
X153000000Y-77450000D01*
X156990000Y-99000000D02*
X153000000Y-95010000D01*
%TO.N,/SPK-*%
D20*
X137120000Y-123692500D02*
X137120000Y-119900000D01*
X137120000Y-119900000D02*
X133380000Y-116160000D01*
%TO.N,/V33*%
D19*
X146280000Y-118500000D02*
X143340000Y-118500000D01*
X143340000Y-118500000D02*
X141000000Y-116160000D01*
X148620000Y-116160000D02*
X146280000Y-118500000D01*
%TO.N,/SET_PULSE*%
X164000000Y-99500000D02*
X166000000Y-99500000D01*
X166000000Y-99500000D02*
X173000000Y-106500000D01*
%TD*%
%TA.AperFunction,Conductor*%
%TO.N,/GND*%
G36*
X209442539Y-70020185D02*
G01*
X209488294Y-70072989D01*
X209499500Y-70124500D01*
X209499500Y-129375500D01*
X209479815Y-129442539D01*
X209427011Y-129488294D01*
X209375500Y-129499500D01*
X124124500Y-129499500D01*
X124057461Y-129479815D01*
X124011706Y-129427011D01*
X124000500Y-129375500D01*
X124000500Y-125878711D01*
X125649500Y-125878711D01*
X125649500Y-126121288D01*
X125681161Y-126361785D01*
X125743947Y-126596104D01*
X125836773Y-126820205D01*
X125836776Y-126820212D01*
X125958064Y-127030289D01*
X125958066Y-127030292D01*
X125958067Y-127030293D01*
X126105733Y-127222736D01*
X126105739Y-127222743D01*
X126277256Y-127394260D01*
X126277262Y-127394265D01*
X126469711Y-127541936D01*
X126679788Y-127663224D01*
X126903900Y-127756054D01*
X127138211Y-127818838D01*
X127318586Y-127842584D01*
X127378711Y-127850500D01*
X127378712Y-127850500D01*
X127621289Y-127850500D01*
X127669388Y-127844167D01*
X127861789Y-127818838D01*
X128096100Y-127756054D01*
X128320212Y-127663224D01*
X128530289Y-127541936D01*
X128722738Y-127394265D01*
X128894265Y-127222738D01*
X129041936Y-127030289D01*
X129163224Y-126820212D01*
X129256054Y-126596100D01*
X129318838Y-126361789D01*
X129346239Y-126153653D01*
X133779500Y-126153653D01*
X133779500Y-126311346D01*
X133810261Y-126465989D01*
X133810264Y-126466001D01*
X133870602Y-126611672D01*
X133870609Y-126611685D01*
X133958210Y-126742788D01*
X133958213Y-126742792D01*
X134069707Y-126854286D01*
X134069711Y-126854289D01*
X134200814Y-126941890D01*
X134200827Y-126941897D01*
X134346498Y-127002235D01*
X134346503Y-127002237D01*
X134487529Y-127030289D01*
X134501153Y-127032999D01*
X134501156Y-127033000D01*
X134501158Y-127033000D01*
X134658844Y-127033000D01*
X134658845Y-127032999D01*
X134813497Y-127002237D01*
X134959179Y-126941894D01*
X135090289Y-126854289D01*
X135201789Y-126742789D01*
X135289394Y-126611679D01*
X135349737Y-126465997D01*
X135380500Y-126311342D01*
X135380500Y-126153658D01*
X135380500Y-126153655D01*
X135380499Y-126153653D01*
X136319500Y-126153653D01*
X136319500Y-126311346D01*
X136350261Y-126465989D01*
X136350264Y-126466001D01*
X136410602Y-126611672D01*
X136410609Y-126611685D01*
X136498210Y-126742788D01*
X136498213Y-126742792D01*
X136609707Y-126854286D01*
X136609711Y-126854289D01*
X136740814Y-126941890D01*
X136740827Y-126941897D01*
X136886498Y-127002235D01*
X136886503Y-127002237D01*
X137027529Y-127030289D01*
X137041153Y-127032999D01*
X137041156Y-127033000D01*
X137041158Y-127033000D01*
X137198844Y-127033000D01*
X137198845Y-127032999D01*
X137353497Y-127002237D01*
X137499179Y-126941894D01*
X137630289Y-126854289D01*
X137741789Y-126742789D01*
X137829394Y-126611679D01*
X137889737Y-126465997D01*
X137890700Y-126461153D01*
X161199500Y-126461153D01*
X161199500Y-126618846D01*
X161230261Y-126773489D01*
X161230264Y-126773501D01*
X161290602Y-126919172D01*
X161290609Y-126919185D01*
X161378210Y-127050288D01*
X161378213Y-127050292D01*
X161489707Y-127161786D01*
X161489711Y-127161789D01*
X161620814Y-127249390D01*
X161620827Y-127249397D01*
X161766498Y-127309735D01*
X161766503Y-127309737D01*
X161921153Y-127340499D01*
X161921156Y-127340500D01*
X161921158Y-127340500D01*
X162078844Y-127340500D01*
X162078845Y-127340499D01*
X162233497Y-127309737D01*
X162379179Y-127249394D01*
X162510289Y-127161789D01*
X162621789Y-127050289D01*
X162709394Y-126919179D01*
X162769737Y-126773497D01*
X162800500Y-126618842D01*
X162800500Y-126461158D01*
X162800500Y-126461155D01*
X162800499Y-126461153D01*
X163739500Y-126461153D01*
X163739500Y-126618846D01*
X163770261Y-126773489D01*
X163770264Y-126773501D01*
X163830602Y-126919172D01*
X163830609Y-126919185D01*
X163918210Y-127050288D01*
X163918213Y-127050292D01*
X164029707Y-127161786D01*
X164029711Y-127161789D01*
X164160814Y-127249390D01*
X164160827Y-127249397D01*
X164306498Y-127309735D01*
X164306503Y-127309737D01*
X164461153Y-127340499D01*
X164461156Y-127340500D01*
X164461158Y-127340500D01*
X164618844Y-127340500D01*
X164618845Y-127340499D01*
X164773497Y-127309737D01*
X164919179Y-127249394D01*
X165050289Y-127161789D01*
X165161789Y-127050289D01*
X165249394Y-126919179D01*
X165309737Y-126773497D01*
X165333575Y-126653658D01*
X165333576Y-126653653D01*
X183929500Y-126653653D01*
X183929500Y-126811346D01*
X183960261Y-126965989D01*
X183960264Y-126966001D01*
X184020602Y-127111672D01*
X184020609Y-127111685D01*
X184108210Y-127242788D01*
X184108213Y-127242792D01*
X184219707Y-127354286D01*
X184219711Y-127354289D01*
X184350814Y-127441890D01*
X184350827Y-127441897D01*
X184496498Y-127502235D01*
X184496503Y-127502237D01*
X184651153Y-127532999D01*
X184651156Y-127533000D01*
X184651158Y-127533000D01*
X184808844Y-127533000D01*
X184808845Y-127532999D01*
X184963497Y-127502237D01*
X185109179Y-127441894D01*
X185240289Y-127354289D01*
X185351789Y-127242789D01*
X185439394Y-127111679D01*
X185499737Y-126965997D01*
X185530500Y-126811342D01*
X185530500Y-126653658D01*
X185530500Y-126653655D01*
X185530499Y-126653653D01*
X186469500Y-126653653D01*
X186469500Y-126811346D01*
X186500261Y-126965989D01*
X186500264Y-126966001D01*
X186560602Y-127111672D01*
X186560609Y-127111685D01*
X186648210Y-127242788D01*
X186648213Y-127242792D01*
X186759707Y-127354286D01*
X186759711Y-127354289D01*
X186890814Y-127441890D01*
X186890827Y-127441897D01*
X187036498Y-127502235D01*
X187036503Y-127502237D01*
X187191153Y-127532999D01*
X187191156Y-127533000D01*
X187191158Y-127533000D01*
X187348844Y-127533000D01*
X187348845Y-127532999D01*
X187503497Y-127502237D01*
X187649179Y-127441894D01*
X187780289Y-127354289D01*
X187891789Y-127242789D01*
X187979394Y-127111679D01*
X188039737Y-126965997D01*
X188070500Y-126811342D01*
X188070500Y-126653658D01*
X188070500Y-126653655D01*
X188070499Y-126653653D01*
X188039738Y-126499010D01*
X188039737Y-126499003D01*
X188024059Y-126461153D01*
X187979397Y-126353327D01*
X187979390Y-126353314D01*
X187891789Y-126222211D01*
X187891786Y-126222207D01*
X187780292Y-126110713D01*
X187780288Y-126110710D01*
X187649185Y-126023109D01*
X187649172Y-126023102D01*
X187567357Y-125989214D01*
X187503501Y-125962764D01*
X187503489Y-125962761D01*
X187348845Y-125932000D01*
X187348842Y-125932000D01*
X187191158Y-125932000D01*
X187191155Y-125932000D01*
X187036510Y-125962761D01*
X187036498Y-125962764D01*
X186890827Y-126023102D01*
X186890814Y-126023109D01*
X186759711Y-126110710D01*
X186759707Y-126110713D01*
X186648213Y-126222207D01*
X186648210Y-126222211D01*
X186560609Y-126353314D01*
X186560602Y-126353327D01*
X186500264Y-126498998D01*
X186500261Y-126499010D01*
X186469500Y-126653653D01*
X185530499Y-126653653D01*
X185499738Y-126499010D01*
X185499737Y-126499003D01*
X185484059Y-126461153D01*
X185439397Y-126353327D01*
X185439390Y-126353314D01*
X185351789Y-126222211D01*
X185351786Y-126222207D01*
X185240292Y-126110713D01*
X185240288Y-126110710D01*
X185109185Y-126023109D01*
X185109172Y-126023102D01*
X184963501Y-125962764D01*
X184963489Y-125962761D01*
X184808845Y-125932000D01*
X184808842Y-125932000D01*
X184651158Y-125932000D01*
X184651155Y-125932000D01*
X184496510Y-125962761D01*
X184496498Y-125962764D01*
X184350827Y-126023102D01*
X184350814Y-126023109D01*
X184219711Y-126110710D01*
X184219707Y-126110713D01*
X184108213Y-126222207D01*
X184108210Y-126222211D01*
X184020609Y-126353314D01*
X184020602Y-126353327D01*
X183960264Y-126498998D01*
X183960261Y-126499010D01*
X183929500Y-126653653D01*
X165333576Y-126653653D01*
X165339599Y-126623375D01*
X165339599Y-126623374D01*
X165340500Y-126618844D01*
X165340500Y-126461155D01*
X165340499Y-126461153D01*
X165319051Y-126353327D01*
X165309737Y-126306503D01*
X165309735Y-126306498D01*
X165249397Y-126160827D01*
X165249390Y-126160814D01*
X165161789Y-126029711D01*
X165161786Y-126029707D01*
X165050292Y-125918213D01*
X165050288Y-125918210D01*
X164991174Y-125878711D01*
X204149500Y-125878711D01*
X204149500Y-126121288D01*
X204181161Y-126361785D01*
X204243947Y-126596104D01*
X204336773Y-126820205D01*
X204336776Y-126820212D01*
X204458064Y-127030289D01*
X204458066Y-127030292D01*
X204458067Y-127030293D01*
X204605733Y-127222736D01*
X204605739Y-127222743D01*
X204777256Y-127394260D01*
X204777262Y-127394265D01*
X204969711Y-127541936D01*
X205179788Y-127663224D01*
X205403900Y-127756054D01*
X205638211Y-127818838D01*
X205818586Y-127842584D01*
X205878711Y-127850500D01*
X205878712Y-127850500D01*
X206121289Y-127850500D01*
X206169388Y-127844167D01*
X206361789Y-127818838D01*
X206596100Y-127756054D01*
X206820212Y-127663224D01*
X207030289Y-127541936D01*
X207222738Y-127394265D01*
X207394265Y-127222738D01*
X207541936Y-127030289D01*
X207663224Y-126820212D01*
X207756054Y-126596100D01*
X207818838Y-126361789D01*
X207850500Y-126121288D01*
X207850500Y-125878712D01*
X207818838Y-125638211D01*
X207756054Y-125403900D01*
X207663224Y-125179788D01*
X207541936Y-124969711D01*
X207470022Y-124875991D01*
X207394266Y-124777263D01*
X207394260Y-124777256D01*
X207222743Y-124605739D01*
X207222736Y-124605733D01*
X207030293Y-124458067D01*
X207030292Y-124458066D01*
X207030289Y-124458064D01*
X206858661Y-124358974D01*
X206820214Y-124336777D01*
X206820205Y-124336773D01*
X206596104Y-124243947D01*
X206477967Y-124212292D01*
X206361789Y-124181162D01*
X206361788Y-124181161D01*
X206361785Y-124181161D01*
X206121289Y-124149500D01*
X206121288Y-124149500D01*
X205878712Y-124149500D01*
X205878711Y-124149500D01*
X205638214Y-124181161D01*
X205403895Y-124243947D01*
X205179794Y-124336773D01*
X205179785Y-124336777D01*
X204969706Y-124458067D01*
X204777263Y-124605733D01*
X204777256Y-124605739D01*
X204605739Y-124777256D01*
X204605733Y-124777263D01*
X204458067Y-124969706D01*
X204336777Y-125179785D01*
X204336773Y-125179794D01*
X204243947Y-125403895D01*
X204181161Y-125638214D01*
X204149500Y-125878711D01*
X164991174Y-125878711D01*
X164919185Y-125830609D01*
X164919172Y-125830602D01*
X164773501Y-125770264D01*
X164773489Y-125770261D01*
X164618845Y-125739500D01*
X164618842Y-125739500D01*
X164461158Y-125739500D01*
X164461155Y-125739500D01*
X164306510Y-125770261D01*
X164306498Y-125770264D01*
X164160827Y-125830602D01*
X164160814Y-125830609D01*
X164029711Y-125918210D01*
X164029707Y-125918213D01*
X163918213Y-126029707D01*
X163918210Y-126029711D01*
X163830609Y-126160814D01*
X163830602Y-126160827D01*
X163770264Y-126306498D01*
X163770261Y-126306510D01*
X163739500Y-126461153D01*
X162800499Y-126461153D01*
X162779051Y-126353327D01*
X162769737Y-126306503D01*
X162769735Y-126306498D01*
X162709397Y-126160827D01*
X162709390Y-126160814D01*
X162621789Y-126029711D01*
X162621786Y-126029707D01*
X162510292Y-125918213D01*
X162510288Y-125918210D01*
X162379185Y-125830609D01*
X162379172Y-125830602D01*
X162233501Y-125770264D01*
X162233489Y-125770261D01*
X162078845Y-125739500D01*
X162078842Y-125739500D01*
X161921158Y-125739500D01*
X161921155Y-125739500D01*
X161766510Y-125770261D01*
X161766498Y-125770264D01*
X161620827Y-125830602D01*
X161620814Y-125830609D01*
X161489711Y-125918210D01*
X161489707Y-125918213D01*
X161378213Y-126029707D01*
X161378210Y-126029711D01*
X161290609Y-126160814D01*
X161290602Y-126160827D01*
X161230264Y-126306498D01*
X161230261Y-126306510D01*
X161199500Y-126461153D01*
X137890700Y-126461153D01*
X137891546Y-126456897D01*
X137896724Y-126430874D01*
X137896724Y-126430873D01*
X137920499Y-126311346D01*
X137920500Y-126311344D01*
X137920500Y-126153655D01*
X137920499Y-126153653D01*
X137914061Y-126121288D01*
X137889737Y-125999003D01*
X137885682Y-125989214D01*
X137829397Y-125853327D01*
X137829390Y-125853314D01*
X137741789Y-125722211D01*
X137741786Y-125722207D01*
X137630292Y-125610713D01*
X137630288Y-125610710D01*
X137499185Y-125523109D01*
X137499172Y-125523102D01*
X137353501Y-125462764D01*
X137353489Y-125462761D01*
X137198845Y-125432000D01*
X137198842Y-125432000D01*
X137041158Y-125432000D01*
X137041155Y-125432000D01*
X136886510Y-125462761D01*
X136886498Y-125462764D01*
X136740827Y-125523102D01*
X136740814Y-125523109D01*
X136609711Y-125610710D01*
X136609707Y-125610713D01*
X136498213Y-125722207D01*
X136498210Y-125722211D01*
X136410609Y-125853314D01*
X136410602Y-125853327D01*
X136350264Y-125998998D01*
X136350261Y-125999010D01*
X136319500Y-126153653D01*
X135380499Y-126153653D01*
X135374061Y-126121288D01*
X135349737Y-125999003D01*
X135345682Y-125989214D01*
X135289397Y-125853327D01*
X135289390Y-125853314D01*
X135201789Y-125722211D01*
X135201786Y-125722207D01*
X135090292Y-125610713D01*
X135090288Y-125610710D01*
X134959185Y-125523109D01*
X134959172Y-125523102D01*
X134813501Y-125462764D01*
X134813489Y-125462761D01*
X134658845Y-125432000D01*
X134658842Y-125432000D01*
X134501158Y-125432000D01*
X134501155Y-125432000D01*
X134346510Y-125462761D01*
X134346498Y-125462764D01*
X134200827Y-125523102D01*
X134200814Y-125523109D01*
X134069711Y-125610710D01*
X134069707Y-125610713D01*
X133958213Y-125722207D01*
X133958210Y-125722211D01*
X133870609Y-125853314D01*
X133870602Y-125853327D01*
X133810264Y-125998998D01*
X133810261Y-125999010D01*
X133779500Y-126153653D01*
X129346239Y-126153653D01*
X129350500Y-126121288D01*
X129350500Y-125878712D01*
X129318838Y-125638211D01*
X129256054Y-125403900D01*
X129163224Y-125179788D01*
X129041936Y-124969711D01*
X128970022Y-124875991D01*
X128894266Y-124777263D01*
X128894260Y-124777256D01*
X128722743Y-124605739D01*
X128722736Y-124605733D01*
X128530293Y-124458067D01*
X128530292Y-124458066D01*
X128530289Y-124458064D01*
X128358661Y-124358974D01*
X128320214Y-124336777D01*
X128320205Y-124336773D01*
X128096104Y-124243947D01*
X127977967Y-124212292D01*
X127861789Y-124181162D01*
X127861788Y-124181161D01*
X127861785Y-124181161D01*
X127621289Y-124149500D01*
X127621288Y-124149500D01*
X127378712Y-124149500D01*
X127378711Y-124149500D01*
X127138214Y-124181161D01*
X126903895Y-124243947D01*
X126679794Y-124336773D01*
X126679785Y-124336777D01*
X126469706Y-124458067D01*
X126277263Y-124605733D01*
X126277256Y-124605739D01*
X126105739Y-124777256D01*
X126105733Y-124777263D01*
X125958067Y-124969706D01*
X125836777Y-125179785D01*
X125836773Y-125179794D01*
X125743947Y-125403895D01*
X125681161Y-125638214D01*
X125649500Y-125878711D01*
X124000500Y-125878711D01*
X124000500Y-116056530D01*
X129789500Y-116056530D01*
X129789500Y-116263469D01*
X129829868Y-116466412D01*
X129829870Y-116466420D01*
X129909058Y-116657596D01*
X130024024Y-116829657D01*
X130170342Y-116975975D01*
X130170345Y-116975977D01*
X130342402Y-117090941D01*
X130533580Y-117170130D01*
X130719970Y-117207205D01*
X130736530Y-117210499D01*
X130736534Y-117210500D01*
X130736535Y-117210500D01*
X130943466Y-117210500D01*
X130943467Y-117210499D01*
X131146420Y-117170130D01*
X131337598Y-117090941D01*
X131509655Y-116975977D01*
X131655977Y-116829655D01*
X131770941Y-116657598D01*
X131850130Y-116466420D01*
X131890500Y-116263465D01*
X131890500Y-116056535D01*
X131890499Y-116056530D01*
X132329500Y-116056530D01*
X132329500Y-116263469D01*
X132369868Y-116466412D01*
X132369870Y-116466420D01*
X132449058Y-116657596D01*
X132564024Y-116829657D01*
X132710342Y-116975975D01*
X132710345Y-116975977D01*
X132882402Y-117090941D01*
X133073580Y-117170130D01*
X133259970Y-117207205D01*
X133276530Y-117210499D01*
X133276534Y-117210500D01*
X133276535Y-117210500D01*
X133483465Y-117210500D01*
X133500028Y-117207205D01*
X133569617Y-117213429D01*
X133611904Y-117241140D01*
X136483181Y-120112416D01*
X136516666Y-120173739D01*
X136519500Y-120200097D01*
X136519500Y-122462897D01*
X136499815Y-122529936D01*
X136451800Y-122573379D01*
X136438389Y-122580212D01*
X136272786Y-122700528D01*
X136128032Y-122845282D01*
X136128028Y-122845287D01*
X136104817Y-122877235D01*
X136049487Y-122919901D01*
X135979874Y-122925880D01*
X135918079Y-122893274D01*
X135883722Y-122832436D01*
X135880499Y-122804350D01*
X135880499Y-122788239D01*
X135880499Y-122788234D01*
X135877646Y-122757800D01*
X135832793Y-122629617D01*
X135796331Y-122580213D01*
X135752150Y-122520349D01*
X135674304Y-122462897D01*
X135642883Y-122439707D01*
X135642881Y-122439706D01*
X135514701Y-122394853D01*
X135484270Y-122392000D01*
X133675739Y-122392000D01*
X133661751Y-122393311D01*
X133645300Y-122394854D01*
X133645297Y-122394854D01*
X133645296Y-122394855D01*
X133645294Y-122394855D01*
X133517117Y-122439706D01*
X133407849Y-122520349D01*
X133327206Y-122629618D01*
X133282353Y-122757797D01*
X133282353Y-122757799D01*
X133279500Y-122788229D01*
X133279500Y-124596760D01*
X133280342Y-124605733D01*
X133282354Y-124627200D01*
X133282354Y-124627202D01*
X133282355Y-124627203D01*
X133282355Y-124627205D01*
X133327206Y-124755382D01*
X133407849Y-124864650D01*
X133461519Y-124904260D01*
X133517117Y-124945293D01*
X133541392Y-124953787D01*
X133645298Y-124990146D01*
X133652323Y-124990804D01*
X133675733Y-124993000D01*
X135484266Y-124992999D01*
X135514700Y-124990146D01*
X135642883Y-124945293D01*
X135752150Y-124864650D01*
X135832793Y-124755383D01*
X135857608Y-124684466D01*
X135877646Y-124627202D01*
X135877646Y-124627200D01*
X135880500Y-124596767D01*
X135880499Y-124580653D01*
X135900180Y-124513616D01*
X135952982Y-124467858D01*
X136022140Y-124457911D01*
X136085697Y-124486933D01*
X136104817Y-124507765D01*
X136128028Y-124539712D01*
X136128032Y-124539717D01*
X136272786Y-124684471D01*
X136400506Y-124777263D01*
X136438390Y-124804787D01*
X136552545Y-124862952D01*
X136620776Y-124897718D01*
X136620778Y-124897718D01*
X136620781Y-124897720D01*
X136725137Y-124931627D01*
X136815465Y-124960977D01*
X136870609Y-124969711D01*
X137017648Y-124993000D01*
X137017649Y-124993000D01*
X137222351Y-124993000D01*
X137222352Y-124993000D01*
X137424534Y-124960977D01*
X137619219Y-124897720D01*
X137801610Y-124804787D01*
X137894590Y-124737232D01*
X137967213Y-124684471D01*
X137967215Y-124684468D01*
X137967219Y-124684466D01*
X138111966Y-124539719D01*
X138111968Y-124539715D01*
X138111971Y-124539713D01*
X138171291Y-124458064D01*
X138232287Y-124374110D01*
X138325220Y-124191719D01*
X138388477Y-123997034D01*
X138420500Y-123794852D01*
X138420500Y-123590148D01*
X138388477Y-123387966D01*
X138369689Y-123330144D01*
X138361794Y-123305844D01*
X138325220Y-123193281D01*
X138325217Y-123193277D01*
X138325217Y-123193274D01*
X138302724Y-123149130D01*
X138302723Y-123149129D01*
X138296646Y-123137202D01*
X138275515Y-123095729D01*
X160699500Y-123095729D01*
X160699500Y-124904260D01*
X160699501Y-124904266D01*
X160702354Y-124934700D01*
X160702354Y-124934702D01*
X160702355Y-124934703D01*
X160702355Y-124934705D01*
X160747206Y-125062882D01*
X160827849Y-125172150D01*
X160882483Y-125212471D01*
X160937117Y-125252793D01*
X160979844Y-125267744D01*
X161065298Y-125297646D01*
X161072323Y-125298304D01*
X161095733Y-125300500D01*
X162904266Y-125300499D01*
X162934700Y-125297646D01*
X163062883Y-125252793D01*
X163172150Y-125172150D01*
X163252793Y-125062883D01*
X163277246Y-124993000D01*
X163290968Y-124953787D01*
X163290980Y-124953748D01*
X163297646Y-124934700D01*
X163297806Y-124932985D01*
X163300431Y-124925003D01*
X163316779Y-124901271D01*
X163330606Y-124875991D01*
X163336354Y-124872857D01*
X163340069Y-124867465D01*
X163366651Y-124856339D01*
X163391952Y-124842547D01*
X163398482Y-124843018D01*
X163404522Y-124840491D01*
X163432893Y-124845502D01*
X163461640Y-124847578D01*
X163466880Y-124851506D01*
X163473326Y-124852645D01*
X163484479Y-124862952D01*
X163499119Y-124864105D01*
X164072667Y-124290556D01*
X164099890Y-124337708D01*
X164202292Y-124440110D01*
X164249442Y-124467332D01*
X163675893Y-125040880D01*
X163832445Y-125154622D01*
X164021782Y-125251095D01*
X164223870Y-125316757D01*
X164433754Y-125350000D01*
X164646246Y-125350000D01*
X164856127Y-125316757D01*
X164856130Y-125316757D01*
X165058217Y-125251095D01*
X165247554Y-125154622D01*
X165404104Y-125040880D01*
X165404105Y-125040880D01*
X164830556Y-124467332D01*
X164877708Y-124440110D01*
X164980110Y-124337708D01*
X165007332Y-124290556D01*
X165580880Y-124864105D01*
X165580880Y-124864104D01*
X165694622Y-124707554D01*
X165791095Y-124518217D01*
X165856757Y-124316130D01*
X165856757Y-124316127D01*
X165890000Y-124106246D01*
X165890000Y-123893753D01*
X165856757Y-123683872D01*
X165856757Y-123683869D01*
X165791095Y-123481782D01*
X165719683Y-123341629D01*
X165694622Y-123292445D01*
X165691559Y-123288229D01*
X183429500Y-123288229D01*
X183429500Y-125096760D01*
X183429501Y-125096766D01*
X183432354Y-125127200D01*
X183432354Y-125127202D01*
X183432355Y-125127203D01*
X183432355Y-125127205D01*
X183477206Y-125255382D01*
X183557849Y-125364650D01*
X183611025Y-125403895D01*
X183667117Y-125445293D01*
X183709844Y-125460244D01*
X183795298Y-125490146D01*
X183802323Y-125490804D01*
X183825733Y-125493000D01*
X185634266Y-125492999D01*
X185664700Y-125490146D01*
X185792883Y-125445293D01*
X185902150Y-125364650D01*
X185982793Y-125255383D01*
X186009246Y-125179785D01*
X186020968Y-125146287D01*
X186020980Y-125146248D01*
X186027646Y-125127200D01*
X186027806Y-125125485D01*
X186030431Y-125117503D01*
X186046779Y-125093771D01*
X186060606Y-125068491D01*
X186066354Y-125065357D01*
X186070069Y-125059965D01*
X186096651Y-125048839D01*
X186121952Y-125035047D01*
X186128482Y-125035518D01*
X186134522Y-125032991D01*
X186162893Y-125038002D01*
X186191640Y-125040078D01*
X186196880Y-125044006D01*
X186203326Y-125045145D01*
X186214479Y-125055452D01*
X186229119Y-125056605D01*
X186802667Y-124483056D01*
X186829890Y-124530208D01*
X186932292Y-124632610D01*
X186979442Y-124659832D01*
X186405893Y-125233380D01*
X186562445Y-125347122D01*
X186751782Y-125443595D01*
X186953870Y-125509257D01*
X187163754Y-125542500D01*
X187376246Y-125542500D01*
X187586127Y-125509257D01*
X187586130Y-125509257D01*
X187788217Y-125443595D01*
X187977554Y-125347122D01*
X188134104Y-125233380D01*
X188134105Y-125233380D01*
X187560556Y-124659832D01*
X187607708Y-124632610D01*
X187710110Y-124530208D01*
X187737332Y-124483056D01*
X188310880Y-125056605D01*
X188310880Y-125056604D01*
X188424622Y-124900054D01*
X188521095Y-124710717D01*
X188586757Y-124508630D01*
X188586757Y-124508627D01*
X188620000Y-124298746D01*
X188620000Y-124086253D01*
X188586757Y-123876372D01*
X188586757Y-123876369D01*
X188521095Y-123674282D01*
X188424622Y-123484945D01*
X188310880Y-123328394D01*
X188310880Y-123328393D01*
X187737331Y-123901942D01*
X187710110Y-123854792D01*
X187607708Y-123752390D01*
X187560556Y-123725167D01*
X188134105Y-123151619D01*
X188134104Y-123151618D01*
X187977554Y-123037877D01*
X187788217Y-122941404D01*
X187586129Y-122875742D01*
X187376246Y-122842500D01*
X187163754Y-122842500D01*
X186953872Y-122875742D01*
X186953869Y-122875742D01*
X186751782Y-122941404D01*
X186562442Y-123037879D01*
X186405894Y-123151617D01*
X186405893Y-123151618D01*
X186979443Y-123725167D01*
X186932292Y-123752390D01*
X186829890Y-123854792D01*
X186802667Y-123901942D01*
X186229118Y-123328393D01*
X186212486Y-123329702D01*
X186211597Y-123330144D01*
X186193216Y-123344318D01*
X186180885Y-123345377D01*
X186169799Y-123350876D01*
X186146729Y-123348310D01*
X186123603Y-123350297D01*
X186112657Y-123344521D01*
X186100357Y-123343154D01*
X186082334Y-123328521D01*
X186061808Y-123317691D01*
X186054402Y-123305844D01*
X186046114Y-123299115D01*
X186036873Y-123277803D01*
X186030431Y-123267497D01*
X186027806Y-123259515D01*
X186027646Y-123257800D01*
X186020972Y-123238727D01*
X186020955Y-123238675D01*
X185989621Y-123149130D01*
X185982793Y-123129617D01*
X185921210Y-123046175D01*
X185902150Y-123020349D01*
X185819184Y-122959118D01*
X185792883Y-122939707D01*
X185792881Y-122939706D01*
X185664701Y-122894853D01*
X185634270Y-122892000D01*
X183825739Y-122892000D01*
X183812154Y-122893274D01*
X183795300Y-122894854D01*
X183795297Y-122894854D01*
X183795296Y-122894855D01*
X183795294Y-122894855D01*
X183667117Y-122939706D01*
X183557849Y-123020349D01*
X183477206Y-123129618D01*
X183432353Y-123257797D01*
X183432353Y-123257799D01*
X183429500Y-123288229D01*
X165691559Y-123288229D01*
X165580880Y-123135894D01*
X165580880Y-123135893D01*
X165007331Y-123709442D01*
X164980110Y-123662292D01*
X164877708Y-123559890D01*
X164830556Y-123532667D01*
X165404105Y-122959119D01*
X165404104Y-122959118D01*
X165247554Y-122845377D01*
X165058217Y-122748904D01*
X164856129Y-122683242D01*
X164646246Y-122650000D01*
X164433754Y-122650000D01*
X164223872Y-122683242D01*
X164223869Y-122683242D01*
X164021782Y-122748904D01*
X163832442Y-122845379D01*
X163675894Y-122959117D01*
X163675893Y-122959118D01*
X164249443Y-123532667D01*
X164202292Y-123559890D01*
X164099890Y-123662292D01*
X164072667Y-123709442D01*
X163499118Y-123135893D01*
X163482486Y-123137202D01*
X163481597Y-123137644D01*
X163463216Y-123151818D01*
X163450885Y-123152877D01*
X163439799Y-123158376D01*
X163416729Y-123155810D01*
X163393603Y-123157797D01*
X163382657Y-123152021D01*
X163370357Y-123150654D01*
X163352334Y-123136021D01*
X163331808Y-123125191D01*
X163324402Y-123113344D01*
X163316114Y-123106615D01*
X163306873Y-123085303D01*
X163300431Y-123074997D01*
X163297806Y-123067015D01*
X163297646Y-123065300D01*
X163290972Y-123046227D01*
X163290955Y-123046175D01*
X163252793Y-122937118D01*
X163252793Y-122937117D01*
X163207496Y-122875742D01*
X163172150Y-122827849D01*
X163077236Y-122757800D01*
X163062883Y-122747207D01*
X163062881Y-122747206D01*
X162934701Y-122702353D01*
X162904270Y-122699500D01*
X161095739Y-122699500D01*
X161081751Y-122700811D01*
X161065300Y-122702354D01*
X161065297Y-122702354D01*
X161065296Y-122702355D01*
X161065294Y-122702355D01*
X160937117Y-122747206D01*
X160827849Y-122827849D01*
X160747206Y-122937118D01*
X160702353Y-123065297D01*
X160702353Y-123065299D01*
X160699500Y-123095729D01*
X138275515Y-123095729D01*
X138232287Y-123010890D01*
X138232285Y-123010887D01*
X138232284Y-123010885D01*
X138111971Y-122845286D01*
X137967213Y-122700528D01*
X137801610Y-122580212D01*
X137788200Y-122573379D01*
X137737406Y-122525403D01*
X137720500Y-122462897D01*
X137720500Y-119989060D01*
X137720501Y-119989047D01*
X137720501Y-119820944D01*
X137679576Y-119668214D01*
X137679573Y-119668209D01*
X137600524Y-119531290D01*
X137600518Y-119531282D01*
X135415559Y-117346323D01*
X135382074Y-117285000D01*
X135387058Y-117215308D01*
X135428930Y-117159375D01*
X135494394Y-117134958D01*
X135550692Y-117144080D01*
X135613580Y-117170130D01*
X135799970Y-117207205D01*
X135816530Y-117210499D01*
X135816534Y-117210500D01*
X135816535Y-117210500D01*
X136023466Y-117210500D01*
X136023467Y-117210499D01*
X136226420Y-117170130D01*
X136417598Y-117090941D01*
X136589655Y-116975977D01*
X136735977Y-116829655D01*
X136850941Y-116657598D01*
X136930130Y-116466420D01*
X136970500Y-116263465D01*
X136970500Y-116056535D01*
X136970499Y-116056530D01*
X137409500Y-116056530D01*
X137409500Y-116263469D01*
X137449868Y-116466412D01*
X137449870Y-116466420D01*
X137529058Y-116657596D01*
X137644024Y-116829657D01*
X137790342Y-116975975D01*
X137790345Y-116975977D01*
X137962402Y-117090941D01*
X138153580Y-117170130D01*
X138339970Y-117207205D01*
X138356530Y-117210499D01*
X138356534Y-117210500D01*
X138356535Y-117210500D01*
X138563466Y-117210500D01*
X138563467Y-117210499D01*
X138766420Y-117170130D01*
X138957598Y-117090941D01*
X139129655Y-116975977D01*
X139275977Y-116829655D01*
X139390941Y-116657598D01*
X139470130Y-116466420D01*
X139510500Y-116263465D01*
X139510500Y-116056535D01*
X139510499Y-116056530D01*
X139949500Y-116056530D01*
X139949500Y-116263469D01*
X139989868Y-116466412D01*
X139989870Y-116466420D01*
X140069058Y-116657596D01*
X140184024Y-116829657D01*
X140330342Y-116975975D01*
X140330345Y-116975977D01*
X140502402Y-117090941D01*
X140693580Y-117170130D01*
X140879970Y-117207205D01*
X140896530Y-117210499D01*
X140896534Y-117210500D01*
X140896535Y-117210500D01*
X141103466Y-117210500D01*
X141103467Y-117210499D01*
X141306420Y-117170130D01*
X141426974Y-117120194D01*
X141496438Y-117112726D01*
X141558918Y-117144000D01*
X141562104Y-117147075D01*
X143155489Y-118740460D01*
X143214829Y-118774720D01*
X143224008Y-118780020D01*
X143224012Y-118780022D01*
X143300438Y-118800500D01*
X143300440Y-118800500D01*
X146319560Y-118800500D01*
X146319562Y-118800500D01*
X146395989Y-118780021D01*
X146464511Y-118740460D01*
X146520460Y-118684511D01*
X148057896Y-117147073D01*
X148119217Y-117113590D01*
X148188908Y-117118574D01*
X148193007Y-117120186D01*
X148313580Y-117170130D01*
X148499970Y-117207205D01*
X148516530Y-117210499D01*
X148516534Y-117210500D01*
X148516535Y-117210500D01*
X148723466Y-117210500D01*
X148723467Y-117210499D01*
X148926420Y-117170130D01*
X149117598Y-117090941D01*
X149289655Y-116975977D01*
X149289658Y-116975974D01*
X149378671Y-116886962D01*
X149435974Y-116829658D01*
X149435975Y-116829657D01*
X149435977Y-116829655D01*
X149550941Y-116657598D01*
X149630130Y-116466420D01*
X149670500Y-116263465D01*
X149670500Y-116073428D01*
X150060000Y-116073428D01*
X150060000Y-116246571D01*
X150087085Y-116417584D01*
X150140591Y-116582257D01*
X150219194Y-116736521D01*
X150298097Y-116845124D01*
X150729269Y-116413952D01*
X150759901Y-116467007D01*
X150852993Y-116560099D01*
X150906046Y-116590729D01*
X150474874Y-117021901D01*
X150583478Y-117100805D01*
X150737742Y-117179408D01*
X150902415Y-117232914D01*
X151073429Y-117260000D01*
X151246571Y-117260000D01*
X151417584Y-117232914D01*
X151582257Y-117179408D01*
X151736528Y-117100801D01*
X151845124Y-117021902D01*
X151845125Y-117021901D01*
X151413953Y-116590729D01*
X151467007Y-116560099D01*
X151560099Y-116467007D01*
X151590729Y-116413953D01*
X152021901Y-116845125D01*
X152021902Y-116845124D01*
X152100801Y-116736528D01*
X152179408Y-116582257D01*
X152232914Y-116417584D01*
X152260000Y-116246571D01*
X152260000Y-116073428D01*
X152232914Y-115902415D01*
X152179408Y-115737742D01*
X152100805Y-115583478D01*
X152021901Y-115474874D01*
X151590729Y-115906046D01*
X151560099Y-115852993D01*
X151467007Y-115759901D01*
X151413952Y-115729270D01*
X151845124Y-115298097D01*
X151736521Y-115219194D01*
X151582257Y-115140591D01*
X151417584Y-115087085D01*
X151246571Y-115060000D01*
X151073429Y-115060000D01*
X150902415Y-115087085D01*
X150737742Y-115140591D01*
X150583476Y-115219195D01*
X150583474Y-115219196D01*
X150474874Y-115298096D01*
X150474874Y-115298097D01*
X150906047Y-115729270D01*
X150852993Y-115759901D01*
X150759901Y-115852993D01*
X150729270Y-115906047D01*
X150298097Y-115474874D01*
X150298096Y-115474874D01*
X150219196Y-115583474D01*
X150219195Y-115583476D01*
X150140591Y-115737742D01*
X150087085Y-115902415D01*
X150060000Y-116073428D01*
X149670500Y-116073428D01*
X149670500Y-116056535D01*
X149630130Y-115853580D01*
X149550941Y-115662402D01*
X149435977Y-115490345D01*
X149435975Y-115490342D01*
X149289657Y-115344024D01*
X149203626Y-115286541D01*
X149117598Y-115229059D01*
X149093784Y-115219195D01*
X148926420Y-115149870D01*
X148926412Y-115149868D01*
X148723469Y-115109500D01*
X148723465Y-115109500D01*
X148516535Y-115109500D01*
X148516530Y-115109500D01*
X148313587Y-115149868D01*
X148313579Y-115149870D01*
X148122403Y-115229058D01*
X147950342Y-115344024D01*
X147804024Y-115490342D01*
X147689058Y-115662403D01*
X147609870Y-115853579D01*
X147609868Y-115853587D01*
X147569500Y-116056530D01*
X147569500Y-116263469D01*
X147609868Y-116466412D01*
X147609871Y-116466424D01*
X147659803Y-116586971D01*
X147667272Y-116656440D01*
X147635997Y-116718919D01*
X147632923Y-116722104D01*
X146191848Y-118163181D01*
X146130525Y-118196666D01*
X146104167Y-118199500D01*
X143515833Y-118199500D01*
X143448794Y-118179815D01*
X143428152Y-118163181D01*
X141987075Y-116722104D01*
X141953590Y-116660781D01*
X141958574Y-116591089D01*
X141960163Y-116587049D01*
X142010130Y-116466420D01*
X142050500Y-116263465D01*
X142050500Y-116056535D01*
X142050499Y-116056530D01*
X142489500Y-116056530D01*
X142489500Y-116263469D01*
X142529868Y-116466412D01*
X142529870Y-116466420D01*
X142609058Y-116657596D01*
X142724024Y-116829657D01*
X142870342Y-116975975D01*
X142870345Y-116975977D01*
X143042402Y-117090941D01*
X143233580Y-117170130D01*
X143419970Y-117207205D01*
X143436530Y-117210499D01*
X143436534Y-117210500D01*
X143436535Y-117210500D01*
X143643466Y-117210500D01*
X143643467Y-117210499D01*
X143846420Y-117170130D01*
X144037598Y-117090941D01*
X144209655Y-116975977D01*
X144355977Y-116829655D01*
X144470941Y-116657598D01*
X144550130Y-116466420D01*
X144590500Y-116263465D01*
X144590500Y-116056535D01*
X144590499Y-116056530D01*
X145029500Y-116056530D01*
X145029500Y-116263469D01*
X145069868Y-116466412D01*
X145069870Y-116466420D01*
X145149058Y-116657596D01*
X145264024Y-116829657D01*
X145410342Y-116975975D01*
X145410345Y-116975977D01*
X145582402Y-117090941D01*
X145773580Y-117170130D01*
X145959970Y-117207205D01*
X145976530Y-117210499D01*
X145976534Y-117210500D01*
X145976535Y-117210500D01*
X146183466Y-117210500D01*
X146183467Y-117210499D01*
X146386420Y-117170130D01*
X146577598Y-117090941D01*
X146749655Y-116975977D01*
X146895977Y-116829655D01*
X147010941Y-116657598D01*
X147090130Y-116466420D01*
X147130500Y-116263465D01*
X147130500Y-116056535D01*
X147090130Y-115853580D01*
X147010941Y-115662402D01*
X146895977Y-115490345D01*
X146895975Y-115490342D01*
X146749657Y-115344024D01*
X146663626Y-115286541D01*
X146577598Y-115229059D01*
X146553784Y-115219195D01*
X146386420Y-115149870D01*
X146386412Y-115149868D01*
X146183469Y-115109500D01*
X146183465Y-115109500D01*
X145976535Y-115109500D01*
X145976530Y-115109500D01*
X145773587Y-115149868D01*
X145773579Y-115149870D01*
X145582403Y-115229058D01*
X145410342Y-115344024D01*
X145264024Y-115490342D01*
X145149058Y-115662403D01*
X145069870Y-115853579D01*
X145069868Y-115853587D01*
X145029500Y-116056530D01*
X144590499Y-116056530D01*
X144550130Y-115853580D01*
X144470941Y-115662402D01*
X144355977Y-115490345D01*
X144355975Y-115490342D01*
X144209657Y-115344024D01*
X144123626Y-115286541D01*
X144037598Y-115229059D01*
X144013784Y-115219195D01*
X143846420Y-115149870D01*
X143846412Y-115149868D01*
X143643469Y-115109500D01*
X143643465Y-115109500D01*
X143436535Y-115109500D01*
X143436530Y-115109500D01*
X143233587Y-115149868D01*
X143233579Y-115149870D01*
X143042403Y-115229058D01*
X142870342Y-115344024D01*
X142724024Y-115490342D01*
X142609058Y-115662403D01*
X142529870Y-115853579D01*
X142529868Y-115853587D01*
X142489500Y-116056530D01*
X142050499Y-116056530D01*
X142010130Y-115853580D01*
X141930941Y-115662402D01*
X141815977Y-115490345D01*
X141815975Y-115490342D01*
X141669657Y-115344024D01*
X141583626Y-115286541D01*
X141497598Y-115229059D01*
X141473784Y-115219195D01*
X141306420Y-115149870D01*
X141306412Y-115149868D01*
X141103469Y-115109500D01*
X141103465Y-115109500D01*
X140896535Y-115109500D01*
X140896530Y-115109500D01*
X140693587Y-115149868D01*
X140693579Y-115149870D01*
X140502403Y-115229058D01*
X140330342Y-115344024D01*
X140184024Y-115490342D01*
X140069058Y-115662403D01*
X139989870Y-115853579D01*
X139989868Y-115853587D01*
X139949500Y-116056530D01*
X139510499Y-116056530D01*
X139470130Y-115853580D01*
X139390941Y-115662402D01*
X139275977Y-115490345D01*
X139275975Y-115490342D01*
X139129657Y-115344024D01*
X139043626Y-115286541D01*
X138957598Y-115229059D01*
X138933784Y-115219195D01*
X138766420Y-115149870D01*
X138766412Y-115149868D01*
X138563469Y-115109500D01*
X138563465Y-115109500D01*
X138356535Y-115109500D01*
X138356530Y-115109500D01*
X138153587Y-115149868D01*
X138153579Y-115149870D01*
X137962403Y-115229058D01*
X137790342Y-115344024D01*
X137644024Y-115490342D01*
X137529058Y-115662403D01*
X137449870Y-115853579D01*
X137449868Y-115853587D01*
X137409500Y-116056530D01*
X136970499Y-116056530D01*
X136930130Y-115853580D01*
X136850941Y-115662402D01*
X136735977Y-115490345D01*
X136735975Y-115490342D01*
X136589657Y-115344024D01*
X136503626Y-115286541D01*
X136417598Y-115229059D01*
X136393784Y-115219195D01*
X136226420Y-115149870D01*
X136226412Y-115149868D01*
X136023469Y-115109500D01*
X136023465Y-115109500D01*
X135816535Y-115109500D01*
X135816530Y-115109500D01*
X135613587Y-115149868D01*
X135613579Y-115149870D01*
X135422403Y-115229058D01*
X135250342Y-115344024D01*
X135104024Y-115490342D01*
X134989058Y-115662403D01*
X134909870Y-115853579D01*
X134909868Y-115853587D01*
X134869500Y-116056530D01*
X134869500Y-116263469D01*
X134909868Y-116466412D01*
X134909871Y-116466424D01*
X134935918Y-116529307D01*
X134943387Y-116598776D01*
X134912111Y-116661255D01*
X134852022Y-116696907D01*
X134782197Y-116694413D01*
X134733676Y-116664440D01*
X134461140Y-116391904D01*
X134427655Y-116330581D01*
X134427205Y-116280029D01*
X134430500Y-116263465D01*
X134430500Y-116056535D01*
X134390130Y-115853580D01*
X134310941Y-115662402D01*
X134195977Y-115490345D01*
X134195975Y-115490342D01*
X134049657Y-115344024D01*
X133963626Y-115286541D01*
X133877598Y-115229059D01*
X133853784Y-115219195D01*
X133686420Y-115149870D01*
X133686412Y-115149868D01*
X133483469Y-115109500D01*
X133483465Y-115109500D01*
X133276535Y-115109500D01*
X133276530Y-115109500D01*
X133073587Y-115149868D01*
X133073579Y-115149870D01*
X132882403Y-115229058D01*
X132710342Y-115344024D01*
X132564024Y-115490342D01*
X132449058Y-115662403D01*
X132369870Y-115853579D01*
X132369868Y-115853587D01*
X132329500Y-116056530D01*
X131890499Y-116056530D01*
X131850130Y-115853580D01*
X131770941Y-115662402D01*
X131655977Y-115490345D01*
X131655975Y-115490342D01*
X131509657Y-115344024D01*
X131423626Y-115286541D01*
X131337598Y-115229059D01*
X131313784Y-115219195D01*
X131146420Y-115149870D01*
X131146412Y-115149868D01*
X130943469Y-115109500D01*
X130943465Y-115109500D01*
X130736535Y-115109500D01*
X130736530Y-115109500D01*
X130533587Y-115149868D01*
X130533579Y-115149870D01*
X130342403Y-115229058D01*
X130170342Y-115344024D01*
X130024024Y-115490342D01*
X129909058Y-115662403D01*
X129829870Y-115853579D01*
X129829868Y-115853587D01*
X129789500Y-116056530D01*
X124000500Y-116056530D01*
X124000500Y-107434108D01*
X160499500Y-107434108D01*
X160499500Y-107565891D01*
X160533608Y-107693187D01*
X160554230Y-107728904D01*
X160599500Y-107807314D01*
X160692686Y-107900500D01*
X160806814Y-107966392D01*
X160934108Y-108000500D01*
X160953456Y-108000500D01*
X161020495Y-108020185D01*
X161041137Y-108036819D01*
X165284788Y-112280470D01*
X165354085Y-112320478D01*
X165354087Y-112320480D01*
X165361342Y-112324668D01*
X165364712Y-112326614D01*
X165453856Y-112350500D01*
X172091324Y-112350500D01*
X172158363Y-112370185D01*
X172179005Y-112386819D01*
X172192686Y-112400500D01*
X172306814Y-112466392D01*
X172434108Y-112500500D01*
X172434110Y-112500500D01*
X172565890Y-112500500D01*
X172565892Y-112500500D01*
X172693186Y-112466392D01*
X172807314Y-112400500D01*
X172900500Y-112307314D01*
X172966392Y-112193186D01*
X173000500Y-112065892D01*
X173000500Y-111934108D01*
X172966392Y-111806814D01*
X172900500Y-111692686D01*
X172807314Y-111599500D01*
X172750250Y-111566554D01*
X172693187Y-111533608D01*
X172629539Y-111516554D01*
X172565892Y-111499500D01*
X172434108Y-111499500D01*
X172306812Y-111533608D01*
X172192686Y-111599500D01*
X172192683Y-111599502D01*
X172179005Y-111613181D01*
X172117682Y-111646666D01*
X172091324Y-111649500D01*
X165696544Y-111649500D01*
X165629505Y-111629815D01*
X165608863Y-111613181D01*
X161536819Y-107541137D01*
X161503334Y-107479814D01*
X161500500Y-107453456D01*
X161500500Y-107434110D01*
X161500500Y-107434108D01*
X161466392Y-107306814D01*
X161400500Y-107192686D01*
X161307314Y-107099500D01*
X161250250Y-107066554D01*
X161193187Y-107033608D01*
X161129539Y-107016554D01*
X161065892Y-106999500D01*
X160934108Y-106999500D01*
X160806812Y-107033608D01*
X160692686Y-107099500D01*
X160692683Y-107099502D01*
X160599502Y-107192683D01*
X160599500Y-107192686D01*
X160533608Y-107306812D01*
X160499500Y-107434108D01*
X124000500Y-107434108D01*
X124000500Y-100934108D01*
X158499500Y-100934108D01*
X158499500Y-101065891D01*
X158533608Y-101193187D01*
X158566554Y-101250250D01*
X158599500Y-101307314D01*
X158599502Y-101307316D01*
X158663181Y-101370995D01*
X158696666Y-101432318D01*
X158699500Y-101458676D01*
X158699500Y-101989562D01*
X158713152Y-102040513D01*
X158719979Y-102065990D01*
X158719982Y-102065995D01*
X158759535Y-102134504D01*
X158759541Y-102134512D01*
X163963181Y-107338152D01*
X163996666Y-107399475D01*
X163999500Y-107425833D01*
X163999500Y-107515891D01*
X164033608Y-107643187D01*
X164045187Y-107663242D01*
X164099500Y-107757314D01*
X164192686Y-107850500D01*
X164306814Y-107916392D01*
X164434108Y-107950500D01*
X164434110Y-107950500D01*
X164565890Y-107950500D01*
X164565892Y-107950500D01*
X164693186Y-107916392D01*
X164807314Y-107850500D01*
X164900500Y-107757314D01*
X164966392Y-107643186D01*
X165000500Y-107515892D01*
X165000500Y-107384108D01*
X164966392Y-107256814D01*
X164900500Y-107142686D01*
X164807314Y-107049500D01*
X164720712Y-106999500D01*
X164693187Y-106983608D01*
X164628931Y-106966391D01*
X164565892Y-106949500D01*
X164475833Y-106949500D01*
X164408794Y-106929815D01*
X164388152Y-106913181D01*
X159336819Y-101861848D01*
X159303334Y-101800525D01*
X159300500Y-101774167D01*
X159300500Y-101458676D01*
X159320185Y-101391637D01*
X159336819Y-101370995D01*
X159400500Y-101307314D01*
X159466392Y-101193186D01*
X159500500Y-101065892D01*
X159500500Y-100934108D01*
X159466392Y-100806814D01*
X159400500Y-100692686D01*
X159307314Y-100599500D01*
X159250250Y-100566554D01*
X159193187Y-100533608D01*
X159129539Y-100516554D01*
X159065892Y-100499500D01*
X158934108Y-100499500D01*
X158806812Y-100533608D01*
X158692686Y-100599500D01*
X158692683Y-100599502D01*
X158599502Y-100692683D01*
X158599500Y-100692686D01*
X158533608Y-100806812D01*
X158499500Y-100934108D01*
X124000500Y-100934108D01*
X124000500Y-95736530D01*
X129789500Y-95736530D01*
X129789500Y-95943469D01*
X129829868Y-96146412D01*
X129829870Y-96146420D01*
X129909058Y-96337596D01*
X130024024Y-96509657D01*
X130170342Y-96655975D01*
X130170345Y-96655977D01*
X130342402Y-96770941D01*
X130533580Y-96850130D01*
X130736530Y-96890499D01*
X130736534Y-96890500D01*
X130736535Y-96890500D01*
X130943466Y-96890500D01*
X130943467Y-96890499D01*
X131146420Y-96850130D01*
X131337598Y-96770941D01*
X131509655Y-96655977D01*
X131655977Y-96509655D01*
X131770941Y-96337598D01*
X131850130Y-96146420D01*
X131890500Y-95943465D01*
X131890500Y-95736535D01*
X131890499Y-95736530D01*
X132329500Y-95736530D01*
X132329500Y-95943469D01*
X132369868Y-96146412D01*
X132369870Y-96146420D01*
X132449058Y-96337596D01*
X132564024Y-96509657D01*
X132710342Y-96655975D01*
X132710345Y-96655977D01*
X132882402Y-96770941D01*
X133073580Y-96850130D01*
X133276530Y-96890499D01*
X133276534Y-96890500D01*
X133276535Y-96890500D01*
X133483466Y-96890500D01*
X133483467Y-96890499D01*
X133686420Y-96850130D01*
X133877598Y-96770941D01*
X134049655Y-96655977D01*
X134195977Y-96509655D01*
X134310941Y-96337598D01*
X134390130Y-96146420D01*
X134430500Y-95943465D01*
X134430500Y-95736535D01*
X134430499Y-95736530D01*
X134869500Y-95736530D01*
X134869500Y-95943469D01*
X134909868Y-96146412D01*
X134909870Y-96146420D01*
X134989058Y-96337596D01*
X135104024Y-96509657D01*
X135250342Y-96655975D01*
X135250345Y-96655977D01*
X135422402Y-96770941D01*
X135613580Y-96850130D01*
X135816530Y-96890499D01*
X135816534Y-96890500D01*
X135816535Y-96890500D01*
X136023466Y-96890500D01*
X136023467Y-96890499D01*
X136226420Y-96850130D01*
X136417598Y-96770941D01*
X136589655Y-96655977D01*
X136735977Y-96509655D01*
X136850941Y-96337598D01*
X136930130Y-96146420D01*
X136970500Y-95943465D01*
X136970500Y-95736535D01*
X136970499Y-95736530D01*
X137409500Y-95736530D01*
X137409500Y-95943469D01*
X137449868Y-96146412D01*
X137449870Y-96146420D01*
X137529058Y-96337596D01*
X137644024Y-96509657D01*
X137790342Y-96655975D01*
X137790345Y-96655977D01*
X137962402Y-96770941D01*
X138153580Y-96850130D01*
X138356530Y-96890499D01*
X138356534Y-96890500D01*
X138356535Y-96890500D01*
X138563466Y-96890500D01*
X138563467Y-96890499D01*
X138766420Y-96850130D01*
X138957598Y-96770941D01*
X139129655Y-96655977D01*
X139275977Y-96509655D01*
X139390941Y-96337598D01*
X139470130Y-96146420D01*
X139510500Y-95943465D01*
X139510500Y-95736535D01*
X139510499Y-95736530D01*
X139949500Y-95736530D01*
X139949500Y-95943469D01*
X139989868Y-96146412D01*
X139989870Y-96146420D01*
X140069058Y-96337596D01*
X140184024Y-96509657D01*
X140330342Y-96655975D01*
X140330345Y-96655977D01*
X140502402Y-96770941D01*
X140693580Y-96850130D01*
X140896530Y-96890499D01*
X140896534Y-96890500D01*
X140896535Y-96890500D01*
X141103466Y-96890500D01*
X141103467Y-96890499D01*
X141306420Y-96850130D01*
X141497598Y-96770941D01*
X141669655Y-96655977D01*
X141815977Y-96509655D01*
X141930941Y-96337598D01*
X142010130Y-96146420D01*
X142050500Y-95943465D01*
X142050500Y-95736535D01*
X142050499Y-95736530D01*
X142489500Y-95736530D01*
X142489500Y-95943469D01*
X142529868Y-96146412D01*
X142529870Y-96146420D01*
X142609058Y-96337596D01*
X142724024Y-96509657D01*
X142870342Y-96655975D01*
X142870345Y-96655977D01*
X143042402Y-96770941D01*
X143233580Y-96850130D01*
X143436530Y-96890499D01*
X143436534Y-96890500D01*
X143436535Y-96890500D01*
X143643466Y-96890500D01*
X143643467Y-96890499D01*
X143846420Y-96850130D01*
X144037598Y-96770941D01*
X144209655Y-96655977D01*
X144355977Y-96509655D01*
X144470941Y-96337598D01*
X144550130Y-96146420D01*
X144590500Y-95943465D01*
X144590500Y-95736535D01*
X144590499Y-95736530D01*
X145029500Y-95736530D01*
X145029500Y-95943469D01*
X145069868Y-96146412D01*
X145069870Y-96146420D01*
X145149058Y-96337596D01*
X145264024Y-96509657D01*
X145410342Y-96655975D01*
X145410345Y-96655977D01*
X145582402Y-96770941D01*
X145773580Y-96850130D01*
X145976530Y-96890499D01*
X145976534Y-96890500D01*
X145976535Y-96890500D01*
X146183466Y-96890500D01*
X146183467Y-96890499D01*
X146386420Y-96850130D01*
X146577598Y-96770941D01*
X146749655Y-96655977D01*
X146895977Y-96509655D01*
X147010941Y-96337598D01*
X147090130Y-96146420D01*
X147130500Y-95943465D01*
X147130500Y-95736535D01*
X147130499Y-95736530D01*
X147569500Y-95736530D01*
X147569500Y-95943469D01*
X147609868Y-96146412D01*
X147609870Y-96146420D01*
X147689058Y-96337596D01*
X147804024Y-96509657D01*
X147950342Y-96655975D01*
X147950345Y-96655977D01*
X148122402Y-96770941D01*
X148313580Y-96850130D01*
X148516530Y-96890499D01*
X148516534Y-96890500D01*
X148516535Y-96890500D01*
X148723466Y-96890500D01*
X148723467Y-96890499D01*
X148926420Y-96850130D01*
X149117598Y-96770941D01*
X149289655Y-96655977D01*
X149289658Y-96655974D01*
X149378671Y-96566962D01*
X149435974Y-96509658D01*
X149435975Y-96509657D01*
X149435977Y-96509655D01*
X149550941Y-96337598D01*
X149630130Y-96146420D01*
X149670500Y-95943465D01*
X149670500Y-95753428D01*
X150060000Y-95753428D01*
X150060000Y-95926571D01*
X150087085Y-96097584D01*
X150140591Y-96262257D01*
X150219194Y-96416521D01*
X150298097Y-96525124D01*
X150729269Y-96093952D01*
X150759901Y-96147007D01*
X150852993Y-96240099D01*
X150906046Y-96270729D01*
X150474874Y-96701901D01*
X150583478Y-96780805D01*
X150737742Y-96859408D01*
X150902415Y-96912914D01*
X151073429Y-96940000D01*
X151246571Y-96940000D01*
X151417584Y-96912914D01*
X151582257Y-96859408D01*
X151736528Y-96780801D01*
X151845124Y-96701902D01*
X151845125Y-96701901D01*
X151413953Y-96270729D01*
X151467007Y-96240099D01*
X151560099Y-96147007D01*
X151590729Y-96093953D01*
X152021901Y-96525125D01*
X152021902Y-96525124D01*
X152100801Y-96416528D01*
X152179408Y-96262257D01*
X152232914Y-96097584D01*
X152260000Y-95926571D01*
X152260000Y-95753428D01*
X152232914Y-95582415D01*
X152179408Y-95417742D01*
X152100805Y-95263478D01*
X152021901Y-95154874D01*
X151590729Y-95586046D01*
X151560099Y-95532993D01*
X151467007Y-95439901D01*
X151413952Y-95409270D01*
X151845124Y-94978097D01*
X151736521Y-94899194D01*
X151582257Y-94820591D01*
X151417584Y-94767085D01*
X151246571Y-94740000D01*
X151073429Y-94740000D01*
X150902415Y-94767085D01*
X150737742Y-94820591D01*
X150583476Y-94899195D01*
X150583474Y-94899196D01*
X150474874Y-94978096D01*
X150474874Y-94978097D01*
X150906047Y-95409270D01*
X150852993Y-95439901D01*
X150759901Y-95532993D01*
X150729270Y-95586047D01*
X150298097Y-95154874D01*
X150298096Y-95154874D01*
X150219196Y-95263474D01*
X150219195Y-95263476D01*
X150140591Y-95417742D01*
X150087085Y-95582415D01*
X150060000Y-95753428D01*
X149670500Y-95753428D01*
X149670500Y-95736535D01*
X149630130Y-95533580D01*
X149550941Y-95342402D01*
X149435977Y-95170345D01*
X149435975Y-95170342D01*
X149289657Y-95024024D01*
X149136738Y-94921848D01*
X149117598Y-94909059D01*
X149093784Y-94899195D01*
X148926420Y-94829870D01*
X148926412Y-94829868D01*
X148723469Y-94789500D01*
X148723465Y-94789500D01*
X148516535Y-94789500D01*
X148516530Y-94789500D01*
X148313587Y-94829868D01*
X148313579Y-94829870D01*
X148122403Y-94909058D01*
X147950342Y-95024024D01*
X147804024Y-95170342D01*
X147689058Y-95342403D01*
X147609870Y-95533579D01*
X147609868Y-95533587D01*
X147569500Y-95736530D01*
X147130499Y-95736530D01*
X147090130Y-95533580D01*
X147010941Y-95342402D01*
X146895977Y-95170345D01*
X146895975Y-95170342D01*
X146749657Y-95024024D01*
X146596738Y-94921848D01*
X146577598Y-94909059D01*
X146553784Y-94899195D01*
X146386420Y-94829870D01*
X146386412Y-94829868D01*
X146183469Y-94789500D01*
X146183465Y-94789500D01*
X145976535Y-94789500D01*
X145976530Y-94789500D01*
X145773587Y-94829868D01*
X145773579Y-94829870D01*
X145582403Y-94909058D01*
X145410342Y-95024024D01*
X145264024Y-95170342D01*
X145149058Y-95342403D01*
X145069870Y-95533579D01*
X145069868Y-95533587D01*
X145029500Y-95736530D01*
X144590499Y-95736530D01*
X144550130Y-95533580D01*
X144470941Y-95342402D01*
X144355977Y-95170345D01*
X144355975Y-95170342D01*
X144209657Y-95024024D01*
X144056738Y-94921848D01*
X144037598Y-94909059D01*
X144013784Y-94899195D01*
X143846420Y-94829870D01*
X143846412Y-94829868D01*
X143643469Y-94789500D01*
X143643465Y-94789500D01*
X143436535Y-94789500D01*
X143436530Y-94789500D01*
X143233587Y-94829868D01*
X143233579Y-94829870D01*
X143042403Y-94909058D01*
X142870342Y-95024024D01*
X142724024Y-95170342D01*
X142609058Y-95342403D01*
X142529870Y-95533579D01*
X142529868Y-95533587D01*
X142489500Y-95736530D01*
X142050499Y-95736530D01*
X142010130Y-95533580D01*
X141930941Y-95342402D01*
X141815977Y-95170345D01*
X141815975Y-95170342D01*
X141669657Y-95024024D01*
X141516738Y-94921848D01*
X141497598Y-94909059D01*
X141473784Y-94899195D01*
X141306420Y-94829870D01*
X141306412Y-94829868D01*
X141103469Y-94789500D01*
X141103465Y-94789500D01*
X140896535Y-94789500D01*
X140896530Y-94789500D01*
X140693587Y-94829868D01*
X140693579Y-94829870D01*
X140502403Y-94909058D01*
X140330342Y-95024024D01*
X140184024Y-95170342D01*
X140069058Y-95342403D01*
X139989870Y-95533579D01*
X139989868Y-95533587D01*
X139949500Y-95736530D01*
X139510499Y-95736530D01*
X139470130Y-95533580D01*
X139390941Y-95342402D01*
X139275977Y-95170345D01*
X139275975Y-95170342D01*
X139129657Y-95024024D01*
X138976738Y-94921848D01*
X138957598Y-94909059D01*
X138933784Y-94899195D01*
X138766420Y-94829870D01*
X138766412Y-94829868D01*
X138563469Y-94789500D01*
X138563465Y-94789500D01*
X138356535Y-94789500D01*
X138356530Y-94789500D01*
X138153587Y-94829868D01*
X138153579Y-94829870D01*
X137962403Y-94909058D01*
X137790342Y-95024024D01*
X137644024Y-95170342D01*
X137529058Y-95342403D01*
X137449870Y-95533579D01*
X137449868Y-95533587D01*
X137409500Y-95736530D01*
X136970499Y-95736530D01*
X136930130Y-95533580D01*
X136850941Y-95342402D01*
X136735977Y-95170345D01*
X136735975Y-95170342D01*
X136589657Y-95024024D01*
X136436738Y-94921848D01*
X136417598Y-94909059D01*
X136393784Y-94899195D01*
X136226420Y-94829870D01*
X136226412Y-94829868D01*
X136023469Y-94789500D01*
X136023465Y-94789500D01*
X135816535Y-94789500D01*
X135816530Y-94789500D01*
X135613587Y-94829868D01*
X135613579Y-94829870D01*
X135422403Y-94909058D01*
X135250342Y-95024024D01*
X135104024Y-95170342D01*
X134989058Y-95342403D01*
X134909870Y-95533579D01*
X134909868Y-95533587D01*
X134869500Y-95736530D01*
X134430499Y-95736530D01*
X134390130Y-95533580D01*
X134310941Y-95342402D01*
X134195977Y-95170345D01*
X134195975Y-95170342D01*
X134049657Y-95024024D01*
X133896738Y-94921848D01*
X133877598Y-94909059D01*
X133853784Y-94899195D01*
X133686420Y-94829870D01*
X133686412Y-94829868D01*
X133483469Y-94789500D01*
X133483465Y-94789500D01*
X133276535Y-94789500D01*
X133276530Y-94789500D01*
X133073587Y-94829868D01*
X133073579Y-94829870D01*
X132882403Y-94909058D01*
X132710342Y-95024024D01*
X132564024Y-95170342D01*
X132449058Y-95342403D01*
X132369870Y-95533579D01*
X132369868Y-95533587D01*
X132329500Y-95736530D01*
X131890499Y-95736530D01*
X131850130Y-95533580D01*
X131770941Y-95342402D01*
X131655977Y-95170345D01*
X131655975Y-95170342D01*
X131509657Y-95024024D01*
X131356738Y-94921848D01*
X131337598Y-94909059D01*
X131313784Y-94899195D01*
X131146420Y-94829870D01*
X131146412Y-94829868D01*
X130943469Y-94789500D01*
X130943465Y-94789500D01*
X130736535Y-94789500D01*
X130736530Y-94789500D01*
X130533587Y-94829868D01*
X130533579Y-94829870D01*
X130342403Y-94909058D01*
X130170342Y-95024024D01*
X130024024Y-95170342D01*
X129909058Y-95342403D01*
X129829870Y-95533579D01*
X129829868Y-95533587D01*
X129789500Y-95736530D01*
X124000500Y-95736530D01*
X124000500Y-85030148D01*
X130309500Y-85030148D01*
X130309500Y-85234851D01*
X130341522Y-85437034D01*
X130404781Y-85631723D01*
X130497715Y-85814113D01*
X130618028Y-85979713D01*
X130762786Y-86124471D01*
X130917749Y-86237056D01*
X130928390Y-86244787D01*
X131044607Y-86304003D01*
X131110776Y-86337718D01*
X131110778Y-86337718D01*
X131110781Y-86337720D01*
X131215137Y-86371627D01*
X131305465Y-86400977D01*
X131406557Y-86416988D01*
X131507648Y-86433000D01*
X131507649Y-86433000D01*
X131712351Y-86433000D01*
X131712352Y-86433000D01*
X131914534Y-86400977D01*
X132109219Y-86337720D01*
X132291610Y-86244787D01*
X132384590Y-86177232D01*
X132457213Y-86124471D01*
X132457215Y-86124468D01*
X132457219Y-86124466D01*
X132601966Y-85979719D01*
X132601968Y-85979715D01*
X132601971Y-85979713D01*
X132722284Y-85814114D01*
X132722285Y-85814113D01*
X132722287Y-85814110D01*
X132769516Y-85721417D01*
X132817489Y-85670623D01*
X132885310Y-85653828D01*
X132951445Y-85676365D01*
X132990485Y-85721419D01*
X133037715Y-85814114D01*
X133158028Y-85979713D01*
X133302786Y-86124471D01*
X133457749Y-86237056D01*
X133468390Y-86244787D01*
X133584607Y-86304003D01*
X133650776Y-86337718D01*
X133650778Y-86337718D01*
X133650781Y-86337720D01*
X133755137Y-86371627D01*
X133845465Y-86400977D01*
X133946557Y-86416988D01*
X134047648Y-86433000D01*
X134047649Y-86433000D01*
X134252351Y-86433000D01*
X134252352Y-86433000D01*
X134454534Y-86400977D01*
X134649219Y-86337720D01*
X134831610Y-86244787D01*
X134924590Y-86177232D01*
X134997213Y-86124471D01*
X134997215Y-86124468D01*
X134997219Y-86124466D01*
X135141966Y-85979719D01*
X135141968Y-85979715D01*
X135141971Y-85979713D01*
X135262284Y-85814114D01*
X135262285Y-85814113D01*
X135262287Y-85814110D01*
X135309516Y-85721417D01*
X135357489Y-85670623D01*
X135425310Y-85653828D01*
X135491445Y-85676365D01*
X135530485Y-85721419D01*
X135577715Y-85814114D01*
X135698028Y-85979713D01*
X135842786Y-86124471D01*
X135997749Y-86237056D01*
X136008390Y-86244787D01*
X136124607Y-86304003D01*
X136190776Y-86337718D01*
X136190778Y-86337718D01*
X136190781Y-86337720D01*
X136295137Y-86371627D01*
X136385465Y-86400977D01*
X136486557Y-86416988D01*
X136587648Y-86433000D01*
X136587649Y-86433000D01*
X136792351Y-86433000D01*
X136792352Y-86433000D01*
X136994534Y-86400977D01*
X137189219Y-86337720D01*
X137371610Y-86244787D01*
X137464590Y-86177232D01*
X137537213Y-86124471D01*
X137537215Y-86124468D01*
X137537219Y-86124466D01*
X137681966Y-85979719D01*
X137681968Y-85979715D01*
X137681971Y-85979713D01*
X137802284Y-85814114D01*
X137802285Y-85814113D01*
X137802287Y-85814110D01*
X137849516Y-85721417D01*
X137897489Y-85670623D01*
X137965310Y-85653828D01*
X138031445Y-85676365D01*
X138070485Y-85721419D01*
X138117715Y-85814114D01*
X138238028Y-85979713D01*
X138382786Y-86124471D01*
X138537749Y-86237056D01*
X138548390Y-86244787D01*
X138664607Y-86304003D01*
X138730776Y-86337718D01*
X138730778Y-86337718D01*
X138730781Y-86337720D01*
X138835137Y-86371627D01*
X138925465Y-86400977D01*
X139026557Y-86416988D01*
X139127648Y-86433000D01*
X139127649Y-86433000D01*
X139332351Y-86433000D01*
X139332352Y-86433000D01*
X139534534Y-86400977D01*
X139729219Y-86337720D01*
X139911610Y-86244787D01*
X140004590Y-86177232D01*
X140077213Y-86124471D01*
X140077215Y-86124468D01*
X140077219Y-86124466D01*
X140221966Y-85979719D01*
X140221968Y-85979715D01*
X140221971Y-85979713D01*
X140342284Y-85814114D01*
X140342285Y-85814113D01*
X140342287Y-85814110D01*
X140389516Y-85721417D01*
X140437489Y-85670623D01*
X140505310Y-85653828D01*
X140571445Y-85676365D01*
X140610485Y-85721419D01*
X140657715Y-85814114D01*
X140778028Y-85979713D01*
X140922786Y-86124471D01*
X141077749Y-86237056D01*
X141088390Y-86244787D01*
X141204607Y-86304003D01*
X141270776Y-86337718D01*
X141270778Y-86337718D01*
X141270781Y-86337720D01*
X141375137Y-86371627D01*
X141465465Y-86400977D01*
X141566557Y-86416988D01*
X141667648Y-86433000D01*
X141667649Y-86433000D01*
X141872351Y-86433000D01*
X141872352Y-86433000D01*
X142074534Y-86400977D01*
X142269219Y-86337720D01*
X142451610Y-86244787D01*
X142544590Y-86177232D01*
X142617213Y-86124471D01*
X142617215Y-86124468D01*
X142617219Y-86124466D01*
X142761966Y-85979719D01*
X142761968Y-85979715D01*
X142761971Y-85979713D01*
X142882284Y-85814114D01*
X142882285Y-85814113D01*
X142882287Y-85814110D01*
X142929516Y-85721417D01*
X142977489Y-85670623D01*
X143045310Y-85653828D01*
X143111445Y-85676365D01*
X143150485Y-85721419D01*
X143197715Y-85814114D01*
X143318028Y-85979713D01*
X143462786Y-86124471D01*
X143617749Y-86237056D01*
X143628390Y-86244787D01*
X143744607Y-86304003D01*
X143810776Y-86337718D01*
X143810778Y-86337718D01*
X143810781Y-86337720D01*
X143915137Y-86371627D01*
X144005465Y-86400977D01*
X144106557Y-86416988D01*
X144207648Y-86433000D01*
X144207649Y-86433000D01*
X144412351Y-86433000D01*
X144412352Y-86433000D01*
X144614534Y-86400977D01*
X144809219Y-86337720D01*
X144991610Y-86244787D01*
X145084590Y-86177232D01*
X145157213Y-86124471D01*
X145157215Y-86124468D01*
X145157219Y-86124466D01*
X145301966Y-85979719D01*
X145301968Y-85979715D01*
X145301971Y-85979713D01*
X145422284Y-85814114D01*
X145422285Y-85814113D01*
X145422287Y-85814110D01*
X145469516Y-85721417D01*
X145517489Y-85670623D01*
X145585310Y-85653828D01*
X145651445Y-85676365D01*
X145690485Y-85721419D01*
X145737715Y-85814114D01*
X145858028Y-85979713D01*
X146002786Y-86124471D01*
X146157749Y-86237056D01*
X146168390Y-86244787D01*
X146284607Y-86304003D01*
X146350776Y-86337718D01*
X146350778Y-86337718D01*
X146350781Y-86337720D01*
X146455137Y-86371627D01*
X146545465Y-86400977D01*
X146646557Y-86416988D01*
X146747648Y-86433000D01*
X146747649Y-86433000D01*
X146952351Y-86433000D01*
X146952352Y-86433000D01*
X147154534Y-86400977D01*
X147349219Y-86337720D01*
X147531610Y-86244787D01*
X147624590Y-86177232D01*
X147697213Y-86124471D01*
X147697215Y-86124468D01*
X147697219Y-86124466D01*
X147841966Y-85979719D01*
X147865180Y-85947766D01*
X147920508Y-85905099D01*
X147990121Y-85899118D01*
X148051918Y-85931722D01*
X148086277Y-85992560D01*
X148089500Y-86020642D01*
X148089500Y-86036758D01*
X148089501Y-86036766D01*
X148092354Y-86067200D01*
X148092354Y-86067202D01*
X148092355Y-86067203D01*
X148092355Y-86067205D01*
X148137206Y-86195382D01*
X148217849Y-86304650D01*
X148262655Y-86337718D01*
X148327117Y-86385293D01*
X148369844Y-86400244D01*
X148455298Y-86430146D01*
X148462323Y-86430804D01*
X148485733Y-86433000D01*
X150294266Y-86432999D01*
X150324700Y-86430146D01*
X150452883Y-86385293D01*
X150562150Y-86304650D01*
X150642793Y-86195383D01*
X150667608Y-86124466D01*
X150687646Y-86067202D01*
X150687646Y-86067200D01*
X150690500Y-86036767D01*
X150690499Y-84228234D01*
X150687646Y-84197800D01*
X150642793Y-84069617D01*
X150606331Y-84020213D01*
X150562150Y-83960349D01*
X150488123Y-83905715D01*
X150452883Y-83879707D01*
X150452881Y-83879706D01*
X150324701Y-83834853D01*
X150294270Y-83832000D01*
X148485739Y-83832000D01*
X148471751Y-83833311D01*
X148455300Y-83834854D01*
X148455297Y-83834854D01*
X148455296Y-83834855D01*
X148455294Y-83834855D01*
X148327117Y-83879706D01*
X148217849Y-83960349D01*
X148137206Y-84069618D01*
X148092353Y-84197797D01*
X148092353Y-84197799D01*
X148089500Y-84228229D01*
X148089500Y-84244349D01*
X148069815Y-84311388D01*
X148017011Y-84357143D01*
X147947853Y-84367087D01*
X147884297Y-84338062D01*
X147865182Y-84317234D01*
X147841971Y-84285286D01*
X147697213Y-84140528D01*
X147531613Y-84020215D01*
X147531612Y-84020214D01*
X147531610Y-84020213D01*
X147474653Y-83991191D01*
X147349223Y-83927281D01*
X147154534Y-83864022D01*
X146970371Y-83834854D01*
X146952352Y-83832000D01*
X146747648Y-83832000D01*
X146729635Y-83834853D01*
X146545465Y-83864022D01*
X146350776Y-83927281D01*
X146168386Y-84020215D01*
X146002786Y-84140528D01*
X145858028Y-84285286D01*
X145737715Y-84450886D01*
X145690485Y-84543580D01*
X145642510Y-84594376D01*
X145574689Y-84611171D01*
X145508554Y-84588634D01*
X145469515Y-84543580D01*
X145468883Y-84542340D01*
X145422287Y-84450890D01*
X145414556Y-84440249D01*
X145301971Y-84285286D01*
X145157213Y-84140528D01*
X144991613Y-84020215D01*
X144991612Y-84020214D01*
X144991610Y-84020213D01*
X144934653Y-83991191D01*
X144809223Y-83927281D01*
X144614534Y-83864022D01*
X144430371Y-83834854D01*
X144412352Y-83832000D01*
X144207648Y-83832000D01*
X144189635Y-83834853D01*
X144005465Y-83864022D01*
X143810776Y-83927281D01*
X143628386Y-84020215D01*
X143462786Y-84140528D01*
X143318028Y-84285286D01*
X143197715Y-84450886D01*
X143150485Y-84543580D01*
X143102510Y-84594376D01*
X143034689Y-84611171D01*
X142968554Y-84588634D01*
X142929515Y-84543580D01*
X142928883Y-84542340D01*
X142882287Y-84450890D01*
X142874556Y-84440249D01*
X142761971Y-84285286D01*
X142617213Y-84140528D01*
X142451613Y-84020215D01*
X142451612Y-84020214D01*
X142451610Y-84020213D01*
X142394653Y-83991191D01*
X142269223Y-83927281D01*
X142074534Y-83864022D01*
X141890371Y-83834854D01*
X141872352Y-83832000D01*
X141667648Y-83832000D01*
X141649635Y-83834853D01*
X141465465Y-83864022D01*
X141270776Y-83927281D01*
X141088386Y-84020215D01*
X140922786Y-84140528D01*
X140778028Y-84285286D01*
X140657715Y-84450886D01*
X140610485Y-84543580D01*
X140562510Y-84594376D01*
X140494689Y-84611171D01*
X140428554Y-84588634D01*
X140389515Y-84543580D01*
X140388883Y-84542340D01*
X140342287Y-84450890D01*
X140334556Y-84440249D01*
X140221971Y-84285286D01*
X140077213Y-84140528D01*
X139911613Y-84020215D01*
X139911612Y-84020214D01*
X139911610Y-84020213D01*
X139854653Y-83991191D01*
X139729223Y-83927281D01*
X139534534Y-83864022D01*
X139350371Y-83834854D01*
X139332352Y-83832000D01*
X139127648Y-83832000D01*
X139109635Y-83834853D01*
X138925465Y-83864022D01*
X138730776Y-83927281D01*
X138548386Y-84020215D01*
X138382786Y-84140528D01*
X138238028Y-84285286D01*
X138117715Y-84450886D01*
X138070485Y-84543580D01*
X138022510Y-84594376D01*
X137954689Y-84611171D01*
X137888554Y-84588634D01*
X137849515Y-84543580D01*
X137848883Y-84542340D01*
X137802287Y-84450890D01*
X137794556Y-84440249D01*
X137681971Y-84285286D01*
X137537213Y-84140528D01*
X137371613Y-84020215D01*
X137371612Y-84020214D01*
X137371610Y-84020213D01*
X137314653Y-83991191D01*
X137189223Y-83927281D01*
X136994534Y-83864022D01*
X136810371Y-83834854D01*
X136792352Y-83832000D01*
X136587648Y-83832000D01*
X136569635Y-83834853D01*
X136385465Y-83864022D01*
X136190776Y-83927281D01*
X136008386Y-84020215D01*
X135842786Y-84140528D01*
X135698028Y-84285286D01*
X135577715Y-84450886D01*
X135530485Y-84543580D01*
X135482510Y-84594376D01*
X135414689Y-84611171D01*
X135348554Y-84588634D01*
X135309515Y-84543580D01*
X135308883Y-84542340D01*
X135262287Y-84450890D01*
X135254556Y-84440249D01*
X135141971Y-84285286D01*
X134997213Y-84140528D01*
X134831613Y-84020215D01*
X134831612Y-84020214D01*
X134831610Y-84020213D01*
X134774653Y-83991191D01*
X134649223Y-83927281D01*
X134454534Y-83864022D01*
X134270371Y-83834854D01*
X134252352Y-83832000D01*
X134047648Y-83832000D01*
X134029635Y-83834853D01*
X133845465Y-83864022D01*
X133650776Y-83927281D01*
X133468386Y-84020215D01*
X133302786Y-84140528D01*
X133158028Y-84285286D01*
X133037715Y-84450886D01*
X132990485Y-84543580D01*
X132942510Y-84594376D01*
X132874689Y-84611171D01*
X132808554Y-84588634D01*
X132769515Y-84543580D01*
X132768883Y-84542340D01*
X132722287Y-84450890D01*
X132714556Y-84440249D01*
X132601971Y-84285286D01*
X132457213Y-84140528D01*
X132291613Y-84020215D01*
X132291612Y-84020214D01*
X132291610Y-84020213D01*
X132234653Y-83991191D01*
X132109223Y-83927281D01*
X131914534Y-83864022D01*
X131730371Y-83834854D01*
X131712352Y-83832000D01*
X131507648Y-83832000D01*
X131489635Y-83834853D01*
X131305465Y-83864022D01*
X131110776Y-83927281D01*
X130928386Y-84020215D01*
X130762786Y-84140528D01*
X130618028Y-84285286D01*
X130497715Y-84450886D01*
X130404781Y-84633276D01*
X130341522Y-84827965D01*
X130309500Y-85030148D01*
X124000500Y-85030148D01*
X124000500Y-77384108D01*
X152499500Y-77384108D01*
X152499500Y-77515891D01*
X152533608Y-77643187D01*
X152566554Y-77700250D01*
X152599500Y-77757314D01*
X152599502Y-77757316D01*
X152663181Y-77820995D01*
X152696666Y-77882318D01*
X152699500Y-77908676D01*
X152699500Y-95049562D01*
X152709739Y-95087775D01*
X152719979Y-95125991D01*
X152719981Y-95125994D01*
X152745586Y-95170342D01*
X152745587Y-95170345D01*
X152759535Y-95194504D01*
X152759541Y-95194512D01*
X156453181Y-98888152D01*
X156486666Y-98949475D01*
X156489500Y-98975833D01*
X156489500Y-99065891D01*
X156523608Y-99193187D01*
X156550901Y-99240459D01*
X156589500Y-99307314D01*
X156682686Y-99400500D01*
X156796814Y-99466392D01*
X156924108Y-99500500D01*
X156924110Y-99500500D01*
X157055890Y-99500500D01*
X157055892Y-99500500D01*
X157183186Y-99466392D01*
X157297314Y-99400500D01*
X157390500Y-99307314D01*
X157456392Y-99193186D01*
X157490500Y-99065892D01*
X157490500Y-98934108D01*
X157456392Y-98806814D01*
X157390500Y-98692686D01*
X157297314Y-98599500D01*
X157240250Y-98566554D01*
X157183187Y-98533608D01*
X157119539Y-98516554D01*
X157055892Y-98499500D01*
X156965833Y-98499500D01*
X156898794Y-98479815D01*
X156878152Y-98463181D01*
X153336819Y-94921848D01*
X153303334Y-94860525D01*
X153300500Y-94834167D01*
X153300500Y-90409108D01*
X161499500Y-90409108D01*
X161499500Y-99065891D01*
X161533608Y-99193187D01*
X161560901Y-99240459D01*
X161599500Y-99307314D01*
X161599502Y-99307316D01*
X167463181Y-105170995D01*
X167496666Y-105232318D01*
X167499500Y-105258676D01*
X167499500Y-108565891D01*
X167533608Y-108693187D01*
X167564475Y-108746649D01*
X167599500Y-108807314D01*
X167692686Y-108900500D01*
X167806814Y-108966392D01*
X167934108Y-109000500D01*
X167934110Y-109000500D01*
X168065890Y-109000500D01*
X168065892Y-109000500D01*
X168193186Y-108966392D01*
X168307314Y-108900500D01*
X168400500Y-108807314D01*
X168900500Y-108307314D01*
X168966392Y-108193186D01*
X169000500Y-108065892D01*
X169000500Y-107934107D01*
X169000500Y-107860247D01*
X188559500Y-107860247D01*
X188559500Y-110099752D01*
X188571131Y-110158229D01*
X188571132Y-110158230D01*
X188615447Y-110224552D01*
X188681769Y-110268867D01*
X188681770Y-110268868D01*
X188740247Y-110280499D01*
X188740250Y-110280500D01*
X188740252Y-110280500D01*
X190979750Y-110280500D01*
X190979751Y-110280499D01*
X190994568Y-110277552D01*
X191038229Y-110268868D01*
X191038229Y-110268867D01*
X191038231Y-110268867D01*
X191104552Y-110224552D01*
X191148867Y-110158231D01*
X191148867Y-110158229D01*
X191148868Y-110158229D01*
X191160499Y-110099752D01*
X191160500Y-110099750D01*
X191160500Y-108855000D01*
X203752970Y-108855000D01*
X204309191Y-108855000D01*
X204300000Y-108901207D01*
X204300000Y-109058793D01*
X204309191Y-109105000D01*
X203752970Y-109105000D01*
X203783242Y-109296127D01*
X203783242Y-109296130D01*
X203848904Y-109498217D01*
X203945379Y-109687557D01*
X204070272Y-109859459D01*
X204070276Y-109859464D01*
X204220535Y-110009723D01*
X204220540Y-110009727D01*
X204392442Y-110134620D01*
X204581782Y-110231095D01*
X204783872Y-110296757D01*
X204975000Y-110327029D01*
X204975000Y-109770809D01*
X205021207Y-109780000D01*
X205178793Y-109780000D01*
X205225000Y-109770809D01*
X205225000Y-110327028D01*
X205416127Y-110296757D01*
X205618217Y-110231095D01*
X205807557Y-110134620D01*
X205979459Y-110009727D01*
X205979464Y-110009723D01*
X206129723Y-109859464D01*
X206129727Y-109859459D01*
X206254620Y-109687557D01*
X206351095Y-109498217D01*
X206416757Y-109296130D01*
X206416757Y-109296127D01*
X206447030Y-109105000D01*
X205890809Y-109105000D01*
X205900000Y-109058793D01*
X205900000Y-108901207D01*
X205890809Y-108855000D01*
X206447030Y-108855000D01*
X206416757Y-108663872D01*
X206416757Y-108663869D01*
X206351095Y-108461782D01*
X206254620Y-108272442D01*
X206129727Y-108100540D01*
X206129723Y-108100535D01*
X205979464Y-107950276D01*
X205979459Y-107950272D01*
X205807557Y-107825379D01*
X205618217Y-107728904D01*
X205416128Y-107663242D01*
X205225000Y-107632969D01*
X205225000Y-108189190D01*
X205178793Y-108180000D01*
X205021207Y-108180000D01*
X204975000Y-108189190D01*
X204975000Y-107632969D01*
X204783872Y-107663242D01*
X204783869Y-107663242D01*
X204581782Y-107728904D01*
X204392442Y-107825379D01*
X204220540Y-107950272D01*
X204220535Y-107950276D01*
X204070276Y-108100535D01*
X204070272Y-108100540D01*
X203945379Y-108272442D01*
X203848904Y-108461782D01*
X203783242Y-108663869D01*
X203783242Y-108663872D01*
X203752970Y-108855000D01*
X191160500Y-108855000D01*
X191160500Y-107860249D01*
X191160499Y-107860247D01*
X191148868Y-107801770D01*
X191148867Y-107801769D01*
X191104552Y-107735447D01*
X191038230Y-107691132D01*
X191038229Y-107691131D01*
X190979752Y-107679500D01*
X190979748Y-107679500D01*
X188740252Y-107679500D01*
X188740247Y-107679500D01*
X188681770Y-107691131D01*
X188681769Y-107691132D01*
X188615447Y-107735447D01*
X188571132Y-107801769D01*
X188571131Y-107801770D01*
X188559500Y-107860247D01*
X169000500Y-107860247D01*
X169000500Y-105434108D01*
X168966392Y-105306814D01*
X168900500Y-105192686D01*
X168807314Y-105099500D01*
X168693186Y-105033608D01*
X168583469Y-105004209D01*
X168523810Y-104967845D01*
X168495789Y-104916528D01*
X168466391Y-104806812D01*
X168457563Y-104791521D01*
X168400500Y-104692686D01*
X168307314Y-104599500D01*
X163919995Y-100212181D01*
X163886510Y-100150858D01*
X163891494Y-100081166D01*
X163933366Y-100025233D01*
X163998830Y-100000816D01*
X164007676Y-100000500D01*
X164065890Y-100000500D01*
X164065892Y-100000500D01*
X164193186Y-99966392D01*
X164307314Y-99900500D01*
X164370995Y-99836819D01*
X164432318Y-99803334D01*
X164458676Y-99800500D01*
X165824167Y-99800500D01*
X165891206Y-99820185D01*
X165911848Y-99836819D01*
X172463181Y-106388152D01*
X172496666Y-106449475D01*
X172499500Y-106475833D01*
X172499500Y-106565891D01*
X172533608Y-106693187D01*
X172566554Y-106750250D01*
X172599500Y-106807314D01*
X172692686Y-106900500D01*
X172806814Y-106966392D01*
X172934108Y-107000500D01*
X172934110Y-107000500D01*
X173065890Y-107000500D01*
X173065892Y-107000500D01*
X173193186Y-106966392D01*
X173307314Y-106900500D01*
X173400500Y-106807314D01*
X173466392Y-106693186D01*
X173500500Y-106565892D01*
X173500500Y-106434108D01*
X173466392Y-106306814D01*
X173400500Y-106192686D01*
X173307314Y-106099500D01*
X173250250Y-106066554D01*
X173193187Y-106033608D01*
X173129539Y-106016554D01*
X173065892Y-105999500D01*
X172975833Y-105999500D01*
X172908794Y-105979815D01*
X172888152Y-105963181D01*
X166184512Y-99259541D01*
X166184507Y-99259537D01*
X166151462Y-99240459D01*
X166151462Y-99240458D01*
X166151460Y-99240458D01*
X166139083Y-99233312D01*
X166115990Y-99219979D01*
X166115991Y-99219979D01*
X166077775Y-99209739D01*
X166039562Y-99199500D01*
X166039560Y-99199500D01*
X164458676Y-99199500D01*
X164391637Y-99179815D01*
X164370995Y-99163181D01*
X164307316Y-99099502D01*
X164307314Y-99099500D01*
X164249100Y-99065890D01*
X164193187Y-99033608D01*
X164129539Y-99016554D01*
X164065892Y-98999500D01*
X163934108Y-98999500D01*
X163806812Y-99033608D01*
X163692686Y-99099500D01*
X163692683Y-99099502D01*
X163599502Y-99192683D01*
X163599500Y-99192686D01*
X163533608Y-99306812D01*
X163499500Y-99434108D01*
X163499500Y-99492324D01*
X163479815Y-99559363D01*
X163427011Y-99605118D01*
X163357853Y-99615062D01*
X163294297Y-99586037D01*
X163287819Y-99580005D01*
X162536819Y-98829005D01*
X162503334Y-98767682D01*
X162500500Y-98741324D01*
X162500500Y-94907648D01*
X197289500Y-94907648D01*
X197289500Y-95112351D01*
X197321522Y-95314534D01*
X197384781Y-95509223D01*
X197477715Y-95691613D01*
X197598028Y-95857213D01*
X197742786Y-96001971D01*
X197874389Y-96097584D01*
X197908390Y-96122287D01*
X198024607Y-96181503D01*
X198090776Y-96215218D01*
X198090778Y-96215218D01*
X198090781Y-96215220D01*
X198167351Y-96240099D01*
X198285465Y-96278477D01*
X198386557Y-96294488D01*
X198487648Y-96310500D01*
X198487649Y-96310500D01*
X198692351Y-96310500D01*
X198692352Y-96310500D01*
X198894534Y-96278477D01*
X199089219Y-96215220D01*
X199271610Y-96122287D01*
X199416835Y-96016776D01*
X199437213Y-96001971D01*
X199437215Y-96001968D01*
X199437219Y-96001966D01*
X199581966Y-95857219D01*
X199581968Y-95857215D01*
X199581971Y-95857213D01*
X199669651Y-95736530D01*
X199702287Y-95691610D01*
X199795220Y-95509219D01*
X199858477Y-95314534D01*
X199890500Y-95112352D01*
X199890500Y-94907648D01*
X199858477Y-94705466D01*
X199795220Y-94510781D01*
X199795218Y-94510778D01*
X199795218Y-94510776D01*
X199761503Y-94444607D01*
X199702287Y-94328390D01*
X199694556Y-94317749D01*
X199581971Y-94162786D01*
X199437213Y-94018028D01*
X199271613Y-93897715D01*
X199271612Y-93897714D01*
X199271610Y-93897713D01*
X199214653Y-93868691D01*
X199089223Y-93804781D01*
X198894534Y-93741522D01*
X198719995Y-93713878D01*
X198692352Y-93709500D01*
X198487648Y-93709500D01*
X198463329Y-93713351D01*
X198285465Y-93741522D01*
X198090776Y-93804781D01*
X197908386Y-93897715D01*
X197742786Y-94018028D01*
X197598028Y-94162786D01*
X197477715Y-94328386D01*
X197384781Y-94510776D01*
X197321522Y-94705465D01*
X197289500Y-94907648D01*
X162500500Y-94907648D01*
X162500500Y-90409110D01*
X162500500Y-90409108D01*
X162466392Y-90281814D01*
X162400500Y-90167686D01*
X162307314Y-90074500D01*
X162250250Y-90041554D01*
X162193187Y-90008608D01*
X162129539Y-89991554D01*
X162065892Y-89974500D01*
X161934108Y-89974500D01*
X161806812Y-90008608D01*
X161692686Y-90074500D01*
X161692683Y-90074502D01*
X161599502Y-90167683D01*
X161599500Y-90167686D01*
X161533608Y-90281812D01*
X161499500Y-90409108D01*
X153300500Y-90409108D01*
X153300500Y-77908676D01*
X153320185Y-77841637D01*
X153336819Y-77820995D01*
X153400500Y-77757314D01*
X153466392Y-77643186D01*
X153500500Y-77515892D01*
X153500500Y-77384108D01*
X153466392Y-77256814D01*
X153400500Y-77142686D01*
X153307314Y-77049500D01*
X153250250Y-77016554D01*
X153193187Y-76983608D01*
X153129539Y-76966554D01*
X153065892Y-76949500D01*
X152934108Y-76949500D01*
X152806812Y-76983608D01*
X152692686Y-77049500D01*
X152692683Y-77049502D01*
X152599502Y-77142683D01*
X152599500Y-77142686D01*
X152533608Y-77256812D01*
X152499500Y-77384108D01*
X124000500Y-77384108D01*
X124000500Y-73378711D01*
X125649500Y-73378711D01*
X125649500Y-73621288D01*
X125681161Y-73861785D01*
X125743947Y-74096104D01*
X125835653Y-74317500D01*
X125836776Y-74320212D01*
X125958064Y-74530289D01*
X125958066Y-74530292D01*
X125958067Y-74530293D01*
X126105733Y-74722736D01*
X126105739Y-74722743D01*
X126277256Y-74894260D01*
X126277263Y-74894266D01*
X126380844Y-74973746D01*
X126469711Y-75041936D01*
X126679788Y-75163224D01*
X126903900Y-75256054D01*
X127138211Y-75318838D01*
X127318586Y-75342584D01*
X127378711Y-75350500D01*
X127378712Y-75350500D01*
X127621289Y-75350500D01*
X127669388Y-75344167D01*
X127861789Y-75318838D01*
X128096100Y-75256054D01*
X128320212Y-75163224D01*
X128530289Y-75041936D01*
X128722738Y-74894265D01*
X128722743Y-74894260D01*
X128763547Y-74853457D01*
X128894260Y-74722743D01*
X128894265Y-74722738D01*
X129041936Y-74530289D01*
X129163224Y-74320212D01*
X129256054Y-74096100D01*
X129289935Y-73969654D01*
X157260000Y-73969654D01*
X157260000Y-74742500D01*
X158074092Y-74742500D01*
X158060000Y-74795091D01*
X158060000Y-74939909D01*
X158074092Y-74992500D01*
X157260001Y-74992500D01*
X157260001Y-75765331D01*
X157266401Y-75824876D01*
X157316645Y-75959586D01*
X157316646Y-75959588D01*
X157402810Y-76074689D01*
X157517911Y-76160853D01*
X157517913Y-76160854D01*
X157652624Y-76211098D01*
X157652623Y-76211098D01*
X157712163Y-76217499D01*
X158484999Y-76217499D01*
X158485000Y-76217498D01*
X158485000Y-75403408D01*
X158537591Y-75417500D01*
X158682409Y-75417500D01*
X158735000Y-75403408D01*
X158735000Y-76217499D01*
X159507825Y-76217499D01*
X159507831Y-76217498D01*
X159567376Y-76211098D01*
X159702086Y-76160854D01*
X159702088Y-76160853D01*
X159817189Y-76074689D01*
X159903353Y-75959588D01*
X159903354Y-75959586D01*
X159953594Y-75824886D01*
X159953714Y-75824387D01*
X159953904Y-75824053D01*
X159956242Y-75817788D01*
X159956280Y-75817685D01*
X159957331Y-75818076D01*
X159970951Y-75794315D01*
X159988198Y-75764024D01*
X159988366Y-75763935D01*
X159988461Y-75763771D01*
X160019342Y-75747729D01*
X160050107Y-75731634D01*
X160050356Y-75731619D01*
X160050465Y-75731563D01*
X160050794Y-75731593D01*
X160084037Y-75729631D01*
X160109119Y-75731604D01*
X160682667Y-75158056D01*
X160709890Y-75205208D01*
X160812292Y-75307610D01*
X160859442Y-75334832D01*
X160285893Y-75908380D01*
X160442445Y-76022122D01*
X160631782Y-76118595D01*
X160833870Y-76184257D01*
X161043754Y-76217500D01*
X161256246Y-76217500D01*
X161466127Y-76184257D01*
X161466130Y-76184257D01*
X161668217Y-76118595D01*
X161857554Y-76022122D01*
X162014104Y-75908380D01*
X162014105Y-75908380D01*
X161440556Y-75334832D01*
X161487708Y-75307610D01*
X161590110Y-75205208D01*
X161617332Y-75158056D01*
X162190880Y-75731605D01*
X162190880Y-75731604D01*
X162304622Y-75575054D01*
X162309514Y-75565454D01*
X162357488Y-75514657D01*
X162425308Y-75497861D01*
X162491444Y-75520397D01*
X162530486Y-75565454D01*
X162535377Y-75575054D01*
X162649118Y-75731604D01*
X162649119Y-75731605D01*
X163222667Y-75158056D01*
X163249890Y-75205208D01*
X163352292Y-75307610D01*
X163399442Y-75334832D01*
X162825893Y-75908380D01*
X162982445Y-76022122D01*
X163171782Y-76118595D01*
X163373870Y-76184257D01*
X163583754Y-76217500D01*
X163796246Y-76217500D01*
X164006127Y-76184257D01*
X164006130Y-76184257D01*
X164208217Y-76118595D01*
X164397554Y-76022122D01*
X164554104Y-75908380D01*
X164554105Y-75908380D01*
X163980556Y-75334832D01*
X164027708Y-75307610D01*
X164130110Y-75205208D01*
X164157332Y-75158056D01*
X164730880Y-75731605D01*
X164730880Y-75731604D01*
X164844622Y-75575054D01*
X164849514Y-75565454D01*
X164897488Y-75514657D01*
X164965308Y-75497861D01*
X165031444Y-75520397D01*
X165070486Y-75565454D01*
X165075377Y-75575054D01*
X165189118Y-75731604D01*
X165189119Y-75731605D01*
X165762667Y-75158056D01*
X165789890Y-75205208D01*
X165892292Y-75307610D01*
X165939442Y-75334832D01*
X165365893Y-75908380D01*
X165522445Y-76022122D01*
X165711782Y-76118595D01*
X165913870Y-76184257D01*
X166123754Y-76217500D01*
X166336246Y-76217500D01*
X166546127Y-76184257D01*
X166546130Y-76184257D01*
X166748217Y-76118595D01*
X166937554Y-76022122D01*
X167094104Y-75908380D01*
X167094105Y-75908380D01*
X166520556Y-75334832D01*
X166567708Y-75307610D01*
X166670110Y-75205208D01*
X166697332Y-75158056D01*
X167270880Y-75731605D01*
X167270880Y-75731604D01*
X167384622Y-75575054D01*
X167389514Y-75565454D01*
X167437488Y-75514657D01*
X167505308Y-75497861D01*
X167571444Y-75520397D01*
X167610486Y-75565454D01*
X167615377Y-75575054D01*
X167729118Y-75731604D01*
X167729119Y-75731605D01*
X168302667Y-75158056D01*
X168329890Y-75205208D01*
X168432292Y-75307610D01*
X168479442Y-75334832D01*
X167905893Y-75908380D01*
X168062445Y-76022122D01*
X168251782Y-76118595D01*
X168453870Y-76184257D01*
X168663754Y-76217500D01*
X168876246Y-76217500D01*
X169086127Y-76184257D01*
X169086130Y-76184257D01*
X169288217Y-76118595D01*
X169477554Y-76022122D01*
X169634104Y-75908380D01*
X169634105Y-75908380D01*
X169060556Y-75334832D01*
X169107708Y-75307610D01*
X169210110Y-75205208D01*
X169237332Y-75158057D01*
X169810880Y-75731605D01*
X169810880Y-75731604D01*
X169924622Y-75575054D01*
X169929514Y-75565454D01*
X169977488Y-75514657D01*
X170045308Y-75497861D01*
X170111444Y-75520397D01*
X170150486Y-75565454D01*
X170155377Y-75575054D01*
X170269118Y-75731604D01*
X170269119Y-75731605D01*
X170842667Y-75158056D01*
X170869890Y-75205208D01*
X170972292Y-75307610D01*
X171019442Y-75334832D01*
X170445893Y-75908380D01*
X170602445Y-76022122D01*
X170791782Y-76118595D01*
X170993870Y-76184257D01*
X171203754Y-76217500D01*
X171416246Y-76217500D01*
X171626127Y-76184257D01*
X171626130Y-76184257D01*
X171828217Y-76118595D01*
X172017554Y-76022122D01*
X172174104Y-75908380D01*
X172174105Y-75908380D01*
X171600556Y-75334832D01*
X171647708Y-75307610D01*
X171750110Y-75205208D01*
X171777332Y-75158056D01*
X172350880Y-75731605D01*
X172350880Y-75731604D01*
X172464622Y-75575054D01*
X172469514Y-75565454D01*
X172517488Y-75514657D01*
X172585308Y-75497861D01*
X172651444Y-75520397D01*
X172690486Y-75565454D01*
X172695377Y-75575054D01*
X172809118Y-75731604D01*
X172809119Y-75731605D01*
X173382667Y-75158056D01*
X173409890Y-75205208D01*
X173512292Y-75307610D01*
X173559442Y-75334832D01*
X172985893Y-75908380D01*
X173142445Y-76022122D01*
X173331782Y-76118595D01*
X173533870Y-76184257D01*
X173743754Y-76217500D01*
X173956246Y-76217500D01*
X174166127Y-76184257D01*
X174166130Y-76184257D01*
X174368217Y-76118595D01*
X174557554Y-76022122D01*
X174714104Y-75908380D01*
X174714105Y-75908380D01*
X174140556Y-75334832D01*
X174187708Y-75307610D01*
X174290110Y-75205208D01*
X174317332Y-75158057D01*
X174890880Y-75731605D01*
X174890880Y-75731604D01*
X175004622Y-75575054D01*
X175009514Y-75565454D01*
X175057488Y-75514657D01*
X175125308Y-75497861D01*
X175191444Y-75520397D01*
X175230486Y-75565454D01*
X175235377Y-75575054D01*
X175349118Y-75731604D01*
X175349119Y-75731605D01*
X175922667Y-75158056D01*
X175949890Y-75205208D01*
X176052292Y-75307610D01*
X176099442Y-75334832D01*
X175525893Y-75908380D01*
X175682445Y-76022122D01*
X175871782Y-76118595D01*
X176073870Y-76184257D01*
X176283754Y-76217500D01*
X176496246Y-76217500D01*
X176706127Y-76184257D01*
X176706130Y-76184257D01*
X176908217Y-76118595D01*
X177097554Y-76022122D01*
X177254104Y-75908380D01*
X177254105Y-75908380D01*
X176680556Y-75334832D01*
X176727708Y-75307610D01*
X176830110Y-75205208D01*
X176857332Y-75158056D01*
X177430880Y-75731605D01*
X177430880Y-75731604D01*
X177544622Y-75575054D01*
X177641095Y-75385717D01*
X177706757Y-75183630D01*
X177706757Y-75183627D01*
X177740000Y-74973746D01*
X177740000Y-74761253D01*
X177706757Y-74551372D01*
X177706757Y-74551369D01*
X177641095Y-74349282D01*
X177544622Y-74159945D01*
X177430880Y-74003394D01*
X177430880Y-74003393D01*
X176857331Y-74576942D01*
X176830110Y-74529792D01*
X176727708Y-74427390D01*
X176680556Y-74400167D01*
X177254105Y-73826619D01*
X177254104Y-73826618D01*
X177097554Y-73712877D01*
X176908217Y-73616404D01*
X176706129Y-73550742D01*
X176496246Y-73517500D01*
X176283754Y-73517500D01*
X176073872Y-73550742D01*
X176073869Y-73550742D01*
X175871782Y-73616404D01*
X175682442Y-73712879D01*
X175525894Y-73826617D01*
X175525893Y-73826618D01*
X176099443Y-74400167D01*
X176052292Y-74427390D01*
X175949890Y-74529792D01*
X175922667Y-74576942D01*
X175349118Y-74003393D01*
X175349117Y-74003394D01*
X175235377Y-74159944D01*
X175230484Y-74169548D01*
X175182509Y-74220344D01*
X175114688Y-74237138D01*
X175048553Y-74214600D01*
X175009516Y-74169548D01*
X175004624Y-74159948D01*
X174890880Y-74003394D01*
X174890880Y-74003393D01*
X174317331Y-74576942D01*
X174290110Y-74529792D01*
X174187708Y-74427390D01*
X174140556Y-74400167D01*
X174714105Y-73826619D01*
X174714104Y-73826618D01*
X174557554Y-73712877D01*
X174368217Y-73616404D01*
X174166129Y-73550742D01*
X173956246Y-73517500D01*
X173743754Y-73517500D01*
X173533872Y-73550742D01*
X173533869Y-73550742D01*
X173331782Y-73616404D01*
X173142442Y-73712879D01*
X172985894Y-73826617D01*
X172985893Y-73826618D01*
X173559443Y-74400167D01*
X173512292Y-74427390D01*
X173409890Y-74529792D01*
X173382667Y-74576942D01*
X172809118Y-74003393D01*
X172809117Y-74003394D01*
X172695377Y-74159944D01*
X172690484Y-74169548D01*
X172642509Y-74220344D01*
X172574688Y-74237138D01*
X172508553Y-74214600D01*
X172469516Y-74169548D01*
X172464624Y-74159948D01*
X172350880Y-74003394D01*
X172350880Y-74003393D01*
X171777331Y-74576942D01*
X171750110Y-74529792D01*
X171647708Y-74427390D01*
X171600556Y-74400167D01*
X172174105Y-73826619D01*
X172174104Y-73826618D01*
X172017554Y-73712877D01*
X171828217Y-73616404D01*
X171626129Y-73550742D01*
X171416246Y-73517500D01*
X171203754Y-73517500D01*
X170993872Y-73550742D01*
X170993869Y-73550742D01*
X170791782Y-73616404D01*
X170602442Y-73712879D01*
X170445894Y-73826617D01*
X170445893Y-73826618D01*
X171019443Y-74400167D01*
X170972292Y-74427390D01*
X170869890Y-74529792D01*
X170842667Y-74576942D01*
X170269118Y-74003393D01*
X170269117Y-74003394D01*
X170155377Y-74159944D01*
X170150484Y-74169548D01*
X170102509Y-74220344D01*
X170034688Y-74237138D01*
X169968553Y-74214600D01*
X169929516Y-74169548D01*
X169924624Y-74159948D01*
X169810880Y-74003394D01*
X169810880Y-74003393D01*
X169237331Y-74576942D01*
X169210110Y-74529792D01*
X169107708Y-74427390D01*
X169060556Y-74400167D01*
X169634105Y-73826619D01*
X169634104Y-73826618D01*
X169477554Y-73712877D01*
X169288217Y-73616404D01*
X169086129Y-73550742D01*
X168876246Y-73517500D01*
X168663754Y-73517500D01*
X168453872Y-73550742D01*
X168453869Y-73550742D01*
X168251782Y-73616404D01*
X168062442Y-73712879D01*
X167905894Y-73826617D01*
X167905893Y-73826618D01*
X168479443Y-74400167D01*
X168432292Y-74427390D01*
X168329890Y-74529792D01*
X168302667Y-74576942D01*
X167729118Y-74003393D01*
X167729117Y-74003394D01*
X167615377Y-74159944D01*
X167610484Y-74169548D01*
X167562509Y-74220344D01*
X167494688Y-74237138D01*
X167428553Y-74214600D01*
X167389516Y-74169548D01*
X167384624Y-74159948D01*
X167270880Y-74003394D01*
X167270880Y-74003393D01*
X166697331Y-74576942D01*
X166670110Y-74529792D01*
X166567708Y-74427390D01*
X166520556Y-74400167D01*
X167094105Y-73826619D01*
X167094104Y-73826618D01*
X166937554Y-73712877D01*
X166748217Y-73616404D01*
X166546129Y-73550742D01*
X166336246Y-73517500D01*
X166123754Y-73517500D01*
X165913872Y-73550742D01*
X165913869Y-73550742D01*
X165711782Y-73616404D01*
X165522442Y-73712879D01*
X165365894Y-73826617D01*
X165365893Y-73826618D01*
X165939443Y-74400167D01*
X165892292Y-74427390D01*
X165789890Y-74529792D01*
X165762667Y-74576942D01*
X165189118Y-74003393D01*
X165189117Y-74003394D01*
X165075377Y-74159944D01*
X165070484Y-74169548D01*
X165022509Y-74220344D01*
X164954688Y-74237138D01*
X164888553Y-74214600D01*
X164849516Y-74169548D01*
X164844624Y-74159948D01*
X164730880Y-74003394D01*
X164730880Y-74003393D01*
X164157331Y-74576942D01*
X164130110Y-74529792D01*
X164027708Y-74427390D01*
X163980556Y-74400167D01*
X164554105Y-73826619D01*
X164554104Y-73826618D01*
X164397554Y-73712877D01*
X164208217Y-73616404D01*
X164006129Y-73550742D01*
X163796246Y-73517500D01*
X163583754Y-73517500D01*
X163373872Y-73550742D01*
X163373869Y-73550742D01*
X163171782Y-73616404D01*
X162982442Y-73712879D01*
X162825894Y-73826617D01*
X162825893Y-73826618D01*
X163399443Y-74400167D01*
X163352292Y-74427390D01*
X163249890Y-74529792D01*
X163222667Y-74576942D01*
X162649118Y-74003393D01*
X162649117Y-74003394D01*
X162535377Y-74159944D01*
X162530484Y-74169548D01*
X162482509Y-74220344D01*
X162414688Y-74237138D01*
X162348553Y-74214600D01*
X162309516Y-74169548D01*
X162304624Y-74159948D01*
X162190880Y-74003394D01*
X162190880Y-74003393D01*
X161617331Y-74576942D01*
X161590110Y-74529792D01*
X161487708Y-74427390D01*
X161440556Y-74400167D01*
X162014105Y-73826619D01*
X162014104Y-73826618D01*
X161857554Y-73712877D01*
X161668217Y-73616404D01*
X161466129Y-73550742D01*
X161256246Y-73517500D01*
X161043754Y-73517500D01*
X160833872Y-73550742D01*
X160833869Y-73550742D01*
X160631782Y-73616404D01*
X160442442Y-73712879D01*
X160285894Y-73826617D01*
X160285893Y-73826618D01*
X160859443Y-74400167D01*
X160812292Y-74427390D01*
X160709890Y-74529792D01*
X160682667Y-74576942D01*
X160109118Y-74003393D01*
X160084035Y-74005367D01*
X160050646Y-73998352D01*
X160017164Y-73991797D01*
X160016525Y-73991184D01*
X160015658Y-73991002D01*
X159991355Y-73967043D01*
X159966739Y-73943433D01*
X159966313Y-73942355D01*
X159965902Y-73941950D01*
X159956854Y-73918691D01*
X159956428Y-73917663D01*
X159956413Y-73917669D01*
X159956345Y-73917488D01*
X159956342Y-73917456D01*
X159956241Y-73917211D01*
X159955356Y-73914839D01*
X159953718Y-73910629D01*
X159953595Y-73910118D01*
X159903354Y-73775413D01*
X159903353Y-73775411D01*
X159817189Y-73660310D01*
X159702088Y-73574146D01*
X159702086Y-73574145D01*
X159567375Y-73523901D01*
X159567376Y-73523901D01*
X159507845Y-73517500D01*
X158735000Y-73517500D01*
X158735000Y-74331591D01*
X158682409Y-74317500D01*
X158537591Y-74317500D01*
X158485000Y-74331591D01*
X158485000Y-73517500D01*
X157712173Y-73517500D01*
X157712167Y-73517501D01*
X157652623Y-73523901D01*
X157517913Y-73574145D01*
X157517911Y-73574146D01*
X157402810Y-73660310D01*
X157316646Y-73775411D01*
X157316645Y-73775413D01*
X157266401Y-73910124D01*
X157260000Y-73969654D01*
X129289935Y-73969654D01*
X129318838Y-73861789D01*
X129350500Y-73621288D01*
X129350500Y-73378712D01*
X129350500Y-73378711D01*
X204149500Y-73378711D01*
X204149500Y-73621288D01*
X204181161Y-73861785D01*
X204243947Y-74096104D01*
X204335653Y-74317500D01*
X204336776Y-74320212D01*
X204458064Y-74530289D01*
X204458066Y-74530292D01*
X204458067Y-74530293D01*
X204605733Y-74722736D01*
X204605739Y-74722743D01*
X204777256Y-74894260D01*
X204777263Y-74894266D01*
X204880844Y-74973746D01*
X204969711Y-75041936D01*
X205179788Y-75163224D01*
X205403900Y-75256054D01*
X205638211Y-75318838D01*
X205818586Y-75342584D01*
X205878711Y-75350500D01*
X205878712Y-75350500D01*
X206121289Y-75350500D01*
X206169388Y-75344167D01*
X206361789Y-75318838D01*
X206596100Y-75256054D01*
X206820212Y-75163224D01*
X207030289Y-75041936D01*
X207222738Y-74894265D01*
X207394265Y-74722738D01*
X207541936Y-74530289D01*
X207663224Y-74320212D01*
X207756054Y-74096100D01*
X207818838Y-73861789D01*
X207850500Y-73621288D01*
X207850500Y-73378712D01*
X207818838Y-73138211D01*
X207756054Y-72903900D01*
X207663224Y-72679788D01*
X207541936Y-72469711D01*
X207394265Y-72277262D01*
X207394260Y-72277256D01*
X207222743Y-72105739D01*
X207222736Y-72105733D01*
X207030293Y-71958067D01*
X207030292Y-71958066D01*
X207030289Y-71958064D01*
X206820212Y-71836776D01*
X206820205Y-71836773D01*
X206596104Y-71743947D01*
X206361785Y-71681161D01*
X206121289Y-71649500D01*
X206121288Y-71649500D01*
X205878712Y-71649500D01*
X205878711Y-71649500D01*
X205638214Y-71681161D01*
X205403895Y-71743947D01*
X205179794Y-71836773D01*
X205179785Y-71836777D01*
X204969706Y-71958067D01*
X204777263Y-72105733D01*
X204777256Y-72105739D01*
X204605739Y-72277256D01*
X204605733Y-72277263D01*
X204458067Y-72469706D01*
X204336777Y-72679785D01*
X204336773Y-72679794D01*
X204243947Y-72903895D01*
X204181161Y-73138214D01*
X204149500Y-73378711D01*
X129350500Y-73378711D01*
X129318838Y-73138211D01*
X129256054Y-72903900D01*
X129163224Y-72679788D01*
X129041936Y-72469711D01*
X128894265Y-72277262D01*
X128894260Y-72277256D01*
X128722743Y-72105739D01*
X128722736Y-72105733D01*
X128530293Y-71958067D01*
X128530292Y-71958066D01*
X128530289Y-71958064D01*
X128320212Y-71836776D01*
X128320205Y-71836773D01*
X128096104Y-71743947D01*
X127861785Y-71681161D01*
X127621289Y-71649500D01*
X127621288Y-71649500D01*
X127378712Y-71649500D01*
X127378711Y-71649500D01*
X127138214Y-71681161D01*
X126903895Y-71743947D01*
X126679794Y-71836773D01*
X126679785Y-71836777D01*
X126469706Y-71958067D01*
X126277263Y-72105733D01*
X126277256Y-72105739D01*
X126105739Y-72277256D01*
X126105733Y-72277263D01*
X125958067Y-72469706D01*
X125836777Y-72679785D01*
X125836773Y-72679794D01*
X125743947Y-72903895D01*
X125681161Y-73138214D01*
X125649500Y-73378711D01*
X124000500Y-73378711D01*
X124000500Y-70124500D01*
X124020185Y-70057461D01*
X124072989Y-70011706D01*
X124124500Y-70000500D01*
X209375500Y-70000500D01*
X209442539Y-70020185D01*
G37*
%TD.AperFunction*%
%TD*%
D21*
X168500000Y-105500000D03*
X162000000Y-90475000D03*
X168000000Y-108500000D03*
X162000000Y-91225000D03*
X172500000Y-112000000D03*
X161000000Y-107500000D03*
X171500000Y-94000000D03*
X186500000Y-109000000D03*
X127000000Y-120000000D03*
X167000000Y-122500000D03*
X187000000Y-71500000D03*
X177000000Y-122000000D03*
X164000000Y-91500000D03*
X190000000Y-126500000D03*
X207000000Y-120000000D03*
X165500000Y-80000000D03*
X167000000Y-126000000D03*
X163000000Y-101500000D03*
X143000000Y-113500000D03*
X172000000Y-120000000D03*
X126500000Y-79000000D03*
X206000000Y-78500000D03*
X161000000Y-90000000D03*
X164000000Y-90614904D03*
X148000000Y-71500000D03*
X190000000Y-122000000D03*
X159000000Y-101000000D03*
X164500000Y-107450000D03*
X153000000Y-77450000D03*
X156990000Y-99000000D03*
X164000000Y-99500000D03*
X173000000Y-106500000D03*
D22*
X206000000Y-126000000D03*
X127500000Y-126000000D03*
X134580000Y-126232500D03*
X137120000Y-126232500D03*
X134580000Y-123692500D03*
X137120000Y-123692500D03*
X162000000Y-126540000D03*
X164540000Y-126540000D03*
X162000000Y-124000000D03*
X164540000Y-124000000D03*
X184730000Y-126732500D03*
X187270000Y-126732500D03*
X184730000Y-124192500D03*
X187270000Y-124192500D03*
X127500000Y-73500000D03*
X149390000Y-85132500D03*
X146850000Y-85132500D03*
X144310000Y-85132500D03*
X141770000Y-85132500D03*
X139230000Y-85132500D03*
X136690000Y-85132500D03*
X134150000Y-85132500D03*
X131610000Y-85132500D03*
X130840000Y-95840000D03*
X133380000Y-95840000D03*
X135920000Y-95840000D03*
X138460000Y-95840000D03*
X141000000Y-95840000D03*
X143540000Y-95840000D03*
X146080000Y-95840000D03*
X148620000Y-95840000D03*
X151160000Y-95840000D03*
X151160000Y-116160000D03*
X148620000Y-116160000D03*
X146080000Y-116160000D03*
X143540000Y-116160000D03*
X141000000Y-116160000D03*
X138460000Y-116160000D03*
X135920000Y-116160000D03*
X133380000Y-116160000D03*
X130840000Y-116160000D03*
X158610000Y-74867500D03*
X161150000Y-74867500D03*
X163690000Y-74867500D03*
X166230000Y-74867500D03*
X168770000Y-74867500D03*
X171310000Y-74867500D03*
X173850000Y-74867500D03*
X176390000Y-74867500D03*
X206000000Y-73500000D03*
X189860000Y-108980000D03*
X205100000Y-108980000D03*
X198590000Y-95010000D03*
M02*
