M48
; DRILL file KiCad 10.0.4 date 2026-08-03T08:03:13
; FORMAT={-:-/ absolute / metric / decimal}
; #@! TF.CreationDate,2026-08-03T08:03:13+02:00
; #@! TF.GenerationSoftware,Kicad,Pcbnew,10.0.4
; #@! TF.FileFunction,MixedPlating,1,2
FMAT,2
METRIC
; #@! TA.AperFunction,Plated,PTH,ViaDrill
T1C0.300
; #@! TA.AperFunction,Plated,PTH,ComponentDrill
T2C1.000
; #@! TA.AperFunction,Plated,PTH,ComponentDrill
T3C1.100
; #@! TA.AperFunction,Plated,PTH,ComponentDrill
T4C1.600
; #@! TA.AperFunction,NonPlated,NPTH,ComponentDrill
T5C1.100
; #@! TA.AperFunction,NonPlated,NPTH,ComponentDrill
T6C3.200
%
G90
G05
T1
X126.5Y-79.0
X127.0Y-120.0
X143.0Y-113.5
X148.0Y-71.5
X153.0Y-77.45
X156.99Y-99.0
X159.0Y-101.0
X161.0Y-90.0
X161.0Y-107.5
X162.0Y-90.475
X162.0Y-91.225
X163.0Y-101.5
X164.0Y-90.615
X164.0Y-91.5
X164.0Y-99.5
X164.5Y-107.45
X165.5Y-80.0
X167.0Y-122.5
X167.0Y-126.0
X168.0Y-108.5
X168.5Y-105.5
X171.5Y-94.0
X172.0Y-120.0
X172.5Y-112.0
X173.0Y-106.5
X177.0Y-122.0
X186.5Y-109.0
X187.0Y-71.5
X190.0Y-122.0
X190.0Y-126.5
X206.0Y-78.5
X207.0Y-120.0
T2
X130.84Y-95.84
X130.84Y-116.16
X133.38Y-95.84
X133.38Y-116.16
X135.92Y-95.84
X135.92Y-116.16
X138.46Y-95.84
X138.46Y-116.16
X141.0Y-95.84
X141.0Y-116.16
X143.54Y-95.84
X143.54Y-116.16
X146.08Y-95.84
X146.08Y-116.16
X148.62Y-95.84
X148.62Y-116.16
X151.16Y-95.84
X151.16Y-116.16
T3
X131.61Y-85.132
X134.15Y-85.132
X134.58Y-123.692
X136.69Y-85.132
X137.12Y-123.692
X139.23Y-85.132
X141.77Y-85.132
X144.31Y-85.132
X146.85Y-85.132
X149.39Y-85.132
X158.61Y-74.867
X161.15Y-74.867
X162.0Y-124.0
X163.69Y-74.867
X164.54Y-124.0
X166.23Y-74.867
X168.77Y-74.867
X171.31Y-74.867
X173.85Y-74.867
X176.39Y-74.867
X184.73Y-124.192
X187.27Y-124.192
T4
X189.86Y-108.98
X198.59Y-95.01
X205.1Y-108.98
T5
X134.58Y-126.232
X137.12Y-126.232
X162.0Y-126.54
X164.54Y-126.54
X184.73Y-126.732
X187.27Y-126.732
T6
X127.5Y-73.5
X127.5Y-126.0
X206.0Y-73.5
X206.0Y-126.0
M30
