%TF.GenerationSoftware,KiCad,Pcbnew,10.0.4*%
%TF.CreationDate,2026-08-12T07:48:33+02:00*%
%TF.ProjectId,vogelstimmen_v3.0,766f6765-6c73-4746-996d-6d656e5f7633,rev?*%
%TF.SameCoordinates,Original*%
%TF.FileFunction,Drillmap*%
%TF.FilePolarity,Positive*%
%FSLAX45Y45*%
G04 Gerber Fmt 4.5, Leading zero omitted, Abs format (unit mm)*
G04 Created by KiCad (PCBNEW 10.0.4) date 2026-08-12 07:48:33*
%MOMM*%
%LPD*%
G01*
G04 APERTURE LIST*
%ADD10C,0.100000*%
%ADD11C,0.200000*%
%ADD12C,0.110000*%
G04 APERTURE END LIST*
D10*
X12350000Y-6950000D02*
X21000000Y-6950000D01*
X21000000Y-13000000D01*
X12350000Y-13000000D01*
X12350000Y-6950000D01*
D11*
D10*
X12635000Y-7885000D02*
X12665000Y-7915000D01*
X12665000Y-7885000D02*
X12635000Y-7915000D01*
X12685000Y-11985000D02*
X12715000Y-12015000D01*
X12715000Y-11985000D02*
X12685000Y-12015000D01*
X14285000Y-11335000D02*
X14315000Y-11365000D01*
X14315000Y-11335000D02*
X14285000Y-11365000D01*
X14785000Y-7135000D02*
X14815000Y-7165000D01*
X14815000Y-7135000D02*
X14785000Y-7165000D01*
X15285000Y-7730000D02*
X15315000Y-7760000D01*
X15315000Y-7730000D02*
X15285000Y-7760000D01*
X15585000Y-9885000D02*
X15615000Y-9915000D01*
X15615000Y-9885000D02*
X15585000Y-9915000D01*
X15885000Y-10085000D02*
X15915000Y-10115000D01*
X15915000Y-10085000D02*
X15885000Y-10115000D01*
X16085000Y-8985000D02*
X16115000Y-9015000D01*
X16115000Y-8985000D02*
X16085000Y-9015000D01*
X16135000Y-10585000D02*
X16165000Y-10615000D01*
X16165000Y-10585000D02*
X16135000Y-10615000D01*
X16185000Y-9032500D02*
X16215000Y-9062500D01*
X16215000Y-9032500D02*
X16185000Y-9062500D01*
X16185000Y-9107500D02*
X16215000Y-9137500D01*
X16215000Y-9107500D02*
X16185000Y-9137500D01*
X16285000Y-10143000D02*
X16315000Y-10173000D01*
X16315000Y-10143000D02*
X16285000Y-10173000D01*
X16385000Y-9046490D02*
X16415000Y-9076490D01*
X16415000Y-9046490D02*
X16385000Y-9076490D01*
X16385000Y-9135000D02*
X16415000Y-9165000D01*
X16415000Y-9135000D02*
X16385000Y-9165000D01*
X16435000Y-10730000D02*
X16465000Y-10760000D01*
X16465000Y-10730000D02*
X16435000Y-10760000D01*
X16535000Y-7985000D02*
X16565000Y-8015000D01*
X16565000Y-7985000D02*
X16535000Y-8015000D01*
X16585000Y-9935000D02*
X16615000Y-9965000D01*
X16615000Y-9935000D02*
X16585000Y-9965000D01*
X16685000Y-12235000D02*
X16715000Y-12265000D01*
X16715000Y-12235000D02*
X16685000Y-12265000D01*
X16685000Y-12585000D02*
X16715000Y-12615000D01*
X16715000Y-12585000D02*
X16685000Y-12615000D01*
X16785000Y-10835000D02*
X16815000Y-10865000D01*
X16815000Y-10835000D02*
X16785000Y-10865000D01*
X16835000Y-10535000D02*
X16865000Y-10565000D01*
X16865000Y-10535000D02*
X16835000Y-10565000D01*
X17185000Y-11985000D02*
X17215000Y-12015000D01*
X17215000Y-11985000D02*
X17185000Y-12015000D01*
X17210000Y-10560000D02*
X17240000Y-10590000D01*
X17240000Y-10560000D02*
X17210000Y-10590000D01*
X17335000Y-11185000D02*
X17365000Y-11215000D01*
X17365000Y-11185000D02*
X17335000Y-11215000D01*
X17485000Y-8985000D02*
X17515000Y-9015000D01*
X17515000Y-8985000D02*
X17485000Y-9015000D01*
X17685000Y-12185000D02*
X17715000Y-12215000D01*
X17715000Y-12185000D02*
X17685000Y-12215000D01*
X18685000Y-7135000D02*
X18715000Y-7165000D01*
X18715000Y-7135000D02*
X18685000Y-7165000D01*
X18985000Y-12185000D02*
X19015000Y-12215000D01*
X19015000Y-12185000D02*
X18985000Y-12215000D01*
X18985000Y-12635000D02*
X19015000Y-12665000D01*
X19015000Y-12635000D02*
X18985000Y-12665000D01*
X20585000Y-7835000D02*
X20615000Y-7865000D01*
X20615000Y-7835000D02*
X20585000Y-7865000D01*
X20685000Y-11985000D02*
X20715000Y-12015000D01*
X20715000Y-11985000D02*
X20685000Y-12015000D01*
X18683000Y-8380000D02*
G75*
G02*
X18593000Y-8380000I-45000J0D01*
G01*
X18593000Y-8380000D02*
G75*
G02*
X18683000Y-8380000I45000J0D01*
G01*
X18683000Y-10920000D02*
G75*
G02*
X18593000Y-10920000I-45000J0D01*
G01*
X18593000Y-10920000D02*
G75*
G02*
X18683000Y-10920000I45000J0D01*
G01*
X20207000Y-8380000D02*
G75*
G02*
X20117000Y-8380000I-45000J0D01*
G01*
X20117000Y-8380000D02*
G75*
G02*
X20207000Y-8380000I45000J0D01*
G01*
X20207000Y-10920000D02*
G75*
G02*
X20117000Y-10920000I-45000J0D01*
G01*
X20117000Y-10920000D02*
G75*
G02*
X20207000Y-10920000I45000J0D01*
G01*
X13084000Y-9534000D02*
X13084000Y-9634000D01*
X13034000Y-9584000D02*
X13134000Y-9584000D01*
X13084000Y-11566000D02*
X13084000Y-11666000D01*
X13034000Y-11616000D02*
X13134000Y-11616000D01*
X13338000Y-9534000D02*
X13338000Y-9634000D01*
X13288000Y-9584000D02*
X13388000Y-9584000D01*
X13338000Y-11566000D02*
X13338000Y-11666000D01*
X13288000Y-11616000D02*
X13388000Y-11616000D01*
X13592000Y-9534000D02*
X13592000Y-9634000D01*
X13542000Y-9584000D02*
X13642000Y-9584000D01*
X13592000Y-11566000D02*
X13592000Y-11666000D01*
X13542000Y-11616000D02*
X13642000Y-11616000D01*
X13846000Y-9534000D02*
X13846000Y-9634000D01*
X13796000Y-9584000D02*
X13896000Y-9584000D01*
X13846000Y-11566000D02*
X13846000Y-11666000D01*
X13796000Y-11616000D02*
X13896000Y-11616000D01*
X14100000Y-9534000D02*
X14100000Y-9634000D01*
X14050000Y-9584000D02*
X14150000Y-9584000D01*
X14100000Y-11566000D02*
X14100000Y-11666000D01*
X14050000Y-11616000D02*
X14150000Y-11616000D01*
X14354000Y-9534000D02*
X14354000Y-9634000D01*
X14304000Y-9584000D02*
X14404000Y-9584000D01*
X14354000Y-11566000D02*
X14354000Y-11666000D01*
X14304000Y-11616000D02*
X14404000Y-11616000D01*
X14608000Y-9534000D02*
X14608000Y-9634000D01*
X14558000Y-9584000D02*
X14658000Y-9584000D01*
X14608000Y-11566000D02*
X14608000Y-11666000D01*
X14558000Y-11616000D02*
X14658000Y-11616000D01*
X14862000Y-9534000D02*
X14862000Y-9634000D01*
X14812000Y-9584000D02*
X14912000Y-9584000D01*
X14862000Y-11566000D02*
X14862000Y-11666000D01*
X14812000Y-11616000D02*
X14912000Y-11616000D01*
X15116000Y-9534000D02*
X15116000Y-9634000D01*
X15066000Y-9584000D02*
X15166000Y-9584000D01*
X15116000Y-11566000D02*
X15116000Y-11666000D01*
X15066000Y-11616000D02*
X15166000Y-11616000D01*
D12*
X13199891Y-8552141D02*
X13199891Y-8474359D01*
X13122109Y-8474359D01*
X13122109Y-8552141D01*
X13199891Y-8552141D01*
X13453891Y-8552141D02*
X13453891Y-8474359D01*
X13376109Y-8474359D01*
X13376109Y-8552141D01*
X13453891Y-8552141D01*
X13496891Y-12408141D02*
X13496891Y-12330359D01*
X13419109Y-12330359D01*
X13419109Y-12408141D01*
X13496891Y-12408141D01*
X13707891Y-8552141D02*
X13707891Y-8474359D01*
X13630109Y-8474359D01*
X13630109Y-8552141D01*
X13707891Y-8552141D01*
X13750891Y-12408141D02*
X13750891Y-12330359D01*
X13673109Y-12330359D01*
X13673109Y-12408141D01*
X13750891Y-12408141D01*
X13961891Y-8552141D02*
X13961891Y-8474359D01*
X13884109Y-8474359D01*
X13884109Y-8552141D01*
X13961891Y-8552141D01*
X14215891Y-8552141D02*
X14215891Y-8474359D01*
X14138109Y-8474359D01*
X14138109Y-8552141D01*
X14215891Y-8552141D01*
X14469891Y-8552141D02*
X14469891Y-8474359D01*
X14392109Y-8474359D01*
X14392109Y-8552141D01*
X14469891Y-8552141D01*
X14723891Y-8552141D02*
X14723891Y-8474359D01*
X14646109Y-8474359D01*
X14646109Y-8552141D01*
X14723891Y-8552141D01*
X14977891Y-8552141D02*
X14977891Y-8474359D01*
X14900109Y-8474359D01*
X14900109Y-8552141D01*
X14977891Y-8552141D01*
X15899891Y-7525641D02*
X15899891Y-7447859D01*
X15822109Y-7447859D01*
X15822109Y-7525641D01*
X15899891Y-7525641D01*
X16153891Y-7525641D02*
X16153891Y-7447859D01*
X16076109Y-7447859D01*
X16076109Y-7525641D01*
X16153891Y-7525641D01*
X16238891Y-12438891D02*
X16238891Y-12361109D01*
X16161109Y-12361109D01*
X16161109Y-12438891D01*
X16238891Y-12438891D01*
X16407891Y-7525641D02*
X16407891Y-7447859D01*
X16330109Y-7447859D01*
X16330109Y-7525641D01*
X16407891Y-7525641D01*
X16492891Y-12438891D02*
X16492891Y-12361109D01*
X16415109Y-12361109D01*
X16415109Y-12438891D01*
X16492891Y-12438891D01*
X16661891Y-7525641D02*
X16661891Y-7447859D01*
X16584109Y-7447859D01*
X16584109Y-7525641D01*
X16661891Y-7525641D01*
X16915891Y-7525641D02*
X16915891Y-7447859D01*
X16838109Y-7447859D01*
X16838109Y-7525641D01*
X16915891Y-7525641D01*
X17169891Y-7525641D02*
X17169891Y-7447859D01*
X17092109Y-7447859D01*
X17092109Y-7525641D01*
X17169891Y-7525641D01*
X17423891Y-7525641D02*
X17423891Y-7447859D01*
X17346109Y-7447859D01*
X17346109Y-7525641D01*
X17423891Y-7525641D01*
X17677891Y-7525641D02*
X17677891Y-7447859D01*
X17600109Y-7447859D01*
X17600109Y-7525641D01*
X17677891Y-7525641D01*
X18511891Y-12458141D02*
X18511891Y-12380359D01*
X18434109Y-12380359D01*
X18434109Y-12458141D01*
X18511891Y-12458141D01*
X18765891Y-12458141D02*
X18765891Y-12380359D01*
X18688109Y-12380359D01*
X18688109Y-12458141D01*
X18765891Y-12458141D01*
D11*
X12605777Y-13316484D02*
X12605777Y-13116484D01*
X12605777Y-13116484D02*
X12653396Y-13116484D01*
X12653396Y-13116484D02*
X12681967Y-13126008D01*
X12681967Y-13126008D02*
X12701015Y-13145055D01*
X12701015Y-13145055D02*
X12710539Y-13164103D01*
X12710539Y-13164103D02*
X12720062Y-13202198D01*
X12720062Y-13202198D02*
X12720062Y-13230769D01*
X12720062Y-13230769D02*
X12710539Y-13268865D01*
X12710539Y-13268865D02*
X12701015Y-13287912D01*
X12701015Y-13287912D02*
X12681967Y-13306960D01*
X12681967Y-13306960D02*
X12653396Y-13316484D01*
X12653396Y-13316484D02*
X12605777Y-13316484D01*
X12805777Y-13316484D02*
X12805777Y-13183150D01*
X12805777Y-13221246D02*
X12815301Y-13202198D01*
X12815301Y-13202198D02*
X12824824Y-13192674D01*
X12824824Y-13192674D02*
X12843872Y-13183150D01*
X12843872Y-13183150D02*
X12862920Y-13183150D01*
X12929586Y-13316484D02*
X12929586Y-13183150D01*
X12929586Y-13116484D02*
X12920062Y-13126008D01*
X12920062Y-13126008D02*
X12929586Y-13135531D01*
X12929586Y-13135531D02*
X12939110Y-13126008D01*
X12939110Y-13126008D02*
X12929586Y-13116484D01*
X12929586Y-13116484D02*
X12929586Y-13135531D01*
X13053396Y-13316484D02*
X13034348Y-13306960D01*
X13034348Y-13306960D02*
X13024824Y-13287912D01*
X13024824Y-13287912D02*
X13024824Y-13116484D01*
X13158158Y-13316484D02*
X13139110Y-13306960D01*
X13139110Y-13306960D02*
X13129586Y-13287912D01*
X13129586Y-13287912D02*
X13129586Y-13116484D01*
X13386729Y-13316484D02*
X13386729Y-13116484D01*
X13386729Y-13116484D02*
X13453396Y-13259341D01*
X13453396Y-13259341D02*
X13520062Y-13116484D01*
X13520062Y-13116484D02*
X13520062Y-13316484D01*
X13701015Y-13316484D02*
X13701015Y-13211722D01*
X13701015Y-13211722D02*
X13691491Y-13192674D01*
X13691491Y-13192674D02*
X13672443Y-13183150D01*
X13672443Y-13183150D02*
X13634348Y-13183150D01*
X13634348Y-13183150D02*
X13615301Y-13192674D01*
X13701015Y-13306960D02*
X13681967Y-13316484D01*
X13681967Y-13316484D02*
X13634348Y-13316484D01*
X13634348Y-13316484D02*
X13615301Y-13306960D01*
X13615301Y-13306960D02*
X13605777Y-13287912D01*
X13605777Y-13287912D02*
X13605777Y-13268865D01*
X13605777Y-13268865D02*
X13615301Y-13249817D01*
X13615301Y-13249817D02*
X13634348Y-13240293D01*
X13634348Y-13240293D02*
X13681967Y-13240293D01*
X13681967Y-13240293D02*
X13701015Y-13230769D01*
X13796253Y-13183150D02*
X13796253Y-13383150D01*
X13796253Y-13192674D02*
X13815301Y-13183150D01*
X13815301Y-13183150D02*
X13853396Y-13183150D01*
X13853396Y-13183150D02*
X13872443Y-13192674D01*
X13872443Y-13192674D02*
X13881967Y-13202198D01*
X13881967Y-13202198D02*
X13891491Y-13221246D01*
X13891491Y-13221246D02*
X13891491Y-13278388D01*
X13891491Y-13278388D02*
X13881967Y-13297436D01*
X13881967Y-13297436D02*
X13872443Y-13306960D01*
X13872443Y-13306960D02*
X13853396Y-13316484D01*
X13853396Y-13316484D02*
X13815301Y-13316484D01*
X13815301Y-13316484D02*
X13796253Y-13306960D01*
X13977205Y-13297436D02*
X13986729Y-13306960D01*
X13986729Y-13306960D02*
X13977205Y-13316484D01*
X13977205Y-13316484D02*
X13967682Y-13306960D01*
X13967682Y-13306960D02*
X13977205Y-13297436D01*
X13977205Y-13297436D02*
X13977205Y-13316484D01*
X13977205Y-13192674D02*
X13986729Y-13202198D01*
X13986729Y-13202198D02*
X13977205Y-13211722D01*
X13977205Y-13211722D02*
X13967682Y-13202198D01*
X13967682Y-13202198D02*
X13977205Y-13192674D01*
X13977205Y-13192674D02*
X13977205Y-13211722D01*
D10*
X12315000Y-13630000D02*
X12345000Y-13660000D01*
X12345000Y-13630000D02*
X12315000Y-13660000D01*
D11*
X12643872Y-13536484D02*
X12662920Y-13536484D01*
X12662920Y-13536484D02*
X12681967Y-13546008D01*
X12681967Y-13546008D02*
X12691491Y-13555531D01*
X12691491Y-13555531D02*
X12701015Y-13574579D01*
X12701015Y-13574579D02*
X12710539Y-13612674D01*
X12710539Y-13612674D02*
X12710539Y-13660293D01*
X12710539Y-13660293D02*
X12701015Y-13698388D01*
X12701015Y-13698388D02*
X12691491Y-13717436D01*
X12691491Y-13717436D02*
X12681967Y-13726960D01*
X12681967Y-13726960D02*
X12662920Y-13736484D01*
X12662920Y-13736484D02*
X12643872Y-13736484D01*
X12643872Y-13736484D02*
X12624824Y-13726960D01*
X12624824Y-13726960D02*
X12615301Y-13717436D01*
X12615301Y-13717436D02*
X12605777Y-13698388D01*
X12605777Y-13698388D02*
X12596253Y-13660293D01*
X12596253Y-13660293D02*
X12596253Y-13612674D01*
X12596253Y-13612674D02*
X12605777Y-13574579D01*
X12605777Y-13574579D02*
X12615301Y-13555531D01*
X12615301Y-13555531D02*
X12624824Y-13546008D01*
X12624824Y-13546008D02*
X12643872Y-13536484D01*
X12805777Y-13726960D02*
X12805777Y-13736484D01*
X12805777Y-13736484D02*
X12796253Y-13755531D01*
X12796253Y-13755531D02*
X12786729Y-13765055D01*
X12872443Y-13536484D02*
X12996253Y-13536484D01*
X12996253Y-13536484D02*
X12929586Y-13612674D01*
X12929586Y-13612674D02*
X12958158Y-13612674D01*
X12958158Y-13612674D02*
X12977205Y-13622198D01*
X12977205Y-13622198D02*
X12986729Y-13631722D01*
X12986729Y-13631722D02*
X12996253Y-13650769D01*
X12996253Y-13650769D02*
X12996253Y-13698388D01*
X12996253Y-13698388D02*
X12986729Y-13717436D01*
X12986729Y-13717436D02*
X12977205Y-13726960D01*
X12977205Y-13726960D02*
X12958158Y-13736484D01*
X12958158Y-13736484D02*
X12901015Y-13736484D01*
X12901015Y-13736484D02*
X12881967Y-13726960D01*
X12881967Y-13726960D02*
X12872443Y-13717436D01*
X13120062Y-13536484D02*
X13139110Y-13536484D01*
X13139110Y-13536484D02*
X13158158Y-13546008D01*
X13158158Y-13546008D02*
X13167682Y-13555531D01*
X13167682Y-13555531D02*
X13177205Y-13574579D01*
X13177205Y-13574579D02*
X13186729Y-13612674D01*
X13186729Y-13612674D02*
X13186729Y-13660293D01*
X13186729Y-13660293D02*
X13177205Y-13698388D01*
X13177205Y-13698388D02*
X13167682Y-13717436D01*
X13167682Y-13717436D02*
X13158158Y-13726960D01*
X13158158Y-13726960D02*
X13139110Y-13736484D01*
X13139110Y-13736484D02*
X13120062Y-13736484D01*
X13120062Y-13736484D02*
X13101015Y-13726960D01*
X13101015Y-13726960D02*
X13091491Y-13717436D01*
X13091491Y-13717436D02*
X13081967Y-13698388D01*
X13081967Y-13698388D02*
X13072443Y-13660293D01*
X13072443Y-13660293D02*
X13072443Y-13612674D01*
X13072443Y-13612674D02*
X13081967Y-13574579D01*
X13081967Y-13574579D02*
X13091491Y-13555531D01*
X13091491Y-13555531D02*
X13101015Y-13546008D01*
X13101015Y-13546008D02*
X13120062Y-13536484D01*
X13310539Y-13536484D02*
X13329586Y-13536484D01*
X13329586Y-13536484D02*
X13348634Y-13546008D01*
X13348634Y-13546008D02*
X13358158Y-13555531D01*
X13358158Y-13555531D02*
X13367682Y-13574579D01*
X13367682Y-13574579D02*
X13377205Y-13612674D01*
X13377205Y-13612674D02*
X13377205Y-13660293D01*
X13377205Y-13660293D02*
X13367682Y-13698388D01*
X13367682Y-13698388D02*
X13358158Y-13717436D01*
X13358158Y-13717436D02*
X13348634Y-13726960D01*
X13348634Y-13726960D02*
X13329586Y-13736484D01*
X13329586Y-13736484D02*
X13310539Y-13736484D01*
X13310539Y-13736484D02*
X13291491Y-13726960D01*
X13291491Y-13726960D02*
X13281967Y-13717436D01*
X13281967Y-13717436D02*
X13272443Y-13698388D01*
X13272443Y-13698388D02*
X13262920Y-13660293D01*
X13262920Y-13660293D02*
X13262920Y-13612674D01*
X13262920Y-13612674D02*
X13272443Y-13574579D01*
X13272443Y-13574579D02*
X13281967Y-13555531D01*
X13281967Y-13555531D02*
X13291491Y-13546008D01*
X13291491Y-13546008D02*
X13310539Y-13536484D01*
X13462920Y-13736484D02*
X13462920Y-13603150D01*
X13462920Y-13622198D02*
X13472443Y-13612674D01*
X13472443Y-13612674D02*
X13491491Y-13603150D01*
X13491491Y-13603150D02*
X13520063Y-13603150D01*
X13520063Y-13603150D02*
X13539110Y-13612674D01*
X13539110Y-13612674D02*
X13548634Y-13631722D01*
X13548634Y-13631722D02*
X13548634Y-13736484D01*
X13548634Y-13631722D02*
X13558158Y-13612674D01*
X13558158Y-13612674D02*
X13577205Y-13603150D01*
X13577205Y-13603150D02*
X13605777Y-13603150D01*
X13605777Y-13603150D02*
X13624824Y-13612674D01*
X13624824Y-13612674D02*
X13634348Y-13631722D01*
X13634348Y-13631722D02*
X13634348Y-13736484D01*
X13729586Y-13736484D02*
X13729586Y-13603150D01*
X13729586Y-13622198D02*
X13739110Y-13612674D01*
X13739110Y-13612674D02*
X13758158Y-13603150D01*
X13758158Y-13603150D02*
X13786729Y-13603150D01*
X13786729Y-13603150D02*
X13805777Y-13612674D01*
X13805777Y-13612674D02*
X13815301Y-13631722D01*
X13815301Y-13631722D02*
X13815301Y-13736484D01*
X13815301Y-13631722D02*
X13824824Y-13612674D01*
X13824824Y-13612674D02*
X13843872Y-13603150D01*
X13843872Y-13603150D02*
X13872443Y-13603150D01*
X13872443Y-13603150D02*
X13891491Y-13612674D01*
X13891491Y-13612674D02*
X13901015Y-13631722D01*
X13901015Y-13631722D02*
X13901015Y-13736484D01*
X14291491Y-13526960D02*
X14120063Y-13784103D01*
X14548634Y-13536484D02*
X14567682Y-13536484D01*
X14567682Y-13536484D02*
X14586729Y-13546008D01*
X14586729Y-13546008D02*
X14596253Y-13555531D01*
X14596253Y-13555531D02*
X14605777Y-13574579D01*
X14605777Y-13574579D02*
X14615301Y-13612674D01*
X14615301Y-13612674D02*
X14615301Y-13660293D01*
X14615301Y-13660293D02*
X14605777Y-13698388D01*
X14605777Y-13698388D02*
X14596253Y-13717436D01*
X14596253Y-13717436D02*
X14586729Y-13726960D01*
X14586729Y-13726960D02*
X14567682Y-13736484D01*
X14567682Y-13736484D02*
X14548634Y-13736484D01*
X14548634Y-13736484D02*
X14529586Y-13726960D01*
X14529586Y-13726960D02*
X14520063Y-13717436D01*
X14520063Y-13717436D02*
X14510539Y-13698388D01*
X14510539Y-13698388D02*
X14501015Y-13660293D01*
X14501015Y-13660293D02*
X14501015Y-13612674D01*
X14501015Y-13612674D02*
X14510539Y-13574579D01*
X14510539Y-13574579D02*
X14520063Y-13555531D01*
X14520063Y-13555531D02*
X14529586Y-13546008D01*
X14529586Y-13546008D02*
X14548634Y-13536484D01*
X14710539Y-13726960D02*
X14710539Y-13736484D01*
X14710539Y-13736484D02*
X14701015Y-13755531D01*
X14701015Y-13755531D02*
X14691491Y-13765055D01*
X14834348Y-13536484D02*
X14853396Y-13536484D01*
X14853396Y-13536484D02*
X14872444Y-13546008D01*
X14872444Y-13546008D02*
X14881967Y-13555531D01*
X14881967Y-13555531D02*
X14891491Y-13574579D01*
X14891491Y-13574579D02*
X14901015Y-13612674D01*
X14901015Y-13612674D02*
X14901015Y-13660293D01*
X14901015Y-13660293D02*
X14891491Y-13698388D01*
X14891491Y-13698388D02*
X14881967Y-13717436D01*
X14881967Y-13717436D02*
X14872444Y-13726960D01*
X14872444Y-13726960D02*
X14853396Y-13736484D01*
X14853396Y-13736484D02*
X14834348Y-13736484D01*
X14834348Y-13736484D02*
X14815301Y-13726960D01*
X14815301Y-13726960D02*
X14805777Y-13717436D01*
X14805777Y-13717436D02*
X14796253Y-13698388D01*
X14796253Y-13698388D02*
X14786729Y-13660293D01*
X14786729Y-13660293D02*
X14786729Y-13612674D01*
X14786729Y-13612674D02*
X14796253Y-13574579D01*
X14796253Y-13574579D02*
X14805777Y-13555531D01*
X14805777Y-13555531D02*
X14815301Y-13546008D01*
X14815301Y-13546008D02*
X14834348Y-13536484D01*
X15091491Y-13736484D02*
X14977206Y-13736484D01*
X15034348Y-13736484D02*
X15034348Y-13536484D01*
X15034348Y-13536484D02*
X15015301Y-13565055D01*
X15015301Y-13565055D02*
X14996253Y-13584103D01*
X14996253Y-13584103D02*
X14977206Y-13593627D01*
X15281967Y-13736484D02*
X15167682Y-13736484D01*
X15224825Y-13736484D02*
X15224825Y-13536484D01*
X15224825Y-13536484D02*
X15205777Y-13565055D01*
X15205777Y-13565055D02*
X15186729Y-13584103D01*
X15186729Y-13584103D02*
X15167682Y-13593627D01*
X15396253Y-13622198D02*
X15377206Y-13612674D01*
X15377206Y-13612674D02*
X15367682Y-13603150D01*
X15367682Y-13603150D02*
X15358158Y-13584103D01*
X15358158Y-13584103D02*
X15358158Y-13574579D01*
X15358158Y-13574579D02*
X15367682Y-13555531D01*
X15367682Y-13555531D02*
X15377206Y-13546008D01*
X15377206Y-13546008D02*
X15396253Y-13536484D01*
X15396253Y-13536484D02*
X15434348Y-13536484D01*
X15434348Y-13536484D02*
X15453396Y-13546008D01*
X15453396Y-13546008D02*
X15462920Y-13555531D01*
X15462920Y-13555531D02*
X15472444Y-13574579D01*
X15472444Y-13574579D02*
X15472444Y-13584103D01*
X15472444Y-13584103D02*
X15462920Y-13603150D01*
X15462920Y-13603150D02*
X15453396Y-13612674D01*
X15453396Y-13612674D02*
X15434348Y-13622198D01*
X15434348Y-13622198D02*
X15396253Y-13622198D01*
X15396253Y-13622198D02*
X15377206Y-13631722D01*
X15377206Y-13631722D02*
X15367682Y-13641246D01*
X15367682Y-13641246D02*
X15358158Y-13660293D01*
X15358158Y-13660293D02*
X15358158Y-13698388D01*
X15358158Y-13698388D02*
X15367682Y-13717436D01*
X15367682Y-13717436D02*
X15377206Y-13726960D01*
X15377206Y-13726960D02*
X15396253Y-13736484D01*
X15396253Y-13736484D02*
X15434348Y-13736484D01*
X15434348Y-13736484D02*
X15453396Y-13726960D01*
X15453396Y-13726960D02*
X15462920Y-13717436D01*
X15462920Y-13717436D02*
X15472444Y-13698388D01*
X15472444Y-13698388D02*
X15472444Y-13660293D01*
X15472444Y-13660293D02*
X15462920Y-13641246D01*
X15462920Y-13641246D02*
X15453396Y-13631722D01*
X15453396Y-13631722D02*
X15434348Y-13622198D01*
X15548634Y-13536484D02*
X15548634Y-13574579D01*
X15624825Y-13536484D02*
X15624825Y-13574579D01*
X15920063Y-13812674D02*
X15910539Y-13803150D01*
X15910539Y-13803150D02*
X15891491Y-13774579D01*
X15891491Y-13774579D02*
X15881968Y-13755531D01*
X15881968Y-13755531D02*
X15872444Y-13726960D01*
X15872444Y-13726960D02*
X15862920Y-13679341D01*
X15862920Y-13679341D02*
X15862920Y-13641246D01*
X15862920Y-13641246D02*
X15872444Y-13593627D01*
X15872444Y-13593627D02*
X15881968Y-13565055D01*
X15881968Y-13565055D02*
X15891491Y-13546008D01*
X15891491Y-13546008D02*
X15910539Y-13517436D01*
X15910539Y-13517436D02*
X15920063Y-13507912D01*
X15977206Y-13536484D02*
X16101015Y-13536484D01*
X16101015Y-13536484D02*
X16034348Y-13612674D01*
X16034348Y-13612674D02*
X16062920Y-13612674D01*
X16062920Y-13612674D02*
X16081968Y-13622198D01*
X16081968Y-13622198D02*
X16091491Y-13631722D01*
X16091491Y-13631722D02*
X16101015Y-13650769D01*
X16101015Y-13650769D02*
X16101015Y-13698388D01*
X16101015Y-13698388D02*
X16091491Y-13717436D01*
X16091491Y-13717436D02*
X16081968Y-13726960D01*
X16081968Y-13726960D02*
X16062920Y-13736484D01*
X16062920Y-13736484D02*
X16005777Y-13736484D01*
X16005777Y-13736484D02*
X15986729Y-13726960D01*
X15986729Y-13726960D02*
X15977206Y-13717436D01*
X16291491Y-13736484D02*
X16177206Y-13736484D01*
X16234348Y-13736484D02*
X16234348Y-13536484D01*
X16234348Y-13536484D02*
X16215301Y-13565055D01*
X16215301Y-13565055D02*
X16196253Y-13584103D01*
X16196253Y-13584103D02*
X16177206Y-13593627D01*
X16529587Y-13736484D02*
X16529587Y-13536484D01*
X16615301Y-13736484D02*
X16615301Y-13631722D01*
X16615301Y-13631722D02*
X16605777Y-13612674D01*
X16605777Y-13612674D02*
X16586730Y-13603150D01*
X16586730Y-13603150D02*
X16558158Y-13603150D01*
X16558158Y-13603150D02*
X16539110Y-13612674D01*
X16539110Y-13612674D02*
X16529587Y-13622198D01*
X16739110Y-13736484D02*
X16720063Y-13726960D01*
X16720063Y-13726960D02*
X16710539Y-13717436D01*
X16710539Y-13717436D02*
X16701015Y-13698388D01*
X16701015Y-13698388D02*
X16701015Y-13641246D01*
X16701015Y-13641246D02*
X16710539Y-13622198D01*
X16710539Y-13622198D02*
X16720063Y-13612674D01*
X16720063Y-13612674D02*
X16739110Y-13603150D01*
X16739110Y-13603150D02*
X16767682Y-13603150D01*
X16767682Y-13603150D02*
X16786730Y-13612674D01*
X16786730Y-13612674D02*
X16796253Y-13622198D01*
X16796253Y-13622198D02*
X16805777Y-13641246D01*
X16805777Y-13641246D02*
X16805777Y-13698388D01*
X16805777Y-13698388D02*
X16796253Y-13717436D01*
X16796253Y-13717436D02*
X16786730Y-13726960D01*
X16786730Y-13726960D02*
X16767682Y-13736484D01*
X16767682Y-13736484D02*
X16739110Y-13736484D01*
X16920063Y-13736484D02*
X16901015Y-13726960D01*
X16901015Y-13726960D02*
X16891492Y-13707912D01*
X16891492Y-13707912D02*
X16891492Y-13536484D01*
X17072444Y-13726960D02*
X17053396Y-13736484D01*
X17053396Y-13736484D02*
X17015301Y-13736484D01*
X17015301Y-13736484D02*
X16996253Y-13726960D01*
X16996253Y-13726960D02*
X16986730Y-13707912D01*
X16986730Y-13707912D02*
X16986730Y-13631722D01*
X16986730Y-13631722D02*
X16996253Y-13612674D01*
X16996253Y-13612674D02*
X17015301Y-13603150D01*
X17015301Y-13603150D02*
X17053396Y-13603150D01*
X17053396Y-13603150D02*
X17072444Y-13612674D01*
X17072444Y-13612674D02*
X17081968Y-13631722D01*
X17081968Y-13631722D02*
X17081968Y-13650769D01*
X17081968Y-13650769D02*
X16986730Y-13669817D01*
X17158158Y-13726960D02*
X17177206Y-13736484D01*
X17177206Y-13736484D02*
X17215301Y-13736484D01*
X17215301Y-13736484D02*
X17234349Y-13726960D01*
X17234349Y-13726960D02*
X17243873Y-13707912D01*
X17243873Y-13707912D02*
X17243873Y-13698388D01*
X17243873Y-13698388D02*
X17234349Y-13679341D01*
X17234349Y-13679341D02*
X17215301Y-13669817D01*
X17215301Y-13669817D02*
X17186730Y-13669817D01*
X17186730Y-13669817D02*
X17167682Y-13660293D01*
X17167682Y-13660293D02*
X17158158Y-13641246D01*
X17158158Y-13641246D02*
X17158158Y-13631722D01*
X17158158Y-13631722D02*
X17167682Y-13612674D01*
X17167682Y-13612674D02*
X17186730Y-13603150D01*
X17186730Y-13603150D02*
X17215301Y-13603150D01*
X17215301Y-13603150D02*
X17234349Y-13612674D01*
X17310539Y-13812674D02*
X17320063Y-13803150D01*
X17320063Y-13803150D02*
X17339111Y-13774579D01*
X17339111Y-13774579D02*
X17348634Y-13755531D01*
X17348634Y-13755531D02*
X17358158Y-13726960D01*
X17358158Y-13726960D02*
X17367682Y-13679341D01*
X17367682Y-13679341D02*
X17367682Y-13641246D01*
X17367682Y-13641246D02*
X17358158Y-13593627D01*
X17358158Y-13593627D02*
X17348634Y-13565055D01*
X17348634Y-13565055D02*
X17339111Y-13546008D01*
X17339111Y-13546008D02*
X17320063Y-13517436D01*
X17320063Y-13517436D02*
X17310539Y-13507912D01*
D10*
X12345000Y-13909000D02*
G75*
G02*
X12255000Y-13909000I-45000J0D01*
G01*
X12255000Y-13909000D02*
G75*
G02*
X12345000Y-13909000I45000J0D01*
G01*
D11*
X12643872Y-13800484D02*
X12662920Y-13800484D01*
X12662920Y-13800484D02*
X12681967Y-13810008D01*
X12681967Y-13810008D02*
X12691491Y-13819531D01*
X12691491Y-13819531D02*
X12701015Y-13838579D01*
X12701015Y-13838579D02*
X12710539Y-13876674D01*
X12710539Y-13876674D02*
X12710539Y-13924293D01*
X12710539Y-13924293D02*
X12701015Y-13962388D01*
X12701015Y-13962388D02*
X12691491Y-13981436D01*
X12691491Y-13981436D02*
X12681967Y-13990960D01*
X12681967Y-13990960D02*
X12662920Y-14000484D01*
X12662920Y-14000484D02*
X12643872Y-14000484D01*
X12643872Y-14000484D02*
X12624824Y-13990960D01*
X12624824Y-13990960D02*
X12615301Y-13981436D01*
X12615301Y-13981436D02*
X12605777Y-13962388D01*
X12605777Y-13962388D02*
X12596253Y-13924293D01*
X12596253Y-13924293D02*
X12596253Y-13876674D01*
X12596253Y-13876674D02*
X12605777Y-13838579D01*
X12605777Y-13838579D02*
X12615301Y-13819531D01*
X12615301Y-13819531D02*
X12624824Y-13810008D01*
X12624824Y-13810008D02*
X12643872Y-13800484D01*
X12805777Y-13990960D02*
X12805777Y-14000484D01*
X12805777Y-14000484D02*
X12796253Y-14019531D01*
X12796253Y-14019531D02*
X12786729Y-14029055D01*
X12901015Y-14000484D02*
X12939110Y-14000484D01*
X12939110Y-14000484D02*
X12958158Y-13990960D01*
X12958158Y-13990960D02*
X12967682Y-13981436D01*
X12967682Y-13981436D02*
X12986729Y-13952865D01*
X12986729Y-13952865D02*
X12996253Y-13914769D01*
X12996253Y-13914769D02*
X12996253Y-13838579D01*
X12996253Y-13838579D02*
X12986729Y-13819531D01*
X12986729Y-13819531D02*
X12977205Y-13810008D01*
X12977205Y-13810008D02*
X12958158Y-13800484D01*
X12958158Y-13800484D02*
X12920062Y-13800484D01*
X12920062Y-13800484D02*
X12901015Y-13810008D01*
X12901015Y-13810008D02*
X12891491Y-13819531D01*
X12891491Y-13819531D02*
X12881967Y-13838579D01*
X12881967Y-13838579D02*
X12881967Y-13886198D01*
X12881967Y-13886198D02*
X12891491Y-13905246D01*
X12891491Y-13905246D02*
X12901015Y-13914769D01*
X12901015Y-13914769D02*
X12920062Y-13924293D01*
X12920062Y-13924293D02*
X12958158Y-13924293D01*
X12958158Y-13924293D02*
X12977205Y-13914769D01*
X12977205Y-13914769D02*
X12986729Y-13905246D01*
X12986729Y-13905246D02*
X12996253Y-13886198D01*
X13120062Y-13800484D02*
X13139110Y-13800484D01*
X13139110Y-13800484D02*
X13158158Y-13810008D01*
X13158158Y-13810008D02*
X13167682Y-13819531D01*
X13167682Y-13819531D02*
X13177205Y-13838579D01*
X13177205Y-13838579D02*
X13186729Y-13876674D01*
X13186729Y-13876674D02*
X13186729Y-13924293D01*
X13186729Y-13924293D02*
X13177205Y-13962388D01*
X13177205Y-13962388D02*
X13167682Y-13981436D01*
X13167682Y-13981436D02*
X13158158Y-13990960D01*
X13158158Y-13990960D02*
X13139110Y-14000484D01*
X13139110Y-14000484D02*
X13120062Y-14000484D01*
X13120062Y-14000484D02*
X13101015Y-13990960D01*
X13101015Y-13990960D02*
X13091491Y-13981436D01*
X13091491Y-13981436D02*
X13081967Y-13962388D01*
X13081967Y-13962388D02*
X13072443Y-13924293D01*
X13072443Y-13924293D02*
X13072443Y-13876674D01*
X13072443Y-13876674D02*
X13081967Y-13838579D01*
X13081967Y-13838579D02*
X13091491Y-13819531D01*
X13091491Y-13819531D02*
X13101015Y-13810008D01*
X13101015Y-13810008D02*
X13120062Y-13800484D01*
X13310539Y-13800484D02*
X13329586Y-13800484D01*
X13329586Y-13800484D02*
X13348634Y-13810008D01*
X13348634Y-13810008D02*
X13358158Y-13819531D01*
X13358158Y-13819531D02*
X13367682Y-13838579D01*
X13367682Y-13838579D02*
X13377205Y-13876674D01*
X13377205Y-13876674D02*
X13377205Y-13924293D01*
X13377205Y-13924293D02*
X13367682Y-13962388D01*
X13367682Y-13962388D02*
X13358158Y-13981436D01*
X13358158Y-13981436D02*
X13348634Y-13990960D01*
X13348634Y-13990960D02*
X13329586Y-14000484D01*
X13329586Y-14000484D02*
X13310539Y-14000484D01*
X13310539Y-14000484D02*
X13291491Y-13990960D01*
X13291491Y-13990960D02*
X13281967Y-13981436D01*
X13281967Y-13981436D02*
X13272443Y-13962388D01*
X13272443Y-13962388D02*
X13262920Y-13924293D01*
X13262920Y-13924293D02*
X13262920Y-13876674D01*
X13262920Y-13876674D02*
X13272443Y-13838579D01*
X13272443Y-13838579D02*
X13281967Y-13819531D01*
X13281967Y-13819531D02*
X13291491Y-13810008D01*
X13291491Y-13810008D02*
X13310539Y-13800484D01*
X13462920Y-14000484D02*
X13462920Y-13867150D01*
X13462920Y-13886198D02*
X13472443Y-13876674D01*
X13472443Y-13876674D02*
X13491491Y-13867150D01*
X13491491Y-13867150D02*
X13520063Y-13867150D01*
X13520063Y-13867150D02*
X13539110Y-13876674D01*
X13539110Y-13876674D02*
X13548634Y-13895722D01*
X13548634Y-13895722D02*
X13548634Y-14000484D01*
X13548634Y-13895722D02*
X13558158Y-13876674D01*
X13558158Y-13876674D02*
X13577205Y-13867150D01*
X13577205Y-13867150D02*
X13605777Y-13867150D01*
X13605777Y-13867150D02*
X13624824Y-13876674D01*
X13624824Y-13876674D02*
X13634348Y-13895722D01*
X13634348Y-13895722D02*
X13634348Y-14000484D01*
X13729586Y-14000484D02*
X13729586Y-13867150D01*
X13729586Y-13886198D02*
X13739110Y-13876674D01*
X13739110Y-13876674D02*
X13758158Y-13867150D01*
X13758158Y-13867150D02*
X13786729Y-13867150D01*
X13786729Y-13867150D02*
X13805777Y-13876674D01*
X13805777Y-13876674D02*
X13815301Y-13895722D01*
X13815301Y-13895722D02*
X13815301Y-14000484D01*
X13815301Y-13895722D02*
X13824824Y-13876674D01*
X13824824Y-13876674D02*
X13843872Y-13867150D01*
X13843872Y-13867150D02*
X13872443Y-13867150D01*
X13872443Y-13867150D02*
X13891491Y-13876674D01*
X13891491Y-13876674D02*
X13901015Y-13895722D01*
X13901015Y-13895722D02*
X13901015Y-14000484D01*
X14291491Y-13790960D02*
X14120063Y-14048103D01*
X14548634Y-13800484D02*
X14567682Y-13800484D01*
X14567682Y-13800484D02*
X14586729Y-13810008D01*
X14586729Y-13810008D02*
X14596253Y-13819531D01*
X14596253Y-13819531D02*
X14605777Y-13838579D01*
X14605777Y-13838579D02*
X14615301Y-13876674D01*
X14615301Y-13876674D02*
X14615301Y-13924293D01*
X14615301Y-13924293D02*
X14605777Y-13962388D01*
X14605777Y-13962388D02*
X14596253Y-13981436D01*
X14596253Y-13981436D02*
X14586729Y-13990960D01*
X14586729Y-13990960D02*
X14567682Y-14000484D01*
X14567682Y-14000484D02*
X14548634Y-14000484D01*
X14548634Y-14000484D02*
X14529586Y-13990960D01*
X14529586Y-13990960D02*
X14520063Y-13981436D01*
X14520063Y-13981436D02*
X14510539Y-13962388D01*
X14510539Y-13962388D02*
X14501015Y-13924293D01*
X14501015Y-13924293D02*
X14501015Y-13876674D01*
X14501015Y-13876674D02*
X14510539Y-13838579D01*
X14510539Y-13838579D02*
X14520063Y-13819531D01*
X14520063Y-13819531D02*
X14529586Y-13810008D01*
X14529586Y-13810008D02*
X14548634Y-13800484D01*
X14710539Y-13990960D02*
X14710539Y-14000484D01*
X14710539Y-14000484D02*
X14701015Y-14019531D01*
X14701015Y-14019531D02*
X14691491Y-14029055D01*
X14834348Y-13800484D02*
X14853396Y-13800484D01*
X14853396Y-13800484D02*
X14872444Y-13810008D01*
X14872444Y-13810008D02*
X14881967Y-13819531D01*
X14881967Y-13819531D02*
X14891491Y-13838579D01*
X14891491Y-13838579D02*
X14901015Y-13876674D01*
X14901015Y-13876674D02*
X14901015Y-13924293D01*
X14901015Y-13924293D02*
X14891491Y-13962388D01*
X14891491Y-13962388D02*
X14881967Y-13981436D01*
X14881967Y-13981436D02*
X14872444Y-13990960D01*
X14872444Y-13990960D02*
X14853396Y-14000484D01*
X14853396Y-14000484D02*
X14834348Y-14000484D01*
X14834348Y-14000484D02*
X14815301Y-13990960D01*
X14815301Y-13990960D02*
X14805777Y-13981436D01*
X14805777Y-13981436D02*
X14796253Y-13962388D01*
X14796253Y-13962388D02*
X14786729Y-13924293D01*
X14786729Y-13924293D02*
X14786729Y-13876674D01*
X14786729Y-13876674D02*
X14796253Y-13838579D01*
X14796253Y-13838579D02*
X14805777Y-13819531D01*
X14805777Y-13819531D02*
X14815301Y-13810008D01*
X14815301Y-13810008D02*
X14834348Y-13800484D01*
X14967682Y-13800484D02*
X15091491Y-13800484D01*
X15091491Y-13800484D02*
X15024825Y-13876674D01*
X15024825Y-13876674D02*
X15053396Y-13876674D01*
X15053396Y-13876674D02*
X15072444Y-13886198D01*
X15072444Y-13886198D02*
X15081967Y-13895722D01*
X15081967Y-13895722D02*
X15091491Y-13914769D01*
X15091491Y-13914769D02*
X15091491Y-13962388D01*
X15091491Y-13962388D02*
X15081967Y-13981436D01*
X15081967Y-13981436D02*
X15072444Y-13990960D01*
X15072444Y-13990960D02*
X15053396Y-14000484D01*
X15053396Y-14000484D02*
X14996253Y-14000484D01*
X14996253Y-14000484D02*
X14977206Y-13990960D01*
X14977206Y-13990960D02*
X14967682Y-13981436D01*
X15272444Y-13800484D02*
X15177206Y-13800484D01*
X15177206Y-13800484D02*
X15167682Y-13895722D01*
X15167682Y-13895722D02*
X15177206Y-13886198D01*
X15177206Y-13886198D02*
X15196253Y-13876674D01*
X15196253Y-13876674D02*
X15243872Y-13876674D01*
X15243872Y-13876674D02*
X15262920Y-13886198D01*
X15262920Y-13886198D02*
X15272444Y-13895722D01*
X15272444Y-13895722D02*
X15281967Y-13914769D01*
X15281967Y-13914769D02*
X15281967Y-13962388D01*
X15281967Y-13962388D02*
X15272444Y-13981436D01*
X15272444Y-13981436D02*
X15262920Y-13990960D01*
X15262920Y-13990960D02*
X15243872Y-14000484D01*
X15243872Y-14000484D02*
X15196253Y-14000484D01*
X15196253Y-14000484D02*
X15177206Y-13990960D01*
X15177206Y-13990960D02*
X15167682Y-13981436D01*
X15453396Y-13867150D02*
X15453396Y-14000484D01*
X15405777Y-13790960D02*
X15358158Y-13933817D01*
X15358158Y-13933817D02*
X15481967Y-13933817D01*
X15548634Y-13800484D02*
X15548634Y-13838579D01*
X15624825Y-13800484D02*
X15624825Y-13838579D01*
X15920063Y-14076674D02*
X15910539Y-14067150D01*
X15910539Y-14067150D02*
X15891491Y-14038579D01*
X15891491Y-14038579D02*
X15881968Y-14019531D01*
X15881968Y-14019531D02*
X15872444Y-13990960D01*
X15872444Y-13990960D02*
X15862920Y-13943341D01*
X15862920Y-13943341D02*
X15862920Y-13905246D01*
X15862920Y-13905246D02*
X15872444Y-13857627D01*
X15872444Y-13857627D02*
X15881968Y-13829055D01*
X15881968Y-13829055D02*
X15891491Y-13810008D01*
X15891491Y-13810008D02*
X15910539Y-13781436D01*
X15910539Y-13781436D02*
X15920063Y-13771912D01*
X16081968Y-13867150D02*
X16081968Y-14000484D01*
X16034348Y-13790960D02*
X15986729Y-13933817D01*
X15986729Y-13933817D02*
X16110539Y-13933817D01*
X16339110Y-14000484D02*
X16339110Y-13800484D01*
X16424825Y-14000484D02*
X16424825Y-13895722D01*
X16424825Y-13895722D02*
X16415301Y-13876674D01*
X16415301Y-13876674D02*
X16396253Y-13867150D01*
X16396253Y-13867150D02*
X16367682Y-13867150D01*
X16367682Y-13867150D02*
X16348634Y-13876674D01*
X16348634Y-13876674D02*
X16339110Y-13886198D01*
X16548634Y-14000484D02*
X16529587Y-13990960D01*
X16529587Y-13990960D02*
X16520063Y-13981436D01*
X16520063Y-13981436D02*
X16510539Y-13962388D01*
X16510539Y-13962388D02*
X16510539Y-13905246D01*
X16510539Y-13905246D02*
X16520063Y-13886198D01*
X16520063Y-13886198D02*
X16529587Y-13876674D01*
X16529587Y-13876674D02*
X16548634Y-13867150D01*
X16548634Y-13867150D02*
X16577206Y-13867150D01*
X16577206Y-13867150D02*
X16596253Y-13876674D01*
X16596253Y-13876674D02*
X16605777Y-13886198D01*
X16605777Y-13886198D02*
X16615301Y-13905246D01*
X16615301Y-13905246D02*
X16615301Y-13962388D01*
X16615301Y-13962388D02*
X16605777Y-13981436D01*
X16605777Y-13981436D02*
X16596253Y-13990960D01*
X16596253Y-13990960D02*
X16577206Y-14000484D01*
X16577206Y-14000484D02*
X16548634Y-14000484D01*
X16729587Y-14000484D02*
X16710539Y-13990960D01*
X16710539Y-13990960D02*
X16701015Y-13971912D01*
X16701015Y-13971912D02*
X16701015Y-13800484D01*
X16881968Y-13990960D02*
X16862920Y-14000484D01*
X16862920Y-14000484D02*
X16824825Y-14000484D01*
X16824825Y-14000484D02*
X16805777Y-13990960D01*
X16805777Y-13990960D02*
X16796253Y-13971912D01*
X16796253Y-13971912D02*
X16796253Y-13895722D01*
X16796253Y-13895722D02*
X16805777Y-13876674D01*
X16805777Y-13876674D02*
X16824825Y-13867150D01*
X16824825Y-13867150D02*
X16862920Y-13867150D01*
X16862920Y-13867150D02*
X16881968Y-13876674D01*
X16881968Y-13876674D02*
X16891492Y-13895722D01*
X16891492Y-13895722D02*
X16891492Y-13914769D01*
X16891492Y-13914769D02*
X16796253Y-13933817D01*
X16967682Y-13990960D02*
X16986730Y-14000484D01*
X16986730Y-14000484D02*
X17024825Y-14000484D01*
X17024825Y-14000484D02*
X17043873Y-13990960D01*
X17043873Y-13990960D02*
X17053396Y-13971912D01*
X17053396Y-13971912D02*
X17053396Y-13962388D01*
X17053396Y-13962388D02*
X17043873Y-13943341D01*
X17043873Y-13943341D02*
X17024825Y-13933817D01*
X17024825Y-13933817D02*
X16996253Y-13933817D01*
X16996253Y-13933817D02*
X16977206Y-13924293D01*
X16977206Y-13924293D02*
X16967682Y-13905246D01*
X16967682Y-13905246D02*
X16967682Y-13895722D01*
X16967682Y-13895722D02*
X16977206Y-13876674D01*
X16977206Y-13876674D02*
X16996253Y-13867150D01*
X16996253Y-13867150D02*
X17024825Y-13867150D01*
X17024825Y-13867150D02*
X17043873Y-13876674D01*
X17120063Y-14076674D02*
X17129587Y-14067150D01*
X17129587Y-14067150D02*
X17148634Y-14038579D01*
X17148634Y-14038579D02*
X17158158Y-14019531D01*
X17158158Y-14019531D02*
X17167682Y-13990960D01*
X17167682Y-13990960D02*
X17177206Y-13943341D01*
X17177206Y-13943341D02*
X17177206Y-13905246D01*
X17177206Y-13905246D02*
X17167682Y-13857627D01*
X17167682Y-13857627D02*
X17158158Y-13829055D01*
X17158158Y-13829055D02*
X17148634Y-13810008D01*
X17148634Y-13810008D02*
X17129587Y-13781436D01*
X17129587Y-13781436D02*
X17120063Y-13771912D01*
D10*
X12295000Y-14123000D02*
X12295000Y-14223000D01*
X12245000Y-14173000D02*
X12345000Y-14173000D01*
D11*
X12710539Y-14264484D02*
X12596253Y-14264484D01*
X12653396Y-14264484D02*
X12653396Y-14064484D01*
X12653396Y-14064484D02*
X12634348Y-14093055D01*
X12634348Y-14093055D02*
X12615301Y-14112103D01*
X12615301Y-14112103D02*
X12596253Y-14121627D01*
X12805777Y-14254960D02*
X12805777Y-14264484D01*
X12805777Y-14264484D02*
X12796253Y-14283531D01*
X12796253Y-14283531D02*
X12786729Y-14293055D01*
X12929586Y-14064484D02*
X12948634Y-14064484D01*
X12948634Y-14064484D02*
X12967682Y-14074008D01*
X12967682Y-14074008D02*
X12977205Y-14083531D01*
X12977205Y-14083531D02*
X12986729Y-14102579D01*
X12986729Y-14102579D02*
X12996253Y-14140674D01*
X12996253Y-14140674D02*
X12996253Y-14188293D01*
X12996253Y-14188293D02*
X12986729Y-14226388D01*
X12986729Y-14226388D02*
X12977205Y-14245436D01*
X12977205Y-14245436D02*
X12967682Y-14254960D01*
X12967682Y-14254960D02*
X12948634Y-14264484D01*
X12948634Y-14264484D02*
X12929586Y-14264484D01*
X12929586Y-14264484D02*
X12910539Y-14254960D01*
X12910539Y-14254960D02*
X12901015Y-14245436D01*
X12901015Y-14245436D02*
X12891491Y-14226388D01*
X12891491Y-14226388D02*
X12881967Y-14188293D01*
X12881967Y-14188293D02*
X12881967Y-14140674D01*
X12881967Y-14140674D02*
X12891491Y-14102579D01*
X12891491Y-14102579D02*
X12901015Y-14083531D01*
X12901015Y-14083531D02*
X12910539Y-14074008D01*
X12910539Y-14074008D02*
X12929586Y-14064484D01*
X13120062Y-14064484D02*
X13139110Y-14064484D01*
X13139110Y-14064484D02*
X13158158Y-14074008D01*
X13158158Y-14074008D02*
X13167682Y-14083531D01*
X13167682Y-14083531D02*
X13177205Y-14102579D01*
X13177205Y-14102579D02*
X13186729Y-14140674D01*
X13186729Y-14140674D02*
X13186729Y-14188293D01*
X13186729Y-14188293D02*
X13177205Y-14226388D01*
X13177205Y-14226388D02*
X13167682Y-14245436D01*
X13167682Y-14245436D02*
X13158158Y-14254960D01*
X13158158Y-14254960D02*
X13139110Y-14264484D01*
X13139110Y-14264484D02*
X13120062Y-14264484D01*
X13120062Y-14264484D02*
X13101015Y-14254960D01*
X13101015Y-14254960D02*
X13091491Y-14245436D01*
X13091491Y-14245436D02*
X13081967Y-14226388D01*
X13081967Y-14226388D02*
X13072443Y-14188293D01*
X13072443Y-14188293D02*
X13072443Y-14140674D01*
X13072443Y-14140674D02*
X13081967Y-14102579D01*
X13081967Y-14102579D02*
X13091491Y-14083531D01*
X13091491Y-14083531D02*
X13101015Y-14074008D01*
X13101015Y-14074008D02*
X13120062Y-14064484D01*
X13310539Y-14064484D02*
X13329586Y-14064484D01*
X13329586Y-14064484D02*
X13348634Y-14074008D01*
X13348634Y-14074008D02*
X13358158Y-14083531D01*
X13358158Y-14083531D02*
X13367682Y-14102579D01*
X13367682Y-14102579D02*
X13377205Y-14140674D01*
X13377205Y-14140674D02*
X13377205Y-14188293D01*
X13377205Y-14188293D02*
X13367682Y-14226388D01*
X13367682Y-14226388D02*
X13358158Y-14245436D01*
X13358158Y-14245436D02*
X13348634Y-14254960D01*
X13348634Y-14254960D02*
X13329586Y-14264484D01*
X13329586Y-14264484D02*
X13310539Y-14264484D01*
X13310539Y-14264484D02*
X13291491Y-14254960D01*
X13291491Y-14254960D02*
X13281967Y-14245436D01*
X13281967Y-14245436D02*
X13272443Y-14226388D01*
X13272443Y-14226388D02*
X13262920Y-14188293D01*
X13262920Y-14188293D02*
X13262920Y-14140674D01*
X13262920Y-14140674D02*
X13272443Y-14102579D01*
X13272443Y-14102579D02*
X13281967Y-14083531D01*
X13281967Y-14083531D02*
X13291491Y-14074008D01*
X13291491Y-14074008D02*
X13310539Y-14064484D01*
X13462920Y-14264484D02*
X13462920Y-14131150D01*
X13462920Y-14150198D02*
X13472443Y-14140674D01*
X13472443Y-14140674D02*
X13491491Y-14131150D01*
X13491491Y-14131150D02*
X13520063Y-14131150D01*
X13520063Y-14131150D02*
X13539110Y-14140674D01*
X13539110Y-14140674D02*
X13548634Y-14159722D01*
X13548634Y-14159722D02*
X13548634Y-14264484D01*
X13548634Y-14159722D02*
X13558158Y-14140674D01*
X13558158Y-14140674D02*
X13577205Y-14131150D01*
X13577205Y-14131150D02*
X13605777Y-14131150D01*
X13605777Y-14131150D02*
X13624824Y-14140674D01*
X13624824Y-14140674D02*
X13634348Y-14159722D01*
X13634348Y-14159722D02*
X13634348Y-14264484D01*
X13729586Y-14264484D02*
X13729586Y-14131150D01*
X13729586Y-14150198D02*
X13739110Y-14140674D01*
X13739110Y-14140674D02*
X13758158Y-14131150D01*
X13758158Y-14131150D02*
X13786729Y-14131150D01*
X13786729Y-14131150D02*
X13805777Y-14140674D01*
X13805777Y-14140674D02*
X13815301Y-14159722D01*
X13815301Y-14159722D02*
X13815301Y-14264484D01*
X13815301Y-14159722D02*
X13824824Y-14140674D01*
X13824824Y-14140674D02*
X13843872Y-14131150D01*
X13843872Y-14131150D02*
X13872443Y-14131150D01*
X13872443Y-14131150D02*
X13891491Y-14140674D01*
X13891491Y-14140674D02*
X13901015Y-14159722D01*
X13901015Y-14159722D02*
X13901015Y-14264484D01*
X14291491Y-14054960D02*
X14120063Y-14312103D01*
X14548634Y-14064484D02*
X14567682Y-14064484D01*
X14567682Y-14064484D02*
X14586729Y-14074008D01*
X14586729Y-14074008D02*
X14596253Y-14083531D01*
X14596253Y-14083531D02*
X14605777Y-14102579D01*
X14605777Y-14102579D02*
X14615301Y-14140674D01*
X14615301Y-14140674D02*
X14615301Y-14188293D01*
X14615301Y-14188293D02*
X14605777Y-14226388D01*
X14605777Y-14226388D02*
X14596253Y-14245436D01*
X14596253Y-14245436D02*
X14586729Y-14254960D01*
X14586729Y-14254960D02*
X14567682Y-14264484D01*
X14567682Y-14264484D02*
X14548634Y-14264484D01*
X14548634Y-14264484D02*
X14529586Y-14254960D01*
X14529586Y-14254960D02*
X14520063Y-14245436D01*
X14520063Y-14245436D02*
X14510539Y-14226388D01*
X14510539Y-14226388D02*
X14501015Y-14188293D01*
X14501015Y-14188293D02*
X14501015Y-14140674D01*
X14501015Y-14140674D02*
X14510539Y-14102579D01*
X14510539Y-14102579D02*
X14520063Y-14083531D01*
X14520063Y-14083531D02*
X14529586Y-14074008D01*
X14529586Y-14074008D02*
X14548634Y-14064484D01*
X14710539Y-14254960D02*
X14710539Y-14264484D01*
X14710539Y-14264484D02*
X14701015Y-14283531D01*
X14701015Y-14283531D02*
X14691491Y-14293055D01*
X14834348Y-14064484D02*
X14853396Y-14064484D01*
X14853396Y-14064484D02*
X14872444Y-14074008D01*
X14872444Y-14074008D02*
X14881967Y-14083531D01*
X14881967Y-14083531D02*
X14891491Y-14102579D01*
X14891491Y-14102579D02*
X14901015Y-14140674D01*
X14901015Y-14140674D02*
X14901015Y-14188293D01*
X14901015Y-14188293D02*
X14891491Y-14226388D01*
X14891491Y-14226388D02*
X14881967Y-14245436D01*
X14881967Y-14245436D02*
X14872444Y-14254960D01*
X14872444Y-14254960D02*
X14853396Y-14264484D01*
X14853396Y-14264484D02*
X14834348Y-14264484D01*
X14834348Y-14264484D02*
X14815301Y-14254960D01*
X14815301Y-14254960D02*
X14805777Y-14245436D01*
X14805777Y-14245436D02*
X14796253Y-14226388D01*
X14796253Y-14226388D02*
X14786729Y-14188293D01*
X14786729Y-14188293D02*
X14786729Y-14140674D01*
X14786729Y-14140674D02*
X14796253Y-14102579D01*
X14796253Y-14102579D02*
X14805777Y-14083531D01*
X14805777Y-14083531D02*
X14815301Y-14074008D01*
X14815301Y-14074008D02*
X14834348Y-14064484D01*
X14967682Y-14064484D02*
X15091491Y-14064484D01*
X15091491Y-14064484D02*
X15024825Y-14140674D01*
X15024825Y-14140674D02*
X15053396Y-14140674D01*
X15053396Y-14140674D02*
X15072444Y-14150198D01*
X15072444Y-14150198D02*
X15081967Y-14159722D01*
X15081967Y-14159722D02*
X15091491Y-14178769D01*
X15091491Y-14178769D02*
X15091491Y-14226388D01*
X15091491Y-14226388D02*
X15081967Y-14245436D01*
X15081967Y-14245436D02*
X15072444Y-14254960D01*
X15072444Y-14254960D02*
X15053396Y-14264484D01*
X15053396Y-14264484D02*
X14996253Y-14264484D01*
X14996253Y-14264484D02*
X14977206Y-14254960D01*
X14977206Y-14254960D02*
X14967682Y-14245436D01*
X15186729Y-14264484D02*
X15224825Y-14264484D01*
X15224825Y-14264484D02*
X15243872Y-14254960D01*
X15243872Y-14254960D02*
X15253396Y-14245436D01*
X15253396Y-14245436D02*
X15272444Y-14216865D01*
X15272444Y-14216865D02*
X15281967Y-14178769D01*
X15281967Y-14178769D02*
X15281967Y-14102579D01*
X15281967Y-14102579D02*
X15272444Y-14083531D01*
X15272444Y-14083531D02*
X15262920Y-14074008D01*
X15262920Y-14074008D02*
X15243872Y-14064484D01*
X15243872Y-14064484D02*
X15205777Y-14064484D01*
X15205777Y-14064484D02*
X15186729Y-14074008D01*
X15186729Y-14074008D02*
X15177206Y-14083531D01*
X15177206Y-14083531D02*
X15167682Y-14102579D01*
X15167682Y-14102579D02*
X15167682Y-14150198D01*
X15167682Y-14150198D02*
X15177206Y-14169246D01*
X15177206Y-14169246D02*
X15186729Y-14178769D01*
X15186729Y-14178769D02*
X15205777Y-14188293D01*
X15205777Y-14188293D02*
X15243872Y-14188293D01*
X15243872Y-14188293D02*
X15262920Y-14178769D01*
X15262920Y-14178769D02*
X15272444Y-14169246D01*
X15272444Y-14169246D02*
X15281967Y-14150198D01*
X15453396Y-14131150D02*
X15453396Y-14264484D01*
X15405777Y-14054960D02*
X15358158Y-14197817D01*
X15358158Y-14197817D02*
X15481967Y-14197817D01*
X15548634Y-14064484D02*
X15548634Y-14102579D01*
X15624825Y-14064484D02*
X15624825Y-14102579D01*
X15920063Y-14340674D02*
X15910539Y-14331150D01*
X15910539Y-14331150D02*
X15891491Y-14302579D01*
X15891491Y-14302579D02*
X15881968Y-14283531D01*
X15881968Y-14283531D02*
X15872444Y-14254960D01*
X15872444Y-14254960D02*
X15862920Y-14207341D01*
X15862920Y-14207341D02*
X15862920Y-14169246D01*
X15862920Y-14169246D02*
X15872444Y-14121627D01*
X15872444Y-14121627D02*
X15881968Y-14093055D01*
X15881968Y-14093055D02*
X15891491Y-14074008D01*
X15891491Y-14074008D02*
X15910539Y-14045436D01*
X15910539Y-14045436D02*
X15920063Y-14035912D01*
X16101015Y-14264484D02*
X15986729Y-14264484D01*
X16043872Y-14264484D02*
X16043872Y-14064484D01*
X16043872Y-14064484D02*
X16024825Y-14093055D01*
X16024825Y-14093055D02*
X16005777Y-14112103D01*
X16005777Y-14112103D02*
X15986729Y-14121627D01*
X16215301Y-14150198D02*
X16196253Y-14140674D01*
X16196253Y-14140674D02*
X16186729Y-14131150D01*
X16186729Y-14131150D02*
X16177206Y-14112103D01*
X16177206Y-14112103D02*
X16177206Y-14102579D01*
X16177206Y-14102579D02*
X16186729Y-14083531D01*
X16186729Y-14083531D02*
X16196253Y-14074008D01*
X16196253Y-14074008D02*
X16215301Y-14064484D01*
X16215301Y-14064484D02*
X16253396Y-14064484D01*
X16253396Y-14064484D02*
X16272444Y-14074008D01*
X16272444Y-14074008D02*
X16281968Y-14083531D01*
X16281968Y-14083531D02*
X16291491Y-14102579D01*
X16291491Y-14102579D02*
X16291491Y-14112103D01*
X16291491Y-14112103D02*
X16281968Y-14131150D01*
X16281968Y-14131150D02*
X16272444Y-14140674D01*
X16272444Y-14140674D02*
X16253396Y-14150198D01*
X16253396Y-14150198D02*
X16215301Y-14150198D01*
X16215301Y-14150198D02*
X16196253Y-14159722D01*
X16196253Y-14159722D02*
X16186729Y-14169246D01*
X16186729Y-14169246D02*
X16177206Y-14188293D01*
X16177206Y-14188293D02*
X16177206Y-14226388D01*
X16177206Y-14226388D02*
X16186729Y-14245436D01*
X16186729Y-14245436D02*
X16196253Y-14254960D01*
X16196253Y-14254960D02*
X16215301Y-14264484D01*
X16215301Y-14264484D02*
X16253396Y-14264484D01*
X16253396Y-14264484D02*
X16272444Y-14254960D01*
X16272444Y-14254960D02*
X16281968Y-14245436D01*
X16281968Y-14245436D02*
X16291491Y-14226388D01*
X16291491Y-14226388D02*
X16291491Y-14188293D01*
X16291491Y-14188293D02*
X16281968Y-14169246D01*
X16281968Y-14169246D02*
X16272444Y-14159722D01*
X16272444Y-14159722D02*
X16253396Y-14150198D01*
X16529587Y-14264484D02*
X16529587Y-14064484D01*
X16615301Y-14264484D02*
X16615301Y-14159722D01*
X16615301Y-14159722D02*
X16605777Y-14140674D01*
X16605777Y-14140674D02*
X16586730Y-14131150D01*
X16586730Y-14131150D02*
X16558158Y-14131150D01*
X16558158Y-14131150D02*
X16539110Y-14140674D01*
X16539110Y-14140674D02*
X16529587Y-14150198D01*
X16739110Y-14264484D02*
X16720063Y-14254960D01*
X16720063Y-14254960D02*
X16710539Y-14245436D01*
X16710539Y-14245436D02*
X16701015Y-14226388D01*
X16701015Y-14226388D02*
X16701015Y-14169246D01*
X16701015Y-14169246D02*
X16710539Y-14150198D01*
X16710539Y-14150198D02*
X16720063Y-14140674D01*
X16720063Y-14140674D02*
X16739110Y-14131150D01*
X16739110Y-14131150D02*
X16767682Y-14131150D01*
X16767682Y-14131150D02*
X16786730Y-14140674D01*
X16786730Y-14140674D02*
X16796253Y-14150198D01*
X16796253Y-14150198D02*
X16805777Y-14169246D01*
X16805777Y-14169246D02*
X16805777Y-14226388D01*
X16805777Y-14226388D02*
X16796253Y-14245436D01*
X16796253Y-14245436D02*
X16786730Y-14254960D01*
X16786730Y-14254960D02*
X16767682Y-14264484D01*
X16767682Y-14264484D02*
X16739110Y-14264484D01*
X16920063Y-14264484D02*
X16901015Y-14254960D01*
X16901015Y-14254960D02*
X16891492Y-14235912D01*
X16891492Y-14235912D02*
X16891492Y-14064484D01*
X17072444Y-14254960D02*
X17053396Y-14264484D01*
X17053396Y-14264484D02*
X17015301Y-14264484D01*
X17015301Y-14264484D02*
X16996253Y-14254960D01*
X16996253Y-14254960D02*
X16986730Y-14235912D01*
X16986730Y-14235912D02*
X16986730Y-14159722D01*
X16986730Y-14159722D02*
X16996253Y-14140674D01*
X16996253Y-14140674D02*
X17015301Y-14131150D01*
X17015301Y-14131150D02*
X17053396Y-14131150D01*
X17053396Y-14131150D02*
X17072444Y-14140674D01*
X17072444Y-14140674D02*
X17081968Y-14159722D01*
X17081968Y-14159722D02*
X17081968Y-14178769D01*
X17081968Y-14178769D02*
X16986730Y-14197817D01*
X17158158Y-14254960D02*
X17177206Y-14264484D01*
X17177206Y-14264484D02*
X17215301Y-14264484D01*
X17215301Y-14264484D02*
X17234349Y-14254960D01*
X17234349Y-14254960D02*
X17243873Y-14235912D01*
X17243873Y-14235912D02*
X17243873Y-14226388D01*
X17243873Y-14226388D02*
X17234349Y-14207341D01*
X17234349Y-14207341D02*
X17215301Y-14197817D01*
X17215301Y-14197817D02*
X17186730Y-14197817D01*
X17186730Y-14197817D02*
X17167682Y-14188293D01*
X17167682Y-14188293D02*
X17158158Y-14169246D01*
X17158158Y-14169246D02*
X17158158Y-14159722D01*
X17158158Y-14159722D02*
X17167682Y-14140674D01*
X17167682Y-14140674D02*
X17186730Y-14131150D01*
X17186730Y-14131150D02*
X17215301Y-14131150D01*
X17215301Y-14131150D02*
X17234349Y-14140674D01*
X17310539Y-14340674D02*
X17320063Y-14331150D01*
X17320063Y-14331150D02*
X17339111Y-14302579D01*
X17339111Y-14302579D02*
X17348634Y-14283531D01*
X17348634Y-14283531D02*
X17358158Y-14254960D01*
X17358158Y-14254960D02*
X17367682Y-14207341D01*
X17367682Y-14207341D02*
X17367682Y-14169246D01*
X17367682Y-14169246D02*
X17358158Y-14121627D01*
X17358158Y-14121627D02*
X17348634Y-14093055D01*
X17348634Y-14093055D02*
X17339111Y-14074008D01*
X17339111Y-14074008D02*
X17320063Y-14045436D01*
X17320063Y-14045436D02*
X17310539Y-14035912D01*
D12*
X12328891Y-14475891D02*
X12328891Y-14398109D01*
X12251109Y-14398109D01*
X12251109Y-14475891D01*
X12328891Y-14475891D01*
D11*
X12710539Y-14528484D02*
X12596253Y-14528484D01*
X12653396Y-14528484D02*
X12653396Y-14328484D01*
X12653396Y-14328484D02*
X12634348Y-14357055D01*
X12634348Y-14357055D02*
X12615301Y-14376103D01*
X12615301Y-14376103D02*
X12596253Y-14385627D01*
X12805777Y-14518960D02*
X12805777Y-14528484D01*
X12805777Y-14528484D02*
X12796253Y-14547531D01*
X12796253Y-14547531D02*
X12786729Y-14557055D01*
X12996253Y-14528484D02*
X12881967Y-14528484D01*
X12939110Y-14528484D02*
X12939110Y-14328484D01*
X12939110Y-14328484D02*
X12920062Y-14357055D01*
X12920062Y-14357055D02*
X12901015Y-14376103D01*
X12901015Y-14376103D02*
X12881967Y-14385627D01*
X13120062Y-14328484D02*
X13139110Y-14328484D01*
X13139110Y-14328484D02*
X13158158Y-14338008D01*
X13158158Y-14338008D02*
X13167682Y-14347531D01*
X13167682Y-14347531D02*
X13177205Y-14366579D01*
X13177205Y-14366579D02*
X13186729Y-14404674D01*
X13186729Y-14404674D02*
X13186729Y-14452293D01*
X13186729Y-14452293D02*
X13177205Y-14490388D01*
X13177205Y-14490388D02*
X13167682Y-14509436D01*
X13167682Y-14509436D02*
X13158158Y-14518960D01*
X13158158Y-14518960D02*
X13139110Y-14528484D01*
X13139110Y-14528484D02*
X13120062Y-14528484D01*
X13120062Y-14528484D02*
X13101015Y-14518960D01*
X13101015Y-14518960D02*
X13091491Y-14509436D01*
X13091491Y-14509436D02*
X13081967Y-14490388D01*
X13081967Y-14490388D02*
X13072443Y-14452293D01*
X13072443Y-14452293D02*
X13072443Y-14404674D01*
X13072443Y-14404674D02*
X13081967Y-14366579D01*
X13081967Y-14366579D02*
X13091491Y-14347531D01*
X13091491Y-14347531D02*
X13101015Y-14338008D01*
X13101015Y-14338008D02*
X13120062Y-14328484D01*
X13310539Y-14328484D02*
X13329586Y-14328484D01*
X13329586Y-14328484D02*
X13348634Y-14338008D01*
X13348634Y-14338008D02*
X13358158Y-14347531D01*
X13358158Y-14347531D02*
X13367682Y-14366579D01*
X13367682Y-14366579D02*
X13377205Y-14404674D01*
X13377205Y-14404674D02*
X13377205Y-14452293D01*
X13377205Y-14452293D02*
X13367682Y-14490388D01*
X13367682Y-14490388D02*
X13358158Y-14509436D01*
X13358158Y-14509436D02*
X13348634Y-14518960D01*
X13348634Y-14518960D02*
X13329586Y-14528484D01*
X13329586Y-14528484D02*
X13310539Y-14528484D01*
X13310539Y-14528484D02*
X13291491Y-14518960D01*
X13291491Y-14518960D02*
X13281967Y-14509436D01*
X13281967Y-14509436D02*
X13272443Y-14490388D01*
X13272443Y-14490388D02*
X13262920Y-14452293D01*
X13262920Y-14452293D02*
X13262920Y-14404674D01*
X13262920Y-14404674D02*
X13272443Y-14366579D01*
X13272443Y-14366579D02*
X13281967Y-14347531D01*
X13281967Y-14347531D02*
X13291491Y-14338008D01*
X13291491Y-14338008D02*
X13310539Y-14328484D01*
X13462920Y-14528484D02*
X13462920Y-14395150D01*
X13462920Y-14414198D02*
X13472443Y-14404674D01*
X13472443Y-14404674D02*
X13491491Y-14395150D01*
X13491491Y-14395150D02*
X13520063Y-14395150D01*
X13520063Y-14395150D02*
X13539110Y-14404674D01*
X13539110Y-14404674D02*
X13548634Y-14423722D01*
X13548634Y-14423722D02*
X13548634Y-14528484D01*
X13548634Y-14423722D02*
X13558158Y-14404674D01*
X13558158Y-14404674D02*
X13577205Y-14395150D01*
X13577205Y-14395150D02*
X13605777Y-14395150D01*
X13605777Y-14395150D02*
X13624824Y-14404674D01*
X13624824Y-14404674D02*
X13634348Y-14423722D01*
X13634348Y-14423722D02*
X13634348Y-14528484D01*
X13729586Y-14528484D02*
X13729586Y-14395150D01*
X13729586Y-14414198D02*
X13739110Y-14404674D01*
X13739110Y-14404674D02*
X13758158Y-14395150D01*
X13758158Y-14395150D02*
X13786729Y-14395150D01*
X13786729Y-14395150D02*
X13805777Y-14404674D01*
X13805777Y-14404674D02*
X13815301Y-14423722D01*
X13815301Y-14423722D02*
X13815301Y-14528484D01*
X13815301Y-14423722D02*
X13824824Y-14404674D01*
X13824824Y-14404674D02*
X13843872Y-14395150D01*
X13843872Y-14395150D02*
X13872443Y-14395150D01*
X13872443Y-14395150D02*
X13891491Y-14404674D01*
X13891491Y-14404674D02*
X13901015Y-14423722D01*
X13901015Y-14423722D02*
X13901015Y-14528484D01*
X14291491Y-14318960D02*
X14120063Y-14576103D01*
X14548634Y-14328484D02*
X14567682Y-14328484D01*
X14567682Y-14328484D02*
X14586729Y-14338008D01*
X14586729Y-14338008D02*
X14596253Y-14347531D01*
X14596253Y-14347531D02*
X14605777Y-14366579D01*
X14605777Y-14366579D02*
X14615301Y-14404674D01*
X14615301Y-14404674D02*
X14615301Y-14452293D01*
X14615301Y-14452293D02*
X14605777Y-14490388D01*
X14605777Y-14490388D02*
X14596253Y-14509436D01*
X14596253Y-14509436D02*
X14586729Y-14518960D01*
X14586729Y-14518960D02*
X14567682Y-14528484D01*
X14567682Y-14528484D02*
X14548634Y-14528484D01*
X14548634Y-14528484D02*
X14529586Y-14518960D01*
X14529586Y-14518960D02*
X14520063Y-14509436D01*
X14520063Y-14509436D02*
X14510539Y-14490388D01*
X14510539Y-14490388D02*
X14501015Y-14452293D01*
X14501015Y-14452293D02*
X14501015Y-14404674D01*
X14501015Y-14404674D02*
X14510539Y-14366579D01*
X14510539Y-14366579D02*
X14520063Y-14347531D01*
X14520063Y-14347531D02*
X14529586Y-14338008D01*
X14529586Y-14338008D02*
X14548634Y-14328484D01*
X14710539Y-14518960D02*
X14710539Y-14528484D01*
X14710539Y-14528484D02*
X14701015Y-14547531D01*
X14701015Y-14547531D02*
X14691491Y-14557055D01*
X14834348Y-14328484D02*
X14853396Y-14328484D01*
X14853396Y-14328484D02*
X14872444Y-14338008D01*
X14872444Y-14338008D02*
X14881967Y-14347531D01*
X14881967Y-14347531D02*
X14891491Y-14366579D01*
X14891491Y-14366579D02*
X14901015Y-14404674D01*
X14901015Y-14404674D02*
X14901015Y-14452293D01*
X14901015Y-14452293D02*
X14891491Y-14490388D01*
X14891491Y-14490388D02*
X14881967Y-14509436D01*
X14881967Y-14509436D02*
X14872444Y-14518960D01*
X14872444Y-14518960D02*
X14853396Y-14528484D01*
X14853396Y-14528484D02*
X14834348Y-14528484D01*
X14834348Y-14528484D02*
X14815301Y-14518960D01*
X14815301Y-14518960D02*
X14805777Y-14509436D01*
X14805777Y-14509436D02*
X14796253Y-14490388D01*
X14796253Y-14490388D02*
X14786729Y-14452293D01*
X14786729Y-14452293D02*
X14786729Y-14404674D01*
X14786729Y-14404674D02*
X14796253Y-14366579D01*
X14796253Y-14366579D02*
X14805777Y-14347531D01*
X14805777Y-14347531D02*
X14815301Y-14338008D01*
X14815301Y-14338008D02*
X14834348Y-14328484D01*
X15072444Y-14395150D02*
X15072444Y-14528484D01*
X15024825Y-14318960D02*
X14977206Y-14461817D01*
X14977206Y-14461817D02*
X15101015Y-14461817D01*
X15158158Y-14328484D02*
X15281967Y-14328484D01*
X15281967Y-14328484D02*
X15215301Y-14404674D01*
X15215301Y-14404674D02*
X15243872Y-14404674D01*
X15243872Y-14404674D02*
X15262920Y-14414198D01*
X15262920Y-14414198D02*
X15272444Y-14423722D01*
X15272444Y-14423722D02*
X15281967Y-14442769D01*
X15281967Y-14442769D02*
X15281967Y-14490388D01*
X15281967Y-14490388D02*
X15272444Y-14509436D01*
X15272444Y-14509436D02*
X15262920Y-14518960D01*
X15262920Y-14518960D02*
X15243872Y-14528484D01*
X15243872Y-14528484D02*
X15186729Y-14528484D01*
X15186729Y-14528484D02*
X15167682Y-14518960D01*
X15167682Y-14518960D02*
X15158158Y-14509436D01*
X15348634Y-14328484D02*
X15472444Y-14328484D01*
X15472444Y-14328484D02*
X15405777Y-14404674D01*
X15405777Y-14404674D02*
X15434348Y-14404674D01*
X15434348Y-14404674D02*
X15453396Y-14414198D01*
X15453396Y-14414198D02*
X15462920Y-14423722D01*
X15462920Y-14423722D02*
X15472444Y-14442769D01*
X15472444Y-14442769D02*
X15472444Y-14490388D01*
X15472444Y-14490388D02*
X15462920Y-14509436D01*
X15462920Y-14509436D02*
X15453396Y-14518960D01*
X15453396Y-14518960D02*
X15434348Y-14528484D01*
X15434348Y-14528484D02*
X15377206Y-14528484D01*
X15377206Y-14528484D02*
X15358158Y-14518960D01*
X15358158Y-14518960D02*
X15348634Y-14509436D01*
X15548634Y-14328484D02*
X15548634Y-14366579D01*
X15624825Y-14328484D02*
X15624825Y-14366579D01*
X15920063Y-14604674D02*
X15910539Y-14595150D01*
X15910539Y-14595150D02*
X15891491Y-14566579D01*
X15891491Y-14566579D02*
X15881968Y-14547531D01*
X15881968Y-14547531D02*
X15872444Y-14518960D01*
X15872444Y-14518960D02*
X15862920Y-14471341D01*
X15862920Y-14471341D02*
X15862920Y-14433246D01*
X15862920Y-14433246D02*
X15872444Y-14385627D01*
X15872444Y-14385627D02*
X15881968Y-14357055D01*
X15881968Y-14357055D02*
X15891491Y-14338008D01*
X15891491Y-14338008D02*
X15910539Y-14309436D01*
X15910539Y-14309436D02*
X15920063Y-14299912D01*
X15986729Y-14347531D02*
X15996253Y-14338008D01*
X15996253Y-14338008D02*
X16015301Y-14328484D01*
X16015301Y-14328484D02*
X16062920Y-14328484D01*
X16062920Y-14328484D02*
X16081968Y-14338008D01*
X16081968Y-14338008D02*
X16091491Y-14347531D01*
X16091491Y-14347531D02*
X16101015Y-14366579D01*
X16101015Y-14366579D02*
X16101015Y-14385627D01*
X16101015Y-14385627D02*
X16091491Y-14414198D01*
X16091491Y-14414198D02*
X15977206Y-14528484D01*
X15977206Y-14528484D02*
X16101015Y-14528484D01*
X16177206Y-14347531D02*
X16186729Y-14338008D01*
X16186729Y-14338008D02*
X16205777Y-14328484D01*
X16205777Y-14328484D02*
X16253396Y-14328484D01*
X16253396Y-14328484D02*
X16272444Y-14338008D01*
X16272444Y-14338008D02*
X16281968Y-14347531D01*
X16281968Y-14347531D02*
X16291491Y-14366579D01*
X16291491Y-14366579D02*
X16291491Y-14385627D01*
X16291491Y-14385627D02*
X16281968Y-14414198D01*
X16281968Y-14414198D02*
X16167682Y-14528484D01*
X16167682Y-14528484D02*
X16291491Y-14528484D01*
X16529587Y-14528484D02*
X16529587Y-14328484D01*
X16615301Y-14528484D02*
X16615301Y-14423722D01*
X16615301Y-14423722D02*
X16605777Y-14404674D01*
X16605777Y-14404674D02*
X16586730Y-14395150D01*
X16586730Y-14395150D02*
X16558158Y-14395150D01*
X16558158Y-14395150D02*
X16539110Y-14404674D01*
X16539110Y-14404674D02*
X16529587Y-14414198D01*
X16739110Y-14528484D02*
X16720063Y-14518960D01*
X16720063Y-14518960D02*
X16710539Y-14509436D01*
X16710539Y-14509436D02*
X16701015Y-14490388D01*
X16701015Y-14490388D02*
X16701015Y-14433246D01*
X16701015Y-14433246D02*
X16710539Y-14414198D01*
X16710539Y-14414198D02*
X16720063Y-14404674D01*
X16720063Y-14404674D02*
X16739110Y-14395150D01*
X16739110Y-14395150D02*
X16767682Y-14395150D01*
X16767682Y-14395150D02*
X16786730Y-14404674D01*
X16786730Y-14404674D02*
X16796253Y-14414198D01*
X16796253Y-14414198D02*
X16805777Y-14433246D01*
X16805777Y-14433246D02*
X16805777Y-14490388D01*
X16805777Y-14490388D02*
X16796253Y-14509436D01*
X16796253Y-14509436D02*
X16786730Y-14518960D01*
X16786730Y-14518960D02*
X16767682Y-14528484D01*
X16767682Y-14528484D02*
X16739110Y-14528484D01*
X16920063Y-14528484D02*
X16901015Y-14518960D01*
X16901015Y-14518960D02*
X16891492Y-14499912D01*
X16891492Y-14499912D02*
X16891492Y-14328484D01*
X17072444Y-14518960D02*
X17053396Y-14528484D01*
X17053396Y-14528484D02*
X17015301Y-14528484D01*
X17015301Y-14528484D02*
X16996253Y-14518960D01*
X16996253Y-14518960D02*
X16986730Y-14499912D01*
X16986730Y-14499912D02*
X16986730Y-14423722D01*
X16986730Y-14423722D02*
X16996253Y-14404674D01*
X16996253Y-14404674D02*
X17015301Y-14395150D01*
X17015301Y-14395150D02*
X17053396Y-14395150D01*
X17053396Y-14395150D02*
X17072444Y-14404674D01*
X17072444Y-14404674D02*
X17081968Y-14423722D01*
X17081968Y-14423722D02*
X17081968Y-14442769D01*
X17081968Y-14442769D02*
X16986730Y-14461817D01*
X17158158Y-14518960D02*
X17177206Y-14528484D01*
X17177206Y-14528484D02*
X17215301Y-14528484D01*
X17215301Y-14528484D02*
X17234349Y-14518960D01*
X17234349Y-14518960D02*
X17243873Y-14499912D01*
X17243873Y-14499912D02*
X17243873Y-14490388D01*
X17243873Y-14490388D02*
X17234349Y-14471341D01*
X17234349Y-14471341D02*
X17215301Y-14461817D01*
X17215301Y-14461817D02*
X17186730Y-14461817D01*
X17186730Y-14461817D02*
X17167682Y-14452293D01*
X17167682Y-14452293D02*
X17158158Y-14433246D01*
X17158158Y-14433246D02*
X17158158Y-14423722D01*
X17158158Y-14423722D02*
X17167682Y-14404674D01*
X17167682Y-14404674D02*
X17186730Y-14395150D01*
X17186730Y-14395150D02*
X17215301Y-14395150D01*
X17215301Y-14395150D02*
X17234349Y-14404674D01*
X17310539Y-14604674D02*
X17320063Y-14595150D01*
X17320063Y-14595150D02*
X17339111Y-14566579D01*
X17339111Y-14566579D02*
X17348634Y-14547531D01*
X17348634Y-14547531D02*
X17358158Y-14518960D01*
X17358158Y-14518960D02*
X17367682Y-14471341D01*
X17367682Y-14471341D02*
X17367682Y-14433246D01*
X17367682Y-14433246D02*
X17358158Y-14385627D01*
X17358158Y-14385627D02*
X17348634Y-14357055D01*
X17348634Y-14357055D02*
X17339111Y-14338008D01*
X17339111Y-14338008D02*
X17320063Y-14309436D01*
X17320063Y-14309436D02*
X17310539Y-14299912D01*
M02*
