%TF.GenerationSoftware,KiCad,Pcbnew,10.0.4*%
%TF.CreationDate,2026-08-12T07:48:33+02:00*%
%TF.ProjectId,vogelstimmen_v3.0,766f6765-6c73-4746-996d-6d656e5f7633,rev?*%
%TF.SameCoordinates,Original*%
%TF.FileFunction,Drillmap*%
%TF.FilePolarity,Positive*%
%FSLAX45Y45*%
G04 Gerber Fmt 4.5, Leading zero omitted, Abs format (unit mm)*
G04 Created by KiCad (PCBNEW 10.0.4) date 2026-08-12 07:48:33*
%MOMM*%
%LPD*%
G01*
G04 APERTURE LIST*
%ADD10C,0.100000*%
%ADD11C,0.200000*%
%ADD12C,0.110000*%
%ADD13C,0.320000*%
G04 APERTURE END LIST*
D10*
X12350000Y-6950000D02*
X21000000Y-6950000D01*
X21000000Y-13000000D01*
X12350000Y-13000000D01*
X12350000Y-6950000D01*
D11*
D12*
X13403000Y-12568250D02*
X13513000Y-12678250D01*
X13513000Y-12568250D02*
X13403000Y-12678250D01*
X13657000Y-12568250D02*
X13767000Y-12678250D01*
X13767000Y-12568250D02*
X13657000Y-12678250D01*
X16145000Y-12599000D02*
X16255000Y-12709000D01*
X16255000Y-12599000D02*
X16145000Y-12709000D01*
X16399000Y-12599000D02*
X16509000Y-12709000D01*
X16509000Y-12599000D02*
X16399000Y-12709000D01*
X18418000Y-12618250D02*
X18528000Y-12728250D01*
X18528000Y-12618250D02*
X18418000Y-12728250D01*
X18672000Y-12618250D02*
X18782000Y-12728250D01*
X18782000Y-12618250D02*
X18672000Y-12728250D01*
D13*
X12910000Y-7350000D02*
G75*
G02*
X12590000Y-7350000I-160000J0D01*
G01*
X12590000Y-7350000D02*
G75*
G02*
X12910000Y-7350000I160000J0D01*
G01*
X12910000Y-12600000D02*
G75*
G02*
X12590000Y-12600000I-160000J0D01*
G01*
X12590000Y-12600000D02*
G75*
G02*
X12910000Y-12600000I160000J0D01*
G01*
X20760000Y-7350000D02*
G75*
G02*
X20440000Y-7350000I-160000J0D01*
G01*
X20440000Y-7350000D02*
G75*
G02*
X20760000Y-7350000I160000J0D01*
G01*
X20760000Y-12600000D02*
G75*
G02*
X20440000Y-12600000I-160000J0D01*
G01*
X20440000Y-12600000D02*
G75*
G02*
X20760000Y-12600000I160000J0D01*
G01*
D11*
X12605777Y-13316484D02*
X12605777Y-13116484D01*
X12605777Y-13116484D02*
X12653396Y-13116484D01*
X12653396Y-13116484D02*
X12681967Y-13126008D01*
X12681967Y-13126008D02*
X12701015Y-13145055D01*
X12701015Y-13145055D02*
X12710539Y-13164103D01*
X12710539Y-13164103D02*
X12720062Y-13202198D01*
X12720062Y-13202198D02*
X12720062Y-13230769D01*
X12720062Y-13230769D02*
X12710539Y-13268865D01*
X12710539Y-13268865D02*
X12701015Y-13287912D01*
X12701015Y-13287912D02*
X12681967Y-13306960D01*
X12681967Y-13306960D02*
X12653396Y-13316484D01*
X12653396Y-13316484D02*
X12605777Y-13316484D01*
X12805777Y-13316484D02*
X12805777Y-13183150D01*
X12805777Y-13221246D02*
X12815301Y-13202198D01*
X12815301Y-13202198D02*
X12824824Y-13192674D01*
X12824824Y-13192674D02*
X12843872Y-13183150D01*
X12843872Y-13183150D02*
X12862920Y-13183150D01*
X12929586Y-13316484D02*
X12929586Y-13183150D01*
X12929586Y-13116484D02*
X12920062Y-13126008D01*
X12920062Y-13126008D02*
X12929586Y-13135531D01*
X12929586Y-13135531D02*
X12939110Y-13126008D01*
X12939110Y-13126008D02*
X12929586Y-13116484D01*
X12929586Y-13116484D02*
X12929586Y-13135531D01*
X13053396Y-13316484D02*
X13034348Y-13306960D01*
X13034348Y-13306960D02*
X13024824Y-13287912D01*
X13024824Y-13287912D02*
X13024824Y-13116484D01*
X13158158Y-13316484D02*
X13139110Y-13306960D01*
X13139110Y-13306960D02*
X13129586Y-13287912D01*
X13129586Y-13287912D02*
X13129586Y-13116484D01*
X13386729Y-13316484D02*
X13386729Y-13116484D01*
X13386729Y-13116484D02*
X13453396Y-13259341D01*
X13453396Y-13259341D02*
X13520062Y-13116484D01*
X13520062Y-13116484D02*
X13520062Y-13316484D01*
X13701015Y-13316484D02*
X13701015Y-13211722D01*
X13701015Y-13211722D02*
X13691491Y-13192674D01*
X13691491Y-13192674D02*
X13672443Y-13183150D01*
X13672443Y-13183150D02*
X13634348Y-13183150D01*
X13634348Y-13183150D02*
X13615301Y-13192674D01*
X13701015Y-13306960D02*
X13681967Y-13316484D01*
X13681967Y-13316484D02*
X13634348Y-13316484D01*
X13634348Y-13316484D02*
X13615301Y-13306960D01*
X13615301Y-13306960D02*
X13605777Y-13287912D01*
X13605777Y-13287912D02*
X13605777Y-13268865D01*
X13605777Y-13268865D02*
X13615301Y-13249817D01*
X13615301Y-13249817D02*
X13634348Y-13240293D01*
X13634348Y-13240293D02*
X13681967Y-13240293D01*
X13681967Y-13240293D02*
X13701015Y-13230769D01*
X13796253Y-13183150D02*
X13796253Y-13383150D01*
X13796253Y-13192674D02*
X13815301Y-13183150D01*
X13815301Y-13183150D02*
X13853396Y-13183150D01*
X13853396Y-13183150D02*
X13872443Y-13192674D01*
X13872443Y-13192674D02*
X13881967Y-13202198D01*
X13881967Y-13202198D02*
X13891491Y-13221246D01*
X13891491Y-13221246D02*
X13891491Y-13278388D01*
X13891491Y-13278388D02*
X13881967Y-13297436D01*
X13881967Y-13297436D02*
X13872443Y-13306960D01*
X13872443Y-13306960D02*
X13853396Y-13316484D01*
X13853396Y-13316484D02*
X13815301Y-13316484D01*
X13815301Y-13316484D02*
X13796253Y-13306960D01*
X13977205Y-13297436D02*
X13986729Y-13306960D01*
X13986729Y-13306960D02*
X13977205Y-13316484D01*
X13977205Y-13316484D02*
X13967682Y-13306960D01*
X13967682Y-13306960D02*
X13977205Y-13297436D01*
X13977205Y-13297436D02*
X13977205Y-13316484D01*
X13977205Y-13192674D02*
X13986729Y-13202198D01*
X13986729Y-13202198D02*
X13977205Y-13211722D01*
X13977205Y-13211722D02*
X13967682Y-13202198D01*
X13967682Y-13202198D02*
X13977205Y-13192674D01*
X13977205Y-13192674D02*
X13977205Y-13211722D01*
D12*
X12235000Y-13590000D02*
X12345000Y-13700000D01*
X12345000Y-13590000D02*
X12235000Y-13700000D01*
D11*
X12710539Y-13736484D02*
X12596253Y-13736484D01*
X12653396Y-13736484D02*
X12653396Y-13536484D01*
X12653396Y-13536484D02*
X12634348Y-13565055D01*
X12634348Y-13565055D02*
X12615301Y-13584103D01*
X12615301Y-13584103D02*
X12596253Y-13593627D01*
X12805777Y-13726960D02*
X12805777Y-13736484D01*
X12805777Y-13736484D02*
X12796253Y-13755531D01*
X12796253Y-13755531D02*
X12786729Y-13765055D01*
X12996253Y-13736484D02*
X12881967Y-13736484D01*
X12939110Y-13736484D02*
X12939110Y-13536484D01*
X12939110Y-13536484D02*
X12920062Y-13565055D01*
X12920062Y-13565055D02*
X12901015Y-13584103D01*
X12901015Y-13584103D02*
X12881967Y-13593627D01*
X13120062Y-13536484D02*
X13139110Y-13536484D01*
X13139110Y-13536484D02*
X13158158Y-13546008D01*
X13158158Y-13546008D02*
X13167682Y-13555531D01*
X13167682Y-13555531D02*
X13177205Y-13574579D01*
X13177205Y-13574579D02*
X13186729Y-13612674D01*
X13186729Y-13612674D02*
X13186729Y-13660293D01*
X13186729Y-13660293D02*
X13177205Y-13698388D01*
X13177205Y-13698388D02*
X13167682Y-13717436D01*
X13167682Y-13717436D02*
X13158158Y-13726960D01*
X13158158Y-13726960D02*
X13139110Y-13736484D01*
X13139110Y-13736484D02*
X13120062Y-13736484D01*
X13120062Y-13736484D02*
X13101015Y-13726960D01*
X13101015Y-13726960D02*
X13091491Y-13717436D01*
X13091491Y-13717436D02*
X13081967Y-13698388D01*
X13081967Y-13698388D02*
X13072443Y-13660293D01*
X13072443Y-13660293D02*
X13072443Y-13612674D01*
X13072443Y-13612674D02*
X13081967Y-13574579D01*
X13081967Y-13574579D02*
X13091491Y-13555531D01*
X13091491Y-13555531D02*
X13101015Y-13546008D01*
X13101015Y-13546008D02*
X13120062Y-13536484D01*
X13310539Y-13536484D02*
X13329586Y-13536484D01*
X13329586Y-13536484D02*
X13348634Y-13546008D01*
X13348634Y-13546008D02*
X13358158Y-13555531D01*
X13358158Y-13555531D02*
X13367682Y-13574579D01*
X13367682Y-13574579D02*
X13377205Y-13612674D01*
X13377205Y-13612674D02*
X13377205Y-13660293D01*
X13377205Y-13660293D02*
X13367682Y-13698388D01*
X13367682Y-13698388D02*
X13358158Y-13717436D01*
X13358158Y-13717436D02*
X13348634Y-13726960D01*
X13348634Y-13726960D02*
X13329586Y-13736484D01*
X13329586Y-13736484D02*
X13310539Y-13736484D01*
X13310539Y-13736484D02*
X13291491Y-13726960D01*
X13291491Y-13726960D02*
X13281967Y-13717436D01*
X13281967Y-13717436D02*
X13272443Y-13698388D01*
X13272443Y-13698388D02*
X13262920Y-13660293D01*
X13262920Y-13660293D02*
X13262920Y-13612674D01*
X13262920Y-13612674D02*
X13272443Y-13574579D01*
X13272443Y-13574579D02*
X13281967Y-13555531D01*
X13281967Y-13555531D02*
X13291491Y-13546008D01*
X13291491Y-13546008D02*
X13310539Y-13536484D01*
X13462920Y-13736484D02*
X13462920Y-13603150D01*
X13462920Y-13622198D02*
X13472443Y-13612674D01*
X13472443Y-13612674D02*
X13491491Y-13603150D01*
X13491491Y-13603150D02*
X13520063Y-13603150D01*
X13520063Y-13603150D02*
X13539110Y-13612674D01*
X13539110Y-13612674D02*
X13548634Y-13631722D01*
X13548634Y-13631722D02*
X13548634Y-13736484D01*
X13548634Y-13631722D02*
X13558158Y-13612674D01*
X13558158Y-13612674D02*
X13577205Y-13603150D01*
X13577205Y-13603150D02*
X13605777Y-13603150D01*
X13605777Y-13603150D02*
X13624824Y-13612674D01*
X13624824Y-13612674D02*
X13634348Y-13631722D01*
X13634348Y-13631722D02*
X13634348Y-13736484D01*
X13729586Y-13736484D02*
X13729586Y-13603150D01*
X13729586Y-13622198D02*
X13739110Y-13612674D01*
X13739110Y-13612674D02*
X13758158Y-13603150D01*
X13758158Y-13603150D02*
X13786729Y-13603150D01*
X13786729Y-13603150D02*
X13805777Y-13612674D01*
X13805777Y-13612674D02*
X13815301Y-13631722D01*
X13815301Y-13631722D02*
X13815301Y-13736484D01*
X13815301Y-13631722D02*
X13824824Y-13612674D01*
X13824824Y-13612674D02*
X13843872Y-13603150D01*
X13843872Y-13603150D02*
X13872443Y-13603150D01*
X13872443Y-13603150D02*
X13891491Y-13612674D01*
X13891491Y-13612674D02*
X13901015Y-13631722D01*
X13901015Y-13631722D02*
X13901015Y-13736484D01*
X14291491Y-13526960D02*
X14120063Y-13784103D01*
X14548634Y-13536484D02*
X14567682Y-13536484D01*
X14567682Y-13536484D02*
X14586729Y-13546008D01*
X14586729Y-13546008D02*
X14596253Y-13555531D01*
X14596253Y-13555531D02*
X14605777Y-13574579D01*
X14605777Y-13574579D02*
X14615301Y-13612674D01*
X14615301Y-13612674D02*
X14615301Y-13660293D01*
X14615301Y-13660293D02*
X14605777Y-13698388D01*
X14605777Y-13698388D02*
X14596253Y-13717436D01*
X14596253Y-13717436D02*
X14586729Y-13726960D01*
X14586729Y-13726960D02*
X14567682Y-13736484D01*
X14567682Y-13736484D02*
X14548634Y-13736484D01*
X14548634Y-13736484D02*
X14529586Y-13726960D01*
X14529586Y-13726960D02*
X14520063Y-13717436D01*
X14520063Y-13717436D02*
X14510539Y-13698388D01*
X14510539Y-13698388D02*
X14501015Y-13660293D01*
X14501015Y-13660293D02*
X14501015Y-13612674D01*
X14501015Y-13612674D02*
X14510539Y-13574579D01*
X14510539Y-13574579D02*
X14520063Y-13555531D01*
X14520063Y-13555531D02*
X14529586Y-13546008D01*
X14529586Y-13546008D02*
X14548634Y-13536484D01*
X14710539Y-13726960D02*
X14710539Y-13736484D01*
X14710539Y-13736484D02*
X14701015Y-13755531D01*
X14701015Y-13755531D02*
X14691491Y-13765055D01*
X14834348Y-13536484D02*
X14853396Y-13536484D01*
X14853396Y-13536484D02*
X14872444Y-13546008D01*
X14872444Y-13546008D02*
X14881967Y-13555531D01*
X14881967Y-13555531D02*
X14891491Y-13574579D01*
X14891491Y-13574579D02*
X14901015Y-13612674D01*
X14901015Y-13612674D02*
X14901015Y-13660293D01*
X14901015Y-13660293D02*
X14891491Y-13698388D01*
X14891491Y-13698388D02*
X14881967Y-13717436D01*
X14881967Y-13717436D02*
X14872444Y-13726960D01*
X14872444Y-13726960D02*
X14853396Y-13736484D01*
X14853396Y-13736484D02*
X14834348Y-13736484D01*
X14834348Y-13736484D02*
X14815301Y-13726960D01*
X14815301Y-13726960D02*
X14805777Y-13717436D01*
X14805777Y-13717436D02*
X14796253Y-13698388D01*
X14796253Y-13698388D02*
X14786729Y-13660293D01*
X14786729Y-13660293D02*
X14786729Y-13612674D01*
X14786729Y-13612674D02*
X14796253Y-13574579D01*
X14796253Y-13574579D02*
X14805777Y-13555531D01*
X14805777Y-13555531D02*
X14815301Y-13546008D01*
X14815301Y-13546008D02*
X14834348Y-13536484D01*
X15072444Y-13603150D02*
X15072444Y-13736484D01*
X15024825Y-13526960D02*
X14977206Y-13669817D01*
X14977206Y-13669817D02*
X15101015Y-13669817D01*
X15158158Y-13536484D02*
X15281967Y-13536484D01*
X15281967Y-13536484D02*
X15215301Y-13612674D01*
X15215301Y-13612674D02*
X15243872Y-13612674D01*
X15243872Y-13612674D02*
X15262920Y-13622198D01*
X15262920Y-13622198D02*
X15272444Y-13631722D01*
X15272444Y-13631722D02*
X15281967Y-13650769D01*
X15281967Y-13650769D02*
X15281967Y-13698388D01*
X15281967Y-13698388D02*
X15272444Y-13717436D01*
X15272444Y-13717436D02*
X15262920Y-13726960D01*
X15262920Y-13726960D02*
X15243872Y-13736484D01*
X15243872Y-13736484D02*
X15186729Y-13736484D01*
X15186729Y-13736484D02*
X15167682Y-13726960D01*
X15167682Y-13726960D02*
X15158158Y-13717436D01*
X15348634Y-13536484D02*
X15472444Y-13536484D01*
X15472444Y-13536484D02*
X15405777Y-13612674D01*
X15405777Y-13612674D02*
X15434348Y-13612674D01*
X15434348Y-13612674D02*
X15453396Y-13622198D01*
X15453396Y-13622198D02*
X15462920Y-13631722D01*
X15462920Y-13631722D02*
X15472444Y-13650769D01*
X15472444Y-13650769D02*
X15472444Y-13698388D01*
X15472444Y-13698388D02*
X15462920Y-13717436D01*
X15462920Y-13717436D02*
X15453396Y-13726960D01*
X15453396Y-13726960D02*
X15434348Y-13736484D01*
X15434348Y-13736484D02*
X15377206Y-13736484D01*
X15377206Y-13736484D02*
X15358158Y-13726960D01*
X15358158Y-13726960D02*
X15348634Y-13717436D01*
X15548634Y-13536484D02*
X15548634Y-13574579D01*
X15624825Y-13536484D02*
X15624825Y-13574579D01*
X15920063Y-13812674D02*
X15910539Y-13803150D01*
X15910539Y-13803150D02*
X15891491Y-13774579D01*
X15891491Y-13774579D02*
X15881968Y-13755531D01*
X15881968Y-13755531D02*
X15872444Y-13726960D01*
X15872444Y-13726960D02*
X15862920Y-13679341D01*
X15862920Y-13679341D02*
X15862920Y-13641246D01*
X15862920Y-13641246D02*
X15872444Y-13593627D01*
X15872444Y-13593627D02*
X15881968Y-13565055D01*
X15881968Y-13565055D02*
X15891491Y-13546008D01*
X15891491Y-13546008D02*
X15910539Y-13517436D01*
X15910539Y-13517436D02*
X15920063Y-13507912D01*
X16081968Y-13536484D02*
X16043872Y-13536484D01*
X16043872Y-13536484D02*
X16024825Y-13546008D01*
X16024825Y-13546008D02*
X16015301Y-13555531D01*
X16015301Y-13555531D02*
X15996253Y-13584103D01*
X15996253Y-13584103D02*
X15986729Y-13622198D01*
X15986729Y-13622198D02*
X15986729Y-13698388D01*
X15986729Y-13698388D02*
X15996253Y-13717436D01*
X15996253Y-13717436D02*
X16005777Y-13726960D01*
X16005777Y-13726960D02*
X16024825Y-13736484D01*
X16024825Y-13736484D02*
X16062920Y-13736484D01*
X16062920Y-13736484D02*
X16081968Y-13726960D01*
X16081968Y-13726960D02*
X16091491Y-13717436D01*
X16091491Y-13717436D02*
X16101015Y-13698388D01*
X16101015Y-13698388D02*
X16101015Y-13650769D01*
X16101015Y-13650769D02*
X16091491Y-13631722D01*
X16091491Y-13631722D02*
X16081968Y-13622198D01*
X16081968Y-13622198D02*
X16062920Y-13612674D01*
X16062920Y-13612674D02*
X16024825Y-13612674D01*
X16024825Y-13612674D02*
X16005777Y-13622198D01*
X16005777Y-13622198D02*
X15996253Y-13631722D01*
X15996253Y-13631722D02*
X15986729Y-13650769D01*
X16339110Y-13736484D02*
X16339110Y-13536484D01*
X16424825Y-13736484D02*
X16424825Y-13631722D01*
X16424825Y-13631722D02*
X16415301Y-13612674D01*
X16415301Y-13612674D02*
X16396253Y-13603150D01*
X16396253Y-13603150D02*
X16367682Y-13603150D01*
X16367682Y-13603150D02*
X16348634Y-13612674D01*
X16348634Y-13612674D02*
X16339110Y-13622198D01*
X16548634Y-13736484D02*
X16529587Y-13726960D01*
X16529587Y-13726960D02*
X16520063Y-13717436D01*
X16520063Y-13717436D02*
X16510539Y-13698388D01*
X16510539Y-13698388D02*
X16510539Y-13641246D01*
X16510539Y-13641246D02*
X16520063Y-13622198D01*
X16520063Y-13622198D02*
X16529587Y-13612674D01*
X16529587Y-13612674D02*
X16548634Y-13603150D01*
X16548634Y-13603150D02*
X16577206Y-13603150D01*
X16577206Y-13603150D02*
X16596253Y-13612674D01*
X16596253Y-13612674D02*
X16605777Y-13622198D01*
X16605777Y-13622198D02*
X16615301Y-13641246D01*
X16615301Y-13641246D02*
X16615301Y-13698388D01*
X16615301Y-13698388D02*
X16605777Y-13717436D01*
X16605777Y-13717436D02*
X16596253Y-13726960D01*
X16596253Y-13726960D02*
X16577206Y-13736484D01*
X16577206Y-13736484D02*
X16548634Y-13736484D01*
X16729587Y-13736484D02*
X16710539Y-13726960D01*
X16710539Y-13726960D02*
X16701015Y-13707912D01*
X16701015Y-13707912D02*
X16701015Y-13536484D01*
X16881968Y-13726960D02*
X16862920Y-13736484D01*
X16862920Y-13736484D02*
X16824825Y-13736484D01*
X16824825Y-13736484D02*
X16805777Y-13726960D01*
X16805777Y-13726960D02*
X16796253Y-13707912D01*
X16796253Y-13707912D02*
X16796253Y-13631722D01*
X16796253Y-13631722D02*
X16805777Y-13612674D01*
X16805777Y-13612674D02*
X16824825Y-13603150D01*
X16824825Y-13603150D02*
X16862920Y-13603150D01*
X16862920Y-13603150D02*
X16881968Y-13612674D01*
X16881968Y-13612674D02*
X16891492Y-13631722D01*
X16891492Y-13631722D02*
X16891492Y-13650769D01*
X16891492Y-13650769D02*
X16796253Y-13669817D01*
X16967682Y-13726960D02*
X16986730Y-13736484D01*
X16986730Y-13736484D02*
X17024825Y-13736484D01*
X17024825Y-13736484D02*
X17043873Y-13726960D01*
X17043873Y-13726960D02*
X17053396Y-13707912D01*
X17053396Y-13707912D02*
X17053396Y-13698388D01*
X17053396Y-13698388D02*
X17043873Y-13679341D01*
X17043873Y-13679341D02*
X17024825Y-13669817D01*
X17024825Y-13669817D02*
X16996253Y-13669817D01*
X16996253Y-13669817D02*
X16977206Y-13660293D01*
X16977206Y-13660293D02*
X16967682Y-13641246D01*
X16967682Y-13641246D02*
X16967682Y-13631722D01*
X16967682Y-13631722D02*
X16977206Y-13612674D01*
X16977206Y-13612674D02*
X16996253Y-13603150D01*
X16996253Y-13603150D02*
X17024825Y-13603150D01*
X17024825Y-13603150D02*
X17043873Y-13612674D01*
X17120063Y-13812674D02*
X17129587Y-13803150D01*
X17129587Y-13803150D02*
X17148634Y-13774579D01*
X17148634Y-13774579D02*
X17158158Y-13755531D01*
X17158158Y-13755531D02*
X17167682Y-13726960D01*
X17167682Y-13726960D02*
X17177206Y-13679341D01*
X17177206Y-13679341D02*
X17177206Y-13641246D01*
X17177206Y-13641246D02*
X17167682Y-13593627D01*
X17167682Y-13593627D02*
X17158158Y-13565055D01*
X17158158Y-13565055D02*
X17148634Y-13546008D01*
X17148634Y-13546008D02*
X17129587Y-13517436D01*
X17129587Y-13517436D02*
X17120063Y-13507912D01*
X17481968Y-13812674D02*
X17472444Y-13803150D01*
X17472444Y-13803150D02*
X17453396Y-13774579D01*
X17453396Y-13774579D02*
X17443873Y-13755531D01*
X17443873Y-13755531D02*
X17434349Y-13726960D01*
X17434349Y-13726960D02*
X17424825Y-13679341D01*
X17424825Y-13679341D02*
X17424825Y-13641246D01*
X17424825Y-13641246D02*
X17434349Y-13593627D01*
X17434349Y-13593627D02*
X17443873Y-13565055D01*
X17443873Y-13565055D02*
X17453396Y-13546008D01*
X17453396Y-13546008D02*
X17472444Y-13517436D01*
X17472444Y-13517436D02*
X17481968Y-13507912D01*
X17558158Y-13603150D02*
X17558158Y-13736484D01*
X17558158Y-13622198D02*
X17567682Y-13612674D01*
X17567682Y-13612674D02*
X17586730Y-13603150D01*
X17586730Y-13603150D02*
X17615301Y-13603150D01*
X17615301Y-13603150D02*
X17634349Y-13612674D01*
X17634349Y-13612674D02*
X17643873Y-13631722D01*
X17643873Y-13631722D02*
X17643873Y-13736484D01*
X17767682Y-13736484D02*
X17748634Y-13726960D01*
X17748634Y-13726960D02*
X17739111Y-13717436D01*
X17739111Y-13717436D02*
X17729587Y-13698388D01*
X17729587Y-13698388D02*
X17729587Y-13641246D01*
X17729587Y-13641246D02*
X17739111Y-13622198D01*
X17739111Y-13622198D02*
X17748634Y-13612674D01*
X17748634Y-13612674D02*
X17767682Y-13603150D01*
X17767682Y-13603150D02*
X17796254Y-13603150D01*
X17796254Y-13603150D02*
X17815301Y-13612674D01*
X17815301Y-13612674D02*
X17824825Y-13622198D01*
X17824825Y-13622198D02*
X17834349Y-13641246D01*
X17834349Y-13641246D02*
X17834349Y-13698388D01*
X17834349Y-13698388D02*
X17824825Y-13717436D01*
X17824825Y-13717436D02*
X17815301Y-13726960D01*
X17815301Y-13726960D02*
X17796254Y-13736484D01*
X17796254Y-13736484D02*
X17767682Y-13736484D01*
X17891492Y-13603150D02*
X17967682Y-13603150D01*
X17920063Y-13536484D02*
X17920063Y-13707912D01*
X17920063Y-13707912D02*
X17929587Y-13726960D01*
X17929587Y-13726960D02*
X17948634Y-13736484D01*
X17948634Y-13736484D02*
X17967682Y-13736484D01*
X18186730Y-13603150D02*
X18186730Y-13803150D01*
X18186730Y-13612674D02*
X18205777Y-13603150D01*
X18205777Y-13603150D02*
X18243873Y-13603150D01*
X18243873Y-13603150D02*
X18262920Y-13612674D01*
X18262920Y-13612674D02*
X18272444Y-13622198D01*
X18272444Y-13622198D02*
X18281968Y-13641246D01*
X18281968Y-13641246D02*
X18281968Y-13698388D01*
X18281968Y-13698388D02*
X18272444Y-13717436D01*
X18272444Y-13717436D02*
X18262920Y-13726960D01*
X18262920Y-13726960D02*
X18243873Y-13736484D01*
X18243873Y-13736484D02*
X18205777Y-13736484D01*
X18205777Y-13736484D02*
X18186730Y-13726960D01*
X18396254Y-13736484D02*
X18377206Y-13726960D01*
X18377206Y-13726960D02*
X18367682Y-13707912D01*
X18367682Y-13707912D02*
X18367682Y-13536484D01*
X18558158Y-13736484D02*
X18558158Y-13631722D01*
X18558158Y-13631722D02*
X18548635Y-13612674D01*
X18548635Y-13612674D02*
X18529587Y-13603150D01*
X18529587Y-13603150D02*
X18491492Y-13603150D01*
X18491492Y-13603150D02*
X18472444Y-13612674D01*
X18558158Y-13726960D02*
X18539111Y-13736484D01*
X18539111Y-13736484D02*
X18491492Y-13736484D01*
X18491492Y-13736484D02*
X18472444Y-13726960D01*
X18472444Y-13726960D02*
X18462920Y-13707912D01*
X18462920Y-13707912D02*
X18462920Y-13688865D01*
X18462920Y-13688865D02*
X18472444Y-13669817D01*
X18472444Y-13669817D02*
X18491492Y-13660293D01*
X18491492Y-13660293D02*
X18539111Y-13660293D01*
X18539111Y-13660293D02*
X18558158Y-13650769D01*
X18624825Y-13603150D02*
X18701015Y-13603150D01*
X18653396Y-13536484D02*
X18653396Y-13707912D01*
X18653396Y-13707912D02*
X18662920Y-13726960D01*
X18662920Y-13726960D02*
X18681968Y-13736484D01*
X18681968Y-13736484D02*
X18701015Y-13736484D01*
X18843873Y-13726960D02*
X18824825Y-13736484D01*
X18824825Y-13736484D02*
X18786730Y-13736484D01*
X18786730Y-13736484D02*
X18767682Y-13726960D01*
X18767682Y-13726960D02*
X18758158Y-13707912D01*
X18758158Y-13707912D02*
X18758158Y-13631722D01*
X18758158Y-13631722D02*
X18767682Y-13612674D01*
X18767682Y-13612674D02*
X18786730Y-13603150D01*
X18786730Y-13603150D02*
X18824825Y-13603150D01*
X18824825Y-13603150D02*
X18843873Y-13612674D01*
X18843873Y-13612674D02*
X18853396Y-13631722D01*
X18853396Y-13631722D02*
X18853396Y-13650769D01*
X18853396Y-13650769D02*
X18758158Y-13669817D01*
X19024825Y-13736484D02*
X19024825Y-13536484D01*
X19024825Y-13726960D02*
X19005777Y-13736484D01*
X19005777Y-13736484D02*
X18967682Y-13736484D01*
X18967682Y-13736484D02*
X18948635Y-13726960D01*
X18948635Y-13726960D02*
X18939111Y-13717436D01*
X18939111Y-13717436D02*
X18929587Y-13698388D01*
X18929587Y-13698388D02*
X18929587Y-13641246D01*
X18929587Y-13641246D02*
X18939111Y-13622198D01*
X18939111Y-13622198D02*
X18948635Y-13612674D01*
X18948635Y-13612674D02*
X18967682Y-13603150D01*
X18967682Y-13603150D02*
X19005777Y-13603150D01*
X19005777Y-13603150D02*
X19024825Y-13612674D01*
X19101016Y-13812674D02*
X19110539Y-13803150D01*
X19110539Y-13803150D02*
X19129587Y-13774579D01*
X19129587Y-13774579D02*
X19139111Y-13755531D01*
X19139111Y-13755531D02*
X19148635Y-13726960D01*
X19148635Y-13726960D02*
X19158158Y-13679341D01*
X19158158Y-13679341D02*
X19158158Y-13641246D01*
X19158158Y-13641246D02*
X19148635Y-13593627D01*
X19148635Y-13593627D02*
X19139111Y-13565055D01*
X19139111Y-13565055D02*
X19129587Y-13546008D01*
X19129587Y-13546008D02*
X19110539Y-13517436D01*
X19110539Y-13517436D02*
X19101016Y-13507912D01*
X12345000Y-13909000D02*
G75*
G02*
X12145000Y-13909000I-100000J0D01*
G01*
X12145000Y-13909000D02*
G75*
G02*
X12345000Y-13909000I100000J0D01*
G01*
X12586729Y-13800484D02*
X12710539Y-13800484D01*
X12710539Y-13800484D02*
X12643872Y-13876674D01*
X12643872Y-13876674D02*
X12672443Y-13876674D01*
X12672443Y-13876674D02*
X12691491Y-13886198D01*
X12691491Y-13886198D02*
X12701015Y-13895722D01*
X12701015Y-13895722D02*
X12710539Y-13914769D01*
X12710539Y-13914769D02*
X12710539Y-13962388D01*
X12710539Y-13962388D02*
X12701015Y-13981436D01*
X12701015Y-13981436D02*
X12691491Y-13990960D01*
X12691491Y-13990960D02*
X12672443Y-14000484D01*
X12672443Y-14000484D02*
X12615301Y-14000484D01*
X12615301Y-14000484D02*
X12596253Y-13990960D01*
X12596253Y-13990960D02*
X12586729Y-13981436D01*
X12805777Y-13990960D02*
X12805777Y-14000484D01*
X12805777Y-14000484D02*
X12796253Y-14019531D01*
X12796253Y-14019531D02*
X12786729Y-14029055D01*
X12881967Y-13819531D02*
X12891491Y-13810008D01*
X12891491Y-13810008D02*
X12910539Y-13800484D01*
X12910539Y-13800484D02*
X12958158Y-13800484D01*
X12958158Y-13800484D02*
X12977205Y-13810008D01*
X12977205Y-13810008D02*
X12986729Y-13819531D01*
X12986729Y-13819531D02*
X12996253Y-13838579D01*
X12996253Y-13838579D02*
X12996253Y-13857627D01*
X12996253Y-13857627D02*
X12986729Y-13886198D01*
X12986729Y-13886198D02*
X12872443Y-14000484D01*
X12872443Y-14000484D02*
X12996253Y-14000484D01*
X13120062Y-13800484D02*
X13139110Y-13800484D01*
X13139110Y-13800484D02*
X13158158Y-13810008D01*
X13158158Y-13810008D02*
X13167682Y-13819531D01*
X13167682Y-13819531D02*
X13177205Y-13838579D01*
X13177205Y-13838579D02*
X13186729Y-13876674D01*
X13186729Y-13876674D02*
X13186729Y-13924293D01*
X13186729Y-13924293D02*
X13177205Y-13962388D01*
X13177205Y-13962388D02*
X13167682Y-13981436D01*
X13167682Y-13981436D02*
X13158158Y-13990960D01*
X13158158Y-13990960D02*
X13139110Y-14000484D01*
X13139110Y-14000484D02*
X13120062Y-14000484D01*
X13120062Y-14000484D02*
X13101015Y-13990960D01*
X13101015Y-13990960D02*
X13091491Y-13981436D01*
X13091491Y-13981436D02*
X13081967Y-13962388D01*
X13081967Y-13962388D02*
X13072443Y-13924293D01*
X13072443Y-13924293D02*
X13072443Y-13876674D01*
X13072443Y-13876674D02*
X13081967Y-13838579D01*
X13081967Y-13838579D02*
X13091491Y-13819531D01*
X13091491Y-13819531D02*
X13101015Y-13810008D01*
X13101015Y-13810008D02*
X13120062Y-13800484D01*
X13310539Y-13800484D02*
X13329586Y-13800484D01*
X13329586Y-13800484D02*
X13348634Y-13810008D01*
X13348634Y-13810008D02*
X13358158Y-13819531D01*
X13358158Y-13819531D02*
X13367682Y-13838579D01*
X13367682Y-13838579D02*
X13377205Y-13876674D01*
X13377205Y-13876674D02*
X13377205Y-13924293D01*
X13377205Y-13924293D02*
X13367682Y-13962388D01*
X13367682Y-13962388D02*
X13358158Y-13981436D01*
X13358158Y-13981436D02*
X13348634Y-13990960D01*
X13348634Y-13990960D02*
X13329586Y-14000484D01*
X13329586Y-14000484D02*
X13310539Y-14000484D01*
X13310539Y-14000484D02*
X13291491Y-13990960D01*
X13291491Y-13990960D02*
X13281967Y-13981436D01*
X13281967Y-13981436D02*
X13272443Y-13962388D01*
X13272443Y-13962388D02*
X13262920Y-13924293D01*
X13262920Y-13924293D02*
X13262920Y-13876674D01*
X13262920Y-13876674D02*
X13272443Y-13838579D01*
X13272443Y-13838579D02*
X13281967Y-13819531D01*
X13281967Y-13819531D02*
X13291491Y-13810008D01*
X13291491Y-13810008D02*
X13310539Y-13800484D01*
X13462920Y-14000484D02*
X13462920Y-13867150D01*
X13462920Y-13886198D02*
X13472443Y-13876674D01*
X13472443Y-13876674D02*
X13491491Y-13867150D01*
X13491491Y-13867150D02*
X13520063Y-13867150D01*
X13520063Y-13867150D02*
X13539110Y-13876674D01*
X13539110Y-13876674D02*
X13548634Y-13895722D01*
X13548634Y-13895722D02*
X13548634Y-14000484D01*
X13548634Y-13895722D02*
X13558158Y-13876674D01*
X13558158Y-13876674D02*
X13577205Y-13867150D01*
X13577205Y-13867150D02*
X13605777Y-13867150D01*
X13605777Y-13867150D02*
X13624824Y-13876674D01*
X13624824Y-13876674D02*
X13634348Y-13895722D01*
X13634348Y-13895722D02*
X13634348Y-14000484D01*
X13729586Y-14000484D02*
X13729586Y-13867150D01*
X13729586Y-13886198D02*
X13739110Y-13876674D01*
X13739110Y-13876674D02*
X13758158Y-13867150D01*
X13758158Y-13867150D02*
X13786729Y-13867150D01*
X13786729Y-13867150D02*
X13805777Y-13876674D01*
X13805777Y-13876674D02*
X13815301Y-13895722D01*
X13815301Y-13895722D02*
X13815301Y-14000484D01*
X13815301Y-13895722D02*
X13824824Y-13876674D01*
X13824824Y-13876674D02*
X13843872Y-13867150D01*
X13843872Y-13867150D02*
X13872443Y-13867150D01*
X13872443Y-13867150D02*
X13891491Y-13876674D01*
X13891491Y-13876674D02*
X13901015Y-13895722D01*
X13901015Y-13895722D02*
X13901015Y-14000484D01*
X14291491Y-13790960D02*
X14120063Y-14048103D01*
X14548634Y-13800484D02*
X14567682Y-13800484D01*
X14567682Y-13800484D02*
X14586729Y-13810008D01*
X14586729Y-13810008D02*
X14596253Y-13819531D01*
X14596253Y-13819531D02*
X14605777Y-13838579D01*
X14605777Y-13838579D02*
X14615301Y-13876674D01*
X14615301Y-13876674D02*
X14615301Y-13924293D01*
X14615301Y-13924293D02*
X14605777Y-13962388D01*
X14605777Y-13962388D02*
X14596253Y-13981436D01*
X14596253Y-13981436D02*
X14586729Y-13990960D01*
X14586729Y-13990960D02*
X14567682Y-14000484D01*
X14567682Y-14000484D02*
X14548634Y-14000484D01*
X14548634Y-14000484D02*
X14529586Y-13990960D01*
X14529586Y-13990960D02*
X14520063Y-13981436D01*
X14520063Y-13981436D02*
X14510539Y-13962388D01*
X14510539Y-13962388D02*
X14501015Y-13924293D01*
X14501015Y-13924293D02*
X14501015Y-13876674D01*
X14501015Y-13876674D02*
X14510539Y-13838579D01*
X14510539Y-13838579D02*
X14520063Y-13819531D01*
X14520063Y-13819531D02*
X14529586Y-13810008D01*
X14529586Y-13810008D02*
X14548634Y-13800484D01*
X14710539Y-13990960D02*
X14710539Y-14000484D01*
X14710539Y-14000484D02*
X14701015Y-14019531D01*
X14701015Y-14019531D02*
X14691491Y-14029055D01*
X14901015Y-14000484D02*
X14786729Y-14000484D01*
X14843872Y-14000484D02*
X14843872Y-13800484D01*
X14843872Y-13800484D02*
X14824825Y-13829055D01*
X14824825Y-13829055D02*
X14805777Y-13848103D01*
X14805777Y-13848103D02*
X14786729Y-13857627D01*
X14977206Y-13819531D02*
X14986729Y-13810008D01*
X14986729Y-13810008D02*
X15005777Y-13800484D01*
X15005777Y-13800484D02*
X15053396Y-13800484D01*
X15053396Y-13800484D02*
X15072444Y-13810008D01*
X15072444Y-13810008D02*
X15081967Y-13819531D01*
X15081967Y-13819531D02*
X15091491Y-13838579D01*
X15091491Y-13838579D02*
X15091491Y-13857627D01*
X15091491Y-13857627D02*
X15081967Y-13886198D01*
X15081967Y-13886198D02*
X14967682Y-14000484D01*
X14967682Y-14000484D02*
X15091491Y-14000484D01*
X15262920Y-13800484D02*
X15224825Y-13800484D01*
X15224825Y-13800484D02*
X15205777Y-13810008D01*
X15205777Y-13810008D02*
X15196253Y-13819531D01*
X15196253Y-13819531D02*
X15177206Y-13848103D01*
X15177206Y-13848103D02*
X15167682Y-13886198D01*
X15167682Y-13886198D02*
X15167682Y-13962388D01*
X15167682Y-13962388D02*
X15177206Y-13981436D01*
X15177206Y-13981436D02*
X15186729Y-13990960D01*
X15186729Y-13990960D02*
X15205777Y-14000484D01*
X15205777Y-14000484D02*
X15243872Y-14000484D01*
X15243872Y-14000484D02*
X15262920Y-13990960D01*
X15262920Y-13990960D02*
X15272444Y-13981436D01*
X15272444Y-13981436D02*
X15281967Y-13962388D01*
X15281967Y-13962388D02*
X15281967Y-13914769D01*
X15281967Y-13914769D02*
X15272444Y-13895722D01*
X15272444Y-13895722D02*
X15262920Y-13886198D01*
X15262920Y-13886198D02*
X15243872Y-13876674D01*
X15243872Y-13876674D02*
X15205777Y-13876674D01*
X15205777Y-13876674D02*
X15186729Y-13886198D01*
X15186729Y-13886198D02*
X15177206Y-13895722D01*
X15177206Y-13895722D02*
X15167682Y-13914769D01*
X15405777Y-13800484D02*
X15424825Y-13800484D01*
X15424825Y-13800484D02*
X15443872Y-13810008D01*
X15443872Y-13810008D02*
X15453396Y-13819531D01*
X15453396Y-13819531D02*
X15462920Y-13838579D01*
X15462920Y-13838579D02*
X15472444Y-13876674D01*
X15472444Y-13876674D02*
X15472444Y-13924293D01*
X15472444Y-13924293D02*
X15462920Y-13962388D01*
X15462920Y-13962388D02*
X15453396Y-13981436D01*
X15453396Y-13981436D02*
X15443872Y-13990960D01*
X15443872Y-13990960D02*
X15424825Y-14000484D01*
X15424825Y-14000484D02*
X15405777Y-14000484D01*
X15405777Y-14000484D02*
X15386729Y-13990960D01*
X15386729Y-13990960D02*
X15377206Y-13981436D01*
X15377206Y-13981436D02*
X15367682Y-13962388D01*
X15367682Y-13962388D02*
X15358158Y-13924293D01*
X15358158Y-13924293D02*
X15358158Y-13876674D01*
X15358158Y-13876674D02*
X15367682Y-13838579D01*
X15367682Y-13838579D02*
X15377206Y-13819531D01*
X15377206Y-13819531D02*
X15386729Y-13810008D01*
X15386729Y-13810008D02*
X15405777Y-13800484D01*
X15548634Y-13800484D02*
X15548634Y-13838579D01*
X15624825Y-13800484D02*
X15624825Y-13838579D01*
X15920063Y-14076674D02*
X15910539Y-14067150D01*
X15910539Y-14067150D02*
X15891491Y-14038579D01*
X15891491Y-14038579D02*
X15881968Y-14019531D01*
X15881968Y-14019531D02*
X15872444Y-13990960D01*
X15872444Y-13990960D02*
X15862920Y-13943341D01*
X15862920Y-13943341D02*
X15862920Y-13905246D01*
X15862920Y-13905246D02*
X15872444Y-13857627D01*
X15872444Y-13857627D02*
X15881968Y-13829055D01*
X15881968Y-13829055D02*
X15891491Y-13810008D01*
X15891491Y-13810008D02*
X15910539Y-13781436D01*
X15910539Y-13781436D02*
X15920063Y-13771912D01*
X16081968Y-13867150D02*
X16081968Y-14000484D01*
X16034348Y-13790960D02*
X15986729Y-13933817D01*
X15986729Y-13933817D02*
X16110539Y-13933817D01*
X16339110Y-14000484D02*
X16339110Y-13800484D01*
X16424825Y-14000484D02*
X16424825Y-13895722D01*
X16424825Y-13895722D02*
X16415301Y-13876674D01*
X16415301Y-13876674D02*
X16396253Y-13867150D01*
X16396253Y-13867150D02*
X16367682Y-13867150D01*
X16367682Y-13867150D02*
X16348634Y-13876674D01*
X16348634Y-13876674D02*
X16339110Y-13886198D01*
X16548634Y-14000484D02*
X16529587Y-13990960D01*
X16529587Y-13990960D02*
X16520063Y-13981436D01*
X16520063Y-13981436D02*
X16510539Y-13962388D01*
X16510539Y-13962388D02*
X16510539Y-13905246D01*
X16510539Y-13905246D02*
X16520063Y-13886198D01*
X16520063Y-13886198D02*
X16529587Y-13876674D01*
X16529587Y-13876674D02*
X16548634Y-13867150D01*
X16548634Y-13867150D02*
X16577206Y-13867150D01*
X16577206Y-13867150D02*
X16596253Y-13876674D01*
X16596253Y-13876674D02*
X16605777Y-13886198D01*
X16605777Y-13886198D02*
X16615301Y-13905246D01*
X16615301Y-13905246D02*
X16615301Y-13962388D01*
X16615301Y-13962388D02*
X16605777Y-13981436D01*
X16605777Y-13981436D02*
X16596253Y-13990960D01*
X16596253Y-13990960D02*
X16577206Y-14000484D01*
X16577206Y-14000484D02*
X16548634Y-14000484D01*
X16729587Y-14000484D02*
X16710539Y-13990960D01*
X16710539Y-13990960D02*
X16701015Y-13971912D01*
X16701015Y-13971912D02*
X16701015Y-13800484D01*
X16881968Y-13990960D02*
X16862920Y-14000484D01*
X16862920Y-14000484D02*
X16824825Y-14000484D01*
X16824825Y-14000484D02*
X16805777Y-13990960D01*
X16805777Y-13990960D02*
X16796253Y-13971912D01*
X16796253Y-13971912D02*
X16796253Y-13895722D01*
X16796253Y-13895722D02*
X16805777Y-13876674D01*
X16805777Y-13876674D02*
X16824825Y-13867150D01*
X16824825Y-13867150D02*
X16862920Y-13867150D01*
X16862920Y-13867150D02*
X16881968Y-13876674D01*
X16881968Y-13876674D02*
X16891492Y-13895722D01*
X16891492Y-13895722D02*
X16891492Y-13914769D01*
X16891492Y-13914769D02*
X16796253Y-13933817D01*
X16967682Y-13990960D02*
X16986730Y-14000484D01*
X16986730Y-14000484D02*
X17024825Y-14000484D01*
X17024825Y-14000484D02*
X17043873Y-13990960D01*
X17043873Y-13990960D02*
X17053396Y-13971912D01*
X17053396Y-13971912D02*
X17053396Y-13962388D01*
X17053396Y-13962388D02*
X17043873Y-13943341D01*
X17043873Y-13943341D02*
X17024825Y-13933817D01*
X17024825Y-13933817D02*
X16996253Y-13933817D01*
X16996253Y-13933817D02*
X16977206Y-13924293D01*
X16977206Y-13924293D02*
X16967682Y-13905246D01*
X16967682Y-13905246D02*
X16967682Y-13895722D01*
X16967682Y-13895722D02*
X16977206Y-13876674D01*
X16977206Y-13876674D02*
X16996253Y-13867150D01*
X16996253Y-13867150D02*
X17024825Y-13867150D01*
X17024825Y-13867150D02*
X17043873Y-13876674D01*
X17120063Y-14076674D02*
X17129587Y-14067150D01*
X17129587Y-14067150D02*
X17148634Y-14038579D01*
X17148634Y-14038579D02*
X17158158Y-14019531D01*
X17158158Y-14019531D02*
X17167682Y-13990960D01*
X17167682Y-13990960D02*
X17177206Y-13943341D01*
X17177206Y-13943341D02*
X17177206Y-13905246D01*
X17177206Y-13905246D02*
X17167682Y-13857627D01*
X17167682Y-13857627D02*
X17158158Y-13829055D01*
X17158158Y-13829055D02*
X17148634Y-13810008D01*
X17148634Y-13810008D02*
X17129587Y-13781436D01*
X17129587Y-13781436D02*
X17120063Y-13771912D01*
X17481968Y-14076674D02*
X17472444Y-14067150D01*
X17472444Y-14067150D02*
X17453396Y-14038579D01*
X17453396Y-14038579D02*
X17443873Y-14019531D01*
X17443873Y-14019531D02*
X17434349Y-13990960D01*
X17434349Y-13990960D02*
X17424825Y-13943341D01*
X17424825Y-13943341D02*
X17424825Y-13905246D01*
X17424825Y-13905246D02*
X17434349Y-13857627D01*
X17434349Y-13857627D02*
X17443873Y-13829055D01*
X17443873Y-13829055D02*
X17453396Y-13810008D01*
X17453396Y-13810008D02*
X17472444Y-13781436D01*
X17472444Y-13781436D02*
X17481968Y-13771912D01*
X17558158Y-13867150D02*
X17558158Y-14000484D01*
X17558158Y-13886198D02*
X17567682Y-13876674D01*
X17567682Y-13876674D02*
X17586730Y-13867150D01*
X17586730Y-13867150D02*
X17615301Y-13867150D01*
X17615301Y-13867150D02*
X17634349Y-13876674D01*
X17634349Y-13876674D02*
X17643873Y-13895722D01*
X17643873Y-13895722D02*
X17643873Y-14000484D01*
X17767682Y-14000484D02*
X17748634Y-13990960D01*
X17748634Y-13990960D02*
X17739111Y-13981436D01*
X17739111Y-13981436D02*
X17729587Y-13962388D01*
X17729587Y-13962388D02*
X17729587Y-13905246D01*
X17729587Y-13905246D02*
X17739111Y-13886198D01*
X17739111Y-13886198D02*
X17748634Y-13876674D01*
X17748634Y-13876674D02*
X17767682Y-13867150D01*
X17767682Y-13867150D02*
X17796254Y-13867150D01*
X17796254Y-13867150D02*
X17815301Y-13876674D01*
X17815301Y-13876674D02*
X17824825Y-13886198D01*
X17824825Y-13886198D02*
X17834349Y-13905246D01*
X17834349Y-13905246D02*
X17834349Y-13962388D01*
X17834349Y-13962388D02*
X17824825Y-13981436D01*
X17824825Y-13981436D02*
X17815301Y-13990960D01*
X17815301Y-13990960D02*
X17796254Y-14000484D01*
X17796254Y-14000484D02*
X17767682Y-14000484D01*
X17891492Y-13867150D02*
X17967682Y-13867150D01*
X17920063Y-13800484D02*
X17920063Y-13971912D01*
X17920063Y-13971912D02*
X17929587Y-13990960D01*
X17929587Y-13990960D02*
X17948634Y-14000484D01*
X17948634Y-14000484D02*
X17967682Y-14000484D01*
X18186730Y-13867150D02*
X18186730Y-14067150D01*
X18186730Y-13876674D02*
X18205777Y-13867150D01*
X18205777Y-13867150D02*
X18243873Y-13867150D01*
X18243873Y-13867150D02*
X18262920Y-13876674D01*
X18262920Y-13876674D02*
X18272444Y-13886198D01*
X18272444Y-13886198D02*
X18281968Y-13905246D01*
X18281968Y-13905246D02*
X18281968Y-13962388D01*
X18281968Y-13962388D02*
X18272444Y-13981436D01*
X18272444Y-13981436D02*
X18262920Y-13990960D01*
X18262920Y-13990960D02*
X18243873Y-14000484D01*
X18243873Y-14000484D02*
X18205777Y-14000484D01*
X18205777Y-14000484D02*
X18186730Y-13990960D01*
X18396254Y-14000484D02*
X18377206Y-13990960D01*
X18377206Y-13990960D02*
X18367682Y-13971912D01*
X18367682Y-13971912D02*
X18367682Y-13800484D01*
X18558158Y-14000484D02*
X18558158Y-13895722D01*
X18558158Y-13895722D02*
X18548635Y-13876674D01*
X18548635Y-13876674D02*
X18529587Y-13867150D01*
X18529587Y-13867150D02*
X18491492Y-13867150D01*
X18491492Y-13867150D02*
X18472444Y-13876674D01*
X18558158Y-13990960D02*
X18539111Y-14000484D01*
X18539111Y-14000484D02*
X18491492Y-14000484D01*
X18491492Y-14000484D02*
X18472444Y-13990960D01*
X18472444Y-13990960D02*
X18462920Y-13971912D01*
X18462920Y-13971912D02*
X18462920Y-13952865D01*
X18462920Y-13952865D02*
X18472444Y-13933817D01*
X18472444Y-13933817D02*
X18491492Y-13924293D01*
X18491492Y-13924293D02*
X18539111Y-13924293D01*
X18539111Y-13924293D02*
X18558158Y-13914769D01*
X18624825Y-13867150D02*
X18701015Y-13867150D01*
X18653396Y-13800484D02*
X18653396Y-13971912D01*
X18653396Y-13971912D02*
X18662920Y-13990960D01*
X18662920Y-13990960D02*
X18681968Y-14000484D01*
X18681968Y-14000484D02*
X18701015Y-14000484D01*
X18843873Y-13990960D02*
X18824825Y-14000484D01*
X18824825Y-14000484D02*
X18786730Y-14000484D01*
X18786730Y-14000484D02*
X18767682Y-13990960D01*
X18767682Y-13990960D02*
X18758158Y-13971912D01*
X18758158Y-13971912D02*
X18758158Y-13895722D01*
X18758158Y-13895722D02*
X18767682Y-13876674D01*
X18767682Y-13876674D02*
X18786730Y-13867150D01*
X18786730Y-13867150D02*
X18824825Y-13867150D01*
X18824825Y-13867150D02*
X18843873Y-13876674D01*
X18843873Y-13876674D02*
X18853396Y-13895722D01*
X18853396Y-13895722D02*
X18853396Y-13914769D01*
X18853396Y-13914769D02*
X18758158Y-13933817D01*
X19024825Y-14000484D02*
X19024825Y-13800484D01*
X19024825Y-13990960D02*
X19005777Y-14000484D01*
X19005777Y-14000484D02*
X18967682Y-14000484D01*
X18967682Y-14000484D02*
X18948635Y-13990960D01*
X18948635Y-13990960D02*
X18939111Y-13981436D01*
X18939111Y-13981436D02*
X18929587Y-13962388D01*
X18929587Y-13962388D02*
X18929587Y-13905246D01*
X18929587Y-13905246D02*
X18939111Y-13886198D01*
X18939111Y-13886198D02*
X18948635Y-13876674D01*
X18948635Y-13876674D02*
X18967682Y-13867150D01*
X18967682Y-13867150D02*
X19005777Y-13867150D01*
X19005777Y-13867150D02*
X19024825Y-13876674D01*
X19101016Y-14076674D02*
X19110539Y-14067150D01*
X19110539Y-14067150D02*
X19129587Y-14038579D01*
X19129587Y-14038579D02*
X19139111Y-14019531D01*
X19139111Y-14019531D02*
X19148635Y-13990960D01*
X19148635Y-13990960D02*
X19158158Y-13943341D01*
X19158158Y-13943341D02*
X19158158Y-13905246D01*
X19158158Y-13905246D02*
X19148635Y-13857627D01*
X19148635Y-13857627D02*
X19139111Y-13829055D01*
X19139111Y-13829055D02*
X19129587Y-13810008D01*
X19129587Y-13810008D02*
X19110539Y-13781436D01*
X19110539Y-13781436D02*
X19101016Y-13771912D01*
M02*
