%TF.GenerationSoftware,KiCad,Pcbnew,10.0.4*%
%TF.CreationDate,2026-08-12T07:48:33+02:00*%
%TF.ProjectId,vogelstimmen_v3.0,766f6765-6c73-4746-996d-6d656e5f7633,rev?*%
%TF.SameCoordinates,Original*%
%TF.FileFunction,Soldermask,Top*%
%TF.FilePolarity,Negative*%
%FSLAX46Y46*%
G04 Gerber Fmt 4.6, Leading zero omitted, Abs format (unit mm)*
G04 Created by KiCad (PCBNEW 10.0.4) date 2026-08-12 07:48:33*
%MOMM*%
%LPD*%
G01*
G04 APERTURE LIST*
G04 Aperture macros list*
%AMRoundRect*
0 Rectangle with rounded corners*
0 $1 Rounding radius*
0 $2 $3 $4 $5 $6 $7 $8 $9 X,Y pos of 4 corners*
0 Add a 4 corners polygon primitive as box body*
4,1,4,$2,$3,$4,$5,$6,$7,$8,$9,$2,$3,0*
0 Add four circle primitives for the rounded corners*
1,1,$1+$1,$2,$3*
1,1,$1+$1,$4,$5*
1,1,$1+$1,$6,$7*
1,1,$1+$1,$8,$9*
0 Add four rect primitives between the rounded corners*
20,1,$1+$1,$2,$3,$4,$5,0*
20,1,$1+$1,$4,$5,$6,$7,0*
20,1,$1+$1,$6,$7,$8,$9,0*
20,1,$1+$1,$8,$9,$2,$3,0*%
G04 Aperture macros list end*
%ADD10RoundRect,0.200000X-0.200000X-0.275000X0.200000X-0.275000X0.200000X0.275000X-0.200000X0.275000X0*%
%ADD11C,3.200000*%
%ADD12RoundRect,0.200000X0.275000X-0.200000X0.275000X0.200000X-0.275000X0.200000X-0.275000X-0.200000X0*%
%ADD13RoundRect,0.112500X0.112500X-0.187500X0.112500X0.187500X-0.112500X0.187500X-0.112500X-0.187500X0*%
%ADD14RoundRect,0.250000X-0.375000X-0.625000X0.375000X-0.625000X0.375000X0.625000X-0.375000X0.625000X0*%
%ADD15RoundRect,0.250000X0.650000X-1.000000X0.650000X1.000000X-0.650000X1.000000X-0.650000X-1.000000X0*%
%ADD16RoundRect,0.150000X-0.150000X0.587500X-0.150000X-0.587500X0.150000X-0.587500X0.150000X0.587500X0*%
%ADD17RoundRect,0.112500X-0.112500X0.187500X-0.112500X-0.187500X0.112500X-0.187500X0.112500X0.187500X0*%
%ADD18RoundRect,0.250000X-0.375000X-0.850000X0.375000X-0.850000X0.375000X0.850000X-0.375000X0.850000X0*%
%ADD19C,1.100000*%
%ADD20RoundRect,0.249999X-0.850001X-0.850001X0.850001X-0.850001X0.850001X0.850001X-0.850001X0.850001X0*%
%ADD21C,2.200000*%
%ADD22RoundRect,0.150000X0.150000X-0.587500X0.150000X0.587500X-0.150000X0.587500X-0.150000X-0.587500X0*%
%ADD23RoundRect,0.150000X0.587500X0.150000X-0.587500X0.150000X-0.587500X-0.150000X0.587500X-0.150000X0*%
%ADD24RoundRect,0.112500X0.187500X0.112500X-0.187500X0.112500X-0.187500X-0.112500X0.187500X-0.112500X0*%
%ADD25C,1.000000*%
%ADD26RoundRect,0.249999X0.850001X0.850001X-0.850001X0.850001X-0.850001X-0.850001X0.850001X-0.850001X0*%
%ADD27RoundRect,0.250000X-0.250000X-0.475000X0.250000X-0.475000X0.250000X0.475000X-0.250000X0.475000X0*%
%ADD28RoundRect,0.250000X0.475000X-0.250000X0.475000X0.250000X-0.475000X0.250000X-0.475000X-0.250000X0*%
%ADD29C,1.700000*%
%ADD30RoundRect,0.200000X0.200000X0.275000X-0.200000X0.275000X-0.200000X-0.275000X0.200000X-0.275000X0*%
%ADD31RoundRect,0.062500X-0.187500X-0.062500X0.187500X-0.062500X0.187500X0.062500X-0.187500X0.062500X0*%
%ADD32R,0.900000X1.600000*%
%ADD33RoundRect,0.225000X-0.225000X-0.250000X0.225000X-0.250000X0.225000X0.250000X-0.225000X0.250000X0*%
%ADD34R,1.600000X1.600000*%
%ADD35C,1.600000*%
%ADD36O,1.600000X1.600000*%
%ADD37RoundRect,0.200000X-0.275000X0.200000X-0.275000X-0.200000X0.275000X-0.200000X0.275000X0.200000X0*%
%ADD38RoundRect,0.150000X-0.587500X-0.150000X0.587500X-0.150000X0.587500X0.150000X-0.587500X0.150000X0*%
G04 APERTURE END LIST*
D10*
%TO.C,R10*%
X164175000Y-98000000D03*
X165825000Y-98000000D03*
%TD*%
D11*
%TO.C,H4*%
X206000000Y-126000000D03*
%TD*%
D12*
%TO.C,R6*%
X156990000Y-114825000D03*
X156990000Y-113175000D03*
%TD*%
D13*
%TO.C,D3*%
X137000000Y-79550000D03*
X137000000Y-77450000D03*
%TD*%
%TO.C,D4*%
X140350000Y-79550000D03*
X140350000Y-77450000D03*
%TD*%
D14*
%TO.C,F1*%
X165600000Y-118000000D03*
X168400000Y-118000000D03*
%TD*%
D15*
%TO.C,D9*%
X171981250Y-122000000D03*
X171981250Y-118000000D03*
%TD*%
D16*
%TO.C,D14*%
X169000000Y-100437500D03*
X169950000Y-98562500D03*
X168050000Y-98562500D03*
%TD*%
D11*
%TO.C,H3*%
X127500000Y-126000000D03*
%TD*%
D12*
%TO.C,R13*%
X157000000Y-105825000D03*
X157000000Y-104175000D03*
%TD*%
D17*
%TO.C,D20*%
X145000000Y-90150000D03*
X145000000Y-92250000D03*
%TD*%
D18*
%TO.C,L1*%
X168425000Y-90975000D03*
X170575000Y-90975000D03*
%TD*%
D13*
%TO.C,D1*%
X130000000Y-79550000D03*
X130000000Y-77450000D03*
%TD*%
D19*
%TO.C,J2*%
X134580000Y-126232500D03*
X137120000Y-126232500D03*
D20*
X134580000Y-123692500D03*
D21*
X137120000Y-123692500D03*
%TD*%
D19*
%TO.C,J1*%
X162000000Y-126540000D03*
X164540000Y-126540000D03*
D20*
X162000000Y-124000000D03*
D21*
X164540000Y-124000000D03*
%TD*%
D22*
%TO.C,D12*%
X163000000Y-111062500D03*
X162050000Y-112937500D03*
X163950000Y-112937500D03*
%TD*%
D23*
%TO.C,Q7*%
X192437500Y-118950000D03*
X192437500Y-117050000D03*
X190562500Y-118000000D03*
%TD*%
D24*
%TO.C,D10*%
X189550000Y-115000000D03*
X187450000Y-115000000D03*
%TD*%
D17*
%TO.C,D18*%
X137960000Y-90150000D03*
X137960000Y-92250000D03*
%TD*%
D25*
%TO.C,TP1*%
X176000000Y-123500000D03*
%TD*%
D13*
%TO.C,D5*%
X144000000Y-79550000D03*
X144000000Y-77450000D03*
%TD*%
D19*
%TO.C,J6*%
X184730000Y-126732500D03*
X187270000Y-126732500D03*
D20*
X184730000Y-124192500D03*
D21*
X187270000Y-124192500D03*
%TD*%
D11*
%TO.C,H1*%
X127500000Y-73500000D03*
%TD*%
D26*
%TO.C,J3*%
X149390000Y-85132500D03*
D21*
X146850000Y-85132500D03*
X144310000Y-85132500D03*
X141770000Y-85132500D03*
X139230000Y-85132500D03*
X136690000Y-85132500D03*
X134150000Y-85132500D03*
X131610000Y-85132500D03*
%TD*%
D27*
%TO.C,C1*%
X176050000Y-120500000D03*
X177950000Y-120500000D03*
%TD*%
D17*
%TO.C,D21*%
X148500000Y-90150000D03*
X148500000Y-92250000D03*
%TD*%
D28*
%TO.C,C2*%
X159500000Y-91450000D03*
X159500000Y-89550000D03*
%TD*%
D17*
%TO.C,D22*%
X152000000Y-90450000D03*
X152000000Y-92550000D03*
%TD*%
D29*
%TO.C,U2*%
X130840000Y-95840000D03*
X133380000Y-95840000D03*
X135920000Y-95840000D03*
X138460000Y-95840000D03*
X141000000Y-95840000D03*
X143540000Y-95840000D03*
X146080000Y-95840000D03*
X148620000Y-95840000D03*
X151160000Y-95840000D03*
X151160000Y-116160000D03*
X148620000Y-116160000D03*
X146080000Y-116160000D03*
X143540000Y-116160000D03*
X141000000Y-116160000D03*
X138460000Y-116160000D03*
X135920000Y-116160000D03*
X133380000Y-116160000D03*
X130840000Y-116160000D03*
%TD*%
D25*
%TO.C,TP5*%
X143000000Y-124000000D03*
%TD*%
D10*
%TO.C,R4*%
X170175000Y-112000000D03*
X171825000Y-112000000D03*
%TD*%
D30*
%TO.C,R9*%
X158325000Y-101000000D03*
X156675000Y-101000000D03*
%TD*%
D27*
%TO.C,C3*%
X173050000Y-88500000D03*
X174950000Y-88500000D03*
%TD*%
D13*
%TO.C,D7*%
X151000000Y-79550000D03*
X151000000Y-77450000D03*
%TD*%
D10*
%TO.C,R8*%
X167675000Y-103500000D03*
X169325000Y-103500000D03*
%TD*%
D16*
%TO.C,D11*%
X156000000Y-123437500D03*
X156950000Y-121562500D03*
X155050000Y-121562500D03*
%TD*%
%TO.C,Q2*%
X173950000Y-102562500D03*
X172050000Y-102562500D03*
X173000000Y-104437500D03*
%TD*%
D13*
%TO.C,D8*%
X154500000Y-79550000D03*
X154500000Y-77450000D03*
%TD*%
D31*
%TO.C,U1*%
X163050000Y-90225000D03*
X163050000Y-90725000D03*
X163050000Y-91225000D03*
X163050000Y-91725000D03*
X164950000Y-91725000D03*
X164950000Y-91225000D03*
X164950000Y-90725000D03*
X164950000Y-90225000D03*
D32*
X164000000Y-90975000D03*
%TD*%
D33*
%TO.C,C20*%
X201950000Y-115000000D03*
X203500000Y-115000000D03*
%TD*%
D13*
%TO.C,D2*%
X133500000Y-79550000D03*
X133500000Y-77450000D03*
%TD*%
D10*
%TO.C,R3*%
X146175000Y-121000000D03*
X147825000Y-121000000D03*
%TD*%
D20*
%TO.C,J4*%
X158610000Y-74867500D03*
D21*
X161150000Y-74867500D03*
X163690000Y-74867500D03*
X166230000Y-74867500D03*
X168770000Y-74867500D03*
X171310000Y-74867500D03*
X173850000Y-74867500D03*
X176390000Y-74867500D03*
%TD*%
D34*
%TO.C,J5*%
X201620000Y-109200000D03*
D35*
X201620000Y-83800000D03*
D36*
X186380000Y-109200000D03*
D35*
X186380000Y-83800000D03*
%TD*%
D17*
%TO.C,D15*%
X127500000Y-90150000D03*
X127500000Y-92250000D03*
%TD*%
D37*
%TO.C,R20*%
X204000000Y-117625000D03*
X204000000Y-119275000D03*
%TD*%
D10*
%TO.C,R2*%
X175675000Y-112000000D03*
X177325000Y-112000000D03*
%TD*%
D12*
%TO.C,R5*%
X167000000Y-94825000D03*
X167000000Y-93175000D03*
%TD*%
D38*
%TO.C,Q5*%
X161562500Y-117050000D03*
X161562500Y-118950000D03*
X163437500Y-118000000D03*
%TD*%
D17*
%TO.C,D23*%
X200000000Y-117400000D03*
X200000000Y-119500000D03*
%TD*%
D11*
%TO.C,H2*%
X206000000Y-73500000D03*
%TD*%
D25*
%TO.C,TP3*%
X165000000Y-83500000D03*
%TD*%
D13*
%TO.C,D6*%
X147500000Y-79550000D03*
X147500000Y-77450000D03*
%TD*%
D25*
%TO.C,TP2*%
X173000000Y-83500000D03*
%TD*%
D27*
%TO.C,C4*%
X162050000Y-103000000D03*
X163950000Y-103000000D03*
%TD*%
D38*
%TO.C,Q3*%
X159052500Y-104050000D03*
X159052500Y-105950000D03*
X160927500Y-105000000D03*
%TD*%
D10*
%TO.C,R12*%
X172675000Y-115000000D03*
X174325000Y-115000000D03*
%TD*%
D12*
%TO.C,R21*%
X196000000Y-119150000D03*
X196000000Y-117500000D03*
%TD*%
D25*
%TO.C,TP4*%
X148000000Y-124000000D03*
%TD*%
D38*
%TO.C,Q6*%
X160500000Y-99000000D03*
X160500000Y-100900000D03*
X162375000Y-99950000D03*
%TD*%
D12*
%TO.C,R7*%
X157000000Y-119325000D03*
X157000000Y-117675000D03*
%TD*%
D38*
%TO.C,Q1*%
X166062500Y-105550000D03*
X166062500Y-107450000D03*
X167937500Y-106500000D03*
%TD*%
D17*
%TO.C,D16*%
X131000000Y-90150000D03*
X131000000Y-92250000D03*
%TD*%
D24*
%TO.C,D13*%
X176050000Y-108000000D03*
X173950000Y-108000000D03*
%TD*%
D17*
%TO.C,D17*%
X134500000Y-90150000D03*
X134500000Y-92250000D03*
%TD*%
D10*
%TO.C,R1*%
X161675000Y-108500000D03*
X163325000Y-108500000D03*
%TD*%
D17*
%TO.C,D19*%
X141500000Y-90150000D03*
X141500000Y-92250000D03*
%TD*%
D10*
%TO.C,R11*%
X156675000Y-97500000D03*
X158325000Y-97500000D03*
%TD*%
M02*
